;TYPE=PLATED
;Layer: PTH_Through_Via
;EasyEDA Pro Client v3.2.149.88089769, 2026-08-11 22:09:00
;Gerber Generator version 0.3
M48
METRIC,LZ,0000.00000
;Hole size 1 = 0.30500 METRIC
T01C0.30500
%
G05
G90
T01
X-34.274Y-5.77776
X-34.274Y-6.53336
X-2.54Y-6.5942
X-10.75306Y1.04725
X1.016Y14.66596
X6.477Y9.652
X-2.683Y8.128
X-7.112Y-3.302
X-4.683Y8.382
X1.016Y19.49196
X-0.127Y3.99796
X3.302Y0.508
X-17.018Y-3.4196
X-28.448Y3.937
X-19.939Y3.937
X-27.051Y-0.381
X-20.066Y-8.636
X-1.905Y-0.635
X10.287Y4.826
X12.573Y9.525
X-4.318Y16.383
X-8.763Y9.398
X-23.876Y16.002
X-14.478Y16.51
X7.747Y16.51
X-16.383Y24.511
X11.811Y24.511
X-38.989Y24.511
X8.763Y-6.35
X-37.973Y10.795
X-32.512Y16.383
X-32.131Y20.701
X-3.683Y12.192
X-2.032Y21.336
X8.636Y12.065
X-32.512Y10.922
X-33.147Y8.001
X-14.732Y8.128
M30