;TYPE=PLATED
;Layer: PTH_Through
;EasyEDA Pro Client v3.2.149.88089769, 2026-08-11 22:09:00
;Gerber Generator version 0.3
M48
METRIC,LZ,0000.00000
;Hole size 1 = 0.30500 METRIC
T01C0.30500
;Hole size 2 = 0.91440 METRIC
T02C0.91440
;Hole size 3 = 1.02001 METRIC
T03C1.02001
;Hole size 4 = 1.10002 METRIC
T04C1.10002
;Hole size 5 = 1.20000 METRIC
T05C1.20000
;Hole size 6 = 3.70000 METRIC
T06C3.70000
%
G05
G90
T01
X-34.274Y-5.77776
X-34.274Y-6.53336
X-2.54Y-6.5942
X-10.75306Y1.04725
X1.016Y14.66596
X6.477Y9.652
X-2.683Y8.128
X-7.112Y-3.302
X-4.683Y8.382
X1.016Y19.49196
X-0.127Y3.99796
X3.302Y0.508
X-17.018Y-3.4196
X-28.448Y3.937
X-19.939Y3.937
X-27.051Y-0.381
X-20.066Y-8.636
X-1.905Y-0.635
X10.287Y4.826
X12.573Y9.525
X-4.318Y16.383
X-8.763Y9.398
X-23.876Y16.002
X-14.478Y16.51
X7.747Y16.51
X-16.383Y24.511
X11.811Y24.511
X-38.989Y24.511
X8.763Y-6.35
X-37.973Y10.795
X-32.512Y16.383
X-32.131Y20.701
X-3.683Y12.192
X-2.032Y21.336
X8.636Y12.065
X-32.512Y10.922
X-33.147Y8.001
X-14.732Y8.128
T02
X15.494Y19.58925
X12.954Y19.58925
X-34.417Y19.58925
X-36.957Y19.58925
X-27.69671Y19.58925
X-30.23671Y19.58925
X-30.40716Y12.81856
X-27.86716Y12.81856
X-36.88416Y12.81856
X-34.34416Y12.81856
T03
X-9.779Y13.74725
X-7.239Y13.74725
T04
X-41.91Y1.93625
X-39.37Y1.93625
X-36.83Y1.93625
X-34.29Y1.93625
X-31.75Y1.93625
X15.367Y2.032
X15.367Y4.572
X15.367Y7.112
X15.367Y9.652
T05
X-4.59692Y-16.26074
X-10.89708Y-16.26074
X-4.59692Y-20.76076
X-10.89708Y-20.76076
X-34.28987Y-8.6097
X-36.82987Y-8.5997
X-31.74987Y-8.6097
T06
X-43.7164Y-10.99495
X25.516Y-11.12195
X25.6604Y19.35805
X-43.7338Y19.35805
M30