G04 Layer: DrillDrawingLayer*
G04 EasyEDA Pro v3.2.148, 2026-08-14 16:50:30*
G04 Gerber Generator version 0.3*
G04 Scale: 100 percent, Rotated: No, Reflected: No*
G04 Dimensions in millimeters*
G04 Leading zeros omitted, absolute positions, 4 integers and 5 decimals*
G04 Generated by one-click*
G04 Object Configs: Pad,Via,Track,Text,Image,Dimension,BoardOutline,BoardCutout,CopperFilled,SolidRegion,FPCStiffener,Line,PlaneZone,ComponentProperty,ComponentSilkscreen,TearDrop*
G04 Layer Configs: 1,2,3,4,5,6,7,8,9,10,11,13,14,56*
G04 Copper Areas: 0*
%FSLAX45Y45*%
%MOMM*%
%AMIconRect*4,1,4,0.28,-0.28,-0.28,-0.28,-0.28,0.28,0.28,0.28,0.28,-0.28,0*4,0,4,0.233333,-0.233333,0.233333,0.233333,-0.233333,0.233333,-0.233333,-0.233333,0.233333,-0.233333,0*%
%AMIconTriangle*4,1,3,-0.339593,0.240473,0.339593,0.240473,0,-0.37884,-0.339593,0.240473,0*4,0,3,-0.265673,0.19404,0,-0.27342,0.266233,0.19404,-0.265673,0.19404,0*%
%AMIconStar6*4,1,12,0.12068,0.20888,0.298527,0.172713,0.241313,0,0.298527,-0.17206,0.12068,-0.208227,0,-0.344073,-0.120073,-0.208227,-0.298573,-0.17206,-0.240707,0,-0.298573,0.17206,-0.120073,0.20888,0,0.344073,0.12068,0.20888,0*4,0,12,-0.000467,0.273467,-0.090067,0.171733,-0.237533,0.136733,-0.193667,-0.007467,-0.237533,-0.1372,-0.090067,-0.171733,-0.000467,-0.273933,0.090067,-0.171733,0.237533,-0.1372,0.194133,0.007,0.237533,0.1372,0.090067,0.171267,-0.000467,0.273467,0*%
%AMIconStar4*4,1,8,-0.311733,0.311733,0,0.202533,0.311733,0.311733,0.202533,0,0.311733,-0.311733,0,-0.202533,-0.304407,-0.311733,-0.202533,0,-0.311733,0.311733,0*4,0,8,0.233333,-0.233333,0.1512,0,0.233333,0.233333,0,0.1512,-0.233333,0.233333,-0.1512,0,-0.233333,-0.233333,0,-0.1512,0.233333,-0.233333,0*%
%AMIconPlus*4,1,12,0.1736,-0.28,-0.1736,-0.28,-0.1736,-0.1736,-0.28,-0.1736,-0.28,0.1736,-0.1736,0.1736,-0.1736,0.28,0.1736,0.28,0.1736,0.1736,0.28,0.1736,0.28,-0.1736,0.1736,-0.1736,0.1736,-0.28,0*4,0,12,0.126933,-0.233333,0.126933,-0.126933,0.233333,-0.126933,0.233333,0.126933,0.126933,0.126933,0.126933,0.233333,-0.126933,0.233333,-0.126933,0.126933,-0.233333,0.126933,-0.233333,-0.126933,-0.126933,-0.126933,-0.126933,-0.233333,0.126933,-0.233333,0*%
%ADD10IconRect*%
%ADD11C,0.616X0.522667*%
%ADD12IconTriangle*%
%ADD13IconStar6*%
%ADD14IconStar4*%
%ADD15IconPlus*%
%ADD16C,0.2032*%
%ADD17C,0.254*%
G75*


G04 Drill Drawing Start*
G54D10*
G01X-977900Y1374725D03*
G01X-723900Y1374725D03*
G54D11*
G01X-4373380Y1935805D03*
G01X-4371640Y-1099495D03*
G01X2551600Y-1112195D03*
G01X2566040Y1935805D03*
G54D12*
G01X-3682987Y-859970D03*
G01X-3428987Y-860970D03*
G01X-3174987Y-860970D03*
G01X-1089708Y-2076076D03*
G01X-1089708Y-1626074D03*
G01X-459692Y-2076076D03*
G01X-459692Y-1626074D03*
G54D13*
G01X-4191000Y193625D03*
G01X-3937000Y193625D03*
G01X-3683000Y193625D03*
G01X-3429000Y193625D03*
G01X-3175000Y193625D03*
G01X1536700Y203200D03*
G01X1536700Y457200D03*
G01X1536700Y711200D03*
G01X1536700Y965200D03*
G54D14*
G01X-3695700Y1958925D03*
G01X-3688416Y1281856D03*
G01X-3441700Y1958925D03*
G01X-3434416Y1281856D03*
G01X-3040716Y1281856D03*
G01X-3023671Y1958925D03*
G01X-2786716Y1281856D03*
G01X-2769671Y1958925D03*
G01X1295400Y1958925D03*
G01X1549400Y1958925D03*
G54D15*
G01X-3898900Y2451100D03*
G01X-3797300Y1079500D03*
G01X-3427400Y-653336D03*
G01X-3427400Y-577776D03*
G01X-3314700Y800100D03*
G01X-3251200Y1092200D03*
G01X-3251200Y1638300D03*
G01X-3213100Y2070100D03*
G01X-2844800Y393700D03*
G01X-2705100Y-38100D03*
G01X-2387600Y1600200D03*
G01X-2006600Y-863600D03*
G01X-1993900Y393700D03*
G01X-1701800Y-341960D03*
G01X-1638300Y2451100D03*
G01X-1473200Y812800D03*
G01X-1447800Y1651000D03*
G01X-1075306Y104725D03*
G01X-876300Y939800D03*
G01X-711200Y-330200D03*
G01X-468300Y838200D03*
G01X-431800Y1638300D03*
G01X-368300Y1219200D03*
G01X-268300Y812800D03*
G01X-254000Y-659420D03*
G01X-203200Y2133600D03*
G01X-190500Y-63500D03*
G01X-12700Y399796D03*
G01X101600Y1466596D03*
G01X101600Y1949196D03*
G01X330200Y50800D03*
G01X647700Y965200D03*
G01X774700Y1651000D03*
G01X863600Y1206500D03*
G01X876300Y-635000D03*
G01X1028700Y482600D03*
G01X1181100Y2451100D03*
G01X1257300Y952500D03*
G04 Drill Drawing End*

G04 Text Start*
G54D16*
G01X5398746Y2294119D02*
G01X5398746Y2173977D01*
G01X5398746Y2294119D02*
G01X5444466Y2173977D01*
G01X5490186Y2294119D02*
G01X5444466Y2173977D01*
G01X5490186Y2294119D02*
G01X5490186Y2173977D01*
G01X5606518Y2253987D02*
G01X5606518Y2173977D01*
G01X5606518Y2236969D02*
G01X5595088Y2248399D01*
G01X5583658Y2253987D01*
G01X5566640Y2253987D01*
G01X5555210Y2248399D01*
G01X5543780Y2236969D01*
G01X5537938Y2219697D01*
G01X5537938Y2208267D01*
G01X5543780Y2191249D01*
G01X5555210Y2179819D01*
G01X5566640Y2173977D01*
G01X5583658Y2173977D01*
G01X5595088Y2179819D01*
G01X5606518Y2191249D01*
G01X5654270Y2253987D02*
G01X5654270Y2173977D01*
G01X5654270Y2219697D02*
G01X5660112Y2236969D01*
G01X5671542Y2248399D01*
G01X5682972Y2253987D01*
G01X5699990Y2253987D01*
G01X5747742Y2294119D02*
G01X5747742Y2173977D01*
G01X5804892Y2253987D02*
G01X5747742Y2196837D01*
G01X5770602Y2219697D02*
G01X5810734Y2173977D01*
G01X6936026Y2265417D02*
G01X6930184Y2276847D01*
G01X6918754Y2288277D01*
G01X6907324Y2294119D01*
G01X6884464Y2294119D01*
G01X6873034Y2288277D01*
G01X6861604Y2276847D01*
G01X6856016Y2265417D01*
G01X6850174Y2248399D01*
G01X6850174Y2219697D01*
G01X6856016Y2202679D01*
G01X6861604Y2191249D01*
G01X6873034Y2179819D01*
G01X6884464Y2173977D01*
G01X6907324Y2173977D01*
G01X6918754Y2179819D01*
G01X6930184Y2191249D01*
G01X6936026Y2202679D01*
G01X7012480Y2253987D02*
G01X7001050Y2248399D01*
G01X6989620Y2236969D01*
G01X6983778Y2219697D01*
G01X6983778Y2208267D01*
G01X6989620Y2191249D01*
G01X7001050Y2179819D01*
G01X7012480Y2173977D01*
G01X7029498Y2173977D01*
G01X7040928Y2179819D01*
G01X7052358Y2191249D01*
G01X7058200Y2208267D01*
G01X7058200Y2219697D01*
G01X7052358Y2236969D01*
G01X7040928Y2248399D01*
G01X7029498Y2253987D01*
G01X7012480Y2253987D01*
G01X7105952Y2253987D02*
G01X7105952Y2196837D01*
G01X7111794Y2179819D01*
G01X7123224Y2173977D01*
G01X7140242Y2173977D01*
G01X7151672Y2179819D01*
G01X7168944Y2196837D01*
G01X7168944Y2253987D02*
G01X7168944Y2173977D01*
G01X7216696Y2253987D02*
G01X7216696Y2173977D01*
G01X7216696Y2231127D02*
G01X7233968Y2248399D01*
G01X7245398Y2253987D01*
G01X7262416Y2253987D01*
G01X7273846Y2248399D01*
G01X7279688Y2231127D01*
G01X7279688Y2173977D01*
G01X7344712Y2294119D02*
G01X7344712Y2196837D01*
G01X7350300Y2179819D01*
G01X7361730Y2173977D01*
G01X7373160Y2173977D01*
G01X7327440Y2253987D02*
G01X7367572Y2253987D01*
G01X8344348Y2276847D02*
G01X8332918Y2288277D01*
G01X8315900Y2294119D01*
G01X8293040Y2294119D01*
G01X8275768Y2288277D01*
G01X8264338Y2276847D01*
G01X8264338Y2265417D01*
G01X8270180Y2253987D01*
G01X8275768Y2248399D01*
G01X8287198Y2242557D01*
G01X8321488Y2231127D01*
G01X8332918Y2225539D01*
G01X8338760Y2219697D01*
G01X8344348Y2208267D01*
G01X8344348Y2191249D01*
G01X8332918Y2179819D01*
G01X8315900Y2173977D01*
G01X8293040Y2173977D01*
G01X8275768Y2179819D01*
G01X8264338Y2191249D01*
G01X8392100Y2294119D02*
G01X8397942Y2288277D01*
G01X8403530Y2294119D01*
G01X8397942Y2299707D01*
G01X8392100Y2294119D01*
G01X8397942Y2253987D02*
G01X8397942Y2173977D01*
G01X8514274Y2253987D02*
G01X8451282Y2173977D01*
G01X8451282Y2253987D02*
G01X8514274Y2253987D01*
G01X8451282Y2173977D02*
G01X8514274Y2173977D01*
G01X8562026Y2219697D02*
G01X8630606Y2219697D01*
G01X8630606Y2231127D01*
G01X8625018Y2242557D01*
G01X8619176Y2248399D01*
G01X8607746Y2253987D01*
G01X8590728Y2253987D01*
G01X8579298Y2248399D01*
G01X8567868Y2236969D01*
G01X8562026Y2219697D01*
G01X8562026Y2208267D01*
G01X8567868Y2191249D01*
G01X8579298Y2179819D01*
G01X8590728Y2173977D01*
G01X8607746Y2173977D01*
G01X8619176Y2179819D01*
G01X8630606Y2191249D01*
G01X12322387Y2294119D02*
G01X12322387Y2173977D01*
G01X12322387Y2294119D02*
G01X12373949Y2294119D01*
G01X12390967Y2288277D01*
G01X12396809Y2282689D01*
G01X12402397Y2271259D01*
G01X12402397Y2253987D01*
G01X12396809Y2242557D01*
G01X12390967Y2236969D01*
G01X12373949Y2231127D01*
G01X12322387Y2231127D01*
G01X12450149Y2294119D02*
G01X12450149Y2173977D01*
G01X12566481Y2253987D02*
G01X12566481Y2173977D01*
G01X12566481Y2236969D02*
G01X12555051Y2248399D01*
G01X12543621Y2253987D01*
G01X12526603Y2253987D01*
G01X12515173Y2248399D01*
G01X12503743Y2236969D01*
G01X12497901Y2219697D01*
G01X12497901Y2208267D01*
G01X12503743Y2191249D01*
G01X12515173Y2179819D01*
G01X12526603Y2173977D01*
G01X12543621Y2173977D01*
G01X12555051Y2179819D01*
G01X12566481Y2191249D01*
G01X12631505Y2294119D02*
G01X12631505Y2196837D01*
G01X12637093Y2179819D01*
G01X12648523Y2173977D01*
G01X12659953Y2173977D01*
G01X12614233Y2253987D02*
G01X12654365Y2253987D01*
G01X12707705Y2219697D02*
G01X12776285Y2219697D01*
G01X12776285Y2231127D01*
G01X12770697Y2242557D01*
G01X12764855Y2248399D01*
G01X12753425Y2253987D01*
G01X12736407Y2253987D01*
G01X12724977Y2248399D01*
G01X12713547Y2236969D01*
G01X12707705Y2219697D01*
G01X12707705Y2208267D01*
G01X12713547Y2191249D01*
G01X12724977Y2179819D01*
G01X12736407Y2173977D01*
G01X12753425Y2173977D01*
G01X12764855Y2179819D01*
G01X12776285Y2191249D01*
G01X12892617Y2294119D02*
G01X12892617Y2173977D01*
G01X12892617Y2236969D02*
G01X12881187Y2248399D01*
G01X12869757Y2253987D01*
G01X12852739Y2253987D01*
G01X12841309Y2248399D01*
G01X12829879Y2236969D01*
G01X12824037Y2219697D01*
G01X12824037Y2208267D01*
G01X12829879Y2191249D01*
G01X12841309Y2179819D01*
G01X12852739Y2173977D01*
G01X12869757Y2173977D01*
G01X12881187Y2179819D01*
G01X12892617Y2191249D01*
G01X13863804Y2276847D02*
G01X13852374Y2288277D01*
G01X13835356Y2294119D01*
G01X13812496Y2294119D01*
G01X13795224Y2288277D01*
G01X13783794Y2276847D01*
G01X13783794Y2265417D01*
G01X13789636Y2253987D01*
G01X13795224Y2248399D01*
G01X13806654Y2242557D01*
G01X13840944Y2231127D01*
G01X13852374Y2225539D01*
G01X13858216Y2219697D01*
G01X13863804Y2208267D01*
G01X13863804Y2191249D01*
G01X13852374Y2179819D01*
G01X13835356Y2173977D01*
G01X13812496Y2173977D01*
G01X13795224Y2179819D01*
G01X13783794Y2191249D01*
G01X13911556Y2294119D02*
G01X13911556Y2173977D01*
G01X13911556Y2231127D02*
G01X13928828Y2248399D01*
G01X13940258Y2253987D01*
G01X13957276Y2253987D01*
G01X13968706Y2248399D01*
G01X13974548Y2231127D01*
G01X13974548Y2173977D01*
G01X14090880Y2253987D02*
G01X14090880Y2173977D01*
G01X14090880Y2236969D02*
G01X14079450Y2248399D01*
G01X14068020Y2253987D01*
G01X14051002Y2253987D01*
G01X14039572Y2248399D01*
G01X14028142Y2236969D01*
G01X14022300Y2219697D01*
G01X14022300Y2208267D01*
G01X14028142Y2191249D01*
G01X14039572Y2179819D01*
G01X14051002Y2173977D01*
G01X14068020Y2173977D01*
G01X14079450Y2179819D01*
G01X14090880Y2191249D01*
G01X14138632Y2253987D02*
G01X14138632Y2134099D01*
G01X14138632Y2236969D02*
G01X14150062Y2248399D01*
G01X14161492Y2253987D01*
G01X14178764Y2253987D01*
G01X14190194Y2248399D01*
G01X14201624Y2236969D01*
G01X14207212Y2219697D01*
G01X14207212Y2208267D01*
G01X14201624Y2191249D01*
G01X14190194Y2179819D01*
G01X14178764Y2173977D01*
G01X14161492Y2173977D01*
G01X14150062Y2179819D01*
G01X14138632Y2191249D01*
G01X14254964Y2219697D02*
G01X14323544Y2219697D01*
G01X14323544Y2231127D01*
G01X14317956Y2242557D01*
G01X14312114Y2248399D01*
G01X14300684Y2253987D01*
G01X14283666Y2253987D01*
G01X14272236Y2248399D01*
G01X14260806Y2236969D01*
G01X14254964Y2219697D01*
G01X14254964Y2208267D01*
G01X14260806Y2191249D01*
G01X14272236Y2179819D01*
G01X14283666Y2173977D01*
G01X14300684Y2173977D01*
G01X14312114Y2179819D01*
G01X14323544Y2191249D01*
G01X15214975Y2294119D02*
G01X15260695Y2173977D01*
G01X15306415Y2294119D02*
G01X15260695Y2173977D01*
G01X15354167Y2294119D02*
G01X15360009Y2288277D01*
G01X15365597Y2294119D01*
G01X15360009Y2299707D01*
G01X15354167Y2294119D01*
G01X15360009Y2253987D02*
G01X15360009Y2173977D01*
G01X15481929Y2253987D02*
G01X15481929Y2173977D01*
G01X15481929Y2236969D02*
G01X15470499Y2248399D01*
G01X15459069Y2253987D01*
G01X15442051Y2253987D01*
G01X15430621Y2248399D01*
G01X15419191Y2236969D01*
G01X15413349Y2219697D01*
G01X15413349Y2208267D01*
G01X15419191Y2191249D01*
G01X15430621Y2179819D01*
G01X15442051Y2173977D01*
G01X15459069Y2173977D01*
G01X15470499Y2179819D01*
G01X15481929Y2191249D01*
G01X15632551Y2316979D02*
G01X15529681Y2134099D01*
G01X15680303Y2294119D02*
G01X15680303Y2173977D01*
G01X15680303Y2294119D02*
G01X15731865Y2294119D01*
G01X15748883Y2288277D01*
G01X15754725Y2282689D01*
G01X15760313Y2271259D01*
G01X15760313Y2253987D01*
G01X15754725Y2242557D01*
G01X15748883Y2236969D01*
G01X15731865Y2231127D01*
G01X15680303Y2231127D01*
G01X15876645Y2253987D02*
G01X15876645Y2173977D01*
G01X15876645Y2236969D02*
G01X15865215Y2248399D01*
G01X15853785Y2253987D01*
G01X15836767Y2253987D01*
G01X15825337Y2248399D01*
G01X15813907Y2236969D01*
G01X15808065Y2219697D01*
G01X15808065Y2208267D01*
G01X15813907Y2191249D01*
G01X15825337Y2179819D01*
G01X15836767Y2173977D01*
G01X15853785Y2173977D01*
G01X15865215Y2179819D01*
G01X15876645Y2191249D01*
G01X15992977Y2294119D02*
G01X15992977Y2173977D01*
G01X15992977Y2236969D02*
G01X15981547Y2248399D01*
G01X15970117Y2253987D01*
G01X15953099Y2253987D01*
G01X15941669Y2248399D01*
G01X15930239Y2236969D01*
G01X15924397Y2219697D01*
G01X15924397Y2208267D01*
G01X15930239Y2191249D01*
G01X15941669Y2179819D01*
G01X15953099Y2173977D01*
G01X15970117Y2173977D01*
G01X15981547Y2179819D01*
G01X15992977Y2191249D01*
G01X16884154Y2294119D02*
G01X16884154Y2173977D01*
G01X16884154Y2294119D02*
G01X16935716Y2294119D01*
G01X16952734Y2288277D01*
G01X16958576Y2282689D01*
G01X16964164Y2271259D01*
G01X16964164Y2253987D01*
G01X16958576Y2242557D01*
G01X16952734Y2236969D01*
G01X16935716Y2231127D01*
G01X16884154Y2231127D01*
G01X17080496Y2253987D02*
G01X17080496Y2173977D01*
G01X17080496Y2236969D02*
G01X17069066Y2248399D01*
G01X17057636Y2253987D01*
G01X17040618Y2253987D01*
G01X17029188Y2248399D01*
G01X17017758Y2236969D01*
G01X17011916Y2219697D01*
G01X17011916Y2208267D01*
G01X17017758Y2191249D01*
G01X17029188Y2179819D01*
G01X17040618Y2173977D01*
G01X17057636Y2173977D01*
G01X17069066Y2179819D01*
G01X17080496Y2191249D01*
G01X17196828Y2294119D02*
G01X17196828Y2173977D01*
G01X17196828Y2236969D02*
G01X17185398Y2248399D01*
G01X17173968Y2253987D01*
G01X17156950Y2253987D01*
G01X17145520Y2248399D01*
G01X17134090Y2236969D01*
G01X17128248Y2219697D01*
G01X17128248Y2208267D01*
G01X17134090Y2191249D01*
G01X17145520Y2179819D01*
G01X17156950Y2173977D01*
G01X17173968Y2173977D01*
G01X17185398Y2179819D01*
G01X17196828Y2191249D01*
G01X17452606Y2276847D02*
G01X17441176Y2288277D01*
G01X17424158Y2294119D01*
G01X17401298Y2294119D01*
G01X17384026Y2288277D01*
G01X17372596Y2276847D01*
G01X17372596Y2265417D01*
G01X17378438Y2253987D01*
G01X17384026Y2248399D01*
G01X17395456Y2242557D01*
G01X17429746Y2231127D01*
G01X17441176Y2225539D01*
G01X17447018Y2219697D01*
G01X17452606Y2208267D01*
G01X17452606Y2191249D01*
G01X17441176Y2179819D01*
G01X17424158Y2173977D01*
G01X17401298Y2173977D01*
G01X17384026Y2179819D01*
G01X17372596Y2191249D01*
G01X17500358Y2294119D02*
G01X17500358Y2173977D01*
G01X17500358Y2231127D02*
G01X17517630Y2248399D01*
G01X17529060Y2253987D01*
G01X17546078Y2253987D01*
G01X17557508Y2248399D01*
G01X17563350Y2231127D01*
G01X17563350Y2173977D01*
G01X17679682Y2253987D02*
G01X17679682Y2173977D01*
G01X17679682Y2236969D02*
G01X17668252Y2248399D01*
G01X17656822Y2253987D01*
G01X17639804Y2253987D01*
G01X17628374Y2248399D01*
G01X17616944Y2236969D01*
G01X17611102Y2219697D01*
G01X17611102Y2208267D01*
G01X17616944Y2191249D01*
G01X17628374Y2179819D01*
G01X17639804Y2173977D01*
G01X17656822Y2173977D01*
G01X17668252Y2179819D01*
G01X17679682Y2191249D01*
G01X17727434Y2253987D02*
G01X17727434Y2134099D01*
G01X17727434Y2236969D02*
G01X17738864Y2248399D01*
G01X17750294Y2253987D01*
G01X17767566Y2253987D01*
G01X17778996Y2248399D01*
G01X17790426Y2236969D01*
G01X17796014Y2219697D01*
G01X17796014Y2208267D01*
G01X17790426Y2191249D01*
G01X17778996Y2179819D01*
G01X17767566Y2173977D01*
G01X17750294Y2173977D01*
G01X17738864Y2179819D01*
G01X17727434Y2191249D01*
G01X17843766Y2219697D02*
G01X17912346Y2219697D01*
G01X17912346Y2231127D01*
G01X17906758Y2242557D01*
G01X17900916Y2248399D01*
G01X17889486Y2253987D01*
G01X17872468Y2253987D01*
G01X17861038Y2248399D01*
G01X17849608Y2236969D01*
G01X17843766Y2219697D01*
G01X17843766Y2208267D01*
G01X17849608Y2191249D01*
G01X17861038Y2179819D01*
G01X17872468Y2173977D01*
G01X17889486Y2173977D01*
G01X17900916Y2179819D01*
G01X17912346Y2191249D01*
G01X18803523Y2294119D02*
G01X18803523Y2173977D01*
G01X18803523Y2173977D02*
G01X18872103Y2173977D01*
G01X18988435Y2253987D02*
G01X18988435Y2173977D01*
G01X18988435Y2236969D02*
G01X18977005Y2248399D01*
G01X18965575Y2253987D01*
G01X18948557Y2253987D01*
G01X18937127Y2248399D01*
G01X18925697Y2236969D01*
G01X18919855Y2219697D01*
G01X18919855Y2208267D01*
G01X18925697Y2191249D01*
G01X18937127Y2179819D01*
G01X18948557Y2173977D01*
G01X18965575Y2173977D01*
G01X18977005Y2179819D01*
G01X18988435Y2191249D01*
G01X19042029Y2253987D02*
G01X19076319Y2173977D01*
G01X19110609Y2253987D02*
G01X19076319Y2173977D01*
G01X19064889Y2151117D01*
G01X19053459Y2139687D01*
G01X19042029Y2134099D01*
G01X19036187Y2134099D01*
G01X19158361Y2219697D02*
G01X19226941Y2219697D01*
G01X19226941Y2231127D01*
G01X19221353Y2242557D01*
G01X19215511Y2248399D01*
G01X19204081Y2253987D01*
G01X19187063Y2253987D01*
G01X19175633Y2248399D01*
G01X19164203Y2236969D01*
G01X19158361Y2219697D01*
G01X19158361Y2208267D01*
G01X19164203Y2191249D01*
G01X19175633Y2179819D01*
G01X19187063Y2173977D01*
G01X19204081Y2173977D01*
G01X19215511Y2179819D01*
G01X19226941Y2191249D01*
G01X19274693Y2253987D02*
G01X19274693Y2173977D01*
G01X19274693Y2219697D02*
G01X19280535Y2236969D01*
G01X19291965Y2248399D01*
G01X19303395Y2253987D01*
G01X19320413Y2253987D01*
G01X19496181Y2294119D02*
G01X19496181Y2173977D01*
G01X19496181Y2294119D02*
G01X19547743Y2294119D01*
G01X19564761Y2288277D01*
G01X19570603Y2282689D01*
G01X19576191Y2271259D01*
G01X19576191Y2253987D01*
G01X19570603Y2242557D01*
G01X19564761Y2236969D01*
G01X19547743Y2231127D01*
G01X19496181Y2231127D01*
G01X19692523Y2253987D02*
G01X19692523Y2173977D01*
G01X19692523Y2236969D02*
G01X19681093Y2248399D01*
G01X19669663Y2253987D01*
G01X19652645Y2253987D01*
G01X19641215Y2248399D01*
G01X19629785Y2236969D01*
G01X19623943Y2219697D01*
G01X19623943Y2208267D01*
G01X19629785Y2191249D01*
G01X19641215Y2179819D01*
G01X19652645Y2173977D01*
G01X19669663Y2173977D01*
G01X19681093Y2179819D01*
G01X19692523Y2191249D01*
G01X19740275Y2294119D02*
G01X19746117Y2288277D01*
G01X19751705Y2294119D01*
G01X19746117Y2299707D01*
G01X19740275Y2294119D01*
G01X19746117Y2253987D02*
G01X19746117Y2173977D01*
G01X19799457Y2253987D02*
G01X19799457Y2173977D01*
G01X19799457Y2219697D02*
G01X19805299Y2236969D01*
G01X19816729Y2248399D01*
G01X19828159Y2253987D01*
G01X19845177Y2253987D01*
G01X6856016Y1684846D02*
G01X6856016Y1690688D01*
G01X6861604Y1702118D01*
G01X6867446Y1707706D01*
G01X6878876Y1713548D01*
G01X6901736Y1713548D01*
G01X6913166Y1707706D01*
G01X6918754Y1702118D01*
G01X6924596Y1690688D01*
G01X6924596Y1679258D01*
G01X6918754Y1667828D01*
G01X6907324Y1650556D01*
G01X6850174Y1593406D01*
G01X6930184Y1593406D01*
G01X8321488Y1713548D02*
G01X8264338Y1633538D01*
G01X8350190Y1633538D01*
G01X8321488Y1713548D02*
G01X8321488Y1593406D01*
G01X8432232Y1713548D02*
G01X8415214Y1707706D01*
G01X8403784Y1690688D01*
G01X8397942Y1661986D01*
G01X8397942Y1644968D01*
G01X8403784Y1616266D01*
G01X8415214Y1599248D01*
G01X8432232Y1593406D01*
G01X8443662Y1593406D01*
G01X8460934Y1599248D01*
G01X8472364Y1616266D01*
G01X8477952Y1644968D01*
G01X8477952Y1661986D01*
G01X8472364Y1690688D01*
G01X8460934Y1707706D01*
G01X8443662Y1713548D01*
G01X8432232Y1713548D01*
G01X8531546Y1622108D02*
G01X8525704Y1616266D01*
G01X8531546Y1610678D01*
G01X8537134Y1616266D01*
G01X8531546Y1622108D01*
G01X8590728Y1684846D02*
G01X8590728Y1690688D01*
G01X8596316Y1702118D01*
G01X8602158Y1707706D01*
G01X8613588Y1713548D01*
G01X8636448Y1713548D01*
G01X8647878Y1707706D01*
G01X8653466Y1702118D01*
G01X8659308Y1690688D01*
G01X8659308Y1679258D01*
G01X8653466Y1667828D01*
G01X8642036Y1650556D01*
G01X8584886Y1593406D01*
G01X8664896Y1593406D01*
G01X8712648Y1673416D02*
G01X8775640Y1593406D01*
G01X8775640Y1673416D02*
G01X8712648Y1593406D01*
G01X8880542Y1713548D02*
G01X8823392Y1633538D01*
G01X8909244Y1633538D01*
G01X8880542Y1713548D02*
G01X8880542Y1593406D01*
G01X8991286Y1713548D02*
G01X8974268Y1707706D01*
G01X8962838Y1690688D01*
G01X8956996Y1661986D01*
G01X8956996Y1644968D01*
G01X8962838Y1616266D01*
G01X8974268Y1599248D01*
G01X8991286Y1593406D01*
G01X9002716Y1593406D01*
G01X9019988Y1599248D01*
G01X9031418Y1616266D01*
G01X9037006Y1644968D01*
G01X9037006Y1661986D01*
G01X9031418Y1690688D01*
G01X9019988Y1707706D01*
G01X9002716Y1713548D01*
G01X8991286Y1713548D01*
G01X9090600Y1622108D02*
G01X9084758Y1616266D01*
G01X9090600Y1610678D01*
G01X9096188Y1616266D01*
G01X9090600Y1622108D01*
G01X9149782Y1684846D02*
G01X9149782Y1690688D01*
G01X9155370Y1702118D01*
G01X9161212Y1707706D01*
G01X9172642Y1713548D01*
G01X9195502Y1713548D01*
G01X9206932Y1707706D01*
G01X9212520Y1702118D01*
G01X9218362Y1690688D01*
G01X9218362Y1679258D01*
G01X9212520Y1667828D01*
G01X9201090Y1650556D01*
G01X9143940Y1593406D01*
G01X9223950Y1593406D01*
G01X9271702Y1673416D02*
G01X9271702Y1593406D01*
G01X9271702Y1650556D02*
G01X9288974Y1667828D01*
G01X9300404Y1673416D01*
G01X9317422Y1673416D01*
G01X9328852Y1667828D01*
G01X9334694Y1650556D01*
G01X9334694Y1593406D01*
G01X9334694Y1650556D02*
G01X9351712Y1667828D01*
G01X9363142Y1673416D01*
G01X9380414Y1673416D01*
G01X9391844Y1667828D01*
G01X9397432Y1650556D01*
G01X9397432Y1593406D01*
G01X9445184Y1713548D02*
G01X9451026Y1707706D01*
G01X9456614Y1713548D01*
G01X9451026Y1719136D01*
G01X9445184Y1713548D01*
G01X9451026Y1673416D02*
G01X9451026Y1593406D01*
G01X9504366Y1713548D02*
G01X9504366Y1593406D01*
G01X9592250Y1736408D02*
G01X9580820Y1724978D01*
G01X9569390Y1707706D01*
G01X9557960Y1684846D01*
G01X9552118Y1656398D01*
G01X9552118Y1633538D01*
G01X9557960Y1604836D01*
G01X9569390Y1581976D01*
G01X9580820Y1564958D01*
G01X9592250Y1553528D01*
G01X9640002Y1690688D02*
G01X9651432Y1696276D01*
G01X9668704Y1713548D01*
G01X9668704Y1593406D01*
G01X9722298Y1622108D02*
G01X9716456Y1616266D01*
G01X9722298Y1610678D01*
G01X9727886Y1616266D01*
G01X9722298Y1622108D01*
G01X9809928Y1713548D02*
G01X9792910Y1707706D01*
G01X9781480Y1690688D01*
G01X9775638Y1661986D01*
G01X9775638Y1644968D01*
G01X9781480Y1616266D01*
G01X9792910Y1599248D01*
G01X9809928Y1593406D01*
G01X9821358Y1593406D01*
G01X9838630Y1599248D01*
G01X9850060Y1616266D01*
G01X9855648Y1644968D01*
G01X9855648Y1661986D01*
G01X9850060Y1690688D01*
G01X9838630Y1707706D01*
G01X9821358Y1713548D01*
G01X9809928Y1713548D01*
G01X9909242Y1684846D02*
G01X9909242Y1690688D01*
G01X9914830Y1702118D01*
G01X9920672Y1707706D01*
G01X9932102Y1713548D01*
G01X9954962Y1713548D01*
G01X9966392Y1707706D01*
G01X9971980Y1702118D01*
G01X9977822Y1690688D01*
G01X9977822Y1679258D01*
G01X9971980Y1667828D01*
G01X9960550Y1650556D01*
G01X9903400Y1593406D01*
G01X9983410Y1593406D01*
G01X10065452Y1713548D02*
G01X10048434Y1707706D01*
G01X10037004Y1690688D01*
G01X10031162Y1661986D01*
G01X10031162Y1644968D01*
G01X10037004Y1616266D01*
G01X10048434Y1599248D01*
G01X10065452Y1593406D01*
G01X10076882Y1593406D01*
G01X10094154Y1599248D01*
G01X10105584Y1616266D01*
G01X10111172Y1644968D01*
G01X10111172Y1661986D01*
G01X10105584Y1690688D01*
G01X10094154Y1707706D01*
G01X10076882Y1713548D01*
G01X10065452Y1713548D01*
G01X10158924Y1673416D02*
G01X10221916Y1593406D01*
G01X10221916Y1673416D02*
G01X10158924Y1593406D01*
G01X10269668Y1690688D02*
G01X10281098Y1696276D01*
G01X10298370Y1713548D01*
G01X10298370Y1593406D01*
G01X10351964Y1622108D02*
G01X10346122Y1616266D01*
G01X10351964Y1610678D01*
G01X10357552Y1616266D01*
G01X10351964Y1622108D01*
G01X10439594Y1713548D02*
G01X10422576Y1707706D01*
G01X10411146Y1690688D01*
G01X10405304Y1661986D01*
G01X10405304Y1644968D01*
G01X10411146Y1616266D01*
G01X10422576Y1599248D01*
G01X10439594Y1593406D01*
G01X10451024Y1593406D01*
G01X10468296Y1599248D01*
G01X10479726Y1616266D01*
G01X10485314Y1644968D01*
G01X10485314Y1661986D01*
G01X10479726Y1690688D01*
G01X10468296Y1707706D01*
G01X10451024Y1713548D01*
G01X10439594Y1713548D01*
G01X10538908Y1684846D02*
G01X10538908Y1690688D01*
G01X10544496Y1702118D01*
G01X10550338Y1707706D01*
G01X10561768Y1713548D01*
G01X10584628Y1713548D01*
G01X10596058Y1707706D01*
G01X10601646Y1702118D01*
G01X10607488Y1690688D01*
G01X10607488Y1679258D01*
G01X10601646Y1667828D01*
G01X10590216Y1650556D01*
G01X10533066Y1593406D01*
G01X10613076Y1593406D01*
G01X10695118Y1713548D02*
G01X10678100Y1707706D01*
G01X10666670Y1690688D01*
G01X10660828Y1661986D01*
G01X10660828Y1644968D01*
G01X10666670Y1616266D01*
G01X10678100Y1599248D01*
G01X10695118Y1593406D01*
G01X10706548Y1593406D01*
G01X10723820Y1599248D01*
G01X10735250Y1616266D01*
G01X10740838Y1644968D01*
G01X10740838Y1661986D01*
G01X10735250Y1690688D01*
G01X10723820Y1707706D01*
G01X10706548Y1713548D01*
G01X10695118Y1713548D01*
G01X10788590Y1673416D02*
G01X10788590Y1593406D01*
G01X10788590Y1650556D02*
G01X10805862Y1667828D01*
G01X10817292Y1673416D01*
G01X10834310Y1673416D01*
G01X10845740Y1667828D01*
G01X10851582Y1650556D01*
G01X10851582Y1593406D01*
G01X10851582Y1650556D02*
G01X10868600Y1667828D01*
G01X10880030Y1673416D01*
G01X10897302Y1673416D01*
G01X10908732Y1667828D01*
G01X10914320Y1650556D01*
G01X10914320Y1593406D01*
G01X10962072Y1673416D02*
G01X10962072Y1593406D01*
G01X10962072Y1650556D02*
G01X10979344Y1667828D01*
G01X10990774Y1673416D01*
G01X11007792Y1673416D01*
G01X11019222Y1667828D01*
G01X11025064Y1650556D01*
G01X11025064Y1593406D01*
G01X11025064Y1650556D02*
G01X11042082Y1667828D01*
G01X11053512Y1673416D01*
G01X11070784Y1673416D01*
G01X11082214Y1667828D01*
G01X11087802Y1650556D01*
G01X11087802Y1593406D01*
G01X11135554Y1736408D02*
G01X11146984Y1724978D01*
G01X11158414Y1707706D01*
G01X11169844Y1684846D01*
G01X11175686Y1656398D01*
G01X11175686Y1633538D01*
G01X11169844Y1604836D01*
G01X11158414Y1581976D01*
G01X11146984Y1564958D01*
G01X11135554Y1553528D01*
G01X12322387Y1713548D02*
G01X12322387Y1593406D01*
G01X12322387Y1713548D02*
G01X12373949Y1713548D01*
G01X12390967Y1707706D01*
G01X12396809Y1702118D01*
G01X12402397Y1690688D01*
G01X12402397Y1673416D01*
G01X12396809Y1661986D01*
G01X12390967Y1656398D01*
G01X12373949Y1650556D01*
G01X12322387Y1650556D01*
G01X12490281Y1713548D02*
G01X12490281Y1593406D01*
G01X12450149Y1713548D02*
G01X12530159Y1713548D01*
G01X12577911Y1713548D02*
G01X12577911Y1593406D01*
G01X12657921Y1713548D02*
G01X12657921Y1593406D01*
G01X12577911Y1656398D02*
G01X12657921Y1656398D01*
G01X13783794Y1713548D02*
G01X13783794Y1593406D01*
G01X13783794Y1713548D02*
G01X13835356Y1713548D01*
G01X13852374Y1707706D01*
G01X13858216Y1702118D01*
G01X13863804Y1690688D01*
G01X13863804Y1679258D01*
G01X13858216Y1667828D01*
G01X13852374Y1661986D01*
G01X13835356Y1656398D01*
G01X13783794Y1656398D01*
G01X13823926Y1656398D02*
G01X13863804Y1593406D01*
G01X13940258Y1673416D02*
G01X13928828Y1667828D01*
G01X13917398Y1656398D01*
G01X13911556Y1639126D01*
G01X13911556Y1627696D01*
G01X13917398Y1610678D01*
G01X13928828Y1599248D01*
G01X13940258Y1593406D01*
G01X13957276Y1593406D01*
G01X13968706Y1599248D01*
G01X13980136Y1610678D01*
G01X13985978Y1627696D01*
G01X13985978Y1639126D01*
G01X13980136Y1656398D01*
G01X13968706Y1667828D01*
G01X13957276Y1673416D01*
G01X13940258Y1673416D01*
G01X14033730Y1673416D02*
G01X14033730Y1616266D01*
G01X14039572Y1599248D01*
G01X14051002Y1593406D01*
G01X14068020Y1593406D01*
G01X14079450Y1599248D01*
G01X14096722Y1616266D01*
G01X14096722Y1673416D02*
G01X14096722Y1593406D01*
G01X14144474Y1673416D02*
G01X14144474Y1593406D01*
G01X14144474Y1650556D02*
G01X14161746Y1667828D01*
G01X14173176Y1673416D01*
G01X14190194Y1673416D01*
G01X14201624Y1667828D01*
G01X14207466Y1650556D01*
G01X14207466Y1593406D01*
G01X14323798Y1713548D02*
G01X14323798Y1593406D01*
G01X14323798Y1656398D02*
G01X14312368Y1667828D01*
G01X14300938Y1673416D01*
G01X14283920Y1673416D01*
G01X14272490Y1667828D01*
G01X14261060Y1656398D01*
G01X14255218Y1639126D01*
G01X14255218Y1627696D01*
G01X14261060Y1610678D01*
G01X14272490Y1599248D01*
G01X14283920Y1593406D01*
G01X14300938Y1593406D01*
G01X14312368Y1599248D01*
G01X14323798Y1610678D01*
G01X15214975Y1713548D02*
G01X15214975Y1593406D01*
G01X15214975Y1713548D02*
G01X15266537Y1713548D01*
G01X15283555Y1707706D01*
G01X15289397Y1702118D01*
G01X15294985Y1690688D01*
G01X15294985Y1673416D01*
G01X15289397Y1661986D01*
G01X15283555Y1656398D01*
G01X15266537Y1650556D01*
G01X15214975Y1650556D01*
G01X15411317Y1673416D02*
G01X15411317Y1593406D01*
G01X15411317Y1656398D02*
G01X15399887Y1667828D01*
G01X15388457Y1673416D01*
G01X15371439Y1673416D01*
G01X15360009Y1667828D01*
G01X15348579Y1656398D01*
G01X15342737Y1639126D01*
G01X15342737Y1627696D01*
G01X15348579Y1610678D01*
G01X15360009Y1599248D01*
G01X15371439Y1593406D01*
G01X15388457Y1593406D01*
G01X15399887Y1599248D01*
G01X15411317Y1610678D01*
G01X15527649Y1713548D02*
G01X15527649Y1593406D01*
G01X15527649Y1656398D02*
G01X15516219Y1667828D01*
G01X15504789Y1673416D01*
G01X15487771Y1673416D01*
G01X15476341Y1667828D01*
G01X15464911Y1656398D01*
G01X15459069Y1639126D01*
G01X15459069Y1627696D01*
G01X15464911Y1610678D01*
G01X15476341Y1599248D01*
G01X15487771Y1593406D01*
G01X15504789Y1593406D01*
G01X15516219Y1599248D01*
G01X15527649Y1610678D01*
G01X16924286Y1736408D02*
G01X16912856Y1724978D01*
G01X16901426Y1707706D01*
G01X16889996Y1684846D01*
G01X16884154Y1656398D01*
G01X16884154Y1633538D01*
G01X16889996Y1604836D01*
G01X16901426Y1581976D01*
G01X16912856Y1564958D01*
G01X16924286Y1553528D01*
G01X16972038Y1713548D02*
G01X16972038Y1593406D01*
G01X16972038Y1713548D02*
G01X17017758Y1593406D01*
G01X17063478Y1713548D02*
G01X17017758Y1593406D01*
G01X17063478Y1713548D02*
G01X17063478Y1593406D01*
G01X17111230Y1713548D02*
G01X17117072Y1707706D01*
G01X17122660Y1713548D01*
G01X17117072Y1719136D01*
G01X17111230Y1713548D01*
G01X17117072Y1673416D02*
G01X17117072Y1593406D01*
G01X17170412Y1673416D02*
G01X17233404Y1593406D01*
G01X17233404Y1673416D02*
G01X17170412Y1593406D01*
G01X17281156Y1639126D02*
G01X17349736Y1639126D01*
G01X17349736Y1650556D01*
G01X17344148Y1661986D01*
G01X17338306Y1667828D01*
G01X17326876Y1673416D01*
G01X17309858Y1673416D01*
G01X17298428Y1667828D01*
G01X17286998Y1656398D01*
G01X17281156Y1639126D01*
G01X17281156Y1627696D01*
G01X17286998Y1610678D01*
G01X17298428Y1599248D01*
G01X17309858Y1593406D01*
G01X17326876Y1593406D01*
G01X17338306Y1599248D01*
G01X17349736Y1610678D01*
G01X17466068Y1713548D02*
G01X17466068Y1593406D01*
G01X17466068Y1656398D02*
G01X17454638Y1667828D01*
G01X17443208Y1673416D01*
G01X17426190Y1673416D01*
G01X17414760Y1667828D01*
G01X17403330Y1656398D01*
G01X17397488Y1639126D01*
G01X17397488Y1627696D01*
G01X17403330Y1610678D01*
G01X17414760Y1599248D01*
G01X17426190Y1593406D01*
G01X17443208Y1593406D01*
G01X17454638Y1599248D01*
G01X17466068Y1610678D01*
G01X17513820Y1736408D02*
G01X17525250Y1724978D01*
G01X17536680Y1707706D01*
G01X17548110Y1684846D01*
G01X17553952Y1656398D01*
G01X17553952Y1633538D01*
G01X17548110Y1604836D01*
G01X17536680Y1581976D01*
G01X17525250Y1564958D01*
G01X17513820Y1553528D01*
G01X18843655Y1713548D02*
G01X18843655Y1593406D01*
G01X18803523Y1713548D02*
G01X18883533Y1713548D01*
G01X18959987Y1673416D02*
G01X18948557Y1667828D01*
G01X18937127Y1656398D01*
G01X18931285Y1639126D01*
G01X18931285Y1627696D01*
G01X18937127Y1610678D01*
G01X18948557Y1599248D01*
G01X18959987Y1593406D01*
G01X18977005Y1593406D01*
G01X18988435Y1599248D01*
G01X18999865Y1610678D01*
G01X19005707Y1627696D01*
G01X19005707Y1639126D01*
G01X18999865Y1656398D01*
G01X18988435Y1667828D01*
G01X18977005Y1673416D01*
G01X18959987Y1673416D01*
G01X19053459Y1673416D02*
G01X19053459Y1553528D01*
G01X19053459Y1656398D02*
G01X19064889Y1667828D01*
G01X19076319Y1673416D01*
G01X19093591Y1673416D01*
G01X19105021Y1667828D01*
G01X19116451Y1656398D01*
G01X19122039Y1639126D01*
G01X19122039Y1627696D01*
G01X19116451Y1610678D01*
G01X19105021Y1599248D01*
G01X19093591Y1593406D01*
G01X19076319Y1593406D01*
G01X19064889Y1599248D01*
G01X19053459Y1610678D01*
G01X19297807Y1713548D02*
G01X19297807Y1593406D01*
G01X19297807Y1593406D02*
G01X19366387Y1593406D01*
G01X19482719Y1673416D02*
G01X19482719Y1593406D01*
G01X19482719Y1656398D02*
G01X19471289Y1667828D01*
G01X19459859Y1673416D01*
G01X19442841Y1673416D01*
G01X19431411Y1667828D01*
G01X19419981Y1656398D01*
G01X19414139Y1639126D01*
G01X19414139Y1627696D01*
G01X19419981Y1610678D01*
G01X19431411Y1599248D01*
G01X19442841Y1593406D01*
G01X19459859Y1593406D01*
G01X19471289Y1599248D01*
G01X19482719Y1610678D01*
G01X19536313Y1673416D02*
G01X19570603Y1593406D01*
G01X19604893Y1673416D02*
G01X19570603Y1593406D01*
G01X19559173Y1570546D01*
G01X19547743Y1559116D01*
G01X19536313Y1553528D01*
G01X19530471Y1553528D01*
G01X19652645Y1639126D02*
G01X19721225Y1639126D01*
G01X19721225Y1650556D01*
G01X19715637Y1661986D01*
G01X19709795Y1667828D01*
G01X19698365Y1673416D01*
G01X19681347Y1673416D01*
G01X19669917Y1667828D01*
G01X19658487Y1656398D01*
G01X19652645Y1639126D01*
G01X19652645Y1627696D01*
G01X19658487Y1610678D01*
G01X19669917Y1599248D01*
G01X19681347Y1593406D01*
G01X19698365Y1593406D01*
G01X19709795Y1599248D01*
G01X19721225Y1610678D01*
G01X19768977Y1673416D02*
G01X19768977Y1593406D01*
G01X19768977Y1639126D02*
G01X19774819Y1656398D01*
G01X19786249Y1667828D01*
G01X19797679Y1673416D01*
G01X19814697Y1673416D01*
G01X19862449Y1644968D02*
G01X19965319Y1644968D01*
G01X20013071Y1713548D02*
G01X20013071Y1593406D01*
G01X20013071Y1713548D02*
G01X20064633Y1713548D01*
G01X20081651Y1707706D01*
G01X20087493Y1702118D01*
G01X20093081Y1690688D01*
G01X20093081Y1679258D01*
G01X20087493Y1667828D01*
G01X20081651Y1661986D01*
G01X20064633Y1656398D01*
G01X20013071Y1656398D02*
G01X20064633Y1656398D01*
G01X20081651Y1650556D01*
G01X20087493Y1644968D01*
G01X20093081Y1633538D01*
G01X20093081Y1616266D01*
G01X20087493Y1604836D01*
G01X20081651Y1599248D01*
G01X20064633Y1593406D01*
G01X20013071Y1593406D01*
G01X20169535Y1673416D02*
G01X20158105Y1667828D01*
G01X20146675Y1656398D01*
G01X20140833Y1639126D01*
G01X20140833Y1627696D01*
G01X20146675Y1610678D01*
G01X20158105Y1599248D01*
G01X20169535Y1593406D01*
G01X20186553Y1593406D01*
G01X20197983Y1599248D01*
G01X20209413Y1610678D01*
G01X20215255Y1627696D01*
G01X20215255Y1639126D01*
G01X20209413Y1656398D01*
G01X20197983Y1667828D01*
G01X20186553Y1673416D01*
G01X20169535Y1673416D01*
G01X20280279Y1713548D02*
G01X20280279Y1616266D01*
G01X20285867Y1599248D01*
G01X20297297Y1593406D01*
G01X20308727Y1593406D01*
G01X20263007Y1673416D02*
G01X20303139Y1673416D01*
G01X20373751Y1713548D02*
G01X20373751Y1616266D01*
G01X20379339Y1599248D01*
G01X20390769Y1593406D01*
G01X20402199Y1593406D01*
G01X20356479Y1673416D02*
G01X20396611Y1673416D01*
G01X20478653Y1673416D02*
G01X20467223Y1667828D01*
G01X20455793Y1656398D01*
G01X20449951Y1639126D01*
G01X20449951Y1627696D01*
G01X20455793Y1610678D01*
G01X20467223Y1599248D01*
G01X20478653Y1593406D01*
G01X20495671Y1593406D01*
G01X20507101Y1599248D01*
G01X20518531Y1610678D01*
G01X20524373Y1627696D01*
G01X20524373Y1639126D01*
G01X20518531Y1656398D01*
G01X20507101Y1667828D01*
G01X20495671Y1673416D01*
G01X20478653Y1673416D01*
G01X20572125Y1673416D02*
G01X20572125Y1593406D01*
G01X20572125Y1650556D02*
G01X20589397Y1667828D01*
G01X20600827Y1673416D01*
G01X20617845Y1673416D01*
G01X20629275Y1667828D01*
G01X20635117Y1650556D01*
G01X20635117Y1593406D01*
G01X20635117Y1650556D02*
G01X20652135Y1667828D01*
G01X20663565Y1673416D01*
G01X20680837Y1673416D01*
G01X20692267Y1667828D01*
G01X20697855Y1650556D01*
G01X20697855Y1593406D01*
G01X20873623Y1713548D02*
G01X20873623Y1593406D01*
G01X20873623Y1593406D02*
G01X20942203Y1593406D01*
G01X21058535Y1673416D02*
G01X21058535Y1593406D01*
G01X21058535Y1656398D02*
G01X21047105Y1667828D01*
G01X21035675Y1673416D01*
G01X21018657Y1673416D01*
G01X21007227Y1667828D01*
G01X20995797Y1656398D01*
G01X20989955Y1639126D01*
G01X20989955Y1627696D01*
G01X20995797Y1610678D01*
G01X21007227Y1599248D01*
G01X21018657Y1593406D01*
G01X21035675Y1593406D01*
G01X21047105Y1599248D01*
G01X21058535Y1610678D01*
G01X21112129Y1673416D02*
G01X21146419Y1593406D01*
G01X21180709Y1673416D02*
G01X21146419Y1593406D01*
G01X21134989Y1570546D01*
G01X21123559Y1559116D01*
G01X21112129Y1553528D01*
G01X21106287Y1553528D01*
G01X21228461Y1639126D02*
G01X21297041Y1639126D01*
G01X21297041Y1650556D01*
G01X21291453Y1661986D01*
G01X21285611Y1667828D01*
G01X21274181Y1673416D01*
G01X21257163Y1673416D01*
G01X21245733Y1667828D01*
G01X21234303Y1656398D01*
G01X21228461Y1639126D01*
G01X21228461Y1627696D01*
G01X21234303Y1610678D01*
G01X21245733Y1599248D01*
G01X21257163Y1593406D01*
G01X21274181Y1593406D01*
G01X21285611Y1599248D01*
G01X21297041Y1610678D01*
G01X21344793Y1673416D02*
G01X21344793Y1593406D01*
G01X21344793Y1639126D02*
G01X21350635Y1656398D01*
G01X21362065Y1667828D01*
G01X21373495Y1673416D01*
G01X21390513Y1673416D01*
G01X6907324Y1132976D02*
G01X6850174Y1052966D01*
G01X6936026Y1052966D01*
G01X6907324Y1132976D02*
G01X6907324Y1012834D01*
G01X8264338Y1110116D02*
G01X8275768Y1115704D01*
G01X8293040Y1132976D01*
G01X8293040Y1012834D01*
G01X8397942Y1132976D02*
G01X8340792Y1052966D01*
G01X8426644Y1052966D01*
G01X8397942Y1132976D02*
G01X8397942Y1012834D01*
G01X8542976Y1132976D02*
G01X8485826Y1132976D01*
G01X8480238Y1081414D01*
G01X8485826Y1087256D01*
G01X8503098Y1092844D01*
G01X8520116Y1092844D01*
G01X8537388Y1087256D01*
G01X8548818Y1075826D01*
G01X8554406Y1058554D01*
G01X8554406Y1047124D01*
G01X8548818Y1030106D01*
G01X8537388Y1018676D01*
G01X8520116Y1012834D01*
G01X8503098Y1012834D01*
G01X8485826Y1018676D01*
G01X8480238Y1024264D01*
G01X8474396Y1035694D01*
G01X8608000Y1041536D02*
G01X8602158Y1035694D01*
G01X8608000Y1030106D01*
G01X8613588Y1035694D01*
G01X8608000Y1041536D01*
G01X8741350Y1132976D02*
G01X8684200Y1012834D01*
G01X8661340Y1132976D02*
G01X8741350Y1132976D01*
G01X8789102Y1092844D02*
G01X8852094Y1012834D01*
G01X8852094Y1092844D02*
G01X8789102Y1012834D01*
G01X8899846Y1110116D02*
G01X8911276Y1115704D01*
G01X8928548Y1132976D01*
G01X8928548Y1012834D01*
G01X9033450Y1132976D02*
G01X8976300Y1052966D01*
G01X9062152Y1052966D01*
G01X9033450Y1132976D02*
G01X9033450Y1012834D01*
G01X9178484Y1132976D02*
G01X9121334Y1132976D01*
G01X9115746Y1081414D01*
G01X9121334Y1087256D01*
G01X9138606Y1092844D01*
G01X9155624Y1092844D01*
G01X9172896Y1087256D01*
G01X9184326Y1075826D01*
G01X9189914Y1058554D01*
G01X9189914Y1047124D01*
G01X9184326Y1030106D01*
G01X9172896Y1018676D01*
G01X9155624Y1012834D01*
G01X9138606Y1012834D01*
G01X9121334Y1018676D01*
G01X9115746Y1024264D01*
G01X9109904Y1035694D01*
G01X9243508Y1041536D02*
G01X9237666Y1035694D01*
G01X9243508Y1030106D01*
G01X9249096Y1035694D01*
G01X9243508Y1041536D01*
G01X9376858Y1132976D02*
G01X9319708Y1012834D01*
G01X9296848Y1132976D02*
G01X9376858Y1132976D01*
G01X9424610Y1092844D02*
G01X9424610Y1012834D01*
G01X9424610Y1069984D02*
G01X9441882Y1087256D01*
G01X9453312Y1092844D01*
G01X9470330Y1092844D01*
G01X9481760Y1087256D01*
G01X9487602Y1069984D01*
G01X9487602Y1012834D01*
G01X9487602Y1069984D02*
G01X9504620Y1087256D01*
G01X9516050Y1092844D01*
G01X9533322Y1092844D01*
G01X9544752Y1087256D01*
G01X9550340Y1069984D01*
G01X9550340Y1012834D01*
G01X9598092Y1132976D02*
G01X9603934Y1127134D01*
G01X9609522Y1132976D01*
G01X9603934Y1138564D01*
G01X9598092Y1132976D01*
G01X9603934Y1092844D02*
G01X9603934Y1012834D01*
G01X9657274Y1132976D02*
G01X9657274Y1012834D01*
G01X9745158Y1155836D02*
G01X9733728Y1144406D01*
G01X9722298Y1127134D01*
G01X9710868Y1104274D01*
G01X9705026Y1075826D01*
G01X9705026Y1052966D01*
G01X9710868Y1024264D01*
G01X9722298Y1001404D01*
G01X9733728Y984386D01*
G01X9745158Y972956D01*
G01X9804340Y1132976D02*
G01X9867332Y1132976D01*
G01X9833042Y1087256D01*
G01X9850060Y1087256D01*
G01X9861490Y1081414D01*
G01X9867332Y1075826D01*
G01X9872920Y1058554D01*
G01X9872920Y1047124D01*
G01X9867332Y1030106D01*
G01X9855902Y1018676D01*
G01X9838630Y1012834D01*
G01X9821612Y1012834D01*
G01X9804340Y1018676D01*
G01X9798752Y1024264D01*
G01X9792910Y1035694D01*
G01X9926514Y1041536D02*
G01X9920672Y1035694D01*
G01X9926514Y1030106D01*
G01X9932102Y1035694D01*
G01X9926514Y1041536D01*
G01X10059864Y1132976D02*
G01X10002714Y1012834D01*
G01X9979854Y1132976D02*
G01X10059864Y1132976D01*
G01X10141906Y1132976D02*
G01X10124888Y1127134D01*
G01X10113458Y1110116D01*
G01X10107616Y1081414D01*
G01X10107616Y1064396D01*
G01X10113458Y1035694D01*
G01X10124888Y1018676D01*
G01X10141906Y1012834D01*
G01X10153336Y1012834D01*
G01X10170608Y1018676D01*
G01X10182038Y1035694D01*
G01X10187626Y1064396D01*
G01X10187626Y1081414D01*
G01X10182038Y1110116D01*
G01X10170608Y1127134D01*
G01X10153336Y1132976D01*
G01X10141906Y1132976D01*
G01X10269668Y1132976D02*
G01X10252650Y1127134D01*
G01X10241220Y1110116D01*
G01X10235378Y1081414D01*
G01X10235378Y1064396D01*
G01X10241220Y1035694D01*
G01X10252650Y1018676D01*
G01X10269668Y1012834D01*
G01X10281098Y1012834D01*
G01X10298370Y1018676D01*
G01X10309800Y1035694D01*
G01X10315388Y1064396D01*
G01X10315388Y1081414D01*
G01X10309800Y1110116D01*
G01X10298370Y1127134D01*
G01X10281098Y1132976D01*
G01X10269668Y1132976D01*
G01X10363140Y1092844D02*
G01X10426132Y1012834D01*
G01X10426132Y1092844D02*
G01X10363140Y1012834D01*
G01X10485314Y1132976D02*
G01X10548306Y1132976D01*
G01X10514016Y1087256D01*
G01X10531034Y1087256D01*
G01X10542464Y1081414D01*
G01X10548306Y1075826D01*
G01X10553894Y1058554D01*
G01X10553894Y1047124D01*
G01X10548306Y1030106D01*
G01X10536876Y1018676D01*
G01X10519604Y1012834D01*
G01X10502586Y1012834D01*
G01X10485314Y1018676D01*
G01X10479726Y1024264D01*
G01X10473884Y1035694D01*
G01X10607488Y1041536D02*
G01X10601646Y1035694D01*
G01X10607488Y1030106D01*
G01X10613076Y1035694D01*
G01X10607488Y1041536D01*
G01X10740838Y1132976D02*
G01X10683688Y1012834D01*
G01X10660828Y1132976D02*
G01X10740838Y1132976D01*
G01X10822880Y1132976D02*
G01X10805862Y1127134D01*
G01X10794432Y1110116D01*
G01X10788590Y1081414D01*
G01X10788590Y1064396D01*
G01X10794432Y1035694D01*
G01X10805862Y1018676D01*
G01X10822880Y1012834D01*
G01X10834310Y1012834D01*
G01X10851582Y1018676D01*
G01X10863012Y1035694D01*
G01X10868600Y1064396D01*
G01X10868600Y1081414D01*
G01X10863012Y1110116D01*
G01X10851582Y1127134D01*
G01X10834310Y1132976D01*
G01X10822880Y1132976D01*
G01X10950642Y1132976D02*
G01X10933624Y1127134D01*
G01X10922194Y1110116D01*
G01X10916352Y1081414D01*
G01X10916352Y1064396D01*
G01X10922194Y1035694D01*
G01X10933624Y1018676D01*
G01X10950642Y1012834D01*
G01X10962072Y1012834D01*
G01X10979344Y1018676D01*
G01X10990774Y1035694D01*
G01X10996362Y1064396D01*
G01X10996362Y1081414D01*
G01X10990774Y1110116D01*
G01X10979344Y1127134D01*
G01X10962072Y1132976D01*
G01X10950642Y1132976D01*
G01X11044114Y1092844D02*
G01X11044114Y1012834D01*
G01X11044114Y1069984D02*
G01X11061386Y1087256D01*
G01X11072816Y1092844D01*
G01X11089834Y1092844D01*
G01X11101264Y1087256D01*
G01X11107106Y1069984D01*
G01X11107106Y1012834D01*
G01X11107106Y1069984D02*
G01X11124124Y1087256D01*
G01X11135554Y1092844D01*
G01X11152826Y1092844D01*
G01X11164256Y1087256D01*
G01X11169844Y1069984D01*
G01X11169844Y1012834D01*
G01X11217596Y1092844D02*
G01X11217596Y1012834D01*
G01X11217596Y1069984D02*
G01X11234868Y1087256D01*
G01X11246298Y1092844D01*
G01X11263316Y1092844D01*
G01X11274746Y1087256D01*
G01X11280588Y1069984D01*
G01X11280588Y1012834D01*
G01X11280588Y1069984D02*
G01X11297606Y1087256D01*
G01X11309036Y1092844D01*
G01X11326308Y1092844D01*
G01X11337738Y1087256D01*
G01X11343326Y1069984D01*
G01X11343326Y1012834D01*
G01X11391078Y1155836D02*
G01X11402508Y1144406D01*
G01X11413938Y1127134D01*
G01X11425368Y1104274D01*
G01X11431210Y1075826D01*
G01X11431210Y1052966D01*
G01X11425368Y1024264D01*
G01X11413938Y1001404D01*
G01X11402508Y984386D01*
G01X11391078Y972956D01*
G01X12322387Y1132976D02*
G01X12322387Y1012834D01*
G01X12322387Y1132976D02*
G01X12373949Y1132976D01*
G01X12390967Y1127134D01*
G01X12396809Y1121546D01*
G01X12402397Y1110116D01*
G01X12402397Y1092844D01*
G01X12396809Y1081414D01*
G01X12390967Y1075826D01*
G01X12373949Y1069984D01*
G01X12322387Y1069984D01*
G01X12490281Y1132976D02*
G01X12490281Y1012834D01*
G01X12450149Y1132976D02*
G01X12530159Y1132976D01*
G01X12577911Y1132976D02*
G01X12577911Y1012834D01*
G01X12657921Y1132976D02*
G01X12657921Y1012834D01*
G01X12577911Y1075826D02*
G01X12657921Y1075826D01*
G01X13783794Y1132976D02*
G01X13783794Y1012834D01*
G01X13783794Y1132976D02*
G01X13835356Y1132976D01*
G01X13852374Y1127134D01*
G01X13858216Y1121546D01*
G01X13863804Y1110116D01*
G01X13863804Y1098686D01*
G01X13858216Y1087256D01*
G01X13852374Y1081414D01*
G01X13835356Y1075826D01*
G01X13783794Y1075826D01*
G01X13823926Y1075826D02*
G01X13863804Y1012834D01*
G01X13940258Y1092844D02*
G01X13928828Y1087256D01*
G01X13917398Y1075826D01*
G01X13911556Y1058554D01*
G01X13911556Y1047124D01*
G01X13917398Y1030106D01*
G01X13928828Y1018676D01*
G01X13940258Y1012834D01*
G01X13957276Y1012834D01*
G01X13968706Y1018676D01*
G01X13980136Y1030106D01*
G01X13985978Y1047124D01*
G01X13985978Y1058554D01*
G01X13980136Y1075826D01*
G01X13968706Y1087256D01*
G01X13957276Y1092844D01*
G01X13940258Y1092844D01*
G01X14033730Y1092844D02*
G01X14033730Y1035694D01*
G01X14039572Y1018676D01*
G01X14051002Y1012834D01*
G01X14068020Y1012834D01*
G01X14079450Y1018676D01*
G01X14096722Y1035694D01*
G01X14096722Y1092844D02*
G01X14096722Y1012834D01*
G01X14144474Y1092844D02*
G01X14144474Y1012834D01*
G01X14144474Y1069984D02*
G01X14161746Y1087256D01*
G01X14173176Y1092844D01*
G01X14190194Y1092844D01*
G01X14201624Y1087256D01*
G01X14207466Y1069984D01*
G01X14207466Y1012834D01*
G01X14323798Y1132976D02*
G01X14323798Y1012834D01*
G01X14323798Y1075826D02*
G01X14312368Y1087256D01*
G01X14300938Y1092844D01*
G01X14283920Y1092844D01*
G01X14272490Y1087256D01*
G01X14261060Y1075826D01*
G01X14255218Y1058554D01*
G01X14255218Y1047124D01*
G01X14261060Y1030106D01*
G01X14272490Y1018676D01*
G01X14283920Y1012834D01*
G01X14300938Y1012834D01*
G01X14312368Y1018676D01*
G01X14323798Y1030106D01*
G01X15214975Y1132976D02*
G01X15214975Y1012834D01*
G01X15214975Y1132976D02*
G01X15266537Y1132976D01*
G01X15283555Y1127134D01*
G01X15289397Y1121546D01*
G01X15294985Y1110116D01*
G01X15294985Y1092844D01*
G01X15289397Y1081414D01*
G01X15283555Y1075826D01*
G01X15266537Y1069984D01*
G01X15214975Y1069984D01*
G01X15411317Y1092844D02*
G01X15411317Y1012834D01*
G01X15411317Y1075826D02*
G01X15399887Y1087256D01*
G01X15388457Y1092844D01*
G01X15371439Y1092844D01*
G01X15360009Y1087256D01*
G01X15348579Y1075826D01*
G01X15342737Y1058554D01*
G01X15342737Y1047124D01*
G01X15348579Y1030106D01*
G01X15360009Y1018676D01*
G01X15371439Y1012834D01*
G01X15388457Y1012834D01*
G01X15399887Y1018676D01*
G01X15411317Y1030106D01*
G01X15527649Y1132976D02*
G01X15527649Y1012834D01*
G01X15527649Y1075826D02*
G01X15516219Y1087256D01*
G01X15504789Y1092844D01*
G01X15487771Y1092844D01*
G01X15476341Y1087256D01*
G01X15464911Y1075826D01*
G01X15459069Y1058554D01*
G01X15459069Y1047124D01*
G01X15464911Y1030106D01*
G01X15476341Y1018676D01*
G01X15487771Y1012834D01*
G01X15504789Y1012834D01*
G01X15516219Y1018676D01*
G01X15527649Y1030106D01*
G01X16884154Y1132976D02*
G01X16884154Y1012834D01*
G01X16884154Y1132976D02*
G01X16935716Y1132976D01*
G01X16952734Y1127134D01*
G01X16958576Y1121546D01*
G01X16964164Y1110116D01*
G01X16964164Y1098686D01*
G01X16958576Y1087256D01*
G01X16952734Y1081414D01*
G01X16935716Y1075826D01*
G01X16884154Y1075826D01*
G01X16924286Y1075826D02*
G01X16964164Y1012834D01*
G01X17040618Y1092844D02*
G01X17029188Y1087256D01*
G01X17017758Y1075826D01*
G01X17011916Y1058554D01*
G01X17011916Y1047124D01*
G01X17017758Y1030106D01*
G01X17029188Y1018676D01*
G01X17040618Y1012834D01*
G01X17057636Y1012834D01*
G01X17069066Y1018676D01*
G01X17080496Y1030106D01*
G01X17086338Y1047124D01*
G01X17086338Y1058554D01*
G01X17080496Y1075826D01*
G01X17069066Y1087256D01*
G01X17057636Y1092844D01*
G01X17040618Y1092844D01*
G01X17134090Y1092844D02*
G01X17134090Y1035694D01*
G01X17139932Y1018676D01*
G01X17151362Y1012834D01*
G01X17168380Y1012834D01*
G01X17179810Y1018676D01*
G01X17197082Y1035694D01*
G01X17197082Y1092844D02*
G01X17197082Y1012834D01*
G01X17244834Y1092844D02*
G01X17244834Y1012834D01*
G01X17244834Y1069984D02*
G01X17262106Y1087256D01*
G01X17273536Y1092844D01*
G01X17290554Y1092844D01*
G01X17301984Y1087256D01*
G01X17307826Y1069984D01*
G01X17307826Y1012834D01*
G01X17424158Y1132976D02*
G01X17424158Y1012834D01*
G01X17424158Y1075826D02*
G01X17412728Y1087256D01*
G01X17401298Y1092844D01*
G01X17384280Y1092844D01*
G01X17372850Y1087256D01*
G01X17361420Y1075826D01*
G01X17355578Y1058554D01*
G01X17355578Y1047124D01*
G01X17361420Y1030106D01*
G01X17372850Y1018676D01*
G01X17384280Y1012834D01*
G01X17401298Y1012834D01*
G01X17412728Y1018676D01*
G01X17424158Y1030106D01*
G01X18843655Y1132976D02*
G01X18843655Y1012834D01*
G01X18803523Y1132976D02*
G01X18883533Y1132976D01*
G01X18959987Y1092844D02*
G01X18948557Y1087256D01*
G01X18937127Y1075826D01*
G01X18931285Y1058554D01*
G01X18931285Y1047124D01*
G01X18937127Y1030106D01*
G01X18948557Y1018676D01*
G01X18959987Y1012834D01*
G01X18977005Y1012834D01*
G01X18988435Y1018676D01*
G01X18999865Y1030106D01*
G01X19005707Y1047124D01*
G01X19005707Y1058554D01*
G01X18999865Y1075826D01*
G01X18988435Y1087256D01*
G01X18977005Y1092844D01*
G01X18959987Y1092844D01*
G01X19053459Y1092844D02*
G01X19053459Y972956D01*
G01X19053459Y1075826D02*
G01X19064889Y1087256D01*
G01X19076319Y1092844D01*
G01X19093591Y1092844D01*
G01X19105021Y1087256D01*
G01X19116451Y1075826D01*
G01X19122039Y1058554D01*
G01X19122039Y1047124D01*
G01X19116451Y1030106D01*
G01X19105021Y1018676D01*
G01X19093591Y1012834D01*
G01X19076319Y1012834D01*
G01X19064889Y1018676D01*
G01X19053459Y1030106D01*
G01X19297807Y1132976D02*
G01X19297807Y1012834D01*
G01X19297807Y1012834D02*
G01X19366387Y1012834D01*
G01X19482719Y1092844D02*
G01X19482719Y1012834D01*
G01X19482719Y1075826D02*
G01X19471289Y1087256D01*
G01X19459859Y1092844D01*
G01X19442841Y1092844D01*
G01X19431411Y1087256D01*
G01X19419981Y1075826D01*
G01X19414139Y1058554D01*
G01X19414139Y1047124D01*
G01X19419981Y1030106D01*
G01X19431411Y1018676D01*
G01X19442841Y1012834D01*
G01X19459859Y1012834D01*
G01X19471289Y1018676D01*
G01X19482719Y1030106D01*
G01X19536313Y1092844D02*
G01X19570603Y1012834D01*
G01X19604893Y1092844D02*
G01X19570603Y1012834D01*
G01X19559173Y989974D01*
G01X19547743Y978544D01*
G01X19536313Y972956D01*
G01X19530471Y972956D01*
G01X19652645Y1058554D02*
G01X19721225Y1058554D01*
G01X19721225Y1069984D01*
G01X19715637Y1081414D01*
G01X19709795Y1087256D01*
G01X19698365Y1092844D01*
G01X19681347Y1092844D01*
G01X19669917Y1087256D01*
G01X19658487Y1075826D01*
G01X19652645Y1058554D01*
G01X19652645Y1047124D01*
G01X19658487Y1030106D01*
G01X19669917Y1018676D01*
G01X19681347Y1012834D01*
G01X19698365Y1012834D01*
G01X19709795Y1018676D01*
G01X19721225Y1030106D01*
G01X19768977Y1092844D02*
G01X19768977Y1012834D01*
G01X19768977Y1058554D02*
G01X19774819Y1075826D01*
G01X19786249Y1087256D01*
G01X19797679Y1092844D01*
G01X19814697Y1092844D01*
G01X19862449Y1064396D02*
G01X19965319Y1064396D01*
G01X20013071Y1132976D02*
G01X20013071Y1012834D01*
G01X20013071Y1132976D02*
G01X20064633Y1132976D01*
G01X20081651Y1127134D01*
G01X20087493Y1121546D01*
G01X20093081Y1110116D01*
G01X20093081Y1098686D01*
G01X20087493Y1087256D01*
G01X20081651Y1081414D01*
G01X20064633Y1075826D01*
G01X20013071Y1075826D02*
G01X20064633Y1075826D01*
G01X20081651Y1069984D01*
G01X20087493Y1064396D01*
G01X20093081Y1052966D01*
G01X20093081Y1035694D01*
G01X20087493Y1024264D01*
G01X20081651Y1018676D01*
G01X20064633Y1012834D01*
G01X20013071Y1012834D01*
G01X20169535Y1092844D02*
G01X20158105Y1087256D01*
G01X20146675Y1075826D01*
G01X20140833Y1058554D01*
G01X20140833Y1047124D01*
G01X20146675Y1030106D01*
G01X20158105Y1018676D01*
G01X20169535Y1012834D01*
G01X20186553Y1012834D01*
G01X20197983Y1018676D01*
G01X20209413Y1030106D01*
G01X20215255Y1047124D01*
G01X20215255Y1058554D01*
G01X20209413Y1075826D01*
G01X20197983Y1087256D01*
G01X20186553Y1092844D01*
G01X20169535Y1092844D01*
G01X20280279Y1132976D02*
G01X20280279Y1035694D01*
G01X20285867Y1018676D01*
G01X20297297Y1012834D01*
G01X20308727Y1012834D01*
G01X20263007Y1092844D02*
G01X20303139Y1092844D01*
G01X20373751Y1132976D02*
G01X20373751Y1035694D01*
G01X20379339Y1018676D01*
G01X20390769Y1012834D01*
G01X20402199Y1012834D01*
G01X20356479Y1092844D02*
G01X20396611Y1092844D01*
G01X20478653Y1092844D02*
G01X20467223Y1087256D01*
G01X20455793Y1075826D01*
G01X20449951Y1058554D01*
G01X20449951Y1047124D01*
G01X20455793Y1030106D01*
G01X20467223Y1018676D01*
G01X20478653Y1012834D01*
G01X20495671Y1012834D01*
G01X20507101Y1018676D01*
G01X20518531Y1030106D01*
G01X20524373Y1047124D01*
G01X20524373Y1058554D01*
G01X20518531Y1075826D01*
G01X20507101Y1087256D01*
G01X20495671Y1092844D01*
G01X20478653Y1092844D01*
G01X20572125Y1092844D02*
G01X20572125Y1012834D01*
G01X20572125Y1069984D02*
G01X20589397Y1087256D01*
G01X20600827Y1092844D01*
G01X20617845Y1092844D01*
G01X20629275Y1087256D01*
G01X20635117Y1069984D01*
G01X20635117Y1012834D01*
G01X20635117Y1069984D02*
G01X20652135Y1087256D01*
G01X20663565Y1092844D01*
G01X20680837Y1092844D01*
G01X20692267Y1087256D01*
G01X20697855Y1069984D01*
G01X20697855Y1012834D01*
G01X20873623Y1132976D02*
G01X20873623Y1012834D01*
G01X20873623Y1012834D02*
G01X20942203Y1012834D01*
G01X21058535Y1092844D02*
G01X21058535Y1012834D01*
G01X21058535Y1075826D02*
G01X21047105Y1087256D01*
G01X21035675Y1092844D01*
G01X21018657Y1092844D01*
G01X21007227Y1087256D01*
G01X20995797Y1075826D01*
G01X20989955Y1058554D01*
G01X20989955Y1047124D01*
G01X20995797Y1030106D01*
G01X21007227Y1018676D01*
G01X21018657Y1012834D01*
G01X21035675Y1012834D01*
G01X21047105Y1018676D01*
G01X21058535Y1030106D01*
G01X21112129Y1092844D02*
G01X21146419Y1012834D01*
G01X21180709Y1092844D02*
G01X21146419Y1012834D01*
G01X21134989Y989974D01*
G01X21123559Y978544D01*
G01X21112129Y972956D01*
G01X21106287Y972956D01*
G01X21228461Y1058554D02*
G01X21297041Y1058554D01*
G01X21297041Y1069984D01*
G01X21291453Y1081414D01*
G01X21285611Y1087256D01*
G01X21274181Y1092844D01*
G01X21257163Y1092844D01*
G01X21245733Y1087256D01*
G01X21234303Y1075826D01*
G01X21228461Y1058554D01*
G01X21228461Y1047124D01*
G01X21234303Y1030106D01*
G01X21245733Y1018676D01*
G01X21257163Y1012834D01*
G01X21274181Y1012834D01*
G01X21285611Y1018676D01*
G01X21297041Y1030106D01*
G01X21344793Y1092844D02*
G01X21344793Y1012834D01*
G01X21344793Y1058554D02*
G01X21350635Y1075826D01*
G01X21362065Y1087256D01*
G01X21373495Y1092844D01*
G01X21390513Y1092844D01*
G01X6930184Y552405D02*
G01X6873034Y432263D01*
G01X6850174Y552405D02*
G01X6930184Y552405D01*
G01X8321488Y552405D02*
G01X8264338Y472395D01*
G01X8350190Y472395D01*
G01X8321488Y552405D02*
G01X8321488Y432263D01*
G01X8477952Y552405D02*
G01X8420802Y432263D01*
G01X8397942Y552405D02*
G01X8477952Y552405D01*
G01X8531546Y460965D02*
G01X8525704Y455123D01*
G01X8531546Y449535D01*
G01X8537134Y455123D01*
G01X8531546Y460965D01*
G01X8590728Y523703D02*
G01X8590728Y529545D01*
G01X8596316Y540975D01*
G01X8602158Y546563D01*
G01X8613588Y552405D01*
G01X8636448Y552405D01*
G01X8647878Y546563D01*
G01X8653466Y540975D01*
G01X8659308Y529545D01*
G01X8659308Y518115D01*
G01X8653466Y506685D01*
G01X8642036Y489413D01*
G01X8584886Y432263D01*
G01X8664896Y432263D01*
G01X8712648Y512273D02*
G01X8775640Y432263D01*
G01X8775640Y512273D02*
G01X8712648Y432263D01*
G01X8880542Y552405D02*
G01X8823392Y472395D01*
G01X8909244Y472395D01*
G01X8880542Y552405D02*
G01X8880542Y432263D01*
G01X9037006Y552405D02*
G01X8979856Y432263D01*
G01X8956996Y552405D02*
G01X9037006Y552405D01*
G01X9090600Y460965D02*
G01X9084758Y455123D01*
G01X9090600Y449535D01*
G01X9096188Y455123D01*
G01X9090600Y460965D01*
G01X9149782Y523703D02*
G01X9149782Y529545D01*
G01X9155370Y540975D01*
G01X9161212Y546563D01*
G01X9172642Y552405D01*
G01X9195502Y552405D01*
G01X9206932Y546563D01*
G01X9212520Y540975D01*
G01X9218362Y529545D01*
G01X9218362Y518115D01*
G01X9212520Y506685D01*
G01X9201090Y489413D01*
G01X9143940Y432263D01*
G01X9223950Y432263D01*
G01X9271702Y512273D02*
G01X9271702Y432263D01*
G01X9271702Y489413D02*
G01X9288974Y506685D01*
G01X9300404Y512273D01*
G01X9317422Y512273D01*
G01X9328852Y506685D01*
G01X9334694Y489413D01*
G01X9334694Y432263D01*
G01X9334694Y489413D02*
G01X9351712Y506685D01*
G01X9363142Y512273D01*
G01X9380414Y512273D01*
G01X9391844Y506685D01*
G01X9397432Y489413D01*
G01X9397432Y432263D01*
G01X9445184Y552405D02*
G01X9451026Y546563D01*
G01X9456614Y552405D01*
G01X9451026Y557993D01*
G01X9445184Y552405D01*
G01X9451026Y512273D02*
G01X9451026Y432263D01*
G01X9504366Y552405D02*
G01X9504366Y432263D01*
G01X9592250Y575265D02*
G01X9580820Y563835D01*
G01X9569390Y546563D01*
G01X9557960Y523703D01*
G01X9552118Y495255D01*
G01X9552118Y472395D01*
G01X9557960Y443693D01*
G01X9569390Y420833D01*
G01X9580820Y403815D01*
G01X9592250Y392385D01*
G01X9640002Y529545D02*
G01X9651432Y535133D01*
G01X9668704Y552405D01*
G01X9668704Y432263D01*
G01X9722298Y460965D02*
G01X9716456Y455123D01*
G01X9722298Y449535D01*
G01X9727886Y455123D01*
G01X9722298Y460965D01*
G01X9781480Y523703D02*
G01X9781480Y529545D01*
G01X9787068Y540975D01*
G01X9792910Y546563D01*
G01X9804340Y552405D01*
G01X9827200Y552405D01*
G01X9838630Y546563D01*
G01X9844218Y540975D01*
G01X9850060Y529545D01*
G01X9850060Y518115D01*
G01X9844218Y506685D01*
G01X9832788Y489413D01*
G01X9775638Y432263D01*
G01X9855648Y432263D01*
G01X9937690Y552405D02*
G01X9920672Y546563D01*
G01X9909242Y529545D01*
G01X9903400Y500843D01*
G01X9903400Y483825D01*
G01X9909242Y455123D01*
G01X9920672Y438105D01*
G01X9937690Y432263D01*
G01X9949120Y432263D01*
G01X9966392Y438105D01*
G01X9977822Y455123D01*
G01X9983410Y483825D01*
G01X9983410Y500843D01*
G01X9977822Y529545D01*
G01X9966392Y546563D01*
G01X9949120Y552405D01*
G01X9937690Y552405D01*
G01X10065452Y552405D02*
G01X10048434Y546563D01*
G01X10037004Y529545D01*
G01X10031162Y500843D01*
G01X10031162Y483825D01*
G01X10037004Y455123D01*
G01X10048434Y438105D01*
G01X10065452Y432263D01*
G01X10076882Y432263D01*
G01X10094154Y438105D01*
G01X10105584Y455123D01*
G01X10111172Y483825D01*
G01X10111172Y500843D01*
G01X10105584Y529545D01*
G01X10094154Y546563D01*
G01X10076882Y552405D01*
G01X10065452Y552405D01*
G01X10158924Y512273D02*
G01X10221916Y432263D01*
G01X10221916Y512273D02*
G01X10158924Y432263D01*
G01X10269668Y529545D02*
G01X10281098Y535133D01*
G01X10298370Y552405D01*
G01X10298370Y432263D01*
G01X10351964Y460965D02*
G01X10346122Y455123D01*
G01X10351964Y449535D01*
G01X10357552Y455123D01*
G01X10351964Y460965D01*
G01X10411146Y523703D02*
G01X10411146Y529545D01*
G01X10416734Y540975D01*
G01X10422576Y546563D01*
G01X10434006Y552405D01*
G01X10456866Y552405D01*
G01X10468296Y546563D01*
G01X10473884Y540975D01*
G01X10479726Y529545D01*
G01X10479726Y518115D01*
G01X10473884Y506685D01*
G01X10462454Y489413D01*
G01X10405304Y432263D01*
G01X10485314Y432263D01*
G01X10567356Y552405D02*
G01X10550338Y546563D01*
G01X10538908Y529545D01*
G01X10533066Y500843D01*
G01X10533066Y483825D01*
G01X10538908Y455123D01*
G01X10550338Y438105D01*
G01X10567356Y432263D01*
G01X10578786Y432263D01*
G01X10596058Y438105D01*
G01X10607488Y455123D01*
G01X10613076Y483825D01*
G01X10613076Y500843D01*
G01X10607488Y529545D01*
G01X10596058Y546563D01*
G01X10578786Y552405D01*
G01X10567356Y552405D01*
G01X10695118Y552405D02*
G01X10678100Y546563D01*
G01X10666670Y529545D01*
G01X10660828Y500843D01*
G01X10660828Y483825D01*
G01X10666670Y455123D01*
G01X10678100Y438105D01*
G01X10695118Y432263D01*
G01X10706548Y432263D01*
G01X10723820Y438105D01*
G01X10735250Y455123D01*
G01X10740838Y483825D01*
G01X10740838Y500843D01*
G01X10735250Y529545D01*
G01X10723820Y546563D01*
G01X10706548Y552405D01*
G01X10695118Y552405D01*
G01X10788590Y512273D02*
G01X10788590Y432263D01*
G01X10788590Y489413D02*
G01X10805862Y506685D01*
G01X10817292Y512273D01*
G01X10834310Y512273D01*
G01X10845740Y506685D01*
G01X10851582Y489413D01*
G01X10851582Y432263D01*
G01X10851582Y489413D02*
G01X10868600Y506685D01*
G01X10880030Y512273D01*
G01X10897302Y512273D01*
G01X10908732Y506685D01*
G01X10914320Y489413D01*
G01X10914320Y432263D01*
G01X10962072Y512273D02*
G01X10962072Y432263D01*
G01X10962072Y489413D02*
G01X10979344Y506685D01*
G01X10990774Y512273D01*
G01X11007792Y512273D01*
G01X11019222Y506685D01*
G01X11025064Y489413D01*
G01X11025064Y432263D01*
G01X11025064Y489413D02*
G01X11042082Y506685D01*
G01X11053512Y512273D01*
G01X11070784Y512273D01*
G01X11082214Y506685D01*
G01X11087802Y489413D01*
G01X11087802Y432263D01*
G01X11135554Y575265D02*
G01X11146984Y563835D01*
G01X11158414Y546563D01*
G01X11169844Y523703D01*
G01X11175686Y495255D01*
G01X11175686Y472395D01*
G01X11169844Y443693D01*
G01X11158414Y420833D01*
G01X11146984Y403815D01*
G01X11135554Y392385D01*
G01X12322387Y552405D02*
G01X12322387Y432263D01*
G01X12322387Y552405D02*
G01X12373949Y552405D01*
G01X12390967Y546563D01*
G01X12396809Y540975D01*
G01X12402397Y529545D01*
G01X12402397Y512273D01*
G01X12396809Y500843D01*
G01X12390967Y495255D01*
G01X12373949Y489413D01*
G01X12322387Y489413D01*
G01X12490281Y552405D02*
G01X12490281Y432263D01*
G01X12450149Y552405D02*
G01X12530159Y552405D01*
G01X12577911Y552405D02*
G01X12577911Y432263D01*
G01X12657921Y552405D02*
G01X12657921Y432263D01*
G01X12577911Y495255D02*
G01X12657921Y495255D01*
G01X13783794Y552405D02*
G01X13783794Y432263D01*
G01X13783794Y552405D02*
G01X13835356Y552405D01*
G01X13852374Y546563D01*
G01X13858216Y540975D01*
G01X13863804Y529545D01*
G01X13863804Y518115D01*
G01X13858216Y506685D01*
G01X13852374Y500843D01*
G01X13835356Y495255D01*
G01X13783794Y495255D01*
G01X13823926Y495255D02*
G01X13863804Y432263D01*
G01X13940258Y512273D02*
G01X13928828Y506685D01*
G01X13917398Y495255D01*
G01X13911556Y477983D01*
G01X13911556Y466553D01*
G01X13917398Y449535D01*
G01X13928828Y438105D01*
G01X13940258Y432263D01*
G01X13957276Y432263D01*
G01X13968706Y438105D01*
G01X13980136Y449535D01*
G01X13985978Y466553D01*
G01X13985978Y477983D01*
G01X13980136Y495255D01*
G01X13968706Y506685D01*
G01X13957276Y512273D01*
G01X13940258Y512273D01*
G01X14033730Y512273D02*
G01X14033730Y455123D01*
G01X14039572Y438105D01*
G01X14051002Y432263D01*
G01X14068020Y432263D01*
G01X14079450Y438105D01*
G01X14096722Y455123D01*
G01X14096722Y512273D02*
G01X14096722Y432263D01*
G01X14144474Y512273D02*
G01X14144474Y432263D01*
G01X14144474Y489413D02*
G01X14161746Y506685D01*
G01X14173176Y512273D01*
G01X14190194Y512273D01*
G01X14201624Y506685D01*
G01X14207466Y489413D01*
G01X14207466Y432263D01*
G01X14323798Y552405D02*
G01X14323798Y432263D01*
G01X14323798Y495255D02*
G01X14312368Y506685D01*
G01X14300938Y512273D01*
G01X14283920Y512273D01*
G01X14272490Y506685D01*
G01X14261060Y495255D01*
G01X14255218Y477983D01*
G01X14255218Y466553D01*
G01X14261060Y449535D01*
G01X14272490Y438105D01*
G01X14283920Y432263D01*
G01X14300938Y432263D01*
G01X14312368Y438105D01*
G01X14323798Y449535D01*
G01X15214975Y552405D02*
G01X15214975Y432263D01*
G01X15214975Y552405D02*
G01X15266537Y552405D01*
G01X15283555Y546563D01*
G01X15289397Y540975D01*
G01X15294985Y529545D01*
G01X15294985Y512273D01*
G01X15289397Y500843D01*
G01X15283555Y495255D01*
G01X15266537Y489413D01*
G01X15214975Y489413D01*
G01X15411317Y512273D02*
G01X15411317Y432263D01*
G01X15411317Y495255D02*
G01X15399887Y506685D01*
G01X15388457Y512273D01*
G01X15371439Y512273D01*
G01X15360009Y506685D01*
G01X15348579Y495255D01*
G01X15342737Y477983D01*
G01X15342737Y466553D01*
G01X15348579Y449535D01*
G01X15360009Y438105D01*
G01X15371439Y432263D01*
G01X15388457Y432263D01*
G01X15399887Y438105D01*
G01X15411317Y449535D01*
G01X15527649Y552405D02*
G01X15527649Y432263D01*
G01X15527649Y495255D02*
G01X15516219Y506685D01*
G01X15504789Y512273D01*
G01X15487771Y512273D01*
G01X15476341Y506685D01*
G01X15464911Y495255D01*
G01X15459069Y477983D01*
G01X15459069Y466553D01*
G01X15464911Y449535D01*
G01X15476341Y438105D01*
G01X15487771Y432263D01*
G01X15504789Y432263D01*
G01X15516219Y438105D01*
G01X15527649Y449535D01*
G01X16924286Y575265D02*
G01X16912856Y563835D01*
G01X16901426Y546563D01*
G01X16889996Y523703D01*
G01X16884154Y495255D01*
G01X16884154Y472395D01*
G01X16889996Y443693D01*
G01X16901426Y420833D01*
G01X16912856Y403815D01*
G01X16924286Y392385D01*
G01X16972038Y552405D02*
G01X16972038Y432263D01*
G01X16972038Y552405D02*
G01X17017758Y432263D01*
G01X17063478Y552405D02*
G01X17017758Y432263D01*
G01X17063478Y552405D02*
G01X17063478Y432263D01*
G01X17111230Y552405D02*
G01X17117072Y546563D01*
G01X17122660Y552405D01*
G01X17117072Y557993D01*
G01X17111230Y552405D01*
G01X17117072Y512273D02*
G01X17117072Y432263D01*
G01X17170412Y512273D02*
G01X17233404Y432263D01*
G01X17233404Y512273D02*
G01X17170412Y432263D01*
G01X17281156Y477983D02*
G01X17349736Y477983D01*
G01X17349736Y489413D01*
G01X17344148Y500843D01*
G01X17338306Y506685D01*
G01X17326876Y512273D01*
G01X17309858Y512273D01*
G01X17298428Y506685D01*
G01X17286998Y495255D01*
G01X17281156Y477983D01*
G01X17281156Y466553D01*
G01X17286998Y449535D01*
G01X17298428Y438105D01*
G01X17309858Y432263D01*
G01X17326876Y432263D01*
G01X17338306Y438105D01*
G01X17349736Y449535D01*
G01X17466068Y552405D02*
G01X17466068Y432263D01*
G01X17466068Y495255D02*
G01X17454638Y506685D01*
G01X17443208Y512273D01*
G01X17426190Y512273D01*
G01X17414760Y506685D01*
G01X17403330Y495255D01*
G01X17397488Y477983D01*
G01X17397488Y466553D01*
G01X17403330Y449535D01*
G01X17414760Y438105D01*
G01X17426190Y432263D01*
G01X17443208Y432263D01*
G01X17454638Y438105D01*
G01X17466068Y449535D01*
G01X17513820Y575265D02*
G01X17525250Y563835D01*
G01X17536680Y546563D01*
G01X17548110Y523703D01*
G01X17553952Y495255D01*
G01X17553952Y472395D01*
G01X17548110Y443693D01*
G01X17536680Y420833D01*
G01X17525250Y403815D01*
G01X17513820Y392385D01*
G01X18843655Y552405D02*
G01X18843655Y432263D01*
G01X18803523Y552405D02*
G01X18883533Y552405D01*
G01X18959987Y512273D02*
G01X18948557Y506685D01*
G01X18937127Y495255D01*
G01X18931285Y477983D01*
G01X18931285Y466553D01*
G01X18937127Y449535D01*
G01X18948557Y438105D01*
G01X18959987Y432263D01*
G01X18977005Y432263D01*
G01X18988435Y438105D01*
G01X18999865Y449535D01*
G01X19005707Y466553D01*
G01X19005707Y477983D01*
G01X18999865Y495255D01*
G01X18988435Y506685D01*
G01X18977005Y512273D01*
G01X18959987Y512273D01*
G01X19053459Y512273D02*
G01X19053459Y392385D01*
G01X19053459Y495255D02*
G01X19064889Y506685D01*
G01X19076319Y512273D01*
G01X19093591Y512273D01*
G01X19105021Y506685D01*
G01X19116451Y495255D01*
G01X19122039Y477983D01*
G01X19122039Y466553D01*
G01X19116451Y449535D01*
G01X19105021Y438105D01*
G01X19093591Y432263D01*
G01X19076319Y432263D01*
G01X19064889Y438105D01*
G01X19053459Y449535D01*
G01X19297807Y552405D02*
G01X19297807Y432263D01*
G01X19297807Y432263D02*
G01X19366387Y432263D01*
G01X19482719Y512273D02*
G01X19482719Y432263D01*
G01X19482719Y495255D02*
G01X19471289Y506685D01*
G01X19459859Y512273D01*
G01X19442841Y512273D01*
G01X19431411Y506685D01*
G01X19419981Y495255D01*
G01X19414139Y477983D01*
G01X19414139Y466553D01*
G01X19419981Y449535D01*
G01X19431411Y438105D01*
G01X19442841Y432263D01*
G01X19459859Y432263D01*
G01X19471289Y438105D01*
G01X19482719Y449535D01*
G01X19536313Y512273D02*
G01X19570603Y432263D01*
G01X19604893Y512273D02*
G01X19570603Y432263D01*
G01X19559173Y409403D01*
G01X19547743Y397973D01*
G01X19536313Y392385D01*
G01X19530471Y392385D01*
G01X19652645Y477983D02*
G01X19721225Y477983D01*
G01X19721225Y489413D01*
G01X19715637Y500843D01*
G01X19709795Y506685D01*
G01X19698365Y512273D01*
G01X19681347Y512273D01*
G01X19669917Y506685D01*
G01X19658487Y495255D01*
G01X19652645Y477983D01*
G01X19652645Y466553D01*
G01X19658487Y449535D01*
G01X19669917Y438105D01*
G01X19681347Y432263D01*
G01X19698365Y432263D01*
G01X19709795Y438105D01*
G01X19721225Y449535D01*
G01X19768977Y512273D02*
G01X19768977Y432263D01*
G01X19768977Y477983D02*
G01X19774819Y495255D01*
G01X19786249Y506685D01*
G01X19797679Y512273D01*
G01X19814697Y512273D01*
G01X19862449Y483825D02*
G01X19965319Y483825D01*
G01X20013071Y552405D02*
G01X20013071Y432263D01*
G01X20013071Y552405D02*
G01X20064633Y552405D01*
G01X20081651Y546563D01*
G01X20087493Y540975D01*
G01X20093081Y529545D01*
G01X20093081Y518115D01*
G01X20087493Y506685D01*
G01X20081651Y500843D01*
G01X20064633Y495255D01*
G01X20013071Y495255D02*
G01X20064633Y495255D01*
G01X20081651Y489413D01*
G01X20087493Y483825D01*
G01X20093081Y472395D01*
G01X20093081Y455123D01*
G01X20087493Y443693D01*
G01X20081651Y438105D01*
G01X20064633Y432263D01*
G01X20013071Y432263D01*
G01X20169535Y512273D02*
G01X20158105Y506685D01*
G01X20146675Y495255D01*
G01X20140833Y477983D01*
G01X20140833Y466553D01*
G01X20146675Y449535D01*
G01X20158105Y438105D01*
G01X20169535Y432263D01*
G01X20186553Y432263D01*
G01X20197983Y438105D01*
G01X20209413Y449535D01*
G01X20215255Y466553D01*
G01X20215255Y477983D01*
G01X20209413Y495255D01*
G01X20197983Y506685D01*
G01X20186553Y512273D01*
G01X20169535Y512273D01*
G01X20280279Y552405D02*
G01X20280279Y455123D01*
G01X20285867Y438105D01*
G01X20297297Y432263D01*
G01X20308727Y432263D01*
G01X20263007Y512273D02*
G01X20303139Y512273D01*
G01X20373751Y552405D02*
G01X20373751Y455123D01*
G01X20379339Y438105D01*
G01X20390769Y432263D01*
G01X20402199Y432263D01*
G01X20356479Y512273D02*
G01X20396611Y512273D01*
G01X20478653Y512273D02*
G01X20467223Y506685D01*
G01X20455793Y495255D01*
G01X20449951Y477983D01*
G01X20449951Y466553D01*
G01X20455793Y449535D01*
G01X20467223Y438105D01*
G01X20478653Y432263D01*
G01X20495671Y432263D01*
G01X20507101Y438105D01*
G01X20518531Y449535D01*
G01X20524373Y466553D01*
G01X20524373Y477983D01*
G01X20518531Y495255D01*
G01X20507101Y506685D01*
G01X20495671Y512273D01*
G01X20478653Y512273D01*
G01X20572125Y512273D02*
G01X20572125Y432263D01*
G01X20572125Y489413D02*
G01X20589397Y506685D01*
G01X20600827Y512273D01*
G01X20617845Y512273D01*
G01X20629275Y506685D01*
G01X20635117Y489413D01*
G01X20635117Y432263D01*
G01X20635117Y489413D02*
G01X20652135Y506685D01*
G01X20663565Y512273D01*
G01X20680837Y512273D01*
G01X20692267Y506685D01*
G01X20697855Y489413D01*
G01X20697855Y432263D01*
G01X20873623Y552405D02*
G01X20873623Y432263D01*
G01X20873623Y432263D02*
G01X20942203Y432263D01*
G01X21058535Y512273D02*
G01X21058535Y432263D01*
G01X21058535Y495255D02*
G01X21047105Y506685D01*
G01X21035675Y512273D01*
G01X21018657Y512273D01*
G01X21007227Y506685D01*
G01X20995797Y495255D01*
G01X20989955Y477983D01*
G01X20989955Y466553D01*
G01X20995797Y449535D01*
G01X21007227Y438105D01*
G01X21018657Y432263D01*
G01X21035675Y432263D01*
G01X21047105Y438105D01*
G01X21058535Y449535D01*
G01X21112129Y512273D02*
G01X21146419Y432263D01*
G01X21180709Y512273D02*
G01X21146419Y432263D01*
G01X21134989Y409403D01*
G01X21123559Y397973D01*
G01X21112129Y392385D01*
G01X21106287Y392385D01*
G01X21228461Y477983D02*
G01X21297041Y477983D01*
G01X21297041Y489413D01*
G01X21291453Y500843D01*
G01X21285611Y506685D01*
G01X21274181Y512273D01*
G01X21257163Y512273D01*
G01X21245733Y506685D01*
G01X21234303Y495255D01*
G01X21228461Y477983D01*
G01X21228461Y466553D01*
G01X21234303Y449535D01*
G01X21245733Y438105D01*
G01X21257163Y432263D01*
G01X21274181Y432263D01*
G01X21285611Y438105D01*
G01X21297041Y449535D01*
G01X21344793Y512273D02*
G01X21344793Y432263D01*
G01X21344793Y477983D02*
G01X21350635Y495255D01*
G01X21362065Y506685D01*
G01X21373495Y512273D01*
G01X21390513Y512273D01*
G01X6924596Y-68298D02*
G01X6918754Y-85316D01*
G01X6907324Y-96746D01*
G01X6890306Y-102588D01*
G01X6884464Y-102588D01*
G01X6867446Y-96746D01*
G01X6856016Y-85316D01*
G01X6850174Y-68298D01*
G01X6850174Y-62456D01*
G01X6856016Y-45438D01*
G01X6867446Y-34008D01*
G01X6884464Y-28166D01*
G01X6890306Y-28166D01*
G01X6907324Y-34008D01*
G01X6918754Y-45438D01*
G01X6924596Y-68298D01*
G01X6924596Y-96746D01*
G01X6918754Y-125448D01*
G01X6907324Y-142466D01*
G01X6890306Y-148308D01*
G01X6878876Y-148308D01*
G01X6861604Y-142466D01*
G01X6856016Y-131036D01*
G01X8321488Y-28166D02*
G01X8264338Y-108176D01*
G01X8350190Y-108176D01*
G01X8321488Y-28166D02*
G01X8321488Y-148308D01*
G01X8409372Y-28166D02*
G01X8472364Y-28166D01*
G01X8438074Y-73886D01*
G01X8455092Y-73886D01*
G01X8466522Y-79728D01*
G01X8472364Y-85316D01*
G01X8477952Y-102588D01*
G01X8477952Y-114018D01*
G01X8472364Y-131036D01*
G01X8460934Y-142466D01*
G01X8443662Y-148308D01*
G01X8426644Y-148308D01*
G01X8409372Y-142466D01*
G01X8403784Y-136878D01*
G01X8397942Y-125448D01*
G01X8531546Y-119606D02*
G01X8525704Y-125448D01*
G01X8531546Y-131036D01*
G01X8537134Y-125448D01*
G01X8531546Y-119606D01*
G01X8596316Y-28166D02*
G01X8659308Y-28166D01*
G01X8625018Y-73886D01*
G01X8642036Y-73886D01*
G01X8653466Y-79728D01*
G01X8659308Y-85316D01*
G01X8664896Y-102588D01*
G01X8664896Y-114018D01*
G01X8659308Y-131036D01*
G01X8647878Y-142466D01*
G01X8630606Y-148308D01*
G01X8613588Y-148308D01*
G01X8596316Y-142466D01*
G01X8590728Y-136878D01*
G01X8584886Y-125448D01*
G01X8712648Y-68298D02*
G01X8775640Y-148308D01*
G01X8775640Y-68298D02*
G01X8712648Y-148308D01*
G01X8880542Y-28166D02*
G01X8823392Y-108176D01*
G01X8909244Y-108176D01*
G01X8880542Y-28166D02*
G01X8880542Y-148308D01*
G01X8968426Y-28166D02*
G01X9031418Y-28166D01*
G01X8997128Y-73886D01*
G01X9014146Y-73886D01*
G01X9025576Y-79728D01*
G01X9031418Y-85316D01*
G01X9037006Y-102588D01*
G01X9037006Y-114018D01*
G01X9031418Y-131036D01*
G01X9019988Y-142466D01*
G01X9002716Y-148308D01*
G01X8985698Y-148308D01*
G01X8968426Y-142466D01*
G01X8962838Y-136878D01*
G01X8956996Y-125448D01*
G01X9090600Y-119606D02*
G01X9084758Y-125448D01*
G01X9090600Y-131036D01*
G01X9096188Y-125448D01*
G01X9090600Y-119606D01*
G01X9155370Y-28166D02*
G01X9218362Y-28166D01*
G01X9184072Y-73886D01*
G01X9201090Y-73886D01*
G01X9212520Y-79728D01*
G01X9218362Y-85316D01*
G01X9223950Y-102588D01*
G01X9223950Y-114018D01*
G01X9218362Y-131036D01*
G01X9206932Y-142466D01*
G01X9189660Y-148308D01*
G01X9172642Y-148308D01*
G01X9155370Y-142466D01*
G01X9149782Y-136878D01*
G01X9143940Y-125448D01*
G01X9271702Y-68298D02*
G01X9271702Y-148308D01*
G01X9271702Y-91158D02*
G01X9288974Y-73886D01*
G01X9300404Y-68298D01*
G01X9317422Y-68298D01*
G01X9328852Y-73886D01*
G01X9334694Y-91158D01*
G01X9334694Y-148308D01*
G01X9334694Y-91158D02*
G01X9351712Y-73886D01*
G01X9363142Y-68298D01*
G01X9380414Y-68298D01*
G01X9391844Y-73886D01*
G01X9397432Y-91158D01*
G01X9397432Y-148308D01*
G01X9445184Y-28166D02*
G01X9451026Y-34008D01*
G01X9456614Y-28166D01*
G01X9451026Y-22578D01*
G01X9445184Y-28166D01*
G01X9451026Y-68298D02*
G01X9451026Y-148308D01*
G01X9504366Y-28166D02*
G01X9504366Y-148308D01*
G01X9592250Y-5306D02*
G01X9580820Y-16736D01*
G01X9569390Y-34008D01*
G01X9557960Y-56868D01*
G01X9552118Y-85316D01*
G01X9552118Y-108176D01*
G01X9557960Y-136878D01*
G01X9569390Y-159738D01*
G01X9580820Y-176756D01*
G01X9592250Y-188186D01*
G01X9640002Y-51026D02*
G01X9651432Y-45438D01*
G01X9668704Y-28166D01*
G01X9668704Y-148308D01*
G01X9722298Y-119606D02*
G01X9716456Y-125448D01*
G01X9722298Y-131036D01*
G01X9727886Y-125448D01*
G01X9722298Y-119606D01*
G01X9775638Y-51026D02*
G01X9787068Y-45438D01*
G01X9804340Y-28166D01*
G01X9804340Y-148308D01*
G01X9886382Y-28166D02*
G01X9869364Y-34008D01*
G01X9857934Y-51026D01*
G01X9852092Y-79728D01*
G01X9852092Y-96746D01*
G01X9857934Y-125448D01*
G01X9869364Y-142466D01*
G01X9886382Y-148308D01*
G01X9897812Y-148308D01*
G01X9915084Y-142466D01*
G01X9926514Y-125448D01*
G01X9932102Y-96746D01*
G01X9932102Y-79728D01*
G01X9926514Y-51026D01*
G01X9915084Y-34008D01*
G01X9897812Y-28166D01*
G01X9886382Y-28166D01*
G01X10014144Y-28166D02*
G01X9997126Y-34008D01*
G01X9985696Y-51026D01*
G01X9979854Y-79728D01*
G01X9979854Y-96746D01*
G01X9985696Y-125448D01*
G01X9997126Y-142466D01*
G01X10014144Y-148308D01*
G01X10025574Y-148308D01*
G01X10042846Y-142466D01*
G01X10054276Y-125448D01*
G01X10059864Y-96746D01*
G01X10059864Y-79728D01*
G01X10054276Y-51026D01*
G01X10042846Y-34008D01*
G01X10025574Y-28166D01*
G01X10014144Y-28166D01*
G01X10107616Y-68298D02*
G01X10170608Y-148308D01*
G01X10170608Y-68298D02*
G01X10107616Y-148308D01*
G01X10218360Y-51026D02*
G01X10229790Y-45438D01*
G01X10247062Y-28166D01*
G01X10247062Y-148308D01*
G01X10300656Y-119606D02*
G01X10294814Y-125448D01*
G01X10300656Y-131036D01*
G01X10306244Y-125448D01*
G01X10300656Y-119606D01*
G01X10353996Y-51026D02*
G01X10365426Y-45438D01*
G01X10382698Y-28166D01*
G01X10382698Y-148308D01*
G01X10464740Y-28166D02*
G01X10447722Y-34008D01*
G01X10436292Y-51026D01*
G01X10430450Y-79728D01*
G01X10430450Y-96746D01*
G01X10436292Y-125448D01*
G01X10447722Y-142466D01*
G01X10464740Y-148308D01*
G01X10476170Y-148308D01*
G01X10493442Y-142466D01*
G01X10504872Y-125448D01*
G01X10510460Y-96746D01*
G01X10510460Y-79728D01*
G01X10504872Y-51026D01*
G01X10493442Y-34008D01*
G01X10476170Y-28166D01*
G01X10464740Y-28166D01*
G01X10592502Y-28166D02*
G01X10575484Y-34008D01*
G01X10564054Y-51026D01*
G01X10558212Y-79728D01*
G01X10558212Y-96746D01*
G01X10564054Y-125448D01*
G01X10575484Y-142466D01*
G01X10592502Y-148308D01*
G01X10603932Y-148308D01*
G01X10621204Y-142466D01*
G01X10632634Y-125448D01*
G01X10638222Y-96746D01*
G01X10638222Y-79728D01*
G01X10632634Y-51026D01*
G01X10621204Y-34008D01*
G01X10603932Y-28166D01*
G01X10592502Y-28166D01*
G01X10685974Y-68298D02*
G01X10685974Y-148308D01*
G01X10685974Y-91158D02*
G01X10703246Y-73886D01*
G01X10714676Y-68298D01*
G01X10731694Y-68298D01*
G01X10743124Y-73886D01*
G01X10748966Y-91158D01*
G01X10748966Y-148308D01*
G01X10748966Y-91158D02*
G01X10765984Y-73886D01*
G01X10777414Y-68298D01*
G01X10794686Y-68298D01*
G01X10806116Y-73886D01*
G01X10811704Y-91158D01*
G01X10811704Y-148308D01*
G01X10859456Y-68298D02*
G01X10859456Y-148308D01*
G01X10859456Y-91158D02*
G01X10876728Y-73886D01*
G01X10888158Y-68298D01*
G01X10905176Y-68298D01*
G01X10916606Y-73886D01*
G01X10922448Y-91158D01*
G01X10922448Y-148308D01*
G01X10922448Y-91158D02*
G01X10939466Y-73886D01*
G01X10950896Y-68298D01*
G01X10968168Y-68298D01*
G01X10979598Y-73886D01*
G01X10985186Y-91158D01*
G01X10985186Y-148308D01*
G01X11032938Y-5306D02*
G01X11044368Y-16736D01*
G01X11055798Y-34008D01*
G01X11067228Y-56868D01*
G01X11073070Y-85316D01*
G01X11073070Y-108176D01*
G01X11067228Y-136878D01*
G01X11055798Y-159738D01*
G01X11044368Y-176756D01*
G01X11032938Y-188186D01*
G01X12322387Y-28166D02*
G01X12322387Y-148308D01*
G01X12322387Y-28166D02*
G01X12373949Y-28166D01*
G01X12390967Y-34008D01*
G01X12396809Y-39596D01*
G01X12402397Y-51026D01*
G01X12402397Y-68298D01*
G01X12396809Y-79728D01*
G01X12390967Y-85316D01*
G01X12373949Y-91158D01*
G01X12322387Y-91158D01*
G01X12490281Y-28166D02*
G01X12490281Y-148308D01*
G01X12450149Y-28166D02*
G01X12530159Y-28166D01*
G01X12577911Y-28166D02*
G01X12577911Y-148308D01*
G01X12657921Y-28166D02*
G01X12657921Y-148308D01*
G01X12577911Y-85316D02*
G01X12657921Y-85316D01*
G01X13783794Y-28166D02*
G01X13783794Y-148308D01*
G01X13783794Y-28166D02*
G01X13835356Y-28166D01*
G01X13852374Y-34008D01*
G01X13858216Y-39596D01*
G01X13863804Y-51026D01*
G01X13863804Y-62456D01*
G01X13858216Y-73886D01*
G01X13852374Y-79728D01*
G01X13835356Y-85316D01*
G01X13783794Y-85316D01*
G01X13823926Y-85316D02*
G01X13863804Y-148308D01*
G01X13940258Y-68298D02*
G01X13928828Y-73886D01*
G01X13917398Y-85316D01*
G01X13911556Y-102588D01*
G01X13911556Y-114018D01*
G01X13917398Y-131036D01*
G01X13928828Y-142466D01*
G01X13940258Y-148308D01*
G01X13957276Y-148308D01*
G01X13968706Y-142466D01*
G01X13980136Y-131036D01*
G01X13985978Y-114018D01*
G01X13985978Y-102588D01*
G01X13980136Y-85316D01*
G01X13968706Y-73886D01*
G01X13957276Y-68298D01*
G01X13940258Y-68298D01*
G01X14033730Y-68298D02*
G01X14033730Y-125448D01*
G01X14039572Y-142466D01*
G01X14051002Y-148308D01*
G01X14068020Y-148308D01*
G01X14079450Y-142466D01*
G01X14096722Y-125448D01*
G01X14096722Y-68298D02*
G01X14096722Y-148308D01*
G01X14144474Y-68298D02*
G01X14144474Y-148308D01*
G01X14144474Y-91158D02*
G01X14161746Y-73886D01*
G01X14173176Y-68298D01*
G01X14190194Y-68298D01*
G01X14201624Y-73886D01*
G01X14207466Y-91158D01*
G01X14207466Y-148308D01*
G01X14323798Y-28166D02*
G01X14323798Y-148308D01*
G01X14323798Y-85316D02*
G01X14312368Y-73886D01*
G01X14300938Y-68298D01*
G01X14283920Y-68298D01*
G01X14272490Y-73886D01*
G01X14261060Y-85316D01*
G01X14255218Y-102588D01*
G01X14255218Y-114018D01*
G01X14261060Y-131036D01*
G01X14272490Y-142466D01*
G01X14283920Y-148308D01*
G01X14300938Y-148308D01*
G01X14312368Y-142466D01*
G01X14323798Y-131036D01*
G01X15214975Y-28166D02*
G01X15214975Y-148308D01*
G01X15214975Y-28166D02*
G01X15266537Y-28166D01*
G01X15283555Y-34008D01*
G01X15289397Y-39596D01*
G01X15294985Y-51026D01*
G01X15294985Y-68298D01*
G01X15289397Y-79728D01*
G01X15283555Y-85316D01*
G01X15266537Y-91158D01*
G01X15214975Y-91158D01*
G01X15411317Y-68298D02*
G01X15411317Y-148308D01*
G01X15411317Y-85316D02*
G01X15399887Y-73886D01*
G01X15388457Y-68298D01*
G01X15371439Y-68298D01*
G01X15360009Y-73886D01*
G01X15348579Y-85316D01*
G01X15342737Y-102588D01*
G01X15342737Y-114018D01*
G01X15348579Y-131036D01*
G01X15360009Y-142466D01*
G01X15371439Y-148308D01*
G01X15388457Y-148308D01*
G01X15399887Y-142466D01*
G01X15411317Y-131036D01*
G01X15527649Y-28166D02*
G01X15527649Y-148308D01*
G01X15527649Y-85316D02*
G01X15516219Y-73886D01*
G01X15504789Y-68298D01*
G01X15487771Y-68298D01*
G01X15476341Y-73886D01*
G01X15464911Y-85316D01*
G01X15459069Y-102588D01*
G01X15459069Y-114018D01*
G01X15464911Y-131036D01*
G01X15476341Y-142466D01*
G01X15487771Y-148308D01*
G01X15504789Y-148308D01*
G01X15516219Y-142466D01*
G01X15527649Y-131036D01*
G01X16924286Y-5306D02*
G01X16912856Y-16736D01*
G01X16901426Y-34008D01*
G01X16889996Y-56868D01*
G01X16884154Y-85316D01*
G01X16884154Y-108176D01*
G01X16889996Y-136878D01*
G01X16901426Y-159738D01*
G01X16912856Y-176756D01*
G01X16924286Y-188186D01*
G01X16972038Y-28166D02*
G01X16972038Y-148308D01*
G01X16972038Y-28166D02*
G01X17017758Y-148308D01*
G01X17063478Y-28166D02*
G01X17017758Y-148308D01*
G01X17063478Y-28166D02*
G01X17063478Y-148308D01*
G01X17111230Y-28166D02*
G01X17117072Y-34008D01*
G01X17122660Y-28166D01*
G01X17117072Y-22578D01*
G01X17111230Y-28166D01*
G01X17117072Y-68298D02*
G01X17117072Y-148308D01*
G01X17170412Y-68298D02*
G01X17233404Y-148308D01*
G01X17233404Y-68298D02*
G01X17170412Y-148308D01*
G01X17281156Y-102588D02*
G01X17349736Y-102588D01*
G01X17349736Y-91158D01*
G01X17344148Y-79728D01*
G01X17338306Y-73886D01*
G01X17326876Y-68298D01*
G01X17309858Y-68298D01*
G01X17298428Y-73886D01*
G01X17286998Y-85316D01*
G01X17281156Y-102588D01*
G01X17281156Y-114018D01*
G01X17286998Y-131036D01*
G01X17298428Y-142466D01*
G01X17309858Y-148308D01*
G01X17326876Y-148308D01*
G01X17338306Y-142466D01*
G01X17349736Y-131036D01*
G01X17466068Y-28166D02*
G01X17466068Y-148308D01*
G01X17466068Y-85316D02*
G01X17454638Y-73886D01*
G01X17443208Y-68298D01*
G01X17426190Y-68298D01*
G01X17414760Y-73886D01*
G01X17403330Y-85316D01*
G01X17397488Y-102588D01*
G01X17397488Y-114018D01*
G01X17403330Y-131036D01*
G01X17414760Y-142466D01*
G01X17426190Y-148308D01*
G01X17443208Y-148308D01*
G01X17454638Y-142466D01*
G01X17466068Y-131036D01*
G01X17513820Y-5306D02*
G01X17525250Y-16736D01*
G01X17536680Y-34008D01*
G01X17548110Y-56868D01*
G01X17553952Y-85316D01*
G01X17553952Y-108176D01*
G01X17548110Y-136878D01*
G01X17536680Y-159738D01*
G01X17525250Y-176756D01*
G01X17513820Y-188186D01*
G01X18843655Y-28166D02*
G01X18843655Y-148308D01*
G01X18803523Y-28166D02*
G01X18883533Y-28166D01*
G01X18959987Y-68298D02*
G01X18948557Y-73886D01*
G01X18937127Y-85316D01*
G01X18931285Y-102588D01*
G01X18931285Y-114018D01*
G01X18937127Y-131036D01*
G01X18948557Y-142466D01*
G01X18959987Y-148308D01*
G01X18977005Y-148308D01*
G01X18988435Y-142466D01*
G01X18999865Y-131036D01*
G01X19005707Y-114018D01*
G01X19005707Y-102588D01*
G01X18999865Y-85316D01*
G01X18988435Y-73886D01*
G01X18977005Y-68298D01*
G01X18959987Y-68298D01*
G01X19053459Y-68298D02*
G01X19053459Y-188186D01*
G01X19053459Y-85316D02*
G01X19064889Y-73886D01*
G01X19076319Y-68298D01*
G01X19093591Y-68298D01*
G01X19105021Y-73886D01*
G01X19116451Y-85316D01*
G01X19122039Y-102588D01*
G01X19122039Y-114018D01*
G01X19116451Y-131036D01*
G01X19105021Y-142466D01*
G01X19093591Y-148308D01*
G01X19076319Y-148308D01*
G01X19064889Y-142466D01*
G01X19053459Y-131036D01*
G01X19297807Y-28166D02*
G01X19297807Y-148308D01*
G01X19297807Y-148308D02*
G01X19366387Y-148308D01*
G01X19482719Y-68298D02*
G01X19482719Y-148308D01*
G01X19482719Y-85316D02*
G01X19471289Y-73886D01*
G01X19459859Y-68298D01*
G01X19442841Y-68298D01*
G01X19431411Y-73886D01*
G01X19419981Y-85316D01*
G01X19414139Y-102588D01*
G01X19414139Y-114018D01*
G01X19419981Y-131036D01*
G01X19431411Y-142466D01*
G01X19442841Y-148308D01*
G01X19459859Y-148308D01*
G01X19471289Y-142466D01*
G01X19482719Y-131036D01*
G01X19536313Y-68298D02*
G01X19570603Y-148308D01*
G01X19604893Y-68298D02*
G01X19570603Y-148308D01*
G01X19559173Y-171168D01*
G01X19547743Y-182598D01*
G01X19536313Y-188186D01*
G01X19530471Y-188186D01*
G01X19652645Y-102588D02*
G01X19721225Y-102588D01*
G01X19721225Y-91158D01*
G01X19715637Y-79728D01*
G01X19709795Y-73886D01*
G01X19698365Y-68298D01*
G01X19681347Y-68298D01*
G01X19669917Y-73886D01*
G01X19658487Y-85316D01*
G01X19652645Y-102588D01*
G01X19652645Y-114018D01*
G01X19658487Y-131036D01*
G01X19669917Y-142466D01*
G01X19681347Y-148308D01*
G01X19698365Y-148308D01*
G01X19709795Y-142466D01*
G01X19721225Y-131036D01*
G01X19768977Y-68298D02*
G01X19768977Y-148308D01*
G01X19768977Y-102588D02*
G01X19774819Y-85316D01*
G01X19786249Y-73886D01*
G01X19797679Y-68298D01*
G01X19814697Y-68298D01*
G01X19862449Y-96746D02*
G01X19965319Y-96746D01*
G01X20013071Y-28166D02*
G01X20013071Y-148308D01*
G01X20013071Y-28166D02*
G01X20064633Y-28166D01*
G01X20081651Y-34008D01*
G01X20087493Y-39596D01*
G01X20093081Y-51026D01*
G01X20093081Y-62456D01*
G01X20087493Y-73886D01*
G01X20081651Y-79728D01*
G01X20064633Y-85316D01*
G01X20013071Y-85316D02*
G01X20064633Y-85316D01*
G01X20081651Y-91158D01*
G01X20087493Y-96746D01*
G01X20093081Y-108176D01*
G01X20093081Y-125448D01*
G01X20087493Y-136878D01*
G01X20081651Y-142466D01*
G01X20064633Y-148308D01*
G01X20013071Y-148308D01*
G01X20169535Y-68298D02*
G01X20158105Y-73886D01*
G01X20146675Y-85316D01*
G01X20140833Y-102588D01*
G01X20140833Y-114018D01*
G01X20146675Y-131036D01*
G01X20158105Y-142466D01*
G01X20169535Y-148308D01*
G01X20186553Y-148308D01*
G01X20197983Y-142466D01*
G01X20209413Y-131036D01*
G01X20215255Y-114018D01*
G01X20215255Y-102588D01*
G01X20209413Y-85316D01*
G01X20197983Y-73886D01*
G01X20186553Y-68298D01*
G01X20169535Y-68298D01*
G01X20280279Y-28166D02*
G01X20280279Y-125448D01*
G01X20285867Y-142466D01*
G01X20297297Y-148308D01*
G01X20308727Y-148308D01*
G01X20263007Y-68298D02*
G01X20303139Y-68298D01*
G01X20373751Y-28166D02*
G01X20373751Y-125448D01*
G01X20379339Y-142466D01*
G01X20390769Y-148308D01*
G01X20402199Y-148308D01*
G01X20356479Y-68298D02*
G01X20396611Y-68298D01*
G01X20478653Y-68298D02*
G01X20467223Y-73886D01*
G01X20455793Y-85316D01*
G01X20449951Y-102588D01*
G01X20449951Y-114018D01*
G01X20455793Y-131036D01*
G01X20467223Y-142466D01*
G01X20478653Y-148308D01*
G01X20495671Y-148308D01*
G01X20507101Y-142466D01*
G01X20518531Y-131036D01*
G01X20524373Y-114018D01*
G01X20524373Y-102588D01*
G01X20518531Y-85316D01*
G01X20507101Y-73886D01*
G01X20495671Y-68298D01*
G01X20478653Y-68298D01*
G01X20572125Y-68298D02*
G01X20572125Y-148308D01*
G01X20572125Y-91158D02*
G01X20589397Y-73886D01*
G01X20600827Y-68298D01*
G01X20617845Y-68298D01*
G01X20629275Y-73886D01*
G01X20635117Y-91158D01*
G01X20635117Y-148308D01*
G01X20635117Y-91158D02*
G01X20652135Y-73886D01*
G01X20663565Y-68298D01*
G01X20680837Y-68298D01*
G01X20692267Y-73886D01*
G01X20697855Y-91158D01*
G01X20697855Y-148308D01*
G01X20873623Y-28166D02*
G01X20873623Y-148308D01*
G01X20873623Y-148308D02*
G01X20942203Y-148308D01*
G01X21058535Y-68298D02*
G01X21058535Y-148308D01*
G01X21058535Y-85316D02*
G01X21047105Y-73886D01*
G01X21035675Y-68298D01*
G01X21018657Y-68298D01*
G01X21007227Y-73886D01*
G01X20995797Y-85316D01*
G01X20989955Y-102588D01*
G01X20989955Y-114018D01*
G01X20995797Y-131036D01*
G01X21007227Y-142466D01*
G01X21018657Y-148308D01*
G01X21035675Y-148308D01*
G01X21047105Y-142466D01*
G01X21058535Y-131036D01*
G01X21112129Y-68298D02*
G01X21146419Y-148308D01*
G01X21180709Y-68298D02*
G01X21146419Y-148308D01*
G01X21134989Y-171168D01*
G01X21123559Y-182598D01*
G01X21112129Y-188186D01*
G01X21106287Y-188186D01*
G01X21228461Y-102588D02*
G01X21297041Y-102588D01*
G01X21297041Y-91158D01*
G01X21291453Y-79728D01*
G01X21285611Y-73886D01*
G01X21274181Y-68298D01*
G01X21257163Y-68298D01*
G01X21245733Y-73886D01*
G01X21234303Y-85316D01*
G01X21228461Y-102588D01*
G01X21228461Y-114018D01*
G01X21234303Y-131036D01*
G01X21245733Y-142466D01*
G01X21257163Y-148308D01*
G01X21274181Y-148308D01*
G01X21285611Y-142466D01*
G01X21297041Y-131036D01*
G01X21344793Y-68298D02*
G01X21344793Y-148308D01*
G01X21344793Y-102588D02*
G01X21350635Y-85316D01*
G01X21362065Y-73886D01*
G01X21373495Y-68298D01*
G01X21390513Y-68298D01*
G01X6850174Y-631598D02*
G01X6861604Y-626010D01*
G01X6878876Y-608738D01*
G01X6878876Y-728880D01*
G01X6960918Y-608738D02*
G01X6943900Y-614580D01*
G01X6932470Y-631598D01*
G01X6926628Y-660300D01*
G01X6926628Y-677318D01*
G01X6932470Y-706020D01*
G01X6943900Y-723038D01*
G01X6960918Y-728880D01*
G01X6972348Y-728880D01*
G01X6989620Y-723038D01*
G01X7001050Y-706020D01*
G01X7006638Y-677318D01*
G01X7006638Y-660300D01*
G01X7001050Y-631598D01*
G01X6989620Y-614580D01*
G01X6972348Y-608738D01*
G01X6960918Y-608738D01*
G01X8275768Y-608738D02*
G01X8338760Y-608738D01*
G01X8304470Y-654458D01*
G01X8321488Y-654458D01*
G01X8332918Y-660300D01*
G01X8338760Y-665888D01*
G01X8344348Y-683160D01*
G01X8344348Y-694590D01*
G01X8338760Y-711608D01*
G01X8327330Y-723038D01*
G01X8310058Y-728880D01*
G01X8293040Y-728880D01*
G01X8275768Y-723038D01*
G01X8270180Y-717450D01*
G01X8264338Y-706020D01*
G01X8460680Y-626010D02*
G01X8455092Y-614580D01*
G01X8437820Y-608738D01*
G01X8426390Y-608738D01*
G01X8409372Y-614580D01*
G01X8397942Y-631598D01*
G01X8392100Y-660300D01*
G01X8392100Y-688748D01*
G01X8397942Y-711608D01*
G01X8409372Y-723038D01*
G01X8426390Y-728880D01*
G01X8432232Y-728880D01*
G01X8449250Y-723038D01*
G01X8460680Y-711608D01*
G01X8466522Y-694590D01*
G01X8466522Y-688748D01*
G01X8460680Y-671730D01*
G01X8449250Y-660300D01*
G01X8432232Y-654458D01*
G01X8426390Y-654458D01*
G01X8409372Y-660300D01*
G01X8397942Y-671730D01*
G01X8392100Y-688748D01*
G01X8520116Y-700178D02*
G01X8514274Y-706020D01*
G01X8520116Y-711608D01*
G01X8525704Y-706020D01*
G01X8520116Y-700178D01*
G01X8607746Y-608738D02*
G01X8590728Y-614580D01*
G01X8579298Y-631598D01*
G01X8573456Y-660300D01*
G01X8573456Y-677318D01*
G01X8579298Y-706020D01*
G01X8590728Y-723038D01*
G01X8607746Y-728880D01*
G01X8619176Y-728880D01*
G01X8636448Y-723038D01*
G01X8647878Y-706020D01*
G01X8653466Y-677318D01*
G01X8653466Y-660300D01*
G01X8647878Y-631598D01*
G01X8636448Y-614580D01*
G01X8619176Y-608738D01*
G01X8607746Y-608738D01*
G01X8701218Y-648870D02*
G01X8764210Y-728880D01*
G01X8764210Y-648870D02*
G01X8701218Y-728880D01*
G01X8823392Y-608738D02*
G01X8886384Y-608738D01*
G01X8852094Y-654458D01*
G01X8869112Y-654458D01*
G01X8880542Y-660300D01*
G01X8886384Y-665888D01*
G01X8891972Y-683160D01*
G01X8891972Y-694590D01*
G01X8886384Y-711608D01*
G01X8874954Y-723038D01*
G01X8857682Y-728880D01*
G01X8840664Y-728880D01*
G01X8823392Y-723038D01*
G01X8817804Y-717450D01*
G01X8811962Y-706020D01*
G01X9008304Y-626010D02*
G01X9002716Y-614580D01*
G01X8985444Y-608738D01*
G01X8974014Y-608738D01*
G01X8956996Y-614580D01*
G01X8945566Y-631598D01*
G01X8939724Y-660300D01*
G01X8939724Y-688748D01*
G01X8945566Y-711608D01*
G01X8956996Y-723038D01*
G01X8974014Y-728880D01*
G01X8979856Y-728880D01*
G01X8996874Y-723038D01*
G01X9008304Y-711608D01*
G01X9014146Y-694590D01*
G01X9014146Y-688748D01*
G01X9008304Y-671730D01*
G01X8996874Y-660300D01*
G01X8979856Y-654458D01*
G01X8974014Y-654458D01*
G01X8956996Y-660300D01*
G01X8945566Y-671730D01*
G01X8939724Y-688748D01*
G01X9067740Y-700178D02*
G01X9061898Y-706020D01*
G01X9067740Y-711608D01*
G01X9073328Y-706020D01*
G01X9067740Y-700178D01*
G01X9155370Y-608738D02*
G01X9138352Y-614580D01*
G01X9126922Y-631598D01*
G01X9121080Y-660300D01*
G01X9121080Y-677318D01*
G01X9126922Y-706020D01*
G01X9138352Y-723038D01*
G01X9155370Y-728880D01*
G01X9166800Y-728880D01*
G01X9184072Y-723038D01*
G01X9195502Y-706020D01*
G01X9201090Y-677318D01*
G01X9201090Y-660300D01*
G01X9195502Y-631598D01*
G01X9184072Y-614580D01*
G01X9166800Y-608738D01*
G01X9155370Y-608738D01*
G01X9248842Y-648870D02*
G01X9248842Y-728880D01*
G01X9248842Y-671730D02*
G01X9266114Y-654458D01*
G01X9277544Y-648870D01*
G01X9294562Y-648870D01*
G01X9305992Y-654458D01*
G01X9311834Y-671730D01*
G01X9311834Y-728880D01*
G01X9311834Y-671730D02*
G01X9328852Y-654458D01*
G01X9340282Y-648870D01*
G01X9357554Y-648870D01*
G01X9368984Y-654458D01*
G01X9374572Y-671730D01*
G01X9374572Y-728880D01*
G01X9422324Y-608738D02*
G01X9428166Y-614580D01*
G01X9433754Y-608738D01*
G01X9428166Y-603150D01*
G01X9422324Y-608738D01*
G01X9428166Y-648870D02*
G01X9428166Y-728880D01*
G01X9481506Y-608738D02*
G01X9481506Y-728880D01*
G01X9569390Y-585878D02*
G01X9557960Y-597308D01*
G01X9546530Y-614580D01*
G01X9535100Y-637440D01*
G01X9529258Y-665888D01*
G01X9529258Y-688748D01*
G01X9535100Y-717450D01*
G01X9546530Y-740310D01*
G01X9557960Y-757328D01*
G01X9569390Y-768758D01*
G01X9651432Y-608738D02*
G01X9634414Y-614580D01*
G01X9622984Y-631598D01*
G01X9617142Y-660300D01*
G01X9617142Y-677318D01*
G01X9622984Y-706020D01*
G01X9634414Y-723038D01*
G01X9651432Y-728880D01*
G01X9662862Y-728880D01*
G01X9680134Y-723038D01*
G01X9691564Y-706020D01*
G01X9697152Y-677318D01*
G01X9697152Y-660300D01*
G01X9691564Y-631598D01*
G01X9680134Y-614580D01*
G01X9662862Y-608738D01*
G01X9651432Y-608738D01*
G01X9750746Y-700178D02*
G01X9744904Y-706020D01*
G01X9750746Y-711608D01*
G01X9756334Y-706020D01*
G01X9750746Y-700178D01*
G01X9878508Y-648870D02*
G01X9872666Y-665888D01*
G01X9861236Y-677318D01*
G01X9844218Y-683160D01*
G01X9838376Y-683160D01*
G01X9821358Y-677318D01*
G01X9809928Y-665888D01*
G01X9804086Y-648870D01*
G01X9804086Y-643028D01*
G01X9809928Y-626010D01*
G01X9821358Y-614580D01*
G01X9838376Y-608738D01*
G01X9844218Y-608738D01*
G01X9861236Y-614580D01*
G01X9872666Y-626010D01*
G01X9878508Y-648870D01*
G01X9878508Y-677318D01*
G01X9872666Y-706020D01*
G01X9861236Y-723038D01*
G01X9844218Y-728880D01*
G01X9832788Y-728880D01*
G01X9815516Y-723038D01*
G01X9809928Y-711608D01*
G01X9926260Y-631598D02*
G01X9937690Y-626010D01*
G01X9954962Y-608738D01*
G01X9954962Y-728880D01*
G01X10059864Y-608738D02*
G01X10002714Y-688748D01*
G01X10088566Y-688748D01*
G01X10059864Y-608738D02*
G01X10059864Y-728880D01*
G01X10136318Y-648870D02*
G01X10199310Y-728880D01*
G01X10199310Y-648870D02*
G01X10136318Y-728880D01*
G01X10281352Y-608738D02*
G01X10264334Y-614580D01*
G01X10252904Y-631598D01*
G01X10247062Y-660300D01*
G01X10247062Y-677318D01*
G01X10252904Y-706020D01*
G01X10264334Y-723038D01*
G01X10281352Y-728880D01*
G01X10292782Y-728880D01*
G01X10310054Y-723038D01*
G01X10321484Y-706020D01*
G01X10327072Y-677318D01*
G01X10327072Y-660300D01*
G01X10321484Y-631598D01*
G01X10310054Y-614580D01*
G01X10292782Y-608738D01*
G01X10281352Y-608738D01*
G01X10380666Y-700178D02*
G01X10374824Y-706020D01*
G01X10380666Y-711608D01*
G01X10386254Y-706020D01*
G01X10380666Y-700178D01*
G01X10508428Y-648870D02*
G01X10502586Y-665888D01*
G01X10491156Y-677318D01*
G01X10474138Y-683160D01*
G01X10468296Y-683160D01*
G01X10451278Y-677318D01*
G01X10439848Y-665888D01*
G01X10434006Y-648870D01*
G01X10434006Y-643028D01*
G01X10439848Y-626010D01*
G01X10451278Y-614580D01*
G01X10468296Y-608738D01*
G01X10474138Y-608738D01*
G01X10491156Y-614580D01*
G01X10502586Y-626010D01*
G01X10508428Y-648870D01*
G01X10508428Y-677318D01*
G01X10502586Y-706020D01*
G01X10491156Y-723038D01*
G01X10474138Y-728880D01*
G01X10462708Y-728880D01*
G01X10445436Y-723038D01*
G01X10439848Y-711608D01*
G01X10556180Y-631598D02*
G01X10567610Y-626010D01*
G01X10584882Y-608738D01*
G01X10584882Y-728880D01*
G01X10689784Y-608738D02*
G01X10632634Y-688748D01*
G01X10718486Y-688748D01*
G01X10689784Y-608738D02*
G01X10689784Y-728880D01*
G01X10766238Y-648870D02*
G01X10766238Y-728880D01*
G01X10766238Y-671730D02*
G01X10783510Y-654458D01*
G01X10794940Y-648870D01*
G01X10811958Y-648870D01*
G01X10823388Y-654458D01*
G01X10829230Y-671730D01*
G01X10829230Y-728880D01*
G01X10829230Y-671730D02*
G01X10846248Y-654458D01*
G01X10857678Y-648870D01*
G01X10874950Y-648870D01*
G01X10886380Y-654458D01*
G01X10891968Y-671730D01*
G01X10891968Y-728880D01*
G01X10939720Y-648870D02*
G01X10939720Y-728880D01*
G01X10939720Y-671730D02*
G01X10956992Y-654458D01*
G01X10968422Y-648870D01*
G01X10985440Y-648870D01*
G01X10996870Y-654458D01*
G01X11002712Y-671730D01*
G01X11002712Y-728880D01*
G01X11002712Y-671730D02*
G01X11019730Y-654458D01*
G01X11031160Y-648870D01*
G01X11048432Y-648870D01*
G01X11059862Y-654458D01*
G01X11065450Y-671730D01*
G01X11065450Y-728880D01*
G01X11113202Y-585878D02*
G01X11124632Y-597308D01*
G01X11136062Y-614580D01*
G01X11147492Y-637440D01*
G01X11153334Y-665888D01*
G01X11153334Y-688748D01*
G01X11147492Y-717450D01*
G01X11136062Y-740310D01*
G01X11124632Y-757328D01*
G01X11113202Y-768758D01*
G01X12322387Y-608738D02*
G01X12322387Y-728880D01*
G01X12322387Y-608738D02*
G01X12373949Y-608738D01*
G01X12390967Y-614580D01*
G01X12396809Y-620168D01*
G01X12402397Y-631598D01*
G01X12402397Y-648870D01*
G01X12396809Y-660300D01*
G01X12390967Y-665888D01*
G01X12373949Y-671730D01*
G01X12322387Y-671730D01*
G01X12490281Y-608738D02*
G01X12490281Y-728880D01*
G01X12450149Y-608738D02*
G01X12530159Y-608738D01*
G01X12577911Y-608738D02*
G01X12577911Y-728880D01*
G01X12657921Y-608738D02*
G01X12657921Y-728880D01*
G01X12577911Y-665888D02*
G01X12657921Y-665888D01*
G01X13783794Y-608738D02*
G01X13783794Y-728880D01*
G01X13783794Y-608738D02*
G01X13835356Y-608738D01*
G01X13852374Y-614580D01*
G01X13858216Y-620168D01*
G01X13863804Y-631598D01*
G01X13863804Y-643028D01*
G01X13858216Y-654458D01*
G01X13852374Y-660300D01*
G01X13835356Y-665888D01*
G01X13783794Y-665888D01*
G01X13823926Y-665888D02*
G01X13863804Y-728880D01*
G01X13940258Y-648870D02*
G01X13928828Y-654458D01*
G01X13917398Y-665888D01*
G01X13911556Y-683160D01*
G01X13911556Y-694590D01*
G01X13917398Y-711608D01*
G01X13928828Y-723038D01*
G01X13940258Y-728880D01*
G01X13957276Y-728880D01*
G01X13968706Y-723038D01*
G01X13980136Y-711608D01*
G01X13985978Y-694590D01*
G01X13985978Y-683160D01*
G01X13980136Y-665888D01*
G01X13968706Y-654458D01*
G01X13957276Y-648870D01*
G01X13940258Y-648870D01*
G01X14033730Y-648870D02*
G01X14033730Y-706020D01*
G01X14039572Y-723038D01*
G01X14051002Y-728880D01*
G01X14068020Y-728880D01*
G01X14079450Y-723038D01*
G01X14096722Y-706020D01*
G01X14096722Y-648870D02*
G01X14096722Y-728880D01*
G01X14144474Y-648870D02*
G01X14144474Y-728880D01*
G01X14144474Y-671730D02*
G01X14161746Y-654458D01*
G01X14173176Y-648870D01*
G01X14190194Y-648870D01*
G01X14201624Y-654458D01*
G01X14207466Y-671730D01*
G01X14207466Y-728880D01*
G01X14323798Y-608738D02*
G01X14323798Y-728880D01*
G01X14323798Y-665888D02*
G01X14312368Y-654458D01*
G01X14300938Y-648870D01*
G01X14283920Y-648870D01*
G01X14272490Y-654458D01*
G01X14261060Y-665888D01*
G01X14255218Y-683160D01*
G01X14255218Y-694590D01*
G01X14261060Y-711608D01*
G01X14272490Y-723038D01*
G01X14283920Y-728880D01*
G01X14300938Y-728880D01*
G01X14312368Y-723038D01*
G01X14323798Y-711608D01*
G01X15214975Y-608738D02*
G01X15214975Y-728880D01*
G01X15214975Y-608738D02*
G01X15266537Y-608738D01*
G01X15283555Y-614580D01*
G01X15289397Y-620168D01*
G01X15294985Y-631598D01*
G01X15294985Y-648870D01*
G01X15289397Y-660300D01*
G01X15283555Y-665888D01*
G01X15266537Y-671730D01*
G01X15214975Y-671730D01*
G01X15411317Y-648870D02*
G01X15411317Y-728880D01*
G01X15411317Y-665888D02*
G01X15399887Y-654458D01*
G01X15388457Y-648870D01*
G01X15371439Y-648870D01*
G01X15360009Y-654458D01*
G01X15348579Y-665888D01*
G01X15342737Y-683160D01*
G01X15342737Y-694590D01*
G01X15348579Y-711608D01*
G01X15360009Y-723038D01*
G01X15371439Y-728880D01*
G01X15388457Y-728880D01*
G01X15399887Y-723038D01*
G01X15411317Y-711608D01*
G01X15527649Y-608738D02*
G01X15527649Y-728880D01*
G01X15527649Y-665888D02*
G01X15516219Y-654458D01*
G01X15504789Y-648870D01*
G01X15487771Y-648870D01*
G01X15476341Y-654458D01*
G01X15464911Y-665888D01*
G01X15459069Y-683160D01*
G01X15459069Y-694590D01*
G01X15464911Y-711608D01*
G01X15476341Y-723038D01*
G01X15487771Y-728880D01*
G01X15504789Y-728880D01*
G01X15516219Y-723038D01*
G01X15527649Y-711608D01*
G01X16924286Y-585878D02*
G01X16912856Y-597308D01*
G01X16901426Y-614580D01*
G01X16889996Y-637440D01*
G01X16884154Y-665888D01*
G01X16884154Y-688748D01*
G01X16889996Y-717450D01*
G01X16901426Y-740310D01*
G01X16912856Y-757328D01*
G01X16924286Y-768758D01*
G01X16972038Y-608738D02*
G01X16972038Y-728880D01*
G01X16972038Y-608738D02*
G01X17017758Y-728880D01*
G01X17063478Y-608738D02*
G01X17017758Y-728880D01*
G01X17063478Y-608738D02*
G01X17063478Y-728880D01*
G01X17111230Y-608738D02*
G01X17117072Y-614580D01*
G01X17122660Y-608738D01*
G01X17117072Y-603150D01*
G01X17111230Y-608738D01*
G01X17117072Y-648870D02*
G01X17117072Y-728880D01*
G01X17170412Y-648870D02*
G01X17233404Y-728880D01*
G01X17233404Y-648870D02*
G01X17170412Y-728880D01*
G01X17281156Y-683160D02*
G01X17349736Y-683160D01*
G01X17349736Y-671730D01*
G01X17344148Y-660300D01*
G01X17338306Y-654458D01*
G01X17326876Y-648870D01*
G01X17309858Y-648870D01*
G01X17298428Y-654458D01*
G01X17286998Y-665888D01*
G01X17281156Y-683160D01*
G01X17281156Y-694590D01*
G01X17286998Y-711608D01*
G01X17298428Y-723038D01*
G01X17309858Y-728880D01*
G01X17326876Y-728880D01*
G01X17338306Y-723038D01*
G01X17349736Y-711608D01*
G01X17466068Y-608738D02*
G01X17466068Y-728880D01*
G01X17466068Y-665888D02*
G01X17454638Y-654458D01*
G01X17443208Y-648870D01*
G01X17426190Y-648870D01*
G01X17414760Y-654458D01*
G01X17403330Y-665888D01*
G01X17397488Y-683160D01*
G01X17397488Y-694590D01*
G01X17403330Y-711608D01*
G01X17414760Y-723038D01*
G01X17426190Y-728880D01*
G01X17443208Y-728880D01*
G01X17454638Y-723038D01*
G01X17466068Y-711608D01*
G01X17513820Y-585878D02*
G01X17525250Y-597308D01*
G01X17536680Y-614580D01*
G01X17548110Y-637440D01*
G01X17553952Y-665888D01*
G01X17553952Y-688748D01*
G01X17548110Y-717450D01*
G01X17536680Y-740310D01*
G01X17525250Y-757328D01*
G01X17513820Y-768758D01*
G01X18843655Y-608738D02*
G01X18843655Y-728880D01*
G01X18803523Y-608738D02*
G01X18883533Y-608738D01*
G01X18959987Y-648870D02*
G01X18948557Y-654458D01*
G01X18937127Y-665888D01*
G01X18931285Y-683160D01*
G01X18931285Y-694590D01*
G01X18937127Y-711608D01*
G01X18948557Y-723038D01*
G01X18959987Y-728880D01*
G01X18977005Y-728880D01*
G01X18988435Y-723038D01*
G01X18999865Y-711608D01*
G01X19005707Y-694590D01*
G01X19005707Y-683160D01*
G01X18999865Y-665888D01*
G01X18988435Y-654458D01*
G01X18977005Y-648870D01*
G01X18959987Y-648870D01*
G01X19053459Y-648870D02*
G01X19053459Y-768758D01*
G01X19053459Y-665888D02*
G01X19064889Y-654458D01*
G01X19076319Y-648870D01*
G01X19093591Y-648870D01*
G01X19105021Y-654458D01*
G01X19116451Y-665888D01*
G01X19122039Y-683160D01*
G01X19122039Y-694590D01*
G01X19116451Y-711608D01*
G01X19105021Y-723038D01*
G01X19093591Y-728880D01*
G01X19076319Y-728880D01*
G01X19064889Y-723038D01*
G01X19053459Y-711608D01*
G01X19297807Y-608738D02*
G01X19297807Y-728880D01*
G01X19297807Y-728880D02*
G01X19366387Y-728880D01*
G01X19482719Y-648870D02*
G01X19482719Y-728880D01*
G01X19482719Y-665888D02*
G01X19471289Y-654458D01*
G01X19459859Y-648870D01*
G01X19442841Y-648870D01*
G01X19431411Y-654458D01*
G01X19419981Y-665888D01*
G01X19414139Y-683160D01*
G01X19414139Y-694590D01*
G01X19419981Y-711608D01*
G01X19431411Y-723038D01*
G01X19442841Y-728880D01*
G01X19459859Y-728880D01*
G01X19471289Y-723038D01*
G01X19482719Y-711608D01*
G01X19536313Y-648870D02*
G01X19570603Y-728880D01*
G01X19604893Y-648870D02*
G01X19570603Y-728880D01*
G01X19559173Y-751740D01*
G01X19547743Y-763170D01*
G01X19536313Y-768758D01*
G01X19530471Y-768758D01*
G01X19652645Y-683160D02*
G01X19721225Y-683160D01*
G01X19721225Y-671730D01*
G01X19715637Y-660300D01*
G01X19709795Y-654458D01*
G01X19698365Y-648870D01*
G01X19681347Y-648870D01*
G01X19669917Y-654458D01*
G01X19658487Y-665888D01*
G01X19652645Y-683160D01*
G01X19652645Y-694590D01*
G01X19658487Y-711608D01*
G01X19669917Y-723038D01*
G01X19681347Y-728880D01*
G01X19698365Y-728880D01*
G01X19709795Y-723038D01*
G01X19721225Y-711608D01*
G01X19768977Y-648870D02*
G01X19768977Y-728880D01*
G01X19768977Y-683160D02*
G01X19774819Y-665888D01*
G01X19786249Y-654458D01*
G01X19797679Y-648870D01*
G01X19814697Y-648870D01*
G01X19862449Y-677318D02*
G01X19965319Y-677318D01*
G01X20013071Y-608738D02*
G01X20013071Y-728880D01*
G01X20013071Y-608738D02*
G01X20064633Y-608738D01*
G01X20081651Y-614580D01*
G01X20087493Y-620168D01*
G01X20093081Y-631598D01*
G01X20093081Y-643028D01*
G01X20087493Y-654458D01*
G01X20081651Y-660300D01*
G01X20064633Y-665888D01*
G01X20013071Y-665888D02*
G01X20064633Y-665888D01*
G01X20081651Y-671730D01*
G01X20087493Y-677318D01*
G01X20093081Y-688748D01*
G01X20093081Y-706020D01*
G01X20087493Y-717450D01*
G01X20081651Y-723038D01*
G01X20064633Y-728880D01*
G01X20013071Y-728880D01*
G01X20169535Y-648870D02*
G01X20158105Y-654458D01*
G01X20146675Y-665888D01*
G01X20140833Y-683160D01*
G01X20140833Y-694590D01*
G01X20146675Y-711608D01*
G01X20158105Y-723038D01*
G01X20169535Y-728880D01*
G01X20186553Y-728880D01*
G01X20197983Y-723038D01*
G01X20209413Y-711608D01*
G01X20215255Y-694590D01*
G01X20215255Y-683160D01*
G01X20209413Y-665888D01*
G01X20197983Y-654458D01*
G01X20186553Y-648870D01*
G01X20169535Y-648870D01*
G01X20280279Y-608738D02*
G01X20280279Y-706020D01*
G01X20285867Y-723038D01*
G01X20297297Y-728880D01*
G01X20308727Y-728880D01*
G01X20263007Y-648870D02*
G01X20303139Y-648870D01*
G01X20373751Y-608738D02*
G01X20373751Y-706020D01*
G01X20379339Y-723038D01*
G01X20390769Y-728880D01*
G01X20402199Y-728880D01*
G01X20356479Y-648870D02*
G01X20396611Y-648870D01*
G01X20478653Y-648870D02*
G01X20467223Y-654458D01*
G01X20455793Y-665888D01*
G01X20449951Y-683160D01*
G01X20449951Y-694590D01*
G01X20455793Y-711608D01*
G01X20467223Y-723038D01*
G01X20478653Y-728880D01*
G01X20495671Y-728880D01*
G01X20507101Y-723038D01*
G01X20518531Y-711608D01*
G01X20524373Y-694590D01*
G01X20524373Y-683160D01*
G01X20518531Y-665888D01*
G01X20507101Y-654458D01*
G01X20495671Y-648870D01*
G01X20478653Y-648870D01*
G01X20572125Y-648870D02*
G01X20572125Y-728880D01*
G01X20572125Y-671730D02*
G01X20589397Y-654458D01*
G01X20600827Y-648870D01*
G01X20617845Y-648870D01*
G01X20629275Y-654458D01*
G01X20635117Y-671730D01*
G01X20635117Y-728880D01*
G01X20635117Y-671730D02*
G01X20652135Y-654458D01*
G01X20663565Y-648870D01*
G01X20680837Y-648870D01*
G01X20692267Y-654458D01*
G01X20697855Y-671730D01*
G01X20697855Y-728880D01*
G01X20873623Y-608738D02*
G01X20873623Y-728880D01*
G01X20873623Y-728880D02*
G01X20942203Y-728880D01*
G01X21058535Y-648870D02*
G01X21058535Y-728880D01*
G01X21058535Y-665888D02*
G01X21047105Y-654458D01*
G01X21035675Y-648870D01*
G01X21018657Y-648870D01*
G01X21007227Y-654458D01*
G01X20995797Y-665888D01*
G01X20989955Y-683160D01*
G01X20989955Y-694590D01*
G01X20995797Y-711608D01*
G01X21007227Y-723038D01*
G01X21018657Y-728880D01*
G01X21035675Y-728880D01*
G01X21047105Y-723038D01*
G01X21058535Y-711608D01*
G01X21112129Y-648870D02*
G01X21146419Y-728880D01*
G01X21180709Y-648870D02*
G01X21146419Y-728880D01*
G01X21134989Y-751740D01*
G01X21123559Y-763170D01*
G01X21112129Y-768758D01*
G01X21106287Y-768758D01*
G01X21228461Y-683160D02*
G01X21297041Y-683160D01*
G01X21297041Y-671730D01*
G01X21291453Y-660300D01*
G01X21285611Y-654458D01*
G01X21274181Y-648870D01*
G01X21257163Y-648870D01*
G01X21245733Y-654458D01*
G01X21234303Y-665888D01*
G01X21228461Y-683160D01*
G01X21228461Y-694590D01*
G01X21234303Y-711608D01*
G01X21245733Y-723038D01*
G01X21257163Y-728880D01*
G01X21274181Y-728880D01*
G01X21285611Y-723038D01*
G01X21297041Y-711608D01*
G01X21344793Y-648870D02*
G01X21344793Y-728880D01*
G01X21344793Y-683160D02*
G01X21350635Y-665888D01*
G01X21362065Y-654458D01*
G01X21373495Y-648870D01*
G01X21390513Y-648870D01*
G01X6861604Y-1189309D02*
G01X6924596Y-1189309D01*
G01X6890306Y-1235029D01*
G01X6907324Y-1235029D01*
G01X6918754Y-1240871D01*
G01X6924596Y-1246459D01*
G01X6930184Y-1263731D01*
G01X6930184Y-1275161D01*
G01X6924596Y-1292179D01*
G01X6913166Y-1303609D01*
G01X6895894Y-1309451D01*
G01X6878876Y-1309451D01*
G01X6861604Y-1303609D01*
G01X6856016Y-1298021D01*
G01X6850174Y-1286591D01*
G01X7006638Y-1189309D02*
G01X6989366Y-1195151D01*
G01X6983778Y-1206581D01*
G01X6983778Y-1218011D01*
G01X6989366Y-1229441D01*
G01X7000796Y-1235029D01*
G01X7023656Y-1240871D01*
G01X7040928Y-1246459D01*
G01X7052358Y-1257889D01*
G01X7057946Y-1269319D01*
G01X7057946Y-1286591D01*
G01X7052358Y-1298021D01*
G01X7046516Y-1303609D01*
G01X7029498Y-1309451D01*
G01X7006638Y-1309451D01*
G01X6989366Y-1303609D01*
G01X6983778Y-1298021D01*
G01X6977936Y-1286591D01*
G01X6977936Y-1269319D01*
G01X6983778Y-1257889D01*
G01X6995208Y-1246459D01*
G01X7012226Y-1240871D01*
G01X7035086Y-1235029D01*
G01X7046516Y-1229441D01*
G01X7052358Y-1218011D01*
G01X7052358Y-1206581D01*
G01X7046516Y-1195151D01*
G01X7029498Y-1189309D01*
G01X7006638Y-1189309D01*
G01X8264338Y-1212169D02*
G01X8275768Y-1206581D01*
G01X8293040Y-1189309D01*
G01X8293040Y-1309451D01*
G01X8346634Y-1218011D02*
G01X8346634Y-1212169D01*
G01X8352222Y-1200739D01*
G01X8358064Y-1195151D01*
G01X8369494Y-1189309D01*
G01X8392354Y-1189309D01*
G01X8403784Y-1195151D01*
G01X8409372Y-1200739D01*
G01X8415214Y-1212169D01*
G01X8415214Y-1223599D01*
G01X8409372Y-1235029D01*
G01X8397942Y-1252301D01*
G01X8340792Y-1309451D01*
G01X8420802Y-1309451D01*
G01X8474396Y-1280749D02*
G01X8468554Y-1286591D01*
G01X8474396Y-1292179D01*
G01X8479984Y-1286591D01*
G01X8474396Y-1280749D01*
G01X8562026Y-1189309D02*
G01X8545008Y-1195151D01*
G01X8533578Y-1212169D01*
G01X8527736Y-1240871D01*
G01X8527736Y-1257889D01*
G01X8533578Y-1286591D01*
G01X8545008Y-1303609D01*
G01X8562026Y-1309451D01*
G01X8573456Y-1309451D01*
G01X8590728Y-1303609D01*
G01X8602158Y-1286591D01*
G01X8607746Y-1257889D01*
G01X8607746Y-1240871D01*
G01X8602158Y-1212169D01*
G01X8590728Y-1195151D01*
G01X8573456Y-1189309D01*
G01X8562026Y-1189309D01*
G01X8655498Y-1229441D02*
G01X8655498Y-1309451D01*
G01X8655498Y-1252301D02*
G01X8672770Y-1235029D01*
G01X8684200Y-1229441D01*
G01X8701218Y-1229441D01*
G01X8712648Y-1235029D01*
G01X8718490Y-1252301D01*
G01X8718490Y-1309451D01*
G01X8718490Y-1252301D02*
G01X8735508Y-1235029D01*
G01X8746938Y-1229441D01*
G01X8764210Y-1229441D01*
G01X8775640Y-1235029D01*
G01X8781228Y-1252301D01*
G01X8781228Y-1309451D01*
G01X8828980Y-1189309D02*
G01X8834822Y-1195151D01*
G01X8840410Y-1189309D01*
G01X8834822Y-1183721D01*
G01X8828980Y-1189309D01*
G01X8834822Y-1229441D02*
G01X8834822Y-1309451D01*
G01X8888162Y-1189309D02*
G01X8888162Y-1309451D01*
G01X8976046Y-1166449D02*
G01X8964616Y-1177879D01*
G01X8953186Y-1195151D01*
G01X8941756Y-1218011D01*
G01X8935914Y-1246459D01*
G01X8935914Y-1269319D01*
G01X8941756Y-1298021D01*
G01X8953186Y-1320881D01*
G01X8964616Y-1337899D01*
G01X8976046Y-1349329D01*
G01X9058088Y-1189309D02*
G01X9041070Y-1195151D01*
G01X9029640Y-1212169D01*
G01X9023798Y-1240871D01*
G01X9023798Y-1257889D01*
G01X9029640Y-1286591D01*
G01X9041070Y-1303609D01*
G01X9058088Y-1309451D01*
G01X9069518Y-1309451D01*
G01X9086790Y-1303609D01*
G01X9098220Y-1286591D01*
G01X9103808Y-1257889D01*
G01X9103808Y-1240871D01*
G01X9098220Y-1212169D01*
G01X9086790Y-1195151D01*
G01X9069518Y-1189309D01*
G01X9058088Y-1189309D01*
G01X9157402Y-1280749D02*
G01X9151560Y-1286591D01*
G01X9157402Y-1292179D01*
G01X9162990Y-1286591D01*
G01X9157402Y-1280749D01*
G01X9222172Y-1189309D02*
G01X9285164Y-1189309D01*
G01X9250874Y-1235029D01*
G01X9267892Y-1235029D01*
G01X9279322Y-1240871D01*
G01X9285164Y-1246459D01*
G01X9290752Y-1263731D01*
G01X9290752Y-1275161D01*
G01X9285164Y-1292179D01*
G01X9273734Y-1303609D01*
G01X9256462Y-1309451D01*
G01X9239444Y-1309451D01*
G01X9222172Y-1303609D01*
G01X9216584Y-1298021D01*
G01X9210742Y-1286591D01*
G01X9372794Y-1189309D02*
G01X9355776Y-1195151D01*
G01X9344346Y-1212169D01*
G01X9338504Y-1240871D01*
G01X9338504Y-1257889D01*
G01X9344346Y-1286591D01*
G01X9355776Y-1303609D01*
G01X9372794Y-1309451D01*
G01X9384224Y-1309451D01*
G01X9401496Y-1303609D01*
G01X9412926Y-1286591D01*
G01X9418514Y-1257889D01*
G01X9418514Y-1240871D01*
G01X9412926Y-1212169D01*
G01X9401496Y-1195151D01*
G01X9384224Y-1189309D01*
G01X9372794Y-1189309D01*
G01X9534846Y-1189309D02*
G01X9477696Y-1189309D01*
G01X9472108Y-1240871D01*
G01X9477696Y-1235029D01*
G01X9494968Y-1229441D01*
G01X9511986Y-1229441D01*
G01X9529258Y-1235029D01*
G01X9540688Y-1246459D01*
G01X9546276Y-1263731D01*
G01X9546276Y-1275161D01*
G01X9540688Y-1292179D01*
G01X9529258Y-1303609D01*
G01X9511986Y-1309451D01*
G01X9494968Y-1309451D01*
G01X9477696Y-1303609D01*
G01X9472108Y-1298021D01*
G01X9466266Y-1286591D01*
G01X9594028Y-1229441D02*
G01X9594028Y-1309451D01*
G01X9594028Y-1252301D02*
G01X9611300Y-1235029D01*
G01X9622730Y-1229441D01*
G01X9639748Y-1229441D01*
G01X9651178Y-1235029D01*
G01X9657020Y-1252301D01*
G01X9657020Y-1309451D01*
G01X9657020Y-1252301D02*
G01X9674038Y-1235029D01*
G01X9685468Y-1229441D01*
G01X9702740Y-1229441D01*
G01X9714170Y-1235029D01*
G01X9719758Y-1252301D01*
G01X9719758Y-1309451D01*
G01X9767510Y-1229441D02*
G01X9767510Y-1309451D01*
G01X9767510Y-1252301D02*
G01X9784782Y-1235029D01*
G01X9796212Y-1229441D01*
G01X9813230Y-1229441D01*
G01X9824660Y-1235029D01*
G01X9830502Y-1252301D01*
G01X9830502Y-1309451D01*
G01X9830502Y-1252301D02*
G01X9847520Y-1235029D01*
G01X9858950Y-1229441D01*
G01X9876222Y-1229441D01*
G01X9887652Y-1235029D01*
G01X9893240Y-1252301D01*
G01X9893240Y-1309451D01*
G01X9940992Y-1166449D02*
G01X9952422Y-1177879D01*
G01X9963852Y-1195151D01*
G01X9975282Y-1218011D01*
G01X9981124Y-1246459D01*
G01X9981124Y-1269319D01*
G01X9975282Y-1298021D01*
G01X9963852Y-1320881D01*
G01X9952422Y-1337899D01*
G01X9940992Y-1349329D01*
G01X12322387Y-1189309D02*
G01X12322387Y-1309451D01*
G01X12322387Y-1189309D02*
G01X12373949Y-1189309D01*
G01X12390967Y-1195151D01*
G01X12396809Y-1200739D01*
G01X12402397Y-1212169D01*
G01X12402397Y-1229441D01*
G01X12396809Y-1240871D01*
G01X12390967Y-1246459D01*
G01X12373949Y-1252301D01*
G01X12322387Y-1252301D01*
G01X12490281Y-1189309D02*
G01X12490281Y-1309451D01*
G01X12450149Y-1189309D02*
G01X12530159Y-1189309D01*
G01X12577911Y-1189309D02*
G01X12577911Y-1309451D01*
G01X12657921Y-1189309D02*
G01X12657921Y-1309451D01*
G01X12577911Y-1246459D02*
G01X12657921Y-1246459D01*
G01X13783794Y-1189309D02*
G01X13783794Y-1309451D01*
G01X13783794Y-1189309D02*
G01X13835356Y-1189309D01*
G01X13852374Y-1195151D01*
G01X13858216Y-1200739D01*
G01X13863804Y-1212169D01*
G01X13863804Y-1223599D01*
G01X13858216Y-1235029D01*
G01X13852374Y-1240871D01*
G01X13835356Y-1246459D01*
G01X13783794Y-1246459D01*
G01X13823926Y-1246459D02*
G01X13863804Y-1309451D01*
G01X13940258Y-1229441D02*
G01X13928828Y-1235029D01*
G01X13917398Y-1246459D01*
G01X13911556Y-1263731D01*
G01X13911556Y-1275161D01*
G01X13917398Y-1292179D01*
G01X13928828Y-1303609D01*
G01X13940258Y-1309451D01*
G01X13957276Y-1309451D01*
G01X13968706Y-1303609D01*
G01X13980136Y-1292179D01*
G01X13985978Y-1275161D01*
G01X13985978Y-1263731D01*
G01X13980136Y-1246459D01*
G01X13968706Y-1235029D01*
G01X13957276Y-1229441D01*
G01X13940258Y-1229441D01*
G01X14033730Y-1229441D02*
G01X14033730Y-1286591D01*
G01X14039572Y-1303609D01*
G01X14051002Y-1309451D01*
G01X14068020Y-1309451D01*
G01X14079450Y-1303609D01*
G01X14096722Y-1286591D01*
G01X14096722Y-1229441D02*
G01X14096722Y-1309451D01*
G01X14144474Y-1229441D02*
G01X14144474Y-1309451D01*
G01X14144474Y-1252301D02*
G01X14161746Y-1235029D01*
G01X14173176Y-1229441D01*
G01X14190194Y-1229441D01*
G01X14201624Y-1235029D01*
G01X14207466Y-1252301D01*
G01X14207466Y-1309451D01*
G01X14323798Y-1189309D02*
G01X14323798Y-1309451D01*
G01X14323798Y-1246459D02*
G01X14312368Y-1235029D01*
G01X14300938Y-1229441D01*
G01X14283920Y-1229441D01*
G01X14272490Y-1235029D01*
G01X14261060Y-1246459D01*
G01X14255218Y-1263731D01*
G01X14255218Y-1275161D01*
G01X14261060Y-1292179D01*
G01X14272490Y-1303609D01*
G01X14283920Y-1309451D01*
G01X14300938Y-1309451D01*
G01X14312368Y-1303609D01*
G01X14323798Y-1292179D01*
G01X15214975Y-1189309D02*
G01X15260695Y-1309451D01*
G01X15306415Y-1189309D02*
G01X15260695Y-1309451D01*
G01X15354167Y-1189309D02*
G01X15360009Y-1195151D01*
G01X15365597Y-1189309D01*
G01X15360009Y-1183721D01*
G01X15354167Y-1189309D01*
G01X15360009Y-1229441D02*
G01X15360009Y-1309451D01*
G01X15481929Y-1229441D02*
G01X15481929Y-1309451D01*
G01X15481929Y-1246459D02*
G01X15470499Y-1235029D01*
G01X15459069Y-1229441D01*
G01X15442051Y-1229441D01*
G01X15430621Y-1235029D01*
G01X15419191Y-1246459D01*
G01X15413349Y-1263731D01*
G01X15413349Y-1275161D01*
G01X15419191Y-1292179D01*
G01X15430621Y-1303609D01*
G01X15442051Y-1309451D01*
G01X15459069Y-1309451D01*
G01X15470499Y-1303609D01*
G01X15481929Y-1292179D01*
G01X18843655Y-1189309D02*
G01X18843655Y-1309451D01*
G01X18803523Y-1189309D02*
G01X18883533Y-1189309D01*
G01X18959987Y-1229441D02*
G01X18948557Y-1235029D01*
G01X18937127Y-1246459D01*
G01X18931285Y-1263731D01*
G01X18931285Y-1275161D01*
G01X18937127Y-1292179D01*
G01X18948557Y-1303609D01*
G01X18959987Y-1309451D01*
G01X18977005Y-1309451D01*
G01X18988435Y-1303609D01*
G01X18999865Y-1292179D01*
G01X19005707Y-1275161D01*
G01X19005707Y-1263731D01*
G01X18999865Y-1246459D01*
G01X18988435Y-1235029D01*
G01X18977005Y-1229441D01*
G01X18959987Y-1229441D01*
G01X19053459Y-1229441D02*
G01X19053459Y-1349329D01*
G01X19053459Y-1246459D02*
G01X19064889Y-1235029D01*
G01X19076319Y-1229441D01*
G01X19093591Y-1229441D01*
G01X19105021Y-1235029D01*
G01X19116451Y-1246459D01*
G01X19122039Y-1263731D01*
G01X19122039Y-1275161D01*
G01X19116451Y-1292179D01*
G01X19105021Y-1303609D01*
G01X19093591Y-1309451D01*
G01X19076319Y-1309451D01*
G01X19064889Y-1303609D01*
G01X19053459Y-1292179D01*
G01X19297807Y-1189309D02*
G01X19297807Y-1309451D01*
G01X19297807Y-1309451D02*
G01X19366387Y-1309451D01*
G01X19482719Y-1229441D02*
G01X19482719Y-1309451D01*
G01X19482719Y-1246459D02*
G01X19471289Y-1235029D01*
G01X19459859Y-1229441D01*
G01X19442841Y-1229441D01*
G01X19431411Y-1235029D01*
G01X19419981Y-1246459D01*
G01X19414139Y-1263731D01*
G01X19414139Y-1275161D01*
G01X19419981Y-1292179D01*
G01X19431411Y-1303609D01*
G01X19442841Y-1309451D01*
G01X19459859Y-1309451D01*
G01X19471289Y-1303609D01*
G01X19482719Y-1292179D01*
G01X19536313Y-1229441D02*
G01X19570603Y-1309451D01*
G01X19604893Y-1229441D02*
G01X19570603Y-1309451D01*
G01X19559173Y-1332311D01*
G01X19547743Y-1343741D01*
G01X19536313Y-1349329D01*
G01X19530471Y-1349329D01*
G01X19652645Y-1263731D02*
G01X19721225Y-1263731D01*
G01X19721225Y-1252301D01*
G01X19715637Y-1240871D01*
G01X19709795Y-1235029D01*
G01X19698365Y-1229441D01*
G01X19681347Y-1229441D01*
G01X19669917Y-1235029D01*
G01X19658487Y-1246459D01*
G01X19652645Y-1263731D01*
G01X19652645Y-1275161D01*
G01X19658487Y-1292179D01*
G01X19669917Y-1303609D01*
G01X19681347Y-1309451D01*
G01X19698365Y-1309451D01*
G01X19709795Y-1303609D01*
G01X19721225Y-1292179D01*
G01X19768977Y-1229441D02*
G01X19768977Y-1309451D01*
G01X19768977Y-1263731D02*
G01X19774819Y-1246459D01*
G01X19786249Y-1235029D01*
G01X19797679Y-1229441D01*
G01X19814697Y-1229441D01*
G01X19862449Y-1257889D02*
G01X19965319Y-1257889D01*
G01X20013071Y-1189309D02*
G01X20013071Y-1309451D01*
G01X20013071Y-1189309D02*
G01X20064633Y-1189309D01*
G01X20081651Y-1195151D01*
G01X20087493Y-1200739D01*
G01X20093081Y-1212169D01*
G01X20093081Y-1223599D01*
G01X20087493Y-1235029D01*
G01X20081651Y-1240871D01*
G01X20064633Y-1246459D01*
G01X20013071Y-1246459D02*
G01X20064633Y-1246459D01*
G01X20081651Y-1252301D01*
G01X20087493Y-1257889D01*
G01X20093081Y-1269319D01*
G01X20093081Y-1286591D01*
G01X20087493Y-1298021D01*
G01X20081651Y-1303609D01*
G01X20064633Y-1309451D01*
G01X20013071Y-1309451D01*
G01X20169535Y-1229441D02*
G01X20158105Y-1235029D01*
G01X20146675Y-1246459D01*
G01X20140833Y-1263731D01*
G01X20140833Y-1275161D01*
G01X20146675Y-1292179D01*
G01X20158105Y-1303609D01*
G01X20169535Y-1309451D01*
G01X20186553Y-1309451D01*
G01X20197983Y-1303609D01*
G01X20209413Y-1292179D01*
G01X20215255Y-1275161D01*
G01X20215255Y-1263731D01*
G01X20209413Y-1246459D01*
G01X20197983Y-1235029D01*
G01X20186553Y-1229441D01*
G01X20169535Y-1229441D01*
G01X20280279Y-1189309D02*
G01X20280279Y-1286591D01*
G01X20285867Y-1303609D01*
G01X20297297Y-1309451D01*
G01X20308727Y-1309451D01*
G01X20263007Y-1229441D02*
G01X20303139Y-1229441D01*
G01X20373751Y-1189309D02*
G01X20373751Y-1286591D01*
G01X20379339Y-1303609D01*
G01X20390769Y-1309451D01*
G01X20402199Y-1309451D01*
G01X20356479Y-1229441D02*
G01X20396611Y-1229441D01*
G01X20478653Y-1229441D02*
G01X20467223Y-1235029D01*
G01X20455793Y-1246459D01*
G01X20449951Y-1263731D01*
G01X20449951Y-1275161D01*
G01X20455793Y-1292179D01*
G01X20467223Y-1303609D01*
G01X20478653Y-1309451D01*
G01X20495671Y-1309451D01*
G01X20507101Y-1303609D01*
G01X20518531Y-1292179D01*
G01X20524373Y-1275161D01*
G01X20524373Y-1263731D01*
G01X20518531Y-1246459D01*
G01X20507101Y-1235029D01*
G01X20495671Y-1229441D01*
G01X20478653Y-1229441D01*
G01X20572125Y-1229441D02*
G01X20572125Y-1309451D01*
G01X20572125Y-1252301D02*
G01X20589397Y-1235029D01*
G01X20600827Y-1229441D01*
G01X20617845Y-1229441D01*
G01X20629275Y-1235029D01*
G01X20635117Y-1252301D01*
G01X20635117Y-1309451D01*
G01X20635117Y-1252301D02*
G01X20652135Y-1235029D01*
G01X20663565Y-1229441D01*
G01X20680837Y-1229441D01*
G01X20692267Y-1235029D01*
G01X20697855Y-1252301D01*
G01X20697855Y-1309451D01*
G01X20873623Y-1189309D02*
G01X20873623Y-1309451D01*
G01X20873623Y-1309451D02*
G01X20942203Y-1309451D01*
G01X21058535Y-1229441D02*
G01X21058535Y-1309451D01*
G01X21058535Y-1246459D02*
G01X21047105Y-1235029D01*
G01X21035675Y-1229441D01*
G01X21018657Y-1229441D01*
G01X21007227Y-1235029D01*
G01X20995797Y-1246459D01*
G01X20989955Y-1263731D01*
G01X20989955Y-1275161D01*
G01X20995797Y-1292179D01*
G01X21007227Y-1303609D01*
G01X21018657Y-1309451D01*
G01X21035675Y-1309451D01*
G01X21047105Y-1303609D01*
G01X21058535Y-1292179D01*
G01X21112129Y-1229441D02*
G01X21146419Y-1309451D01*
G01X21180709Y-1229441D02*
G01X21146419Y-1309451D01*
G01X21134989Y-1332311D01*
G01X21123559Y-1343741D01*
G01X21112129Y-1349329D01*
G01X21106287Y-1349329D01*
G01X21228461Y-1263731D02*
G01X21297041Y-1263731D01*
G01X21297041Y-1252301D01*
G01X21291453Y-1240871D01*
G01X21285611Y-1235029D01*
G01X21274181Y-1229441D01*
G01X21257163Y-1229441D01*
G01X21245733Y-1235029D01*
G01X21234303Y-1246459D01*
G01X21228461Y-1263731D01*
G01X21228461Y-1275161D01*
G01X21234303Y-1292179D01*
G01X21245733Y-1303609D01*
G01X21257163Y-1309451D01*
G01X21274181Y-1309451D01*
G01X21285611Y-1303609D01*
G01X21297041Y-1292179D01*
G01X21344793Y-1229441D02*
G01X21344793Y-1309451D01*
G01X21344793Y-1263731D02*
G01X21350635Y-1246459D01*
G01X21362065Y-1235029D01*
G01X21373495Y-1229441D01*
G01X21390513Y-1229441D01*

G04 Image Start*
G36*
G01X5685563Y-208779D02*
G01X5579949Y-197298D01*
G01X5537074Y-294504D01*
G01X5494199Y-197298D01*
G01X5388586Y-208779D01*
G01X5451349Y-123054D01*
G01X5411627Y-68799D01*
G01X5443120Y-68799D01*
G01X5482820Y-123054D01*
G01X5443120Y-177308D01*
G01X5509947Y-170044D01*
G01X5509947Y-170044D01*
G01X5537074Y-231537D01*
G01X5564201Y-170044D01*
G01X5631029Y-177308D01*
G01X5591329Y-123054D01*
G01X5631003Y-68825D01*
G01X5564176Y-76089D01*
G01X5537074Y-14570D01*
G01X5509947Y-76064D01*
G01X5443120Y-68799D01*
G01X5411627Y-68799D01*
G01X5388586Y-37329D01*
G01X5494224Y-48809D01*
G01X5537074Y48396D01*
G01X5579949Y-48809D01*
G01X5685563Y-37329D01*
G01X5622799Y-123054D01*
G01X5685563Y-208779D01*
G37*
G36*
G01X5556569Y905526D02*
G01X5548829Y904938D01*
G01X5540986Y904739D01*
G01X5533143Y904938D01*
G01X5525403Y905526D01*
G01X5517775Y906495D01*
G01X5510270Y907835D01*
G01X5495664Y911590D01*
G01X5481662Y916715D01*
G01X5468340Y923132D01*
G01X5455774Y930765D01*
G01X5444042Y939538D01*
G01X5433220Y949373D01*
G01X5423384Y960196D01*
G01X5414611Y971928D01*
G01X5406978Y984493D01*
G01X5400561Y997815D01*
G01X5395437Y1011817D01*
G01X5391682Y1026423D01*
G01X5390342Y1033929D01*
G01X5389373Y1041556D01*
G01X5388784Y1049296D01*
G01X5388586Y1057139D01*
G01X5413986Y1057139D01*
G01X5414643Y1044173D01*
G01X5416571Y1031577D01*
G01X5419705Y1019415D01*
G01X5423982Y1007753D01*
G01X5429337Y996653D01*
G01X5435705Y986182D01*
G01X5443023Y976402D01*
G01X5451225Y967379D01*
G01X5460249Y959176D01*
G01X5470028Y951859D01*
G01X5480500Y945490D01*
G01X5491599Y940135D01*
G01X5503262Y935859D01*
G01X5515423Y932724D01*
G01X5515423Y932724D01*
G01X5528019Y930796D01*
G01X5540986Y930139D01*
G01X5553952Y930796D01*
G01X5566548Y932724D01*
G01X5578710Y935859D01*
G01X5590373Y940135D01*
G01X5601472Y945490D01*
G01X5611943Y951859D01*
G01X5621723Y959176D01*
G01X5630746Y967379D01*
G01X5638949Y976402D01*
G01X5646267Y986182D01*
G01X5652635Y996653D01*
G01X5657990Y1007753D01*
G01X5662267Y1019415D01*
G01X5665401Y1031577D01*
G01X5667329Y1044173D01*
G01X5667986Y1057139D01*
G01X5667329Y1070106D01*
G01X5665401Y1082702D01*
G01X5662267Y1094864D01*
G01X5657990Y1106526D01*
G01X5652635Y1117625D01*
G01X5646267Y1128097D01*
G01X5638949Y1137876D01*
G01X5630746Y1146900D01*
G01X5621723Y1155102D01*
G01X5611943Y1162420D01*
G01X5601472Y1168788D01*
G01X5590373Y1174143D01*
G01X5578710Y1178420D01*
G01X5566548Y1181555D01*
G01X5553952Y1183482D01*
G01X5540986Y1184139D01*
G01X5528019Y1183482D01*
G01X5515423Y1181555D01*
G01X5503262Y1178420D01*
G01X5491599Y1174143D01*
G01X5480500Y1168788D01*
G01X5470028Y1162420D01*
G01X5460249Y1155102D01*
G01X5451225Y1146900D01*
G01X5443023Y1137876D01*
G01X5435705Y1128097D01*
G01X5429337Y1117625D01*
G01X5423982Y1106526D01*
G01X5419705Y1094864D01*
G01X5416571Y1082702D01*
G01X5414643Y1070106D01*
G01X5413986Y1057139D01*
G01X5388586Y1057139D01*
G01X5388784Y1064982D01*
G01X5389373Y1072723D01*
G01X5390342Y1080350D01*
G01X5391682Y1087855D01*
G01X5395437Y1102461D01*
G01X5400561Y1116463D01*
G01X5406978Y1129785D01*
G01X5414611Y1142351D01*
G01X5423384Y1154083D01*
G01X5433220Y1164905D01*
G01X5444042Y1174741D01*
G01X5455774Y1183514D01*
G01X5468340Y1191147D01*
G01X5481662Y1197564D01*
G01X5495664Y1202688D01*
G01X5510270Y1206443D01*
G01X5517775Y1207784D01*
G01X5525403Y1208753D01*
G01X5533143Y1209341D01*
G01X5540986Y1209539D01*
G01X5548829Y1209341D01*
G01X5556569Y1208753D01*
G01X5564197Y1207784D01*
G01X5571702Y1206443D01*
G01X5586308Y1202688D01*
G01X5600310Y1197564D01*
G01X5613632Y1191147D01*
G01X5626197Y1183514D01*
G01X5637929Y1174741D01*
G01X5648752Y1164905D01*
G01X5658587Y1154083D01*
G01X5667360Y1142351D01*
G01X5674993Y1129785D01*
G01X5681411Y1116463D01*
G01X5686535Y1102461D01*
G01X5690290Y1087855D01*
G01X5691630Y1080350D01*
G01X5692599Y1072723D01*
G01X5693188Y1064982D01*
G01X5693386Y1057139D01*
G01X5693188Y1049296D01*
G01X5692599Y1041556D01*
G01X5691630Y1033929D01*
G01X5690290Y1026423D01*
G01X5686535Y1011817D01*
G01X5681411Y997815D01*
G01X5674993Y984493D01*
G01X5667360Y971928D01*
G01X5658587Y960196D01*
G01X5648752Y949373D01*
G01X5637929Y939538D01*
G01X5626197Y930765D01*
G01X5613632Y923132D01*
G01X5600310Y916715D01*
G01X5586308Y911590D01*
G01X5571702Y907835D01*
G01X5564197Y906495D01*
G01X5556569Y905526D01*
G37*
G36*
G01X5693386Y-1334412D02*
G01X5610277Y-1334412D01*
G01X5610277Y-1417546D01*
G01X5471720Y-1417546D01*
G01X5471720Y-1334438D01*
G01X5388586Y-1334438D01*
G01X5388586Y-1221281D01*
G01X5413986Y-1221281D01*
G01X5413986Y-1309012D01*
G01X5497120Y-1309012D01*
G01X5497120Y-1392146D01*
G01X5497120Y-1392146D01*
G01X5584852Y-1392146D01*
G01X5584852Y-1309038D01*
G01X5667986Y-1309038D01*
G01X5667986Y-1221281D01*
G01X5584852Y-1221281D01*
G01X5584852Y-1138146D01*
G01X5497120Y-1138146D01*
G01X5497120Y-1221281D01*
G01X5413986Y-1221281D01*
G01X5388586Y-1221281D01*
G01X5388586Y-1195881D01*
G01X5471720Y-1195881D01*
G01X5471720Y-1112746D01*
G01X5610252Y-1112746D01*
G01X5610252Y-1195881D01*
G01X5693386Y-1195881D01*
G01X5693386Y-1334412D01*
G37*
G36*
G01X5693386Y-532175D02*
G01X5623358Y-684575D01*
G01X5693386Y-836975D01*
G01X5540986Y-766947D01*
G01X5388586Y-836975D01*
G01X5412349Y-785261D01*
G01X5440300Y-785261D01*
G01X5530369Y-743859D01*
G01X5540986Y-738982D01*
G01X5551603Y-743859D01*
G01X5641671Y-785261D01*
G01X5600269Y-695192D01*
G01X5595393Y-684575D01*
G01X5600269Y-673958D01*
G01X5641671Y-583889D01*
G01X5551603Y-625291D01*
G01X5540986Y-630168D01*
G01X5530369Y-625291D01*
G01X5440300Y-583889D01*
G01X5481702Y-673958D01*
G01X5486579Y-684575D01*
G01X5486579Y-684575D01*
G01X5481702Y-695192D01*
G01X5440300Y-785261D01*
G01X5412349Y-785261D01*
G01X5458614Y-684575D01*
G01X5388586Y-532175D01*
G01X5540986Y-602203D01*
G01X5693386Y-532175D01*
G37*
G36*
G01X5388586Y628968D02*
G01X5693386Y628968D01*
G01X5540986Y365011D01*
G01X5403251Y603568D01*
G01X5432579Y603568D01*
G01X5540986Y415811D01*
G01X5649393Y603568D01*
G01X5649393Y603568D01*
G01X5432579Y603568D01*
G01X5403251Y603568D01*
G01X5388586Y628968D01*
G37*
G36*
G01X5388586Y1790111D02*
G01X5667986Y1790111D01*
G01X5667986Y1510711D01*
G01X5388586Y1510711D01*
G01X5388586Y1764711D01*
G01X5413986Y1764711D01*
G01X5413986Y1536111D01*
G01X5642586Y1536111D01*
G01X5642586Y1764711D01*
G01X5642586Y1764711D01*
G01X5413986Y1764711D01*
G01X5388586Y1764711D01*
G01X5388586Y1790111D01*
G37*

G04 PolygonModel Start*
G54D17*
G01X5098300Y-1548175D02*
G01X21981245Y-1548175D01*
G01X5098300Y-967604D02*
G01X21981245Y-967604D01*
G01X5098300Y-387032D02*
G01X21981245Y-387032D01*
G01X5098300Y193539D02*
G01X21981245Y193539D01*
G01X5098300Y774111D02*
G01X21981245Y774111D01*
G01X5098300Y1354682D02*
G01X21981245Y1354682D01*
G01X5098300Y1935254D02*
G01X21981245Y1935254D01*
G01X5098300Y2515825D02*
G01X21981245Y2515825D01*
G01X5098300Y2515825D02*
G01X5098300Y-1522775D01*
G01X6549729Y2515825D02*
G01X6549729Y-1522775D01*
G01X7963892Y2515825D02*
G01X7963892Y-1522775D01*
G01X12021941Y2515825D02*
G01X12021941Y-1522775D01*
G01X13483348Y2515825D02*
G01X13483348Y-1522775D01*
G01X14914529Y2515825D02*
G01X14914529Y-1522775D01*
G01X16583708Y2515825D02*
G01X16583708Y-1522775D01*
G01X18503078Y2515825D02*
G01X18503078Y-1522775D01*
G01X21981245Y2515825D02*
G01X21981245Y-1522775D01*

M02*

