G04 Layer: BottomLayer*
G04 EasyEDA Pro v3.2.149.88089769, 2026-08-11 22:09:00*
G04 Gerber Generator version 0.3*
G04 Scale: 100 percent, Rotated: No, Reflected: No*
G04 Dimensions in millimeters*
G04 Leading zeros omitted, absolute positions, 4 integers and 5 decimals*
G04 Generated by one-click*
G04 Object Configs: Pad,Via,Track,Text,Image,Dimension,BoardOutline,BoardCutout,CopperFilled,SolidRegion,FPCStiffener,Line,PlaneZone,ComponentProperty,ComponentSilkscreen,TearDrop*
G04 Layer Configs: 1,2,3,4,5,6,7,8,9,10,11,13,14,56*
G04 Copper Areas: 45*
%FSLAX45Y45*%
%MOMM*%
%ADD10C,0.2032*%
%ADD11C,0.254*%
%ADD12C,3.7*%
%ADD13C,1.8*%
%ADD14R,1.524X1.524*%
%ADD15C,1.524*%
%ADD16R,1.8060X1.8*%
%ADD17R,1.8X1.8*%
%ADD18O,1.8X2.59999*%
%ADD19R,1.8X2.59999*%
%ADD20R,1.7X1.7*%
%ADD21C,1.7*%
%ADD22C,0.61*%
%ADD23C,0.5*%
G75*


G04 Copper Start*
G36*
G01X3062486Y2480011D02*
G01X3062486Y-2448361D01*
G01X-4865886Y-2448361D01*
G01X-4865886Y-2076068D01*
G01X-1215525Y-2076068D01*
G01X-1213613Y-2097916D01*
G01X-1207937Y-2119099D01*
G01X-1198669Y-2138975D01*
G01X-1186090Y-2156940D01*
G01X-1170582Y-2172447D01*
G01X-1152618Y-2185026D01*
G01X-1132742Y-2194295D01*
G01X-1111558Y-2199971D01*
G01X-1089711Y-2201882D01*
G01X-1067863Y-2199971D01*
G01X-1046680Y-2194295D01*
G01X-1026804Y-2185026D01*
G01X-1008839Y-2172447D01*
G01X-993332Y-2156940D01*
G01X-980753Y-2138975D01*
G01X-971484Y-2119099D01*
G01X-965808Y-2097916D01*
G01X-963897Y-2076068D01*
G01X-963897Y-2076068D01*
G01X-585503Y-2076068D01*
G01X-583592Y-2097916D01*
G01X-577916Y-2119099D01*
G01X-568647Y-2138975D01*
G01X-556068Y-2156940D01*
G01X-540561Y-2172447D01*
G01X-522596Y-2185026D01*
G01X-502720Y-2194295D01*
G01X-481537Y-2199971D01*
G01X-459689Y-2201882D01*
G01X-437842Y-2199971D01*
G01X-416658Y-2194295D01*
G01X-396782Y-2185026D01*
G01X-378818Y-2172447D01*
G01X-363310Y-2156940D01*
G01X-350731Y-2138975D01*
G01X-341463Y-2119099D01*
G01X-335787Y-2097916D01*
G01X-333875Y-2076068D01*
G01X-333875Y-2076068D01*
G01X-335787Y-2054221D01*
G01X-341463Y-2033037D01*
G01X-350731Y-2013161D01*
G01X-363310Y-1995197D01*
G01X-378818Y-1979689D01*
G01X-396782Y-1967110D01*
G01X-416658Y-1957842D01*
G01X-437842Y-1952166D01*
G01X-459689Y-1950254D01*
G01X-481537Y-1952166D01*
G01X-502720Y-1957842D01*
G01X-522596Y-1967110D01*
G01X-540561Y-1979689D01*
G01X-556068Y-1995197D01*
G01X-568647Y-2013161D01*
G01X-577916Y-2033037D01*
G01X-583592Y-2054221D01*
G01X-585503Y-2076068D01*
G01X-963897Y-2076068D01*
G01X-965808Y-2054221D01*
G01X-971484Y-2033037D01*
G01X-980753Y-2013161D01*
G01X-993332Y-1995197D01*
G01X-1008839Y-1979689D01*
G01X-1026804Y-1967110D01*
G01X-1046680Y-1957842D01*
G01X-1067863Y-1952166D01*
G01X-1089711Y-1950254D01*
G01X-1111558Y-1952166D01*
G01X-1132742Y-1957842D01*
G01X-1152618Y-1967110D01*
G01X-1170582Y-1979689D01*
G01X-1186090Y-1995197D01*
G01X-1198669Y-2013161D01*
G01X-1207937Y-2033037D01*
G01X-1213613Y-2054221D01*
G01X-1215525Y-2076068D01*
G01X-4865886Y-2076068D01*
G01X-4865886Y-1626082D01*
G01X-1215525Y-1626082D01*
G01X-1213613Y-1647929D01*
G01X-1207937Y-1669113D01*
G01X-1198669Y-1688989D01*
G01X-1186090Y-1706953D01*
G01X-1170582Y-1722461D01*
G01X-1152618Y-1735040D01*
G01X-1132742Y-1744308D01*
G01X-1111558Y-1749984D01*
G01X-1089711Y-1751896D01*
G01X-1067863Y-1749984D01*
G01X-1046680Y-1744308D01*
G01X-1026804Y-1735040D01*
G01X-1008839Y-1722461D01*
G01X-993332Y-1706953D01*
G01X-980753Y-1688989D01*
G01X-971484Y-1669113D01*
G01X-965808Y-1647929D01*
G01X-963897Y-1626082D01*
G01X-963897Y-1626082D01*
G01X-585503Y-1626082D01*
G01X-583592Y-1647929D01*
G01X-577916Y-1669113D01*
G01X-568647Y-1688989D01*
G01X-556068Y-1706953D01*
G01X-540561Y-1722461D01*
G01X-522596Y-1735040D01*
G01X-502720Y-1744308D01*
G01X-481537Y-1749984D01*
G01X-459689Y-1751896D01*
G01X-437842Y-1749984D01*
G01X-416658Y-1744308D01*
G01X-396782Y-1735040D01*
G01X-378818Y-1722461D01*
G01X-363310Y-1706953D01*
G01X-350731Y-1688989D01*
G01X-341463Y-1669113D01*
G01X-335787Y-1647929D01*
G01X-333875Y-1626082D01*
G01X-333875Y-1626082D01*
G01X-335787Y-1604234D01*
G01X-341463Y-1583051D01*
G01X-350731Y-1563175D01*
G01X-363310Y-1545210D01*
G01X-378818Y-1529703D01*
G01X-396782Y-1517124D01*
G01X-416658Y-1507856D01*
G01X-437842Y-1502179D01*
G01X-459689Y-1500268D01*
G01X-481537Y-1502179D01*
G01X-502720Y-1507856D01*
G01X-522596Y-1517124D01*
G01X-540561Y-1529703D01*
G01X-556068Y-1545210D01*
G01X-568647Y-1563175D01*
G01X-577916Y-1583051D01*
G01X-583592Y-1604234D01*
G01X-585503Y-1626082D01*
G01X-963897Y-1626082D01*
G01X-965808Y-1604234D01*
G01X-971484Y-1583051D01*
G01X-980753Y-1563175D01*
G01X-993332Y-1545210D01*
G01X-1008839Y-1529703D01*
G01X-1026804Y-1517124D01*
G01X-1046680Y-1507856D01*
G01X-1067863Y-1502179D01*
G01X-1089711Y-1500268D01*
G01X-1111558Y-1502179D01*
G01X-1132742Y-1507856D01*
G01X-1152618Y-1517124D01*
G01X-1170582Y-1529703D01*
G01X-1186090Y-1545210D01*
G01X-1198669Y-1563175D01*
G01X-1207937Y-1583051D01*
G01X-1213613Y-1604234D01*
G01X-1215525Y-1626082D01*
G01X-4865886Y-1626082D01*
G01X-4865886Y-1099495D01*
G01X-4592454Y-1099495D01*
G01X-4590565Y-1128317D01*
G01X-4584930Y-1156646D01*
G01X-4575646Y-1183997D01*
G01X-4562871Y-1209902D01*
G01X-4546824Y-1233918D01*
G01X-4527779Y-1255634D01*
G01X-4506063Y-1274678D01*
G01X-4482047Y-1290725D01*
G01X-4456142Y-1303500D01*
G01X-4428791Y-1312785D01*
G01X-4400462Y-1318420D01*
G01X-4371640Y-1320309D01*
G01X-4342818Y-1318420D01*
G01X-4314489Y-1312785D01*
G01X-4287138Y-1303500D01*
G01X-4261233Y-1290725D01*
G01X-4237217Y-1274678D01*
G01X-4215501Y-1255634D01*
G01X-4196456Y-1233918D01*
G01X-4180409Y-1209902D01*
G01X-4167634Y-1183997D01*
G01X-4158350Y-1156646D01*
G01X-4152715Y-1128317D01*
G01X-4151658Y-1112195D01*
G01X2330786Y-1112195D01*
G01X2332675Y-1141017D01*
G01X2338310Y-1169346D01*
G01X2347594Y-1196697D01*
G01X2360369Y-1222602D01*
G01X2376416Y-1246618D01*
G01X2395461Y-1268334D01*
G01X2417177Y-1287378D01*
G01X2441193Y-1303425D01*
G01X2467098Y-1316200D01*
G01X2494449Y-1325485D01*
G01X2522778Y-1331120D01*
G01X2551600Y-1333009D01*
G01X2580422Y-1331120D01*
G01X2608751Y-1325485D01*
G01X2636102Y-1316200D01*
G01X2662007Y-1303425D01*
G01X2686023Y-1287378D01*
G01X2707739Y-1268334D01*
G01X2726783Y-1246618D01*
G01X2742830Y-1222602D01*
G01X2755605Y-1196697D01*
G01X2764890Y-1169346D01*
G01X2770525Y-1141017D01*
G01X2772414Y-1112195D01*
G01X2770525Y-1083373D01*
G01X2764890Y-1055044D01*
G01X2755605Y-1027693D01*
G01X2742830Y-1001788D01*
G01X2726783Y-977772D01*
G01X2707739Y-956056D01*
G01X2686023Y-937011D01*
G01X2662007Y-920964D01*
G01X2636102Y-908189D01*
G01X2608751Y-898905D01*
G01X2580422Y-893270D01*
G01X2551600Y-891381D01*
G01X2522778Y-893270D01*
G01X2494449Y-898905D01*
G01X2467098Y-908189D01*
G01X2441193Y-920964D01*
G01X2417177Y-937011D01*
G01X2395461Y-956056D01*
G01X2376416Y-977772D01*
G01X2360369Y-1001788D01*
G01X2347594Y-1027693D01*
G01X2338310Y-1055044D01*
G01X2332675Y-1083373D01*
G01X2330786Y-1112195D01*
G01X2330786Y-1112195D01*
G01X-4151658Y-1112195D01*
G01X-4150826Y-1099495D01*
G01X-4152715Y-1070673D01*
G01X-4158350Y-1042344D01*
G01X-4167634Y-1014993D01*
G01X-4180409Y-989088D01*
G01X-4196456Y-965072D01*
G01X-4215501Y-943356D01*
G01X-4237217Y-924311D01*
G01X-4261233Y-908264D01*
G01X-4287138Y-895489D01*
G01X-4314489Y-886205D01*
G01X-4342818Y-880570D01*
G01X-4371640Y-878681D01*
G01X-4400462Y-880570D01*
G01X-4428791Y-886205D01*
G01X-4456142Y-895489D01*
G01X-4482047Y-908264D01*
G01X-4506063Y-924311D01*
G01X-4527779Y-943356D01*
G01X-4546824Y-965072D01*
G01X-4562871Y-989088D01*
G01X-4575646Y-1014993D01*
G01X-4584930Y-1042344D01*
G01X-4590565Y-1070673D01*
G01X-4592454Y-1099495D01*
G01X-4592454Y-1099495D01*
G01X-4865886Y-1099495D01*
G01X-4865886Y-819980D01*
G01X-3808827Y-819980D01*
G01X-3808827Y-899980D01*
G01X-3806915Y-921827D01*
G01X-3801239Y-943011D01*
G01X-3791971Y-962887D01*
G01X-3779392Y-980851D01*
G01X-3763884Y-996359D01*
G01X-3745920Y-1008938D01*
G01X-3726044Y-1018206D01*
G01X-3704860Y-1023882D01*
G01X-3683013Y-1025793D01*
G01X-3661165Y-1023882D01*
G01X-3639982Y-1018206D01*
G01X-3620106Y-1008938D01*
G01X-3602141Y-996359D01*
G01X-3586634Y-980851D01*
G01X-3574055Y-962887D01*
G01X-3564786Y-943011D01*
G01X-3559110Y-921827D01*
G01X-3557199Y-899980D01*
G01X-3557199Y-899980D01*
G01X-3557199Y-820970D01*
G01X-3554801Y-820970D01*
G01X-3554801Y-900970D01*
G01X-3552890Y-922818D01*
G01X-3547214Y-944001D01*
G01X-3537945Y-963877D01*
G01X-3525366Y-981842D01*
G01X-3509859Y-997349D01*
G01X-3491894Y-1009928D01*
G01X-3472018Y-1019197D01*
G01X-3450835Y-1024873D01*
G01X-3428987Y-1026784D01*
G01X-3407140Y-1024873D01*
G01X-3385956Y-1019197D01*
G01X-3366080Y-1009928D01*
G01X-3348116Y-997349D01*
G01X-3332608Y-981842D01*
G01X-3320029Y-963877D01*
G01X-3310761Y-944001D01*
G01X-3305085Y-922818D01*
G01X-3303173Y-900970D01*
G01X-3303173Y-900970D01*
G01X-3303173Y-820970D01*
G01X-3305085Y-799123D01*
G01X-3310761Y-777940D01*
G01X-3320029Y-758064D01*
G01X-3332608Y-740099D01*
G01X-3341737Y-730971D01*
G01X-3300801Y-730971D01*
G01X-3300801Y-990970D01*
G01X-3299048Y-1002037D01*
G01X-3293961Y-1012021D01*
G01X-3286038Y-1019944D01*
G01X-3276054Y-1025031D01*
G01X-3264987Y-1026784D01*
G01X-3084987Y-1026784D01*
G01X-3073920Y-1025031D01*
G01X-3063937Y-1019944D01*
G01X-3056013Y-1012021D01*
G01X-3050926Y-1002037D01*
G01X-3049173Y-990970D01*
G01X-3049173Y-730971D01*
G01X-3050926Y-719903D01*
G01X-3056013Y-709920D01*
G01X-3063937Y-701996D01*
G01X-3073920Y-696909D01*
G01X-3084987Y-695157D01*
G01X-3264987Y-695157D01*
G01X-3264987Y-695157D01*
G01X-3276054Y-696909D01*
G01X-3286038Y-701996D01*
G01X-3293961Y-709920D01*
G01X-3299048Y-719903D01*
G01X-3300801Y-730971D01*
G01X-3341737Y-730971D01*
G01X-3348116Y-724591D01*
G01X-3366080Y-712012D01*
G01X-3385956Y-702744D01*
G01X-3407140Y-697068D01*
G01X-3428987Y-695157D01*
G01X-3450835Y-697068D01*
G01X-3472018Y-702744D01*
G01X-3491894Y-712012D01*
G01X-3509859Y-724591D01*
G01X-3525366Y-740099D01*
G01X-3537945Y-758064D01*
G01X-3547214Y-777940D01*
G01X-3552890Y-799123D01*
G01X-3554801Y-820970D01*
G01X-3557199Y-820970D01*
G01X-3557199Y-819980D01*
G01X-3559110Y-798132D01*
G01X-3564786Y-776949D01*
G01X-3574055Y-757073D01*
G01X-3586634Y-739108D01*
G01X-3602141Y-723601D01*
G01X-3620106Y-711022D01*
G01X-3639982Y-701753D01*
G01X-3661165Y-696077D01*
G01X-3683013Y-694166D01*
G01X-3704860Y-696077D01*
G01X-3726044Y-701753D01*
G01X-3745920Y-711022D01*
G01X-3763884Y-723601D01*
G01X-3779392Y-739108D01*
G01X-3791971Y-757073D01*
G01X-3801239Y-776949D01*
G01X-3806915Y-798132D01*
G01X-3808827Y-819980D01*
G01X-4865886Y-819980D01*
G01X-4865886Y-333020D01*
G01X-777454Y-333020D01*
G01X-774742Y-349173D01*
G01X-768154Y-364168D01*
G01X-758091Y-377091D01*
G01X-745168Y-387154D01*
G01X-730173Y-393742D01*
G01X-714020Y-396454D01*
G01X-697696Y-395124D01*
G01X-682195Y-389834D01*
G01X-668463Y-380906D01*
G01X-657339Y-368885D01*
G01X-649500Y-354504D01*
G01X-225298Y69698D01*
G01X-217735Y78913D01*
G01X-212115Y89427D01*
G01X-208655Y100836D01*
G01X-207486Y112700D01*
G01X-207486Y288200D01*
G01X1415886Y288200D01*
G01X1415886Y118200D01*
G01X1417639Y107133D01*
G01X1422726Y97149D01*
G01X1430649Y89226D01*
G01X1440633Y84139D01*
G01X1451700Y82386D01*
G01X1621700Y82386D01*
G01X1632767Y84139D01*
G01X1642751Y89226D01*
G01X1650674Y97149D01*
G01X1655761Y107133D01*
G01X1657514Y118200D01*
G01X1657514Y288200D01*
G01X1657514Y288200D01*
G01X1655761Y299267D01*
G01X1650674Y309251D01*
G01X1642751Y317174D01*
G01X1632767Y322261D01*
G01X1621700Y324014D01*
G01X1451700Y324014D01*
G01X1440633Y322261D01*
G01X1430649Y317174D01*
G01X1422726Y309251D01*
G01X1417639Y299267D01*
G01X1415886Y288200D01*
G01X-207486Y288200D01*
G01X-207486Y457200D01*
G01X1415886Y457200D01*
G01X1417722Y436221D01*
G01X1423172Y415879D01*
G01X1432072Y396793D01*
G01X1444151Y379542D01*
G01X1459042Y364651D01*
G01X1476293Y352572D01*
G01X1495379Y343672D01*
G01X1515721Y338222D01*
G01X1536700Y336386D01*
G01X1536700Y336386D01*
G01X1557679Y338222D01*
G01X1578021Y343672D01*
G01X1597107Y352572D01*
G01X1614358Y364651D01*
G01X1629249Y379542D01*
G01X1641328Y396793D01*
G01X1650228Y415879D01*
G01X1655678Y436221D01*
G01X1657514Y457200D01*
G01X1655678Y478179D01*
G01X1650228Y498521D01*
G01X1641328Y517607D01*
G01X1629249Y534858D01*
G01X1614358Y549749D01*
G01X1597107Y561828D01*
G01X1578021Y570728D01*
G01X1557679Y576178D01*
G01X1536700Y578014D01*
G01X1515721Y576178D01*
G01X1495379Y570728D01*
G01X1476293Y561828D01*
G01X1459042Y549749D01*
G01X1444151Y534858D01*
G01X1432072Y517607D01*
G01X1423172Y498521D01*
G01X1417722Y478179D01*
G01X1415886Y457200D01*
G01X-207486Y457200D01*
G01X-207486Y711200D01*
G01X1415886Y711200D01*
G01X1417722Y690221D01*
G01X1423172Y669879D01*
G01X1432072Y650793D01*
G01X1444151Y633542D01*
G01X1459042Y618651D01*
G01X1476293Y606572D01*
G01X1495379Y597672D01*
G01X1515721Y592222D01*
G01X1536700Y590386D01*
G01X1536700Y590386D01*
G01X1557679Y592222D01*
G01X1578021Y597672D01*
G01X1597107Y606572D01*
G01X1614358Y618651D01*
G01X1629249Y633542D01*
G01X1641328Y650793D01*
G01X1650228Y669879D01*
G01X1655678Y690221D01*
G01X1657514Y711200D01*
G01X1655678Y732179D01*
G01X1650228Y752521D01*
G01X1641328Y771607D01*
G01X1629249Y788858D01*
G01X1614358Y803749D01*
G01X1597107Y815828D01*
G01X1578021Y824728D01*
G01X1557679Y830178D01*
G01X1536700Y832014D01*
G01X1515721Y830178D01*
G01X1495379Y824728D01*
G01X1476293Y815828D01*
G01X1459042Y803749D01*
G01X1444151Y788858D01*
G01X1432072Y771607D01*
G01X1423172Y752521D01*
G01X1417722Y732179D01*
G01X1415886Y711200D01*
G01X-207486Y711200D01*
G01X-207486Y786357D01*
G01X-202860Y802069D01*
G01X-202226Y818436D01*
G01X-205623Y834458D01*
G01X-212843Y849160D01*
G01X-223446Y861643D01*
G01X-236785Y871147D01*
G01X-252047Y877091D01*
G01X-268300Y879114D01*
G01X-284554Y877091D01*
G01X-299815Y871147D01*
G01X-313155Y861643D01*
G01X-323758Y849160D01*
G01X-330978Y834458D01*
G01X-334374Y818436D01*
G01X-333740Y802069D01*
G01X-329114Y786357D01*
G01X-329114Y137890D01*
G01X-735504Y-268500D01*
G01X-735504Y-268500D01*
G01X-749885Y-276339D01*
G01X-761906Y-287463D01*
G01X-770834Y-301195D01*
G01X-776124Y-316696D01*
G01X-777454Y-333020D01*
G01X-4865886Y-333020D01*
G01X-4865886Y283625D01*
G01X-4316814Y283625D01*
G01X-4316814Y103625D01*
G01X-4315061Y92558D01*
G01X-4309974Y82574D01*
G01X-4302051Y74651D01*
G01X-4292067Y69564D01*
G01X-4281000Y67811D01*
G01X-4101000Y67811D01*
G01X-4101000Y67811D01*
G01X-4089933Y69564D01*
G01X-4079949Y74651D01*
G01X-4072026Y82574D01*
G01X-4066939Y92558D01*
G01X-4065186Y103625D01*
G01X-4065186Y193625D01*
G01X-4062814Y193625D01*
G01X-4060902Y171778D01*
G01X-4055226Y150594D01*
G01X-4045958Y130718D01*
G01X-4033379Y112753D01*
G01X-4017872Y97246D01*
G01X-3999907Y84667D01*
G01X-3980031Y75399D01*
G01X-3958847Y69723D01*
G01X-3937000Y67811D01*
G01X-3915153Y69723D01*
G01X-3893969Y75399D01*
G01X-3874093Y84667D01*
G01X-3856128Y97246D01*
G01X-3840621Y112753D01*
G01X-3828042Y130718D01*
G01X-3818774Y150594D01*
G01X-3813098Y171778D01*
G01X-3811186Y193625D01*
G01X-3808814Y193625D01*
G01X-3806902Y171778D01*
G01X-3801226Y150594D01*
G01X-3791958Y130718D01*
G01X-3779379Y112753D01*
G01X-3763872Y97246D01*
G01X-3745907Y84667D01*
G01X-3726031Y75399D01*
G01X-3704847Y69723D01*
G01X-3683000Y67811D01*
G01X-3661153Y69723D01*
G01X-3639969Y75399D01*
G01X-3620093Y84667D01*
G01X-3602128Y97246D01*
G01X-3586621Y112753D01*
G01X-3574042Y130718D01*
G01X-3564774Y150594D01*
G01X-3559098Y171778D01*
G01X-3557186Y193625D01*
G01X-3554814Y193625D01*
G01X-3552902Y171778D01*
G01X-3547226Y150594D01*
G01X-3537958Y130718D01*
G01X-3525379Y112753D01*
G01X-3509872Y97246D01*
G01X-3491907Y84667D01*
G01X-3472031Y75399D01*
G01X-3450847Y69723D01*
G01X-3429000Y67811D01*
G01X-3407153Y69723D01*
G01X-3385969Y75399D01*
G01X-3366093Y84667D01*
G01X-3348128Y97246D01*
G01X-3332621Y112753D01*
G01X-3320042Y130718D01*
G01X-3310774Y150594D01*
G01X-3305098Y171778D01*
G01X-3303186Y193625D01*
G01X-3300814Y193625D01*
G01X-3298902Y171778D01*
G01X-3293226Y150594D01*
G01X-3283958Y130718D01*
G01X-3271379Y112753D01*
G01X-3255872Y97246D01*
G01X-3237907Y84667D01*
G01X-3218031Y75399D01*
G01X-3196847Y69723D01*
G01X-3175000Y67811D01*
G01X-3153153Y69723D01*
G01X-3131969Y75399D01*
G01X-3112093Y84667D01*
G01X-3094128Y97246D01*
G01X-3078621Y112753D01*
G01X-3066042Y130718D01*
G01X-3056774Y150594D01*
G01X-3051098Y171778D01*
G01X-3049186Y193625D01*
G01X-3051098Y215472D01*
G01X-3056774Y236656D01*
G01X-3066042Y256532D01*
G01X-3078621Y274497D01*
G01X-3094128Y290004D01*
G01X-3112093Y302583D01*
G01X-3131969Y311851D01*
G01X-3153153Y317527D01*
G01X-3175000Y319439D01*
G01X-3196847Y317527D01*
G01X-3218031Y311851D01*
G01X-3237907Y302583D01*
G01X-3255872Y290004D01*
G01X-3271379Y274497D01*
G01X-3283958Y256532D01*
G01X-3293226Y236656D01*
G01X-3298902Y215472D01*
G01X-3300814Y193625D01*
G01X-3300814Y193625D01*
G01X-3303186Y193625D01*
G01X-3305098Y215472D01*
G01X-3310774Y236656D01*
G01X-3320042Y256532D01*
G01X-3332621Y274497D01*
G01X-3348128Y290004D01*
G01X-3366093Y302583D01*
G01X-3385969Y311851D01*
G01X-3407153Y317527D01*
G01X-3429000Y319439D01*
G01X-3450847Y317527D01*
G01X-3472031Y311851D01*
G01X-3491907Y302583D01*
G01X-3509872Y290004D01*
G01X-3525379Y274497D01*
G01X-3537958Y256532D01*
G01X-3547226Y236656D01*
G01X-3552902Y215472D01*
G01X-3554814Y193625D01*
G01X-3554814Y193625D01*
G01X-3557186Y193625D01*
G01X-3559098Y215472D01*
G01X-3564774Y236656D01*
G01X-3574042Y256532D01*
G01X-3586621Y274497D01*
G01X-3602128Y290004D01*
G01X-3620093Y302583D01*
G01X-3639969Y311851D01*
G01X-3661153Y317527D01*
G01X-3683000Y319439D01*
G01X-3704847Y317527D01*
G01X-3726031Y311851D01*
G01X-3745907Y302583D01*
G01X-3763872Y290004D01*
G01X-3779379Y274497D01*
G01X-3791958Y256532D01*
G01X-3801226Y236656D01*
G01X-3806902Y215472D01*
G01X-3808814Y193625D01*
G01X-3808814Y193625D01*
G01X-3811186Y193625D01*
G01X-3813098Y215472D01*
G01X-3818774Y236656D01*
G01X-3828042Y256532D01*
G01X-3840621Y274497D01*
G01X-3856128Y290004D01*
G01X-3874093Y302583D01*
G01X-3893969Y311851D01*
G01X-3915153Y317527D01*
G01X-3937000Y319439D01*
G01X-3958847Y317527D01*
G01X-3980031Y311851D01*
G01X-3999907Y302583D01*
G01X-4017872Y290004D01*
G01X-4033379Y274497D01*
G01X-4045958Y256532D01*
G01X-4055226Y236656D01*
G01X-4060902Y215472D01*
G01X-4062814Y193625D01*
G01X-4062814Y193625D01*
G01X-4065186Y193625D01*
G01X-4065186Y283625D01*
G01X-4066939Y294692D01*
G01X-4072026Y304676D01*
G01X-4079949Y312599D01*
G01X-4089933Y317686D01*
G01X-4101000Y319439D01*
G01X-4281000Y319439D01*
G01X-4292067Y317686D01*
G01X-4302051Y312599D01*
G01X-4309974Y304676D01*
G01X-4315061Y294692D01*
G01X-4316814Y283625D01*
G01X-4865886Y283625D01*
G01X-4865886Y965200D01*
G01X1415886Y965200D01*
G01X1417722Y944221D01*
G01X1423172Y923879D01*
G01X1432072Y904793D01*
G01X1444151Y887542D01*
G01X1459042Y872651D01*
G01X1476293Y860572D01*
G01X1495379Y851672D01*
G01X1515721Y846222D01*
G01X1536700Y844386D01*
G01X1536700Y844386D01*
G01X1557679Y846222D01*
G01X1578021Y851672D01*
G01X1597107Y860572D01*
G01X1614358Y872651D01*
G01X1629249Y887542D01*
G01X1641328Y904793D01*
G01X1650228Y923879D01*
G01X1655678Y944221D01*
G01X1657514Y965200D01*
G01X1655678Y986179D01*
G01X1650228Y1006521D01*
G01X1641328Y1025607D01*
G01X1629249Y1042858D01*
G01X1614358Y1057749D01*
G01X1597107Y1069828D01*
G01X1578021Y1078728D01*
G01X1557679Y1084178D01*
G01X1536700Y1086014D01*
G01X1515721Y1084178D01*
G01X1495379Y1078728D01*
G01X1476293Y1069828D01*
G01X1459042Y1057749D01*
G01X1444151Y1042858D01*
G01X1432072Y1025607D01*
G01X1423172Y1006521D01*
G01X1417722Y986179D01*
G01X1415886Y965200D01*
G01X-4865886Y965200D01*
G01X-4865886Y1358056D01*
G01X-3800430Y1358056D01*
G01X-3800430Y1205656D01*
G01X-3798677Y1194589D01*
G01X-3793590Y1184605D01*
G01X-3785667Y1176682D01*
G01X-3775683Y1171595D01*
G01X-3764616Y1169842D01*
G01X-3612216Y1169842D01*
G01X-3612216Y1169842D01*
G01X-3601149Y1171595D01*
G01X-3591165Y1176682D01*
G01X-3583242Y1184605D01*
G01X-3578155Y1194589D01*
G01X-3576402Y1205656D01*
G01X-3576402Y1281856D01*
G01X-3546430Y1281856D01*
G01X-3544523Y1261273D01*
G01X-3538866Y1241392D01*
G01X-3529652Y1222888D01*
G01X-3517195Y1206392D01*
G01X-3501919Y1192467D01*
G01X-3484345Y1181585D01*
G01X-3465070Y1174118D01*
G01X-3444751Y1170320D01*
G01X-3424080Y1170320D01*
G01X-3403762Y1174118D01*
G01X-3384487Y1181585D01*
G01X-3366912Y1192467D01*
G01X-3351636Y1206392D01*
G01X-3339180Y1222888D01*
G01X-3329966Y1241392D01*
G01X-3324309Y1261273D01*
G01X-3322402Y1281856D01*
G01X-3324309Y1302438D01*
G01X-3329966Y1322320D01*
G01X-3339180Y1340823D01*
G01X-3351636Y1357319D01*
G01X-3352445Y1358056D01*
G01X-3152730Y1358056D01*
G01X-3152730Y1205656D01*
G01X-3150977Y1194589D01*
G01X-3145890Y1184605D01*
G01X-3137967Y1176682D01*
G01X-3127983Y1171595D01*
G01X-3116916Y1169842D01*
G01X-2964516Y1169842D01*
G01X-2964516Y1169842D01*
G01X-2953449Y1171595D01*
G01X-2943465Y1176682D01*
G01X-2935542Y1184605D01*
G01X-2930455Y1194589D01*
G01X-2928702Y1205656D01*
G01X-2928702Y1281856D01*
G01X-2898730Y1281856D01*
G01X-2896823Y1261273D01*
G01X-2891166Y1241392D01*
G01X-2881952Y1222888D01*
G01X-2869495Y1206392D01*
G01X-2854219Y1192467D01*
G01X-2836645Y1181585D01*
G01X-2817370Y1174118D01*
G01X-2797051Y1170320D01*
G01X-2776380Y1170320D01*
G01X-2756062Y1174118D01*
G01X-2736787Y1181585D01*
G01X-2719212Y1192467D01*
G01X-2703936Y1206392D01*
G01X-2691480Y1222888D01*
G01X-2682266Y1241392D01*
G01X-2676609Y1261273D01*
G01X-2674702Y1281856D01*
G01X-2676609Y1302438D01*
G01X-2682266Y1322320D01*
G01X-2691480Y1340823D01*
G01X-2703936Y1357319D01*
G01X-2719212Y1371245D01*
G01X-2736787Y1382127D01*
G01X-2756062Y1389594D01*
G01X-2776380Y1393392D01*
G01X-2797051Y1393392D01*
G01X-2817370Y1389594D01*
G01X-2836645Y1382127D01*
G01X-2854219Y1371245D01*
G01X-2869495Y1357319D01*
G01X-2881952Y1340823D01*
G01X-2891166Y1322320D01*
G01X-2896823Y1302438D01*
G01X-2898730Y1281856D01*
G01X-2898730Y1281856D01*
G01X-2928702Y1281856D01*
G01X-2928702Y1358056D01*
G01X-2930455Y1369123D01*
G01X-2935542Y1379107D01*
G01X-2943465Y1387030D01*
G01X-2953449Y1392117D01*
G01X-2964516Y1393870D01*
G01X-3116916Y1393870D01*
G01X-3127983Y1392117D01*
G01X-3137967Y1387030D01*
G01X-3145890Y1379107D01*
G01X-3150977Y1369123D01*
G01X-3152730Y1358056D01*
G01X-3352445Y1358056D01*
G01X-3366912Y1371245D01*
G01X-3384487Y1382127D01*
G01X-3403762Y1389594D01*
G01X-3424080Y1393392D01*
G01X-3444751Y1393392D01*
G01X-3465070Y1389594D01*
G01X-3484345Y1382127D01*
G01X-3501919Y1371245D01*
G01X-3517195Y1357319D01*
G01X-3529652Y1340823D01*
G01X-3538866Y1322320D01*
G01X-3544523Y1302438D01*
G01X-3546430Y1281856D01*
G01X-3546430Y1281856D01*
G01X-3576402Y1281856D01*
G01X-3576402Y1358056D01*
G01X-3578155Y1369123D01*
G01X-3583242Y1379107D01*
G01X-3591165Y1387030D01*
G01X-3601149Y1392117D01*
G01X-3612216Y1393870D01*
G01X-3764616Y1393870D01*
G01X-3775683Y1392117D01*
G01X-3785667Y1387030D01*
G01X-3793590Y1379107D01*
G01X-3798677Y1369123D01*
G01X-3800430Y1358056D01*
G01X-4865886Y1358056D01*
G01X-4865886Y1450925D01*
G01X-1089914Y1450925D01*
G01X-1089914Y1298525D01*
G01X-1088161Y1287458D01*
G01X-1083074Y1277474D01*
G01X-1075151Y1269551D01*
G01X-1065167Y1264464D01*
G01X-1054100Y1262711D01*
G01X-901700Y1262711D01*
G01X-901700Y1262711D01*
G01X-890633Y1264464D01*
G01X-880649Y1269551D01*
G01X-872726Y1277474D01*
G01X-867639Y1287458D01*
G01X-865886Y1298525D01*
G01X-865886Y1374725D01*
G01X-835914Y1374725D01*
G01X-834007Y1354142D01*
G01X-828350Y1334261D01*
G01X-819136Y1315757D01*
G01X-806679Y1299262D01*
G01X-791404Y1285336D01*
G01X-773829Y1274454D01*
G01X-754554Y1266987D01*
G01X-734235Y1263189D01*
G01X-713565Y1263189D01*
G01X-693246Y1266987D01*
G01X-673971Y1274454D01*
G01X-656396Y1285336D01*
G01X-641121Y1299262D01*
G01X-628664Y1315757D01*
G01X-619450Y1334261D01*
G01X-613793Y1354142D01*
G01X-611886Y1374725D01*
G01X-613793Y1395307D01*
G01X-619450Y1415189D01*
G01X-628664Y1433693D01*
G01X-641121Y1450188D01*
G01X-656396Y1464114D01*
G01X-673971Y1474996D01*
G01X-693246Y1482463D01*
G01X-713565Y1486261D01*
G01X-734235Y1486261D01*
G01X-754554Y1482463D01*
G01X-773829Y1474996D01*
G01X-791404Y1464114D01*
G01X-806679Y1450188D01*
G01X-819136Y1433693D01*
G01X-828350Y1415189D01*
G01X-834007Y1395307D01*
G01X-835914Y1374725D01*
G01X-835914Y1374725D01*
G01X-865886Y1374725D01*
G01X-865886Y1450925D01*
G01X-867639Y1461992D01*
G01X-872726Y1471976D01*
G01X-880649Y1479899D01*
G01X-890633Y1484986D01*
G01X-901700Y1486739D01*
G01X-1054100Y1486739D01*
G01X-1065167Y1484986D01*
G01X-1075151Y1479899D01*
G01X-1083074Y1471976D01*
G01X-1088161Y1461992D01*
G01X-1089914Y1450925D01*
G01X-4865886Y1450925D01*
G01X-4865886Y1935805D01*
G01X-4594194Y1935805D01*
G01X-4592305Y1906983D01*
G01X-4586670Y1878654D01*
G01X-4577385Y1851303D01*
G01X-4564610Y1825398D01*
G01X-4548563Y1801382D01*
G01X-4529519Y1779666D01*
G01X-4507803Y1760622D01*
G01X-4483787Y1744575D01*
G01X-4457882Y1731800D01*
G01X-4430531Y1722515D01*
G01X-4402202Y1716880D01*
G01X-4373380Y1714991D01*
G01X-4344558Y1716880D01*
G01X-4316229Y1722515D01*
G01X-4288878Y1731800D01*
G01X-4262973Y1744575D01*
G01X-4238957Y1760622D01*
G01X-4217241Y1779666D01*
G01X-4198196Y1801382D01*
G01X-4182149Y1825398D01*
G01X-4169374Y1851303D01*
G01X-4160090Y1878654D01*
G01X-4154455Y1906983D01*
G01X-4152566Y1935805D01*
G01X-4154081Y1958925D01*
G01X-3807714Y1958925D01*
G01X-3805807Y1938342D01*
G01X-3800150Y1918461D01*
G01X-3790936Y1899957D01*
G01X-3778479Y1883462D01*
G01X-3763204Y1869536D01*
G01X-3745629Y1858654D01*
G01X-3726354Y1851187D01*
G01X-3706035Y1847389D01*
G01X-3685365Y1847389D01*
G01X-3665046Y1851187D01*
G01X-3645771Y1858654D01*
G01X-3628196Y1869536D01*
G01X-3612921Y1883462D01*
G01X-3600464Y1899957D01*
G01X-3591250Y1918461D01*
G01X-3585593Y1938342D01*
G01X-3583686Y1958925D01*
G01X-3583686Y1958925D01*
G01X-3585593Y1979507D01*
G01X-3591250Y1999389D01*
G01X-3600464Y2017893D01*
G01X-3612921Y2034388D01*
G01X-3613729Y2035125D01*
G01X-3553714Y2035125D01*
G01X-3553714Y1882725D01*
G01X-3551961Y1871658D01*
G01X-3546874Y1861674D01*
G01X-3538951Y1853751D01*
G01X-3528967Y1848664D01*
G01X-3517900Y1846911D01*
G01X-3365500Y1846911D01*
G01X-3354433Y1848664D01*
G01X-3344449Y1853751D01*
G01X-3336526Y1861674D01*
G01X-3331439Y1871658D01*
G01X-3329686Y1882725D01*
G01X-3329686Y1958925D01*
G01X-3135685Y1958925D01*
G01X-3133778Y1938342D01*
G01X-3128121Y1918461D01*
G01X-3118907Y1899957D01*
G01X-3106450Y1883462D01*
G01X-3091174Y1869536D01*
G01X-3073600Y1858654D01*
G01X-3054325Y1851187D01*
G01X-3034006Y1847389D01*
G01X-3013336Y1847389D01*
G01X-2993017Y1851187D01*
G01X-2973742Y1858654D01*
G01X-2956167Y1869536D01*
G01X-2940892Y1883462D01*
G01X-2928435Y1899957D01*
G01X-2919221Y1918461D01*
G01X-2913564Y1938342D01*
G01X-2911657Y1958925D01*
G01X-2911657Y1958925D01*
G01X-2913564Y1979507D01*
G01X-2919221Y1999389D01*
G01X-2928435Y2017893D01*
G01X-2940892Y2034388D01*
G01X-2941700Y2035125D01*
G01X-2881685Y2035125D01*
G01X-2881685Y1882725D01*
G01X-2879932Y1871658D01*
G01X-2874845Y1861674D01*
G01X-2866922Y1853751D01*
G01X-2856938Y1848664D01*
G01X-2845871Y1846911D01*
G01X-2693471Y1846911D01*
G01X-2682404Y1848664D01*
G01X-2672420Y1853751D01*
G01X-2664497Y1861674D01*
G01X-2659410Y1871658D01*
G01X-2657657Y1882725D01*
G01X-2657657Y1958925D01*
G01X1183386Y1958925D01*
G01X1185293Y1938342D01*
G01X1190950Y1918461D01*
G01X1200164Y1899957D01*
G01X1212621Y1883462D01*
G01X1227896Y1869536D01*
G01X1245471Y1858654D01*
G01X1264746Y1851187D01*
G01X1285065Y1847389D01*
G01X1305735Y1847389D01*
G01X1326054Y1851187D01*
G01X1345329Y1858654D01*
G01X1362904Y1869536D01*
G01X1378179Y1883462D01*
G01X1390636Y1899957D01*
G01X1399850Y1918461D01*
G01X1405507Y1938342D01*
G01X1407414Y1958925D01*
G01X1407414Y1958925D01*
G01X1405507Y1979507D01*
G01X1399850Y1999389D01*
G01X1390636Y2017893D01*
G01X1378179Y2034388D01*
G01X1377371Y2035125D01*
G01X1437386Y2035125D01*
G01X1437386Y1882725D01*
G01X1439139Y1871658D01*
G01X1444226Y1861674D01*
G01X1452149Y1853751D01*
G01X1462133Y1848664D01*
G01X1473200Y1846911D01*
G01X1625600Y1846911D01*
G01X1636667Y1848664D01*
G01X1646651Y1853751D01*
G01X1654574Y1861674D01*
G01X1659661Y1871658D01*
G01X1661414Y1882725D01*
G01X1661414Y1935805D01*
G01X2345226Y1935805D01*
G01X2347115Y1906983D01*
G01X2352750Y1878654D01*
G01X2362034Y1851303D01*
G01X2374809Y1825398D01*
G01X2390856Y1801382D01*
G01X2409901Y1779666D01*
G01X2431617Y1760622D01*
G01X2455633Y1744575D01*
G01X2481538Y1731800D01*
G01X2508889Y1722515D01*
G01X2537218Y1716880D01*
G01X2566040Y1714991D01*
G01X2594862Y1716880D01*
G01X2623191Y1722515D01*
G01X2650542Y1731800D01*
G01X2676447Y1744575D01*
G01X2700463Y1760622D01*
G01X2722179Y1779666D01*
G01X2741223Y1801382D01*
G01X2757270Y1825398D01*
G01X2770045Y1851303D01*
G01X2779330Y1878654D01*
G01X2784965Y1906983D01*
G01X2786854Y1935805D01*
G01X2784965Y1964627D01*
G01X2779330Y1992956D01*
G01X2770045Y2020307D01*
G01X2757270Y2046212D01*
G01X2741223Y2070228D01*
G01X2722179Y2091944D01*
G01X2700463Y2110989D01*
G01X2676447Y2127036D01*
G01X2650542Y2139811D01*
G01X2623191Y2149095D01*
G01X2594862Y2154730D01*
G01X2566040Y2156619D01*
G01X2537218Y2154730D01*
G01X2508889Y2149095D01*
G01X2481538Y2139811D01*
G01X2455633Y2127036D01*
G01X2431617Y2110989D01*
G01X2409901Y2091944D01*
G01X2390856Y2070228D01*
G01X2374809Y2046212D01*
G01X2362034Y2020307D01*
G01X2352750Y1992956D01*
G01X2347115Y1964627D01*
G01X2345226Y1935805D01*
G01X2345226Y1935805D01*
G01X1661414Y1935805D01*
G01X1661414Y2035125D01*
G01X1659661Y2046192D01*
G01X1654574Y2056176D01*
G01X1646651Y2064099D01*
G01X1636667Y2069186D01*
G01X1625600Y2070939D01*
G01X1473200Y2070939D01*
G01X1473200Y2070939D01*
G01X1462133Y2069186D01*
G01X1452149Y2064099D01*
G01X1444226Y2056176D01*
G01X1439139Y2046192D01*
G01X1437386Y2035125D01*
G01X1377371Y2035125D01*
G01X1362904Y2048314D01*
G01X1345329Y2059196D01*
G01X1326054Y2066663D01*
G01X1305735Y2070461D01*
G01X1285065Y2070461D01*
G01X1264746Y2066663D01*
G01X1245471Y2059196D01*
G01X1227896Y2048314D01*
G01X1212621Y2034388D01*
G01X1200164Y2017893D01*
G01X1190950Y1999389D01*
G01X1185293Y1979507D01*
G01X1183386Y1958925D01*
G01X-2657657Y1958925D01*
G01X-2657657Y2035125D01*
G01X-2659410Y2046192D01*
G01X-2664497Y2056176D01*
G01X-2672420Y2064099D01*
G01X-2682404Y2069186D01*
G01X-2693471Y2070939D01*
G01X-2845871Y2070939D01*
G01X-2845871Y2070939D01*
G01X-2856938Y2069186D01*
G01X-2866922Y2064099D01*
G01X-2874845Y2056176D01*
G01X-2879932Y2046192D01*
G01X-2881685Y2035125D01*
G01X-2941700Y2035125D01*
G01X-2956167Y2048314D01*
G01X-2973742Y2059196D01*
G01X-2993017Y2066663D01*
G01X-3013336Y2070461D01*
G01X-3034006Y2070461D01*
G01X-3054325Y2066663D01*
G01X-3073600Y2059196D01*
G01X-3091174Y2048314D01*
G01X-3106450Y2034388D01*
G01X-3118907Y2017893D01*
G01X-3128121Y1999389D01*
G01X-3133778Y1979507D01*
G01X-3135685Y1958925D01*
G01X-3329686Y1958925D01*
G01X-3329686Y2035125D01*
G01X-3331439Y2046192D01*
G01X-3336526Y2056176D01*
G01X-3344449Y2064099D01*
G01X-3354433Y2069186D01*
G01X-3365500Y2070939D01*
G01X-3517900Y2070939D01*
G01X-3517900Y2070939D01*
G01X-3528967Y2069186D01*
G01X-3538951Y2064099D01*
G01X-3546874Y2056176D01*
G01X-3551961Y2046192D01*
G01X-3553714Y2035125D01*
G01X-3613729Y2035125D01*
G01X-3628196Y2048314D01*
G01X-3645771Y2059196D01*
G01X-3665046Y2066663D01*
G01X-3685365Y2070461D01*
G01X-3706035Y2070461D01*
G01X-3726354Y2066663D01*
G01X-3745629Y2059196D01*
G01X-3763204Y2048314D01*
G01X-3778479Y2034388D01*
G01X-3790936Y2017893D01*
G01X-3800150Y1999389D01*
G01X-3805807Y1979507D01*
G01X-3807714Y1958925D01*
G01X-4154081Y1958925D01*
G01X-4154455Y1964627D01*
G01X-4160090Y1992956D01*
G01X-4169374Y2020307D01*
G01X-4182149Y2046212D01*
G01X-4198196Y2070228D01*
G01X-4217241Y2091944D01*
G01X-4238957Y2110989D01*
G01X-4262973Y2127036D01*
G01X-4288878Y2139811D01*
G01X-4316229Y2149095D01*
G01X-4344558Y2154730D01*
G01X-4373380Y2156619D01*
G01X-4402202Y2154730D01*
G01X-4430531Y2149095D01*
G01X-4457882Y2139811D01*
G01X-4483787Y2127036D01*
G01X-4507803Y2110989D01*
G01X-4529519Y2091944D01*
G01X-4548563Y2070228D01*
G01X-4564610Y2046212D01*
G01X-4577385Y2020307D01*
G01X-4586670Y1992956D01*
G01X-4592305Y1964627D01*
G01X-4594194Y1935805D01*
G01X-4594194Y1935805D01*
G01X-4865886Y1935805D01*
G01X-4865886Y2480011D01*
G01X3062486Y2480011D01*
G37*
G54D10*
G01X3062486Y2480011D02*
G01X3062486Y-2448361D01*
G01X-4865886Y-2448361D01*
G01X-4865886Y2480011D01*
G01X3062486Y2480011D01*
G01X-4594194Y1935805D02*
G03X-4152566Y1935805I220814J0D01*
G03X-4594194Y1935805I-220814J0D01*
G01X-4592454Y-1099495D02*
G03X-4150826Y-1099495I220814J0D01*
G03X-4592454Y-1099495I-220814J0D01*
G01X-4101000Y67811D02*
G03X-4065186Y103625I0J35814D01*
G01X-4065186Y283625D01*
G03X-4101000Y319439I-35814J0D01*
G01X-4281000Y319439D01*
G03X-4316814Y283625I0J-35814D01*
G01X-4316814Y103625D01*
G03X-4281000Y67811I35814J0D01*
G01X-4101000Y67811D01*
G01X-4062814Y193625D02*
G03X-3811186Y193625I125814J0D01*
G03X-4062814Y193625I-125814J0D01*
G01X-3557199Y-899980D02*
G01X-3557199Y-819980D01*
G03X-3808827Y-819980I-125814J0D01*
G01X-3808827Y-899980D01*
G03X-3557199Y-899980I125814J0D01*
G01X-3808814Y193625D02*
G03X-3557186Y193625I125814J0D01*
G03X-3808814Y193625I-125814J0D01*
G01X-3583686Y1958925D02*
G03X-3807714Y1958925I-112014J0D01*
G03X-3583686Y1958925I112014J0D01*
G01X-3612216Y1169842D02*
G03X-3576402Y1205656I0J35814D01*
G01X-3576402Y1358056D01*
G03X-3612216Y1393870I-35814J0D01*
G01X-3764616Y1393870D01*
G03X-3800430Y1358056I0J-35814D01*
G01X-3800430Y1205656D01*
G03X-3764616Y1169842I35814J0D01*
G01X-3612216Y1169842D01*
G01X-3554814Y193625D02*
G03X-3303186Y193625I125814J0D01*
G03X-3554814Y193625I-125814J0D01*
G01X-3303173Y-900970D02*
G01X-3303173Y-820970D01*
G03X-3554801Y-820970I-125814J0D01*
G01X-3554801Y-900970D01*
G03X-3303173Y-900970I125814J0D01*
G01X-3517900Y2070939D02*
G03X-3553714Y2035125I0J-35814D01*
G01X-3553714Y1882725D01*
G03X-3517900Y1846911I35814J0D01*
G01X-3365500Y1846911D01*
G03X-3329686Y1882725I0J35814D01*
G01X-3329686Y2035125D01*
G03X-3365500Y2070939I-35814J0D01*
G01X-3517900Y2070939D01*
G01X-3546430Y1281856D02*
G03X-3322402Y1281856I112014J0D01*
G03X-3546430Y1281856I-112014J0D01*
G01X-3300814Y193625D02*
G03X-3049186Y193625I125814J0D01*
G03X-3300814Y193625I-125814J0D01*
G01X-3264987Y-695157D02*
G03X-3300801Y-730971I0J-35814D01*
G01X-3300801Y-990970D01*
G03X-3264987Y-1026784I35814J0D01*
G01X-3084987Y-1026784D01*
G03X-3049173Y-990970I0J35814D01*
G01X-3049173Y-730971D01*
G03X-3084987Y-695157I-35814J0D01*
G01X-3264987Y-695157D01*
G01X-2964516Y1169842D02*
G03X-2928702Y1205656I0J35814D01*
G01X-2928702Y1358056D01*
G03X-2964516Y1393870I-35814J0D01*
G01X-3116916Y1393870D01*
G03X-3152730Y1358056I0J-35814D01*
G01X-3152730Y1205656D01*
G03X-3116916Y1169842I35814J0D01*
G01X-2964516Y1169842D01*
G01X-2911657Y1958925D02*
G03X-3135685Y1958925I-112014J0D01*
G03X-2911657Y1958925I112014J0D01*
G01X-2898730Y1281856D02*
G03X-2674702Y1281856I112014J0D01*
G03X-2898730Y1281856I-112014J0D01*
G01X-2845871Y2070939D02*
G03X-2881685Y2035125I0J-35814D01*
G01X-2881685Y1882725D01*
G03X-2845871Y1846911I35814J0D01*
G01X-2693471Y1846911D01*
G03X-2657657Y1882725I0J35814D01*
G01X-2657657Y2035125D01*
G03X-2693471Y2070939I-35814J0D01*
G01X-2845871Y2070939D01*
G01X-963897Y-2076068D02*
G03X-1215525Y-2076068I-125814J0D01*
G03X-963897Y-2076068I125814J0D01*
G01X-963897Y-1626082D02*
G03X-1215525Y-1626082I-125814J0D01*
G03X-963897Y-1626082I125814J0D01*
G01X-901700Y1262711D02*
G03X-865886Y1298525I0J35814D01*
G01X-865886Y1450925D01*
G03X-901700Y1486739I-35814J0D01*
G01X-1054100Y1486739D01*
G03X-1089914Y1450925I0J-35814D01*
G01X-1089914Y1298525D01*
G03X-1054100Y1262711I35814J0D01*
G01X-901700Y1262711D01*
G01X-835914Y1374725D02*
G03X-611886Y1374725I112014J0D01*
G03X-835914Y1374725I-112014J0D01*
G01X-735504Y-268500D02*
G03X-758091Y-377091I24304J-61700D01*
G03X-649500Y-354504I46891J46891D01*
G01X-225298Y69698D01*
G03X-207486Y112700I-43002J43002D01*
G01X-207486Y786357D01*
G03X-268300Y879114I-60814J26443D01*
G03X-329114Y786357I0J-66314D01*
G01X-329114Y137890D01*
G01X-735504Y-268500D01*
G01X-333875Y-2076068D02*
G03X-585503Y-2076068I-125814J0D01*
G03X-333875Y-2076068I125814J0D01*
G01X-333875Y-1626082D02*
G03X-585503Y-1626082I-125814J0D01*
G03X-333875Y-1626082I125814J0D01*
G01X1407414Y1958925D02*
G03X1183386Y1958925I-112014J0D01*
G03X1407414Y1958925I112014J0D01*
G01X1536700Y590386D02*
G03X1536700Y832014I0J120814D01*
G03X1536700Y590386I0J-120814D01*
G01X1536700Y844386D02*
G03X1536700Y1086014I0J120814D01*
G03X1536700Y844386I0J-120814D01*
G01X1536700Y336386D02*
G03X1536700Y578014I0J120814D01*
G03X1536700Y336386I0J-120814D01*
G01X1657514Y288200D02*
G03X1621700Y324014I-35814J0D01*
G01X1451700Y324014D01*
G03X1415886Y288200I0J-35814D01*
G01X1415886Y118200D01*
G03X1451700Y82386I35814J0D01*
G01X1621700Y82386D01*
G03X1657514Y118200I0J35814D01*
G01X1657514Y288200D01*
G01X1473200Y2070939D02*
G03X1437386Y2035125I0J-35814D01*
G01X1437386Y1882725D01*
G03X1473200Y1846911I35814J0D01*
G01X1625600Y1846911D01*
G03X1661414Y1882725I0J35814D01*
G01X1661414Y2035125D01*
G03X1625600Y2070939I-35814J0D01*
G01X1473200Y2070939D01*
G01X2330786Y-1112195D02*
G03X2772414Y-1112195I220814J0D01*
G03X2330786Y-1112195I-220814J0D01*
G01X2345226Y1935805D02*
G03X2786854Y1935805I220814J0D01*
G03X2345226Y1935805I-220814J0D01*
G54D11*
G01X1295400Y1958925D02*
G01X1397254Y1958925D01*
G01X1295400Y1958925D02*
G01X1193546Y1958925D01*
G01X1295400Y1958925D02*
G01X1295400Y1857071D01*
G01X1295400Y1958925D02*
G01X1295400Y2060779D01*
G01X2551600Y-1112195D02*
G01X2340946Y-1112195D01*
G01X2551600Y-1112195D02*
G01X2762254Y-1112195D01*
G01X2551600Y-1112195D02*
G01X2551600Y-901541D01*
G01X2551600Y-1112195D02*
G01X2551600Y-1322849D01*
G01X2566040Y1935805D02*
G01X2355386Y1935805D01*
G01X2566040Y1935805D02*
G01X2776694Y1935805D01*
G01X2566040Y1935805D02*
G01X2566040Y2146459D01*
G01X2566040Y1935805D02*
G01X2566040Y1725151D01*
G01X1536700Y457200D02*
G01X1536700Y346546D01*
G01X1536700Y457200D02*
G01X1536700Y567854D01*
G01X1536700Y457200D02*
G01X1426046Y457200D01*
G01X1536700Y457200D02*
G01X1647354Y457200D01*
G01X1536700Y965200D02*
G01X1536700Y854546D01*
G01X1536700Y965200D02*
G01X1536700Y1075854D01*
G01X1536700Y965200D02*
G01X1426046Y965200D01*
G01X1536700Y965200D02*
G01X1647354Y965200D01*
G01X-4373380Y1935805D02*
G01X-4584034Y1935805D01*
G01X-4373380Y1935805D02*
G01X-4162726Y1935805D01*
G01X-4373380Y1935805D02*
G01X-4373380Y2146459D01*
G01X-4373380Y1935805D02*
G01X-4373380Y1725151D01*
G01X-4371640Y-1099495D02*
G01X-4582294Y-1099495D01*
G01X-4371640Y-1099495D02*
G01X-4160986Y-1099495D01*
G01X-4371640Y-1099495D02*
G01X-4371640Y-888841D01*
G01X-4371640Y-1099495D02*
G01X-4371640Y-1310149D01*
G01X-4191000Y193625D02*
G01X-4306654Y193625D01*
G01X-4191000Y193625D02*
G01X-4075346Y193625D01*
G01X-4191000Y193625D02*
G01X-4191000Y309279D01*
G01X-4191000Y193625D02*
G01X-4191000Y77971D01*
G01X-3937000Y193625D02*
G01X-4052654Y193625D01*
G01X-3937000Y193625D02*
G01X-3821346Y193625D01*
G01X-3937000Y193625D02*
G01X-3937000Y309279D01*
G01X-3937000Y193625D02*
G01X-3937000Y77971D01*
G01X-3428987Y-860970D02*
G01X-3313333Y-860970D01*
G01X-3428987Y-860970D02*
G01X-3544641Y-860970D01*
G01X-3428987Y-860970D02*
G01X-3428987Y-1016624D01*
G01X-3428987Y-860970D02*
G01X-3428987Y-705317D01*
G01X-1089711Y-2076068D02*
G01X-974057Y-2076068D01*
G01X-1089711Y-2076068D02*
G01X-1205365Y-2076068D01*
G01X-1089711Y-2076068D02*
G01X-1089711Y-2191722D01*
G01X-1089711Y-2076068D02*
G01X-1089711Y-1960414D01*
G04 Copper End*

G04 Pad Start*
G54D12*
G01X-4371640Y-1099495D03*
G01X2551600Y-1112195D03*
G01X2566040Y1935805D03*
G01X-4373380Y1935805D03*
G54D13*
G01X-459689Y-1626082D03*
G01X-1089711Y-1626082D03*
G01X-459689Y-2076068D03*
G01X-1089711Y-2076068D03*
G54D14*
G01X1549400Y1958925D03*
G54D15*
G01X1295400Y1958925D03*
G54D14*
G01X-3441700Y1958925D03*
G54D15*
G01X-3695700Y1958925D03*
G54D14*
G01X-2769671Y1958925D03*
G54D15*
G01X-3023671Y1958925D03*
G54D14*
G01X-3040716Y1281856D03*
G54D15*
G01X-2786716Y1281856D03*
G54D14*
G01X-3688416Y1281856D03*
G54D15*
G01X-3434416Y1281856D03*
G54D17*
G01X-4191000Y193625D03*
G54D13*
G01X-3937000Y193625D03*
G01X-3683000Y193625D03*
G01X-3429000Y193625D03*
G01X-3175000Y193625D03*
G54D14*
G01X-977900Y1374725D03*
G54D15*
G01X-723900Y1374725D03*
G54D18*
G01X-3428987Y-860970D03*
G01X-3683013Y-859980D03*
G54D19*
G01X-3174987Y-860970D03*
G54D20*
G01X1536700Y203200D03*
G54D21*
G01X1536700Y457200D03*
G01X1536700Y711200D03*
G01X1536700Y965200D03*
G04 Pad End*

G04 Via Start*
G54D22*
G01X-3427400Y-577776D03*
G01X-3427400Y-653336D03*
G01X-254000Y-659420D03*
G01X-1075306Y104725D03*
G01X101600Y1466596D03*
G01X647700Y965200D03*
G01X-268300Y812800D03*
G01X-711200Y-330200D03*
G01X-468300Y838200D03*
G01X101600Y1949196D03*
G01X-12700Y399796D03*
G01X330200Y50800D03*
G01X-1701800Y-341960D03*
G01X-2844800Y393700D03*
G01X-1993900Y393700D03*
G01X-2705100Y-38100D03*
G01X-2006600Y-863600D03*
G01X-190500Y-63500D03*
G01X1028700Y482600D03*
G01X1257300Y952500D03*
G01X-431800Y1638300D03*
G01X-876300Y939800D03*
G01X-2387600Y1600200D03*
G01X-1447800Y1651000D03*
G01X774700Y1651000D03*
G01X-1638300Y2451100D03*
G01X1181100Y2451100D03*
G01X-3898900Y2451100D03*
G01X876300Y-635000D03*
G01X-3797300Y1079500D03*
G01X-3251200Y1638300D03*
G01X-3213100Y2070100D03*
G01X-368300Y1219200D03*
G01X-203200Y2133600D03*
G01X863600Y1206500D03*
G01X-3251200Y1092200D03*
G01X-3314700Y800100D03*
G01X-1473200Y812800D03*
G04 Via End*

G04 Track Start*
G54D23*
G01X-268300Y812800D02*
G01X-268300Y112700D01*
G01X-711200Y-330200D01*
G04 Track End*

M02*

