G04 Layer: TopLayer*
G04 EasyEDA Pro v3.2.148, 2026-08-14 16:50:30*
G04 Gerber Generator version 0.3*
G04 Scale: 100 percent, Rotated: No, Reflected: No*
G04 Dimensions in millimeters*
G04 Leading zeros omitted, absolute positions, 4 integers and 5 decimals*
G04 Generated by one-click*
G04 Object Configs: Pad,Via,Track,Text,Image,Dimension,BoardOutline,BoardCutout,CopperFilled,SolidRegion,FPCStiffener,Line,PlaneZone,ComponentProperty,ComponentSilkscreen,TearDrop*
G04 Layer Configs: 1,2,3,4,5,6,7,8,9,10,11,13,14,56*
G04 Copper Areas: 84*
%FSLAX45Y45*%
%MOMM*%
%ADD10C,0.2032*%
%ADD11C,0.254*%
%ADD12C,3.7*%
%ADD13C,1.8*%
%ADD14R,1.524X1.524*%
%ADD15C,1.5218*%
%ADD16C,1.524*%
%ADD17R,1.8X1.8*%
%ADD18R,1.41X1.35001*%
%ADD19R,1.03749X0.532*%
%ADD20R,1.13254X1.37701*%
%ADD21R,1.37701X1.13254*%
%ADD22O,1.8X2.59999*%
%ADD23R,1.8X2.59999*%
%ADD24O,1.95021X0.5684*%
%ADD25R,2.04638X1.62001*%
%ADD26R,1.0X0.65001*%
%ADD27R,1.7X1.7*%
%ADD28C,1.7*%
%ADD29R,1.35001X1.41*%
%ADD30C,0.61*%
%ADD31C,0.5*%
%ADD32C,1.0*%
%ADD33C,0.6*%
G75*


G04 Copper Start*
G36*
G01X3062486Y2480011D02*
G01X3062486Y-2448361D01*
G01X-4865886Y-2448361D01*
G01X-4865886Y-2076068D01*
G01X-1215525Y-2076068D01*
G01X-1213613Y-2097916D01*
G01X-1207937Y-2119099D01*
G01X-1198669Y-2138975D01*
G01X-1186090Y-2156940D01*
G01X-1170582Y-2172447D01*
G01X-1152618Y-2185026D01*
G01X-1132742Y-2194295D01*
G01X-1111558Y-2199971D01*
G01X-1089711Y-2201882D01*
G01X-1067863Y-2199971D01*
G01X-1046680Y-2194295D01*
G01X-1026804Y-2185026D01*
G01X-1008839Y-2172447D01*
G01X-993332Y-2156940D01*
G01X-980753Y-2138975D01*
G01X-971484Y-2119099D01*
G01X-965808Y-2097916D01*
G01X-963897Y-2076068D01*
G01X-963897Y-2076068D01*
G01X-585503Y-2076068D01*
G01X-583592Y-2097916D01*
G01X-577916Y-2119099D01*
G01X-568647Y-2138975D01*
G01X-556068Y-2156940D01*
G01X-540561Y-2172447D01*
G01X-522596Y-2185026D01*
G01X-502720Y-2194295D01*
G01X-481537Y-2199971D01*
G01X-459689Y-2201882D01*
G01X-437842Y-2199971D01*
G01X-416658Y-2194295D01*
G01X-396782Y-2185026D01*
G01X-378818Y-2172447D01*
G01X-363310Y-2156940D01*
G01X-350731Y-2138975D01*
G01X-341463Y-2119099D01*
G01X-335787Y-2097916D01*
G01X-333875Y-2076068D01*
G01X-333875Y-2076068D01*
G01X-335787Y-2054221D01*
G01X-341463Y-2033037D01*
G01X-350731Y-2013161D01*
G01X-363310Y-1995197D01*
G01X-378818Y-1979689D01*
G01X-396782Y-1967110D01*
G01X-416658Y-1957842D01*
G01X-437842Y-1952166D01*
G01X-459689Y-1950254D01*
G01X-481537Y-1952166D01*
G01X-502720Y-1957842D01*
G01X-522596Y-1967110D01*
G01X-540561Y-1979689D01*
G01X-556068Y-1995197D01*
G01X-568647Y-2013161D01*
G01X-577916Y-2033037D01*
G01X-583592Y-2054221D01*
G01X-585503Y-2076068D01*
G01X-963897Y-2076068D01*
G01X-965808Y-2054221D01*
G01X-971484Y-2033037D01*
G01X-980753Y-2013161D01*
G01X-993332Y-1995197D01*
G01X-1008839Y-1979689D01*
G01X-1026804Y-1967110D01*
G01X-1046680Y-1957842D01*
G01X-1067863Y-1952166D01*
G01X-1089711Y-1950254D01*
G01X-1111558Y-1952166D01*
G01X-1132742Y-1957842D01*
G01X-1152618Y-1967110D01*
G01X-1170582Y-1979689D01*
G01X-1186090Y-1995197D01*
G01X-1198669Y-2013161D01*
G01X-1207937Y-2033037D01*
G01X-1213613Y-2054221D01*
G01X-1215525Y-2076068D01*
G01X-4865886Y-2076068D01*
G01X-4865886Y-1626082D01*
G01X-1215525Y-1626082D01*
G01X-1213613Y-1647929D01*
G01X-1207937Y-1669113D01*
G01X-1198669Y-1688989D01*
G01X-1186090Y-1706953D01*
G01X-1170582Y-1722461D01*
G01X-1152618Y-1735040D01*
G01X-1132742Y-1744308D01*
G01X-1111558Y-1749984D01*
G01X-1089711Y-1751896D01*
G01X-1067863Y-1749984D01*
G01X-1046680Y-1744308D01*
G01X-1026804Y-1735040D01*
G01X-1008839Y-1722461D01*
G01X-993332Y-1706953D01*
G01X-980753Y-1688989D01*
G01X-971484Y-1669113D01*
G01X-965808Y-1647929D01*
G01X-963897Y-1626082D01*
G01X-585503Y-1626082D01*
G01X-583564Y-1648087D01*
G01X-577806Y-1669414D01*
G01X-568406Y-1689405D01*
G01X-555655Y-1707443D01*
G01X-539945Y-1722974D01*
G01X-521762Y-1735517D01*
G01X-501664Y-1744687D01*
G01X-480273Y-1750200D01*
G01X-458247Y-1751887D01*
G01X-436266Y-1749696D01*
G01X-415006Y-1743694D01*
G01X-395124Y-1734066D01*
G01X-377233Y-1721109D01*
G01X-361884Y-1705222D01*
G01X-349549Y-1686896D01*
G01X850418Y-1686896D01*
G01X862282Y-1685727D01*
G01X873691Y-1682267D01*
G01X884205Y-1676647D01*
G01X893420Y-1669084D01*
G01X1450309Y-1112195D01*
G01X2330786Y-1112195D01*
G01X2332675Y-1141017D01*
G01X2338310Y-1169346D01*
G01X2347594Y-1196697D01*
G01X2360369Y-1222602D01*
G01X2376416Y-1246618D01*
G01X2395461Y-1268334D01*
G01X2417177Y-1287378D01*
G01X2441193Y-1303425D01*
G01X2467098Y-1316200D01*
G01X2494449Y-1325485D01*
G01X2522778Y-1331120D01*
G01X2551600Y-1333009D01*
G01X2580422Y-1331120D01*
G01X2608751Y-1325485D01*
G01X2636102Y-1316200D01*
G01X2662007Y-1303425D01*
G01X2686023Y-1287378D01*
G01X2707739Y-1268334D01*
G01X2726783Y-1246618D01*
G01X2742830Y-1222602D01*
G01X2755605Y-1196697D01*
G01X2764890Y-1169346D01*
G01X2770525Y-1141017D01*
G01X2772414Y-1112195D01*
G01X2770525Y-1083373D01*
G01X2764890Y-1055044D01*
G01X2755605Y-1027693D01*
G01X2742830Y-1001788D01*
G01X2726783Y-977772D01*
G01X2707739Y-956056D01*
G01X2686023Y-937011D01*
G01X2662007Y-920964D01*
G01X2636102Y-908189D01*
G01X2608751Y-898905D01*
G01X2580422Y-893270D01*
G01X2551600Y-891381D01*
G01X2522778Y-893270D01*
G01X2494449Y-898905D01*
G01X2467098Y-908189D01*
G01X2441193Y-920964D01*
G01X2417177Y-937011D01*
G01X2395461Y-956056D01*
G01X2376416Y-977772D01*
G01X2360369Y-1001788D01*
G01X2347594Y-1027693D01*
G01X2338310Y-1055044D01*
G01X2332675Y-1083373D01*
G01X2330786Y-1112195D01*
G01X2330786Y-1112195D01*
G01X1450309Y-1112195D01*
G01X2036902Y-525602D01*
G01X2044465Y-516386D01*
G01X2050085Y-505872D01*
G01X2053545Y-494464D01*
G01X2054714Y-482600D01*
G01X2054714Y1117600D01*
G01X2053545Y1129464D01*
G01X2050085Y1140873D01*
G01X2044465Y1151386D01*
G01X2036902Y1160602D01*
G01X1833702Y1363802D01*
G01X1824486Y1371365D01*
G01X1813972Y1376985D01*
G01X1802564Y1380445D01*
G01X1790700Y1381614D01*
G01X1346200Y1381614D01*
G01X1334336Y1380445D01*
G01X1322928Y1376985D01*
G01X1312414Y1371365D01*
G01X1303198Y1363802D01*
G01X966915Y1027518D01*
G01X966915Y1148400D01*
G01X965162Y1159467D01*
G01X960075Y1169451D01*
G01X952151Y1177374D01*
G01X942168Y1182461D01*
G01X931101Y1184214D01*
G01X796100Y1184214D01*
G01X785032Y1182461D01*
G01X775049Y1177374D01*
G01X767125Y1169451D01*
G01X762038Y1159467D01*
G01X760286Y1148400D01*
G01X760286Y1007400D01*
G01X762133Y996044D01*
G01X767486Y985861D01*
G01X775791Y977900D01*
G01X767486Y969939D01*
G01X762133Y959756D01*
G01X760286Y948400D01*
G01X760286Y899014D01*
G01X588881Y899014D01*
G01X577884Y901700D01*
G01X593245Y906049D01*
G01X607059Y914053D01*
G01X618473Y925216D01*
G01X626781Y938849D01*
G01X631470Y954110D01*
G01X632251Y970056D01*
G01X629075Y985702D01*
G01X622139Y1000081D01*
G01X611870Y1012306D01*
G01X598905Y1021621D01*
G01X584042Y1027450D01*
G01X568201Y1029434D01*
G01X430019Y1029434D01*
G01X414178Y1027450D01*
G01X399315Y1021621D01*
G01X386350Y1012306D01*
G01X376081Y1000081D01*
G01X369145Y985702D01*
G01X365969Y970056D01*
G01X366750Y954110D01*
G01X371439Y938849D01*
G01X379747Y925216D01*
G01X391161Y914053D01*
G01X404975Y906049D01*
G01X420336Y901700D01*
G01X405723Y897662D01*
G01X392463Y890311D01*
G01X381296Y880057D01*
G01X372843Y867471D01*
G01X367575Y853255D01*
G01X365785Y838200D01*
G01X367575Y823145D01*
G01X372843Y808929D01*
G01X381296Y796343D01*
G01X392463Y786089D01*
G01X405723Y778738D01*
G01X420336Y774700D01*
G01X405723Y770662D01*
G01X392463Y763311D01*
G01X381296Y753057D01*
G01X372843Y740471D01*
G01X367575Y726255D01*
G01X365785Y711200D01*
G01X367575Y696145D01*
G01X372843Y681929D01*
G01X381296Y669343D01*
G01X392463Y659089D01*
G01X405723Y651738D01*
G01X420336Y647700D01*
G01X405189Y643441D01*
G01X391532Y635627D01*
G01X380184Y624727D01*
G01X371826Y611396D01*
G01X366961Y596432D01*
G01X365879Y580735D01*
G01X368646Y565245D01*
G01X375095Y550893D01*
G01X384840Y538540D01*
G01X305441Y459141D01*
G01X261349Y459141D01*
G01X250282Y457388D01*
G01X240299Y452301D01*
G01X232375Y444378D01*
G01X227288Y434394D01*
G01X225535Y423327D01*
G01X225535Y379235D01*
G01X104619Y258318D01*
G01X-38264Y258318D01*
G01X-46126Y265795D01*
G01X-55867Y270575D01*
G01X-66591Y272218D01*
G01X-170340Y272218D01*
G01X-181407Y270465D01*
G01X-191391Y265378D01*
G01X-199314Y257455D01*
G01X-204401Y247471D01*
G01X-206154Y236404D01*
G01X-206154Y183204D01*
G01X-204401Y172137D01*
G01X-199314Y162153D01*
G01X-191391Y154230D01*
G01X-181407Y149143D01*
G01X-170340Y147390D01*
G01X-66591Y147390D01*
G01X-55867Y149033D01*
G01X-46126Y153813D01*
G01X-38264Y161290D01*
G01X124714Y161290D01*
G01X137270Y162943D01*
G01X148971Y167790D01*
G01X159019Y175499D01*
G01X206846Y223327D01*
G01X225535Y223327D01*
G01X225535Y110073D01*
G01X227288Y99006D01*
G01X232375Y89023D01*
G01X240299Y81099D01*
G01X250282Y76012D01*
G01X261349Y74259D01*
G01X399051Y74259D01*
G01X399051Y74259D01*
G01X410118Y76012D01*
G01X420101Y81099D01*
G01X428025Y89023D01*
G01X433112Y99006D01*
G01X434865Y110073D01*
G01X434865Y223327D01*
G01X433112Y234394D01*
G01X428025Y244378D01*
G01X420101Y252301D01*
G01X410118Y257388D01*
G01X399051Y259141D01*
G01X261349Y259141D01*
G01X250282Y257388D01*
G01X240299Y252301D01*
G01X232375Y244378D01*
G01X227288Y234394D01*
G01X225535Y223327D01*
G01X206846Y223327D01*
G01X257941Y274422D01*
G01X261349Y274259D01*
G01X399051Y274259D01*
G01X410118Y276012D01*
G01X420101Y281099D01*
G01X428025Y289022D01*
G01X433112Y299006D01*
G01X434865Y310073D01*
G01X434865Y423327D01*
G01X433097Y434437D01*
G01X427971Y444452D01*
G01X440719Y457200D01*
G01X1415886Y457200D01*
G01X1417722Y436221D01*
G01X1423172Y415879D01*
G01X1432072Y396793D01*
G01X1444151Y379542D01*
G01X1459042Y364651D01*
G01X1476293Y352572D01*
G01X1495379Y343672D01*
G01X1515721Y338222D01*
G01X1536700Y336386D01*
G01X1536700Y336386D01*
G01X1557679Y338222D01*
G01X1578021Y343672D01*
G01X1597107Y352572D01*
G01X1614358Y364651D01*
G01X1629249Y379542D01*
G01X1641328Y396793D01*
G01X1650228Y415879D01*
G01X1655678Y436221D01*
G01X1657514Y457200D01*
G01X1655678Y478179D01*
G01X1650228Y498521D01*
G01X1641328Y517607D01*
G01X1629249Y534858D01*
G01X1614358Y549749D01*
G01X1597107Y561828D01*
G01X1578021Y570728D01*
G01X1557679Y576178D01*
G01X1536700Y578014D01*
G01X1515721Y576178D01*
G01X1495379Y570728D01*
G01X1476293Y561828D01*
G01X1459042Y549749D01*
G01X1444151Y534858D01*
G01X1432072Y517607D01*
G01X1423172Y498521D01*
G01X1417722Y478179D01*
G01X1415886Y457200D01*
G01X440719Y457200D01*
G01X503485Y519966D01*
G01X568201Y519966D01*
G01X584042Y521950D01*
G01X598905Y527779D01*
G01X611870Y537094D01*
G01X622139Y549319D01*
G01X629075Y563699D01*
G01X632251Y579345D01*
G01X631470Y595290D01*
G01X626781Y610551D01*
G01X618473Y624184D01*
G01X607059Y635347D01*
G01X593245Y643351D01*
G01X577884Y647700D01*
G01X589569Y650624D01*
G01X600503Y655679D01*
G01X610300Y662686D01*
G01X1426055Y662686D01*
G01X1426055Y662686D01*
G01X1436656Y643472D01*
G01X1450558Y626492D01*
G01X1467301Y612307D01*
G01X1486335Y601385D01*
G01X1507030Y594086D01*
G01X1528705Y590651D01*
G01X1550643Y591193D01*
G01X1572121Y595695D01*
G01X1592430Y604008D01*
G01X1610901Y615857D01*
G01X1626923Y630852D01*
G01X1639969Y648498D01*
G01X1649607Y668213D01*
G01X1655521Y689346D01*
G01X1657514Y711200D01*
G01X1655521Y733054D01*
G01X1649607Y754187D01*
G01X1639969Y773902D01*
G01X1626923Y791548D01*
G01X1610901Y806543D01*
G01X1592430Y818392D01*
G01X1572121Y826705D01*
G01X1550643Y831207D01*
G01X1528705Y831749D01*
G01X1507030Y828314D01*
G01X1486335Y821015D01*
G01X1467301Y810093D01*
G01X1450558Y795908D01*
G01X1436656Y778928D01*
G01X1426055Y759714D01*
G01X610300Y759714D01*
G01X600503Y766721D01*
G01X589569Y771776D01*
G01X577884Y774700D01*
G01X588881Y777386D01*
G01X776560Y777386D01*
G01X785908Y773067D01*
G01X796100Y771586D01*
G01X931101Y771586D01*
G01X942168Y773339D01*
G01X952151Y778426D01*
G01X960075Y786349D01*
G01X965162Y796333D01*
G01X966915Y807400D01*
G01X966915Y855511D01*
G01X1076604Y965200D01*
G01X1415886Y965200D01*
G01X1417722Y944221D01*
G01X1423172Y923879D01*
G01X1432072Y904793D01*
G01X1444151Y887542D01*
G01X1459042Y872651D01*
G01X1476293Y860572D01*
G01X1495379Y851672D01*
G01X1515721Y846222D01*
G01X1536700Y844386D01*
G01X1536700Y844386D01*
G01X1557679Y846222D01*
G01X1578021Y851672D01*
G01X1597107Y860572D01*
G01X1614358Y872651D01*
G01X1629249Y887542D01*
G01X1641328Y904793D01*
G01X1650228Y923879D01*
G01X1655678Y944221D01*
G01X1657514Y965200D01*
G01X1655678Y986179D01*
G01X1650228Y1006521D01*
G01X1641328Y1025607D01*
G01X1629249Y1042858D01*
G01X1614358Y1057749D01*
G01X1597107Y1069828D01*
G01X1578021Y1078728D01*
G01X1557679Y1084178D01*
G01X1536700Y1086014D01*
G01X1515721Y1084178D01*
G01X1495379Y1078728D01*
G01X1476293Y1069828D01*
G01X1459042Y1057749D01*
G01X1444151Y1042858D01*
G01X1432072Y1025607D01*
G01X1423172Y1006521D01*
G01X1417722Y986179D01*
G01X1415886Y965200D01*
G01X1076604Y965200D01*
G01X1371390Y1259986D01*
G01X1765510Y1259986D01*
G01X1933086Y1092410D01*
G01X1933086Y-457410D01*
G01X825228Y-1565268D01*
G01X-349549Y-1565268D01*
G01X-361884Y-1546942D01*
G01X-377233Y-1531055D01*
G01X-395124Y-1518098D01*
G01X-415006Y-1508470D01*
G01X-436266Y-1502468D01*
G01X-458247Y-1500276D01*
G01X-480273Y-1501963D01*
G01X-501664Y-1507477D01*
G01X-521762Y-1516646D01*
G01X-539945Y-1529190D01*
G01X-555655Y-1544720D01*
G01X-568406Y-1562759D01*
G01X-577806Y-1582750D01*
G01X-583564Y-1604077D01*
G01X-585503Y-1626082D01*
G01X-963897Y-1626082D01*
G01X-963897Y-1626082D01*
G01X-963897Y-1626082D01*
G01X-965808Y-1604234D01*
G01X-971484Y-1583051D01*
G01X-980753Y-1563175D01*
G01X-993332Y-1545210D01*
G01X-1008839Y-1529703D01*
G01X-1026804Y-1517124D01*
G01X-1046680Y-1507856D01*
G01X-1067863Y-1502179D01*
G01X-1089711Y-1500268D01*
G01X-1111558Y-1502179D01*
G01X-1132742Y-1507856D01*
G01X-1152618Y-1517124D01*
G01X-1170582Y-1529703D01*
G01X-1186090Y-1545210D01*
G01X-1198669Y-1563175D01*
G01X-1207937Y-1583051D01*
G01X-1213613Y-1604234D01*
G01X-1215525Y-1626082D01*
G01X-4865886Y-1626082D01*
G01X-4865886Y-1099495D01*
G01X-4592454Y-1099495D01*
G01X-4590565Y-1128317D01*
G01X-4584930Y-1156646D01*
G01X-4575646Y-1183997D01*
G01X-4562871Y-1209902D01*
G01X-4546824Y-1233918D01*
G01X-4527779Y-1255634D01*
G01X-4506063Y-1274678D01*
G01X-4482047Y-1290725D01*
G01X-4456142Y-1303500D01*
G01X-4428791Y-1312785D01*
G01X-4400462Y-1318420D01*
G01X-4371640Y-1320309D01*
G01X-4342818Y-1318420D01*
G01X-4314489Y-1312785D01*
G01X-4287138Y-1303500D01*
G01X-4261233Y-1290725D01*
G01X-4237217Y-1274678D01*
G01X-4215501Y-1255634D01*
G01X-4196456Y-1233918D01*
G01X-4180409Y-1209902D01*
G01X-4167634Y-1183997D01*
G01X-4158350Y-1156646D01*
G01X-4152715Y-1128317D01*
G01X-4150826Y-1099495D01*
G01X-4152715Y-1070673D01*
G01X-4158350Y-1042344D01*
G01X-4167634Y-1014993D01*
G01X-4180409Y-989088D01*
G01X-4196456Y-965072D01*
G01X-4215501Y-943356D01*
G01X-4237217Y-924311D01*
G01X-4261233Y-908264D01*
G01X-4287138Y-895489D01*
G01X-4314489Y-886205D01*
G01X-4342818Y-880570D01*
G01X-4371640Y-878681D01*
G01X-4400462Y-880570D01*
G01X-4428791Y-886205D01*
G01X-4456142Y-895489D01*
G01X-4482047Y-908264D01*
G01X-4506063Y-924311D01*
G01X-4527779Y-943356D01*
G01X-4546824Y-965072D01*
G01X-4562871Y-989088D01*
G01X-4575646Y-1014993D01*
G01X-4584930Y-1042344D01*
G01X-4590565Y-1070673D01*
G01X-4592454Y-1099495D01*
G01X-4592454Y-1099495D01*
G01X-4865886Y-1099495D01*
G01X-4865886Y-819980D01*
G01X-3808827Y-819980D01*
G01X-3808827Y-899980D01*
G01X-3806915Y-921830D01*
G01X-3801237Y-943016D01*
G01X-3791966Y-962894D01*
G01X-3779384Y-980860D01*
G01X-3763873Y-996368D01*
G01X-3745905Y-1008946D01*
G01X-3726025Y-1018213D01*
G01X-3704837Y-1023886D01*
G01X-3682987Y-1025793D01*
G01X-3661137Y-1023877D01*
G01X-3639952Y-1018195D01*
G01X-3620076Y-1008920D01*
G01X-3306419Y-1322577D01*
G01X-3306419Y-1322577D01*
G01X-3297204Y-1330140D01*
G01X-3286690Y-1335760D01*
G01X-3275282Y-1339220D01*
G01X-3263417Y-1340389D01*
G01X-1660575Y-1340389D01*
G01X-1648711Y-1339220D01*
G01X-1637303Y-1335760D01*
G01X-1626789Y-1330140D01*
G01X-1617573Y-1322577D01*
G01X-880298Y-585302D01*
G01X-358665Y-585302D01*
G01X-356912Y-596369D01*
G01X-351825Y-606353D01*
G01X-343901Y-614276D01*
G01X-333918Y-619363D01*
G01X-322851Y-621116D01*
G01X-185149Y-621116D01*
G01X-185149Y-621116D01*
G01X-174082Y-619363D01*
G01X-164099Y-614276D01*
G01X-156175Y-606353D01*
G01X-151088Y-596369D01*
G01X-149335Y-585302D01*
G01X-149335Y-472048D01*
G01X-151088Y-460981D01*
G01X-156175Y-450997D01*
G01X-164099Y-443074D01*
G01X-174082Y-437987D01*
G01X-185149Y-436234D01*
G01X-322851Y-436234D01*
G01X-333918Y-437987D01*
G01X-343901Y-443074D01*
G01X-351825Y-450997D01*
G01X-356912Y-460981D01*
G01X-358665Y-472048D01*
G01X-358665Y-585302D01*
G01X-880298Y-585302D01*
G01X-686896Y-391900D01*
G01X-681496Y-389489D01*
G01X-358419Y-389489D01*
G01X-355726Y-399509D01*
G01X-350274Y-408336D01*
G01X-342521Y-415231D01*
G01X-333116Y-419613D01*
G01X-322851Y-421116D01*
G01X-185149Y-421116D01*
G01X-174082Y-419363D01*
G01X-164099Y-414276D01*
G01X-156175Y-406353D01*
G01X-151088Y-396369D01*
G01X-149335Y-385302D01*
G01X-149335Y-377189D01*
G01X317600Y-377189D01*
G01X330156Y-375536D01*
G01X341857Y-370690D01*
G01X351904Y-362980D01*
G01X869570Y154686D01*
G01X1415886Y154686D01*
G01X1415886Y118200D01*
G01X1417639Y107133D01*
G01X1422726Y97149D01*
G01X1430649Y89226D01*
G01X1440633Y84139D01*
G01X1451700Y82386D01*
G01X1621700Y82386D01*
G01X1632767Y84139D01*
G01X1642751Y89226D01*
G01X1650674Y97149D01*
G01X1655761Y107133D01*
G01X1657514Y118200D01*
G01X1657514Y288200D01*
G01X1655761Y299267D01*
G01X1650674Y309251D01*
G01X1642751Y317174D01*
G01X1632767Y322261D01*
G01X1621700Y324014D01*
G01X1451700Y324014D01*
G01X1440633Y322261D01*
G01X1430649Y317174D01*
G01X1422726Y309251D01*
G01X1417639Y299267D01*
G01X1415886Y288200D01*
G01X1415886Y251714D01*
G01X849475Y251714D01*
G01X836919Y250061D01*
G01X825218Y245214D01*
G01X815170Y237505D01*
G01X297504Y-280161D01*
G01X-149335Y-280161D01*
G01X-149335Y-272048D01*
G01X-151088Y-260981D01*
G01X-156175Y-250998D01*
G01X-164099Y-243074D01*
G01X-174082Y-237987D01*
G01X-185149Y-236234D01*
G01X-322851Y-236234D01*
G01X-333116Y-237737D01*
G01X-342521Y-242120D01*
G01X-350274Y-249014D01*
G01X-355726Y-257842D01*
G01X-358419Y-267861D01*
G01X-688585Y-267861D01*
G01X-702768Y-264424D01*
G01X-717359Y-264172D01*
G01X-731651Y-267118D01*
G01X-744954Y-273119D01*
G01X-756622Y-281884D01*
G01X-766090Y-292989D01*
G01X-772900Y-305896D01*
G01X-1685765Y-1218761D01*
G01X-3238227Y-1218761D01*
G01X-3430210Y-1026778D01*
G01X-3408211Y-1025057D01*
G01X-3386852Y-1019519D01*
G01X-3366788Y-1010334D01*
G01X-3348637Y-997785D01*
G01X-3332959Y-982257D01*
G01X-3320234Y-964230D01*
G01X-3310854Y-944256D01*
G01X-3305109Y-922951D01*
G01X-3303173Y-900970D01*
G01X-3303173Y-820970D01*
G01X-3305085Y-799123D01*
G01X-3310761Y-777940D01*
G01X-3320029Y-758064D01*
G01X-3332608Y-740099D01*
G01X-3348116Y-724591D01*
G01X-3366080Y-712012D01*
G01X-3385956Y-702744D01*
G01X-3407140Y-697068D01*
G01X-3428987Y-695157D01*
G01X-3450835Y-697068D01*
G01X-3472018Y-702744D01*
G01X-3491894Y-712012D01*
G01X-3509859Y-724591D01*
G01X-3525366Y-740099D01*
G01X-3537945Y-758064D01*
G01X-3547214Y-777940D01*
G01X-3552890Y-799123D01*
G01X-3554801Y-820970D01*
G01X-3554801Y-900970D01*
G01X-3554795Y-902193D01*
G01X-3557199Y-899790D01*
G01X-3557199Y-819980D01*
G01X-3559110Y-798132D01*
G01X-3564786Y-776949D01*
G01X-3574055Y-757073D01*
G01X-3586634Y-739108D01*
G01X-3602141Y-723601D01*
G01X-3620106Y-711022D01*
G01X-3639982Y-701753D01*
G01X-3661165Y-696077D01*
G01X-3683013Y-694166D01*
G01X-3704860Y-696077D01*
G01X-3726044Y-701753D01*
G01X-3745920Y-711022D01*
G01X-3763884Y-723601D01*
G01X-3779392Y-739108D01*
G01X-3791971Y-757073D01*
G01X-3801239Y-776949D01*
G01X-3806915Y-798132D01*
G01X-3808827Y-819980D01*
G01X-4865886Y-819980D01*
G01X-4865886Y283625D01*
G01X-4316814Y283625D01*
G01X-4316814Y103625D01*
G01X-4315061Y92558D01*
G01X-4309974Y82574D01*
G01X-4302051Y74651D01*
G01X-4292067Y69564D01*
G01X-4281000Y67811D01*
G01X-4101000Y67811D01*
G01X-4101000Y67811D01*
G01X-4089933Y69564D01*
G01X-4079949Y74651D01*
G01X-4072026Y82574D01*
G01X-4066939Y92558D01*
G01X-4065186Y103625D01*
G01X-4065186Y193625D01*
G01X-4062814Y193625D01*
G01X-4060902Y171778D01*
G01X-4055226Y150594D01*
G01X-4045958Y130718D01*
G01X-4033379Y112753D01*
G01X-4017872Y97246D01*
G01X-3999907Y84667D01*
G01X-3980031Y75399D01*
G01X-3958847Y69723D01*
G01X-3937000Y67811D01*
G01X-3915153Y69723D01*
G01X-3893969Y75399D01*
G01X-3874093Y84667D01*
G01X-3856128Y97246D01*
G01X-3840621Y112753D01*
G01X-3828042Y130718D01*
G01X-3818774Y150594D01*
G01X-3813098Y171778D01*
G01X-3811186Y193625D01*
G01X-3813098Y215472D01*
G01X-3818774Y236656D01*
G01X-3828042Y256532D01*
G01X-3840621Y274497D01*
G01X-3856128Y290004D01*
G01X-3874093Y302583D01*
G01X-3893969Y311851D01*
G01X-3915153Y317527D01*
G01X-3937000Y319439D01*
G01X-3958847Y317527D01*
G01X-3980031Y311851D01*
G01X-3999907Y302583D01*
G01X-4017872Y290004D01*
G01X-4033379Y274497D01*
G01X-4045958Y256532D01*
G01X-4055226Y236656D01*
G01X-4060902Y215472D01*
G01X-4062814Y193625D01*
G01X-4062814Y193625D01*
G01X-4065186Y193625D01*
G01X-4065186Y283625D01*
G01X-4066939Y294692D01*
G01X-4072026Y304676D01*
G01X-4079949Y312599D01*
G01X-4089933Y317686D01*
G01X-4101000Y319439D01*
G01X-4281000Y319439D01*
G01X-4292067Y317686D01*
G01X-4302051Y312599D01*
G01X-4309974Y304676D01*
G01X-4315061Y294692D01*
G01X-4316814Y283625D01*
G01X-4865886Y283625D01*
G01X-4865886Y656173D01*
G01X-4028965Y656173D01*
G01X-4027212Y645106D01*
G01X-4022125Y635123D01*
G01X-4014201Y627199D01*
G01X-4004218Y622112D01*
G01X-3993151Y620359D01*
G01X-3927438Y620359D01*
G01X-3743814Y436735D01*
G01X-3743814Y303765D01*
G01X-3761275Y292124D01*
G01X-3776559Y277743D01*
G01X-3789239Y261022D01*
G01X-3798964Y242425D01*
G01X-3805462Y222471D01*
G01X-3808554Y201714D01*
G01X-3808151Y180732D01*
G01X-3804267Y160109D01*
G01X-3797009Y140418D01*
G01X-3786579Y122208D01*
G01X-3773268Y105984D01*
G01X-3757444Y92199D01*
G01X-3739550Y81236D01*
G01X-3720082Y73400D01*
G01X-3699583Y68909D01*
G01X-3678622Y67887D01*
G01X-3313214Y-297520D01*
G01X-3313214Y-297520D01*
G01X-3313214Y-354200D01*
G01X-3321105Y-359295D01*
G01X-3327400Y-366266D01*
G01X-3335361Y-357961D01*
G01X-3345544Y-352608D01*
G01X-3356900Y-350761D01*
G01X-3497900Y-350761D01*
G01X-3508967Y-352513D01*
G01X-3518951Y-357600D01*
G01X-3526874Y-365524D01*
G01X-3531961Y-375507D01*
G01X-3533714Y-386575D01*
G01X-3533714Y-521576D01*
G01X-3531961Y-532643D01*
G01X-3526874Y-542626D01*
G01X-3518951Y-550550D01*
G01X-3508967Y-555637D01*
G01X-3497900Y-557390D01*
G01X-3356900Y-557390D01*
G01X-3345544Y-555542D01*
G01X-3335361Y-550189D01*
G01X-3327400Y-541884D01*
G01X-3319439Y-550189D01*
G01X-3309256Y-555542D01*
G01X-3297900Y-557390D01*
G01X-3260801Y-557390D01*
G01X-3260801Y-695157D01*
G01X-3264987Y-695157D01*
G01X-3276054Y-696909D01*
G01X-3286038Y-701996D01*
G01X-3293961Y-709920D01*
G01X-3299048Y-719903D01*
G01X-3300801Y-730971D01*
G01X-3300801Y-990970D01*
G01X-3299048Y-1002037D01*
G01X-3293961Y-1012021D01*
G01X-3286038Y-1019944D01*
G01X-3276054Y-1025031D01*
G01X-3264987Y-1026784D01*
G01X-3084987Y-1026784D01*
G01X-3073920Y-1025031D01*
G01X-3063937Y-1019944D01*
G01X-3056013Y-1012021D01*
G01X-3050926Y-1002037D01*
G01X-3049173Y-990970D01*
G01X-3049173Y-730971D01*
G01X-3050926Y-719903D01*
G01X-3056013Y-709920D01*
G01X-3063937Y-701996D01*
G01X-3073920Y-696909D01*
G01X-3084987Y-695157D01*
G01X-3089173Y-695157D01*
G01X-3089173Y-506488D01*
G01X-3090822Y-489746D01*
G01X-3095705Y-473648D01*
G01X-3103636Y-458812D01*
G01X-3114308Y-445808D01*
G01X-3121086Y-439030D01*
G01X-3121086Y-386575D01*
G01X-3122503Y-376600D01*
G01X-3126642Y-367415D01*
G01X-3133175Y-359746D01*
G01X-3141586Y-354200D01*
G01X-3141586Y-261975D01*
G01X-3143235Y-245233D01*
G01X-3148118Y-229135D01*
G01X-3156048Y-214299D01*
G01X-3166721Y-201295D01*
G01X-3436023Y68007D01*
G01X-3430423Y67819D01*
G01X-2975762Y-386842D01*
G01X-2966547Y-394405D01*
G01X-2956033Y-400025D01*
G01X-2944624Y-403485D01*
G01X-2932760Y-404654D01*
G01X-2524831Y-404654D01*
G01X-2524831Y-424840D01*
G01X-2523078Y-435907D01*
G01X-2517991Y-445891D01*
G01X-2510068Y-453814D01*
G01X-2500084Y-458901D01*
G01X-2489017Y-460654D01*
G01X-2284379Y-460654D01*
G01X-2273312Y-458901D01*
G01X-2263329Y-453814D01*
G01X-2255405Y-445891D01*
G01X-2250318Y-435907D01*
G01X-2248565Y-424840D01*
G01X-2248565Y-262839D01*
G01X-2248863Y-260960D01*
G01X-2044035Y-260960D01*
G01X-2044035Y-422961D01*
G01X-2042282Y-434028D01*
G01X-2037195Y-444012D01*
G01X-2029271Y-451935D01*
G01X-2019288Y-457022D01*
G01X-2008221Y-458775D01*
G01X-1803583Y-458775D01*
G01X-1792516Y-457022D01*
G01X-1782532Y-451935D01*
G01X-1774609Y-444012D01*
G01X-1769522Y-434028D01*
G01X-1767769Y-422961D01*
G01X-1767769Y-260960D01*
G01X-1767769Y-260960D01*
G01X-1769522Y-249892D01*
G01X-1774609Y-239909D01*
G01X-1782532Y-231985D01*
G01X-1792516Y-226898D01*
G01X-1803583Y-225146D01*
G01X-2008221Y-225146D01*
G01X-2019288Y-226898D01*
G01X-2029271Y-231985D01*
G01X-2037195Y-239909D01*
G01X-2042282Y-249892D01*
G01X-2044035Y-260960D01*
G01X-2248863Y-260960D01*
G01X-2250318Y-251772D01*
G01X-2255405Y-241788D01*
G01X-2263329Y-233865D01*
G01X-2273312Y-228778D01*
G01X-2284379Y-227025D01*
G01X-2489017Y-227025D01*
G01X-2500084Y-228778D01*
G01X-2510068Y-233865D01*
G01X-2517991Y-241788D01*
G01X-2523078Y-251772D01*
G01X-2524831Y-262839D01*
G01X-2524831Y-283026D01*
G01X-2907570Y-283026D01*
G01X-3320510Y129914D01*
G01X-3311555Y148505D01*
G01X-3305760Y168309D01*
G01X-3303279Y188794D01*
G01X-3303490Y193625D01*
G01X-3300814Y193625D01*
G01X-3298966Y172140D01*
G01X-3293476Y151286D01*
G01X-3284506Y131676D01*
G01X-3272318Y113886D01*
G01X-3257272Y98439D01*
G01X-3239809Y85788D01*
G01X-3220442Y76304D01*
G01X-3199740Y70268D01*
G01X-3178311Y67855D01*
G01X-3156785Y69137D01*
G01X-3135794Y74076D01*
G01X-3115955Y82527D01*
G01X-3097850Y94242D01*
G01X-3082012Y108876D01*
G01X-3068906Y126000D01*
G01X-3058916Y145111D01*
G01X-1679465Y145111D01*
G01X-1679465Y33873D01*
G01X-1679465Y33873D01*
G01X-1677712Y22806D01*
G01X-1672625Y12823D01*
G01X-1664701Y4899D01*
G01X-1654718Y-188D01*
G01X-1643651Y-1941D01*
G01X-1505949Y-1941D01*
G01X-1494882Y-188D01*
G01X-1484899Y4899D01*
G01X-1476975Y12823D01*
G01X-1471888Y22806D01*
G01X-1470135Y33873D01*
G01X-1470135Y41986D01*
G01X-1291695Y41986D01*
G01X-1113805Y-135905D01*
G01X-1103757Y-143614D01*
G01X-1092056Y-148461D01*
G01X-1079500Y-150114D01*
G01X-719734Y-150114D01*
G01X-707178Y-148461D01*
G01X-695477Y-143614D01*
G01X-685430Y-135905D01*
G01X-317130Y232395D01*
G01X-309453Y242386D01*
G01X-286860Y242386D01*
G01X-275793Y244139D01*
G01X-265809Y249226D01*
G01X-257886Y257149D01*
G01X-252799Y267133D01*
G01X-251046Y278200D01*
G01X-251046Y331400D01*
G01X-252799Y342467D01*
G01X-257886Y352451D01*
G01X-265809Y360374D01*
G01X-275793Y365461D01*
G01X-286860Y367214D01*
G01X-390609Y367214D01*
G01X-401676Y365461D01*
G01X-411660Y360374D01*
G01X-419583Y352451D01*
G01X-424670Y342467D01*
G01X-426423Y331400D01*
G01X-426423Y278200D01*
G01X-425623Y270674D01*
G01X-423260Y263484D01*
G01X-645759Y40984D01*
G01X-645759Y173575D01*
G01X-647512Y184643D01*
G01X-652599Y194626D01*
G01X-660522Y202550D01*
G01X-670506Y207637D01*
G01X-681573Y209389D01*
G01X-689686Y209389D01*
G01X-689686Y373196D01*
G01X-206154Y373196D01*
G01X-204401Y362129D01*
G01X-199314Y352145D01*
G01X-191391Y344222D01*
G01X-181407Y339135D01*
G01X-170340Y337382D01*
G01X-66591Y337382D01*
G01X-55524Y339135D01*
G01X-45540Y344222D01*
G01X-37617Y352145D01*
G01X-32530Y362129D01*
G01X-30777Y373196D01*
G01X-30777Y426396D01*
G01X-32530Y437463D01*
G01X-37617Y447447D01*
G01X-45540Y455370D01*
G01X-55524Y460457D01*
G01X-66591Y462210D01*
G01X-170340Y462210D01*
G01X-181407Y460457D01*
G01X-191391Y455370D01*
G01X-199314Y447447D01*
G01X-204401Y437463D01*
G01X-206154Y426396D01*
G01X-206154Y373196D01*
G01X-206154Y373196D01*
G01X-689686Y373196D01*
G01X-689686Y381060D01*
G01X-681573Y381060D01*
G01X-670506Y382813D01*
G01X-660522Y387900D01*
G01X-652599Y395824D01*
G01X-647512Y405807D01*
G01X-645759Y416874D01*
G01X-645759Y509557D01*
G01X-594230Y561086D01*
G01X-342900Y561086D01*
G01X-330344Y562739D01*
G01X-318643Y567586D01*
G01X-308595Y575295D01*
G01X-175186Y708705D01*
G01X-172925Y694131D01*
G01X-167400Y680458D01*
G01X-158902Y668404D01*
G01X-147879Y658607D01*
G01X-134911Y651582D01*
G01X-120684Y647700D01*
G01X-136045Y643351D01*
G01X-149859Y635347D01*
G01X-161273Y624184D01*
G01X-169581Y610551D01*
G01X-174270Y595290D01*
G01X-175051Y579345D01*
G01X-171875Y563699D01*
G01X-164939Y549319D01*
G01X-154670Y537094D01*
G01X-141705Y527779D01*
G01X-126842Y521950D01*
G01X-111001Y519966D01*
G01X27181Y519966D01*
G01X41130Y521499D01*
G01X54414Y526025D01*
G01X66398Y533328D01*
G01X76510Y543059D01*
G01X85105Y549895D01*
G01X288305Y753095D01*
G01X296014Y763143D01*
G01X300861Y774844D01*
G01X302514Y787400D01*
G01X302514Y1031138D01*
G01X300861Y1043695D01*
G01X296014Y1055395D01*
G01X288305Y1065443D01*
G01X96223Y1257525D01*
G01X96223Y1303204D01*
G01X94470Y1314271D01*
G01X89383Y1324255D01*
G01X81460Y1332178D01*
G01X71476Y1337265D01*
G01X60409Y1339018D01*
G01X-43340Y1339018D01*
G01X-51358Y1338109D01*
G01X-58969Y1335428D01*
G01X-65786Y1331112D01*
G01X-65786Y1412089D01*
G01X-58969Y1407772D01*
G01X-51358Y1405091D01*
G01X-43340Y1404182D01*
G01X60409Y1404182D01*
G01X71476Y1405935D01*
G01X81460Y1411022D01*
G01X89383Y1418945D01*
G01X94470Y1428929D01*
G01X96223Y1439996D01*
G01X96223Y1493196D01*
G01X94470Y1504263D01*
G01X89383Y1514247D01*
G01X81460Y1522170D01*
G01X71476Y1527257D01*
G01X60409Y1529010D01*
G01X-43340Y1529010D01*
G01X-51358Y1528101D01*
G01X-58969Y1525420D01*
G01X-65786Y1521104D01*
G01X-65786Y1616275D01*
G01X14729Y1696790D01*
G01X60409Y1696790D01*
G01X71476Y1698543D01*
G01X81460Y1703630D01*
G01X89383Y1711553D01*
G01X94470Y1721537D01*
G01X96223Y1732604D01*
G01X96223Y1785804D01*
G01X94470Y1796871D01*
G01X89383Y1806855D01*
G01X81460Y1814778D01*
G01X71476Y1819865D01*
G01X60409Y1821618D01*
G01X-43340Y1821618D01*
G01X-54407Y1819865D01*
G01X-64391Y1814778D01*
G01X-72314Y1806855D01*
G01X-77401Y1796871D01*
G01X-79154Y1785804D01*
G01X-79154Y1740125D01*
G01X-148605Y1670674D01*
G01X-156314Y1660627D01*
G01X-161161Y1648926D01*
G01X-162814Y1636370D01*
G01X-162814Y1434014D01*
G01X-263609Y1434014D01*
G01X-274333Y1432371D01*
G01X-284074Y1427591D01*
G01X-291936Y1420114D01*
G01X-621494Y1420114D01*
G01X-631049Y1437382D01*
G01X-643487Y1452705D01*
G01X-658420Y1465607D01*
G01X-675386Y1475688D01*
G01X-675386Y1900947D01*
G01X-664712Y1905741D01*
G01X-656417Y1913473D01*
G01X-511065Y1913473D01*
G01X-509312Y1902406D01*
G01X-504225Y1892423D01*
G01X-496301Y1884499D01*
G01X-486318Y1879412D01*
G01X-475251Y1877659D01*
G01X-426963Y1877659D01*
G01X-360502Y1811198D01*
G01X-351286Y1803635D01*
G01X-340772Y1798015D01*
G01X-329364Y1794555D01*
G01X-317500Y1793386D01*
G01X-274195Y1793386D01*
G01X-263609Y1791786D01*
G01X-159860Y1791786D01*
G01X-148793Y1793539D01*
G01X-138809Y1798626D01*
G01X-130886Y1806549D01*
G01X-125799Y1816533D01*
G01X-124046Y1827600D01*
G01X-124046Y1880800D01*
G01X-125799Y1891867D01*
G01X-130886Y1901851D01*
G01X-138809Y1909774D01*
G01X-148793Y1914861D01*
G01X-159860Y1916614D01*
G01X-263609Y1916614D01*
G01X-274195Y1915014D01*
G01X-292310Y1915014D01*
G01X-299892Y1922596D01*
G01X-79154Y1922596D01*
G01X-79154Y1922596D01*
G01X-77401Y1911529D01*
G01X-72314Y1901545D01*
G01X-64391Y1893622D01*
G01X-54407Y1888535D01*
G01X-43340Y1886782D01*
G01X60409Y1886782D01*
G01X71476Y1888535D01*
G01X81460Y1893622D01*
G01X89383Y1901545D01*
G01X94470Y1911529D01*
G01X96223Y1922596D01*
G01X96223Y1958925D01*
G01X1183386Y1958925D01*
G01X1185293Y1938342D01*
G01X1190950Y1918461D01*
G01X1200164Y1899957D01*
G01X1212621Y1883462D01*
G01X1227896Y1869536D01*
G01X1245471Y1858654D01*
G01X1264746Y1851187D01*
G01X1285065Y1847389D01*
G01X1305735Y1847389D01*
G01X1326054Y1851187D01*
G01X1345329Y1858654D01*
G01X1362904Y1869536D01*
G01X1378179Y1883462D01*
G01X1390636Y1899957D01*
G01X1399850Y1918461D01*
G01X1405507Y1938342D01*
G01X1407414Y1958925D01*
G01X1407414Y1958925D01*
G01X1405507Y1979507D01*
G01X1399850Y1999389D01*
G01X1390636Y2017893D01*
G01X1378179Y2034388D01*
G01X1362904Y2048314D01*
G01X1345329Y2059196D01*
G01X1326054Y2066663D01*
G01X1305735Y2070461D01*
G01X1285065Y2070461D01*
G01X1264746Y2066663D01*
G01X1245471Y2059196D01*
G01X1227896Y2048314D01*
G01X1212621Y2034388D01*
G01X1200164Y2017893D01*
G01X1190950Y1999389D01*
G01X1185293Y1979507D01*
G01X1183386Y1958925D01*
G01X96223Y1958925D01*
G01X96223Y1975796D01*
G01X94470Y1986863D01*
G01X89383Y1996847D01*
G01X81460Y2004770D01*
G01X71476Y2009857D01*
G01X60409Y2011610D01*
G01X-43340Y2011610D01*
G01X-54407Y2009857D01*
G01X-64391Y2004770D01*
G01X-72314Y1996847D01*
G01X-77401Y1986863D01*
G01X-79154Y1975796D01*
G01X-79154Y1922596D01*
G01X-299892Y1922596D01*
G01X-301735Y1924439D01*
G01X-301735Y2026727D01*
G01X-301735Y2026727D01*
G01X-303488Y2037794D01*
G01X-308575Y2047778D01*
G01X-316499Y2055701D01*
G01X-326482Y2060788D01*
G01X-337549Y2062541D01*
G01X-475251Y2062541D01*
G01X-486318Y2060788D01*
G01X-496301Y2055701D01*
G01X-504225Y2047778D01*
G01X-509312Y2037794D01*
G01X-511065Y2026727D01*
G01X-511065Y1913473D01*
G01X-656417Y1913473D01*
G01X-656153Y1913720D01*
G01X-650623Y1924031D01*
G01X-648711Y1935575D01*
G01X-648711Y2073276D01*
G01X-650464Y2084343D01*
G01X-655551Y2094327D01*
G01X-663474Y2102250D01*
G01X-673458Y2107337D01*
G01X-684525Y2109090D01*
G01X-797779Y2109090D01*
G01X-808846Y2107337D01*
G01X-818830Y2102250D01*
G01X-826753Y2094327D01*
G01X-831840Y2084343D01*
G01X-833593Y2073276D01*
G01X-833593Y1935575D01*
G01X-831840Y1924508D01*
G01X-826753Y1914524D01*
G01X-818830Y1906601D01*
G01X-808846Y1901514D01*
G01X-797779Y1899761D01*
G01X-772414Y1899761D01*
G01X-772414Y1475688D01*
G01X-790543Y1464758D01*
G01X-806291Y1450612D01*
G01X-819097Y1433756D01*
G01X-828503Y1414791D01*
G01X-834173Y1394396D01*
G01X-835905Y1373298D01*
G01X-833636Y1352251D01*
G01X-827449Y1332007D01*
G01X-817563Y1313288D01*
G01X-804331Y1296764D01*
G01X-788228Y1283024D01*
G01X-769826Y1272559D01*
G01X-749785Y1265743D01*
G01X-728819Y1262819D01*
G01X-707677Y1263892D01*
G01X-687115Y1268923D01*
G01X-667867Y1277733D01*
G01X-650619Y1290007D01*
G01X-635989Y1305307D01*
G01X-624499Y1323086D01*
G01X-291936Y1323086D01*
G01X-284074Y1315609D01*
G01X-274333Y1310829D01*
G01X-263609Y1309186D01*
G01X-162814Y1309186D01*
G01X-162814Y1231900D01*
G01X-161161Y1219344D01*
G01X-156314Y1207643D01*
G01X-148605Y1197595D01*
G01X19557Y1029434D01*
G01X-111001Y1029434D01*
G01X-126160Y1027620D01*
G01X-140462Y1022279D01*
G01X-153100Y1013714D01*
G01X-161986Y1013714D01*
G01X-161986Y1032701D01*
G01X-163739Y1043768D01*
G01X-168826Y1053751D01*
G01X-176749Y1061675D01*
G01X-186733Y1066762D01*
G01X-197800Y1068515D01*
G01X-338800Y1068515D01*
G01X-350156Y1066667D01*
G01X-360339Y1061314D01*
G01X-368300Y1053009D01*
G01X-376261Y1061314D01*
G01X-386444Y1066667D01*
G01X-397800Y1068515D01*
G01X-538800Y1068515D01*
G01X-549867Y1066762D01*
G01X-559851Y1061675D01*
G01X-567774Y1053751D01*
G01X-572861Y1043768D01*
G01X-574614Y1032701D01*
G01X-574614Y897700D01*
G01X-572861Y886632D01*
G01X-567774Y876649D01*
G01X-559851Y868725D01*
G01X-549867Y863638D01*
G01X-538800Y861886D01*
G01X-397800Y861886D01*
G01X-386444Y863733D01*
G01X-376261Y869086D01*
G01X-368300Y877391D01*
G01X-360339Y869086D01*
G01X-350156Y863733D01*
G01X-338800Y861886D01*
G01X-316814Y861886D01*
G01X-316814Y858010D01*
G01X-325610Y846163D01*
G01X-331569Y832665D01*
G01X-334395Y818183D01*
G01X-333950Y803435D01*
G01X-330254Y789150D01*
G01X-323491Y776036D01*
G01X-313995Y764743D01*
G01X-302238Y755828D01*
G01X-288800Y749734D01*
G01X-274347Y746762D01*
G01X-362995Y658114D01*
G01X-614325Y658114D01*
G01X-626881Y656461D01*
G01X-638582Y651614D01*
G01X-648630Y643905D01*
G01X-702145Y590389D01*
G01X-794827Y590389D01*
G01X-805894Y588637D01*
G01X-815878Y583550D01*
G01X-823801Y575626D01*
G01X-828888Y565643D01*
G01X-830641Y554575D01*
G01X-830641Y416874D01*
G01X-828888Y405807D01*
G01X-823801Y395824D01*
G01X-815878Y387900D01*
G01X-805894Y382813D01*
G01X-794827Y381060D01*
G01X-786714Y381060D01*
G01X-786714Y209389D01*
G01X-794827Y209389D01*
G01X-805894Y207637D01*
G01X-815878Y202550D01*
G01X-823801Y194626D01*
G01X-828888Y184643D01*
G01X-830641Y173575D01*
G01X-830641Y35874D01*
G01X-828888Y24807D01*
G01X-823801Y14824D01*
G01X-815878Y6900D01*
G01X-805894Y1813D01*
G01X-794827Y60D01*
G01X-686683Y60D01*
G01X-739830Y-53086D01*
G01X-1059405Y-53086D01*
G01X-1148365Y35874D01*
G01X-1030641Y35874D01*
G01X-1030641Y35874D01*
G01X-1028888Y24807D01*
G01X-1023801Y14824D01*
G01X-1015878Y6900D01*
G01X-1005894Y1813D01*
G01X-994827Y60D01*
G01X-881573Y60D01*
G01X-870506Y1813D01*
G01X-860522Y6900D01*
G01X-852599Y14824D01*
G01X-847512Y24807D01*
G01X-845759Y35874D01*
G01X-845759Y173575D01*
G01X-847512Y184643D01*
G01X-852599Y194626D01*
G01X-860522Y202550D01*
G01X-870506Y207637D01*
G01X-881573Y209389D01*
G01X-994827Y209389D01*
G01X-1005894Y207637D01*
G01X-1015878Y202550D01*
G01X-1023801Y194626D01*
G01X-1028888Y184643D01*
G01X-1030641Y173575D01*
G01X-1030641Y35874D01*
G01X-1148365Y35874D01*
G01X-1237296Y124805D01*
G01X-1247343Y132515D01*
G01X-1259044Y137361D01*
G01X-1271600Y139014D01*
G01X-1470135Y139014D01*
G01X-1470135Y145111D01*
G01X-1230300Y145111D01*
G01X-1217743Y146764D01*
G01X-1206043Y151611D01*
G01X-1195995Y159320D01*
G01X-974255Y381060D01*
G01X-881573Y381060D01*
G01X-870506Y382813D01*
G01X-860522Y387900D01*
G01X-852599Y395824D01*
G01X-847512Y405807D01*
G01X-845759Y416874D01*
G01X-845759Y554575D01*
G01X-847512Y565643D01*
G01X-852599Y575626D01*
G01X-860522Y583550D01*
G01X-870506Y588637D01*
G01X-881573Y590389D01*
G01X-994827Y590389D01*
G01X-1005894Y588637D01*
G01X-1015878Y583550D01*
G01X-1023801Y575626D01*
G01X-1028888Y565643D01*
G01X-1030641Y554575D01*
G01X-1030641Y461893D01*
G01X-1250395Y242139D01*
G01X-1470135Y242139D01*
G01X-1470135Y347127D01*
G01X-1471888Y358194D01*
G01X-1476975Y368178D01*
G01X-1484899Y376101D01*
G01X-1494882Y381188D01*
G01X-1505949Y382941D01*
G01X-1515186Y382941D01*
G01X-1515186Y420889D01*
G01X-1513700Y420889D01*
G01X-1503913Y422253D01*
G01X-1494870Y426239D01*
G01X-1487262Y432545D01*
G01X-1481666Y440690D01*
G01X-1374665Y440690D01*
G01X-1374665Y427573D01*
G01X-1372912Y416506D01*
G01X-1367825Y406523D01*
G01X-1359901Y398599D01*
G01X-1349918Y393512D01*
G01X-1338851Y391759D01*
G01X-1201149Y391759D01*
G01X-1190082Y393512D01*
G01X-1180099Y398599D01*
G01X-1172175Y406523D01*
G01X-1167088Y416506D01*
G01X-1165335Y427573D01*
G01X-1165335Y540827D01*
G01X-1167088Y551894D01*
G01X-1172175Y561878D01*
G01X-1180099Y569801D01*
G01X-1190082Y574888D01*
G01X-1201149Y576641D01*
G01X-1338851Y576641D01*
G01X-1349918Y574888D01*
G01X-1359901Y569801D01*
G01X-1367825Y561878D01*
G01X-1372912Y551894D01*
G01X-1374665Y540827D01*
G01X-1374665Y537718D01*
G01X-1481666Y537718D01*
G01X-1487262Y545863D01*
G01X-1494870Y552169D01*
G01X-1503913Y556155D01*
G01X-1513700Y557519D01*
G01X-1613700Y557519D01*
G01X-1624767Y555766D01*
G01X-1634751Y550679D01*
G01X-1642674Y542756D01*
G01X-1647761Y532772D01*
G01X-1649514Y521705D01*
G01X-1649514Y456703D01*
G01X-1647761Y445636D01*
G01X-1642674Y435653D01*
G01X-1634751Y427729D01*
G01X-1624767Y422642D01*
G01X-1613700Y420889D01*
G01X-1612214Y420889D01*
G01X-1612214Y382941D01*
G01X-1643651Y382941D01*
G01X-1654718Y381188D01*
G01X-1664701Y376101D01*
G01X-1672625Y368178D01*
G01X-1677712Y358194D01*
G01X-1679465Y347127D01*
G01X-1679465Y242139D01*
G01X-3058916Y242139D01*
G01X-3068906Y261250D01*
G01X-3082012Y278374D01*
G01X-3097850Y293008D01*
G01X-3115955Y304723D01*
G01X-3135794Y313174D01*
G01X-3156785Y318113D01*
G01X-3178311Y319395D01*
G01X-3199740Y316982D01*
G01X-3220442Y310946D01*
G01X-3239809Y301462D01*
G01X-3257272Y288811D01*
G01X-3272318Y273364D01*
G01X-3284506Y255573D01*
G01X-3293476Y235964D01*
G01X-3298966Y215110D01*
G01X-3300814Y193625D01*
G01X-3303490Y193625D01*
G01X-3304180Y209409D01*
G01X-3308439Y229600D01*
G01X-3315941Y248823D01*
G01X-3326484Y266561D01*
G01X-3339785Y282337D01*
G01X-3355486Y295727D01*
G01X-3355486Y432010D01*
G01X-3264110Y523386D01*
G01X-1835631Y523386D01*
G01X-1825289Y517812D01*
G01X-1813700Y515885D01*
G01X-1713700Y515885D01*
G01X-1702633Y517638D01*
G01X-1692649Y522725D01*
G01X-1684726Y530649D01*
G01X-1679639Y540632D01*
G01X-1677886Y551699D01*
G01X-1677886Y616701D01*
G01X-1677925Y618382D01*
G01X-1635632Y618382D01*
G01X-1625289Y612808D01*
G01X-1613700Y610881D01*
G01X-1513700Y610881D01*
G01X-1503913Y612245D01*
G01X-1494870Y616231D01*
G01X-1487262Y622537D01*
G01X-1481666Y630682D01*
G01X-1374665Y630682D01*
G01X-1374665Y627573D01*
G01X-1372912Y616506D01*
G01X-1367825Y606522D01*
G01X-1359901Y598599D01*
G01X-1349918Y593512D01*
G01X-1338851Y591759D01*
G01X-1201149Y591759D01*
G01X-1190082Y593512D01*
G01X-1180099Y598599D01*
G01X-1172175Y606522D01*
G01X-1167088Y616506D01*
G01X-1165335Y627573D01*
G01X-1165335Y740827D01*
G01X-1167088Y751894D01*
G01X-1172175Y761878D01*
G01X-1180099Y769801D01*
G01X-1190082Y774888D01*
G01X-1201149Y776641D01*
G01X-1338851Y776641D01*
G01X-1349918Y774888D01*
G01X-1359901Y769801D01*
G01X-1367825Y761878D01*
G01X-1372912Y751894D01*
G01X-1374665Y740827D01*
G01X-1374665Y727710D01*
G01X-1481666Y727710D01*
G01X-1487262Y735855D01*
G01X-1494870Y742161D01*
G01X-1503913Y746147D01*
G01X-1513700Y747511D01*
G01X-1613700Y747511D01*
G01X-1625289Y745584D01*
G01X-1635632Y740010D01*
G01X-3465729Y740010D01*
G01X-3477593Y738841D01*
G01X-3489002Y735381D01*
G01X-3499516Y729761D01*
G01X-3508731Y722198D01*
G01X-3622186Y608743D01*
G01X-3622186Y686010D01*
G01X-3441910Y866286D01*
G01X-1425525Y866286D01*
G01X-1413661Y867455D01*
G01X-1402252Y870915D01*
G01X-1391738Y876535D01*
G01X-1382523Y884098D01*
G01X-1003910Y1262711D01*
G01X-901700Y1262711D01*
G01X-890633Y1264464D01*
G01X-880649Y1269551D01*
G01X-872726Y1277474D01*
G01X-867639Y1287458D01*
G01X-865886Y1298525D01*
G01X-865886Y1450925D01*
G01X-867804Y1462488D01*
G01X-873352Y1472812D01*
G01X-881936Y1480792D01*
G01X-892638Y1485573D01*
G01X-892638Y1899761D01*
G01X-884525Y1899761D01*
G01X-873458Y1901514D01*
G01X-863474Y1906601D01*
G01X-855551Y1914524D01*
G01X-850464Y1924508D01*
G01X-848711Y1935575D01*
G01X-848711Y2073276D01*
G01X-850464Y2084343D01*
G01X-855551Y2094327D01*
G01X-863474Y2102250D01*
G01X-873458Y2107337D01*
G01X-884525Y2109090D01*
G01X-997778Y2109090D01*
G01X-1008845Y2107337D01*
G01X-1018829Y2102250D01*
G01X-1026752Y2094327D01*
G01X-1031839Y2084343D01*
G01X-1033592Y2073276D01*
G01X-1033592Y1935575D01*
G01X-1031839Y1924508D01*
G01X-1026752Y1914524D01*
G01X-1018829Y1906601D01*
G01X-1008845Y1901514D01*
G01X-997778Y1899761D01*
G01X-989666Y1899761D01*
G01X-989666Y1486739D01*
G01X-1054100Y1486739D01*
G01X-1065167Y1484986D01*
G01X-1075151Y1479899D01*
G01X-1083074Y1471976D01*
G01X-1088161Y1461992D01*
G01X-1089914Y1450925D01*
G01X-1089914Y1348715D01*
G01X-1450715Y987914D01*
G01X-3467100Y987914D01*
G01X-3478964Y986745D01*
G01X-3490372Y983285D01*
G01X-3500886Y977665D01*
G01X-3510102Y970102D01*
G01X-3622186Y858018D01*
G01X-3622186Y1169842D01*
G01X-3612216Y1169842D01*
G01X-3601149Y1171595D01*
G01X-3591165Y1176682D01*
G01X-3583242Y1184605D01*
G01X-3578155Y1194589D01*
G01X-3576402Y1205656D01*
G01X-3576402Y1281856D01*
G01X-3546430Y1281856D01*
G01X-3544551Y1261427D01*
G01X-3538978Y1241683D01*
G01X-3529898Y1223286D01*
G01X-3517614Y1206855D01*
G01X-3502540Y1192939D01*
G01X-3485181Y1182006D01*
G01X-3466119Y1174422D01*
G01X-3445994Y1170442D01*
G01X-3425480Y1170199D01*
G01X-3405266Y1173701D01*
G01X-3386029Y1180832D01*
G01X-3368416Y1191351D01*
G01X-3353017Y1204906D01*
G01X-3340348Y1221042D01*
G01X-3152730Y1221042D01*
G01X-3152730Y1205656D01*
G01X-3152730Y1205656D01*
G01X-3150977Y1194589D01*
G01X-3145890Y1184605D01*
G01X-3137967Y1176682D01*
G01X-3127983Y1171595D01*
G01X-3116916Y1169842D01*
G01X-2964516Y1169842D01*
G01X-2953449Y1171595D01*
G01X-2943465Y1176682D01*
G01X-2935542Y1184605D01*
G01X-2930455Y1194589D01*
G01X-2928702Y1205656D01*
G01X-2928702Y1286939D01*
G01X-2898614Y1286939D01*
G01X-2897723Y1266871D01*
G01X-2893261Y1247284D01*
G01X-2885373Y1228810D01*
G01X-2874312Y1212041D01*
G01X-2860434Y1197518D01*
G01X-2844184Y1185707D01*
G01X-2826087Y1176989D01*
G01X-2806723Y1171643D01*
G01X-2786716Y1169842D01*
G01X-2766709Y1171643D01*
G01X-2747345Y1176989D01*
G01X-2729247Y1185707D01*
G01X-2712998Y1197518D01*
G01X-2699120Y1212041D01*
G01X-2688058Y1228810D01*
G01X-2680170Y1247284D01*
G01X-2675709Y1266871D01*
G01X-2674817Y1286939D01*
G01X-2677525Y1306844D01*
G01X-2683744Y1325945D01*
G01X-2693274Y1343628D01*
G01X-2705811Y1359325D01*
G01X-2720949Y1372530D01*
G01X-2738202Y1382819D01*
G01X-2738202Y1846911D01*
G01X-2693471Y1846911D01*
G01X-2693471Y1846911D01*
G01X-2682404Y1848664D01*
G01X-2672420Y1853751D01*
G01X-2664497Y1861674D01*
G01X-2659410Y1871658D01*
G01X-2657657Y1882725D01*
G01X-2657657Y2035125D01*
G01X-2659410Y2046192D01*
G01X-2664497Y2056176D01*
G01X-2672420Y2064099D01*
G01X-2682404Y2069186D01*
G01X-2693471Y2070939D01*
G01X-2845871Y2070939D01*
G01X-2856938Y2069186D01*
G01X-2866922Y2064099D01*
G01X-2874845Y2056176D01*
G01X-2879932Y2046192D01*
G01X-2881685Y2035125D01*
G01X-2881685Y1882725D01*
G01X-2879932Y1871658D01*
G01X-2874845Y1861674D01*
G01X-2866922Y1853751D01*
G01X-2856938Y1848664D01*
G01X-2845871Y1846911D01*
G01X-2835230Y1846911D01*
G01X-2835230Y1382819D01*
G01X-2852483Y1372530D01*
G01X-2867621Y1359325D01*
G01X-2880157Y1343628D01*
G01X-2889688Y1325945D01*
G01X-2895907Y1306844D01*
G01X-2898614Y1286939D01*
G01X-2928702Y1286939D01*
G01X-2928702Y1358056D01*
G01X-2930455Y1369123D01*
G01X-2935542Y1379107D01*
G01X-2943465Y1387030D01*
G01X-2953449Y1392117D01*
G01X-2964516Y1393870D01*
G01X-3116916Y1393870D01*
G01X-3127983Y1392117D01*
G01X-3137967Y1387030D01*
G01X-3145890Y1379107D01*
G01X-3150977Y1369123D01*
G01X-3152730Y1358056D01*
G01X-3152730Y1342670D01*
G01X-3340348Y1342670D01*
G01X-3353017Y1358806D01*
G01X-3368416Y1372361D01*
G01X-3386029Y1382880D01*
G01X-3405266Y1390010D01*
G01X-3425480Y1393513D01*
G01X-3445994Y1393270D01*
G01X-3466119Y1389290D01*
G01X-3485181Y1381706D01*
G01X-3502540Y1370772D01*
G01X-3517614Y1356857D01*
G01X-3529898Y1340425D01*
G01X-3538978Y1322029D01*
G01X-3544551Y1302285D01*
G01X-3546430Y1281856D01*
G01X-3576402Y1281856D01*
G01X-3576402Y1358056D01*
G01X-3578155Y1369123D01*
G01X-3583242Y1379107D01*
G01X-3591165Y1387030D01*
G01X-3601149Y1392117D01*
G01X-3612216Y1393870D01*
G01X-3764616Y1393870D01*
G01X-3775683Y1392117D01*
G01X-3785667Y1387030D01*
G01X-3793590Y1379107D01*
G01X-3798677Y1369123D01*
G01X-3800430Y1358056D01*
G01X-3800430Y1205656D01*
G01X-3798677Y1194589D01*
G01X-3793590Y1184605D01*
G01X-3785667Y1176682D01*
G01X-3775683Y1171595D01*
G01X-3764616Y1169842D01*
G01X-3743814Y1169842D01*
G01X-3743814Y608743D01*
G01X-3819635Y684565D01*
G01X-3819635Y769427D01*
G01X-3821388Y780494D01*
G01X-3826475Y790478D01*
G01X-3834399Y798401D01*
G01X-3844382Y803488D01*
G01X-3855449Y805241D01*
G01X-3993151Y805241D01*
G01X-4004218Y803488D01*
G01X-4014201Y798401D01*
G01X-4022125Y790478D01*
G01X-4027212Y780494D01*
G01X-4028965Y769427D01*
G01X-4028965Y656173D01*
G01X-4865886Y656173D01*
G01X-4865886Y856173D01*
G01X-4028965Y856173D01*
G01X-4027212Y845106D01*
G01X-4022125Y835122D01*
G01X-4014201Y827199D01*
G01X-4004218Y822112D01*
G01X-3993151Y820359D01*
G01X-3855449Y820359D01*
G01X-3844382Y822112D01*
G01X-3834399Y827199D01*
G01X-3826475Y835122D01*
G01X-3821388Y845106D01*
G01X-3819635Y856173D01*
G01X-3819635Y969427D01*
G01X-3821388Y980494D01*
G01X-3826475Y990478D01*
G01X-3834399Y998401D01*
G01X-3844382Y1003488D01*
G01X-3855449Y1005241D01*
G01X-3863486Y1005241D01*
G01X-3863486Y1953128D01*
G01X-3807564Y1953128D01*
G01X-3804631Y1932824D01*
G01X-3798043Y1913395D01*
G01X-3788023Y1895493D01*
G01X-3774906Y1879719D01*
G01X-3759132Y1866602D01*
G01X-3741230Y1856582D01*
G01X-3721801Y1849994D01*
G01X-3701497Y1847061D01*
G01X-3680998Y1847880D01*
G01X-3660992Y1852424D01*
G01X-3642150Y1860540D01*
G01X-3625105Y1871957D01*
G01X-3610428Y1886290D01*
G01X-3598611Y1903060D01*
G01X-3590051Y1921705D01*
G01X-3585034Y1941597D01*
G01X-3583730Y1962071D01*
G01X-3586182Y1982439D01*
G01X-3553714Y2014907D01*
G01X-3553714Y1882725D01*
G01X-3551961Y1871658D01*
G01X-3546874Y1861674D01*
G01X-3538951Y1853751D01*
G01X-3528967Y1848664D01*
G01X-3517900Y1846911D01*
G01X-3365500Y1846911D01*
G01X-3354433Y1848664D01*
G01X-3344449Y1853751D01*
G01X-3336526Y1861674D01*
G01X-3331439Y1871658D01*
G01X-3329686Y1882725D01*
G01X-3329686Y1910411D01*
G01X-3124634Y1910411D01*
G01X-3114345Y1893158D01*
G01X-3101140Y1878020D01*
G01X-3085444Y1865484D01*
G01X-3067760Y1855953D01*
G01X-3048659Y1849734D01*
G01X-3028754Y1847026D01*
G01X-3008686Y1847918D01*
G01X-2989100Y1852379D01*
G01X-2970625Y1860268D01*
G01X-2953856Y1871329D01*
G01X-2939333Y1885207D01*
G01X-2927522Y1901456D01*
G01X-2918804Y1919554D01*
G01X-2913458Y1938918D01*
G01X-2911657Y1958925D01*
G01X-2913458Y1978932D01*
G01X-2918804Y1998296D01*
G01X-2927522Y2016393D01*
G01X-2939333Y2032643D01*
G01X-2953856Y2046521D01*
G01X-2970625Y2057582D01*
G01X-2989100Y2065471D01*
G01X-3008686Y2069932D01*
G01X-3028754Y2070824D01*
G01X-3048659Y2068116D01*
G01X-3067760Y2061897D01*
G01X-3085444Y2052366D01*
G01X-3101140Y2039830D01*
G01X-3114345Y2024692D01*
G01X-3124634Y2007439D01*
G01X-3329686Y2007439D01*
G01X-3329686Y2035125D01*
G01X-3331439Y2046192D01*
G01X-3336526Y2056176D01*
G01X-3344449Y2064099D01*
G01X-3354433Y2069186D01*
G01X-3365500Y2070939D01*
G01X-3497682Y2070939D01*
G01X-3454610Y2114011D01*
G01X-511065Y2114011D01*
G01X-511065Y2113473D01*
G01X-509312Y2102406D01*
G01X-504225Y2092422D01*
G01X-496301Y2084499D01*
G01X-486318Y2079412D01*
G01X-475251Y2077659D01*
G01X-337549Y2077659D01*
G01X-326482Y2079412D01*
G01X-316499Y2084499D01*
G01X-308575Y2092422D01*
G01X-303488Y2102406D01*
G01X-301735Y2113473D01*
G01X-301735Y2226727D01*
G01X-303488Y2237794D01*
G01X-308575Y2247778D01*
G01X-316499Y2255701D01*
G01X-326482Y2260788D01*
G01X-337549Y2262541D01*
G01X-475251Y2262541D01*
G01X-486850Y2260610D01*
G01X-497199Y2255027D01*
G01X-505182Y2246393D01*
G01X-509938Y2235639D01*
G01X-3479800Y2235639D01*
G01X-3491664Y2234470D01*
G01X-3503072Y2231010D01*
G01X-3513586Y2225390D01*
G01X-3522802Y2217827D01*
G01X-3672186Y2068443D01*
G01X-3672186Y2068443D01*
G01X-3692554Y2070895D01*
G01X-3713028Y2069591D01*
G01X-3732920Y2064574D01*
G01X-3751564Y2056014D01*
G01X-3768335Y2044197D01*
G01X-3782668Y2029520D01*
G01X-3794085Y2012475D01*
G01X-3802201Y1993633D01*
G01X-3806745Y1973627D01*
G01X-3807564Y1953128D01*
G01X-3863486Y1953128D01*
G01X-3863486Y2057610D01*
G01X-3629285Y2291811D01*
G01X1130510Y2291811D01*
G01X1437386Y1984935D01*
G01X1437386Y1882725D01*
G01X1439139Y1871658D01*
G01X1444226Y1861674D01*
G01X1452149Y1853751D01*
G01X1462133Y1848664D01*
G01X1473200Y1846911D01*
G01X1625600Y1846911D01*
G01X1636667Y1848664D01*
G01X1646651Y1853751D01*
G01X1654574Y1861674D01*
G01X1659661Y1871658D01*
G01X1661414Y1882725D01*
G01X1661414Y1935805D01*
G01X2345226Y1935805D01*
G01X2347115Y1906983D01*
G01X2352750Y1878654D01*
G01X2362034Y1851303D01*
G01X2374809Y1825398D01*
G01X2390856Y1801382D01*
G01X2409901Y1779666D01*
G01X2431617Y1760622D01*
G01X2455633Y1744575D01*
G01X2481538Y1731800D01*
G01X2508889Y1722515D01*
G01X2537218Y1716880D01*
G01X2566040Y1714991D01*
G01X2594862Y1716880D01*
G01X2623191Y1722515D01*
G01X2650542Y1731800D01*
G01X2676447Y1744575D01*
G01X2700463Y1760622D01*
G01X2722179Y1779666D01*
G01X2741223Y1801382D01*
G01X2757270Y1825398D01*
G01X2770045Y1851303D01*
G01X2779330Y1878654D01*
G01X2784965Y1906983D01*
G01X2786854Y1935805D01*
G01X2784965Y1964627D01*
G01X2779330Y1992956D01*
G01X2770045Y2020307D01*
G01X2757270Y2046212D01*
G01X2741223Y2070228D01*
G01X2722179Y2091944D01*
G01X2700463Y2110989D01*
G01X2676447Y2127036D01*
G01X2650542Y2139811D01*
G01X2623191Y2149095D01*
G01X2594862Y2154730D01*
G01X2566040Y2156619D01*
G01X2537218Y2154730D01*
G01X2508889Y2149095D01*
G01X2481538Y2139811D01*
G01X2455633Y2127036D01*
G01X2431617Y2110989D01*
G01X2409901Y2091944D01*
G01X2390856Y2070228D01*
G01X2374809Y2046212D01*
G01X2362034Y2020307D01*
G01X2352750Y1992956D01*
G01X2347115Y1964627D01*
G01X2345226Y1935805D01*
G01X2345226Y1935805D01*
G01X1661414Y1935805D01*
G01X1661414Y2035125D01*
G01X1659661Y2046192D01*
G01X1654574Y2056176D01*
G01X1646651Y2064099D01*
G01X1636667Y2069186D01*
G01X1625600Y2070939D01*
G01X1523390Y2070939D01*
G01X1198702Y2395627D01*
G01X1189486Y2403190D01*
G01X1178972Y2408810D01*
G01X1167564Y2412270D01*
G01X1155700Y2413439D01*
G01X-3654475Y2413439D01*
G01X-3666339Y2412270D01*
G01X-3677748Y2408810D01*
G01X-3688262Y2403190D01*
G01X-3697477Y2395627D01*
G01X-3967302Y2125802D01*
G01X-3974865Y2116586D01*
G01X-3980485Y2106073D01*
G01X-3983945Y2094664D01*
G01X-3985114Y2082800D01*
G01X-3985114Y1005241D01*
G01X-3993151Y1005241D01*
G01X-3993151Y1005241D01*
G01X-4004218Y1003488D01*
G01X-4014201Y998401D01*
G01X-4022125Y990478D01*
G01X-4027212Y980494D01*
G01X-4028965Y969427D01*
G01X-4028965Y856173D01*
G01X-4865886Y856173D01*
G01X-4865886Y1935805D01*
G01X-4594194Y1935805D01*
G01X-4592305Y1906983D01*
G01X-4586670Y1878654D01*
G01X-4577385Y1851303D01*
G01X-4564610Y1825398D01*
G01X-4548563Y1801382D01*
G01X-4529519Y1779666D01*
G01X-4507803Y1760622D01*
G01X-4483787Y1744575D01*
G01X-4457882Y1731800D01*
G01X-4430531Y1722515D01*
G01X-4402202Y1716880D01*
G01X-4373380Y1714991D01*
G01X-4344558Y1716880D01*
G01X-4316229Y1722515D01*
G01X-4288878Y1731800D01*
G01X-4262973Y1744575D01*
G01X-4238957Y1760622D01*
G01X-4217241Y1779666D01*
G01X-4198196Y1801382D01*
G01X-4182149Y1825398D01*
G01X-4169374Y1851303D01*
G01X-4160090Y1878654D01*
G01X-4154455Y1906983D01*
G01X-4152566Y1935805D01*
G01X-4154455Y1964627D01*
G01X-4160090Y1992956D01*
G01X-4169374Y2020307D01*
G01X-4182149Y2046212D01*
G01X-4198196Y2070228D01*
G01X-4217241Y2091944D01*
G01X-4238957Y2110989D01*
G01X-4262973Y2127036D01*
G01X-4288878Y2139811D01*
G01X-4316229Y2149095D01*
G01X-4344558Y2154730D01*
G01X-4373380Y2156619D01*
G01X-4402202Y2154730D01*
G01X-4430531Y2149095D01*
G01X-4457882Y2139811D01*
G01X-4483787Y2127036D01*
G01X-4507803Y2110989D01*
G01X-4529519Y2091944D01*
G01X-4548563Y2070228D01*
G01X-4564610Y2046212D01*
G01X-4577385Y2020307D01*
G01X-4586670Y1992956D01*
G01X-4592305Y1964627D01*
G01X-4594194Y1935805D01*
G01X-4594194Y1935805D01*
G01X-4865886Y1935805D01*
G01X-4865886Y2480011D01*
G01X3062486Y2480011D01*
G37*
G54D10*
G01X3062486Y2480011D02*
G01X3062486Y-2448361D01*
G01X-4865886Y-2448361D01*
G01X-4865886Y2480011D01*
G01X3062486Y2480011D01*
G01X-4594194Y1935805D02*
G03X-4152566Y1935805I220814J0D01*
G03X-4594194Y1935805I-220814J0D01*
G01X-4592454Y-1099495D02*
G03X-4150826Y-1099495I220814J0D01*
G03X-4592454Y-1099495I-220814J0D01*
G01X-4101000Y67811D02*
G03X-4065186Y103625I0J35814D01*
G01X-4065186Y283625D01*
G03X-4101000Y319439I-35814J0D01*
G01X-4281000Y319439D01*
G03X-4316814Y283625I0J-35814D01*
G01X-4316814Y103625D01*
G03X-4281000Y67811I35814J0D01*
G01X-4101000Y67811D01*
G01X-4062814Y193625D02*
G03X-3811186Y193625I125814J0D01*
G03X-4062814Y193625I-125814J0D01*
G01X-3313214Y-297520D02*
G01X-3313214Y-354200D01*
G03X-3327400Y-366266I15314J-32375D01*
G03X-3356900Y-350761I-29500J-20308D01*
G01X-3497900Y-350761D01*
G03X-3533714Y-386575I0J-35814D01*
G01X-3533714Y-521576D01*
G03X-3497900Y-557390I35814J0D01*
G01X-3356900Y-557390D01*
G03X-3327400Y-541884I0J35814D01*
G03X-3297900Y-557390I29500J20308D01*
G01X-3260801Y-557390D01*
G01X-3260801Y-695157D01*
G01X-3264987Y-695157D01*
G03X-3300801Y-730971I0J-35814D01*
G01X-3300801Y-990970D01*
G03X-3264987Y-1026784I35814J0D01*
G01X-3084987Y-1026784D01*
G03X-3049173Y-990970I0J35814D01*
G01X-3049173Y-730971D01*
G03X-3084987Y-695157I-35814J0D01*
G01X-3089173Y-695157D01*
G01X-3089173Y-506488D01*
G03X-3114308Y-445808I-85814J0D01*
G01X-3121086Y-439030D01*
G01X-3121086Y-386575D01*
G03X-3141586Y-354200I-35814J0D01*
G01X-3141586Y-261975D01*
G03X-3166721Y-201295I-85814J0D01*
G01X-3436023Y68007D01*
G03X-3430423Y67819I7023J125618D01*
G01X-2975762Y-386842D01*
G03X-2932760Y-404654I43002J43002D01*
G01X-2524831Y-404654D01*
G01X-2524831Y-424840D01*
G03X-2489017Y-460654I35814J0D01*
G01X-2284379Y-460654D01*
G03X-2248565Y-424840I0J35814D01*
G01X-2248565Y-262839D01*
G03X-2284379Y-227025I-35814J0D01*
G01X-2489017Y-227025D01*
G03X-2524831Y-262839I0J-35814D01*
G01X-2524831Y-283026D01*
G01X-2907570Y-283026D01*
G01X-3320510Y129914D01*
G03X-3355486Y295727I-108490J63711D01*
G01X-3355486Y432010D01*
G01X-3264110Y523386D01*
G01X-1835631Y523386D01*
G03X-1813700Y515885I21932J28313D01*
G01X-1713700Y515885D01*
G03X-1677886Y551699I0J35814D01*
G01X-1677886Y616701D01*
G01X-1677925Y618382D01*
G01X-1635632Y618382D01*
G03X-1613700Y610881I21932J28313D01*
G01X-1513700Y610881D01*
G03X-1481666Y630682I0J35814D01*
G01X-1374665Y630682D01*
G01X-1374665Y627573D01*
G03X-1338851Y591759I35814J0D01*
G01X-1201149Y591759D01*
G03X-1165335Y627573I0J35814D01*
G01X-1165335Y740827D01*
G03X-1201149Y776641I-35814J0D01*
G01X-1338851Y776641D01*
G03X-1374665Y740827I0J-35814D01*
G01X-1374665Y727710D01*
G01X-1481666Y727710D01*
G03X-1513700Y747511I-32035J-16013D01*
G01X-1613700Y747511D01*
G03X-1635632Y740010I0J-35814D01*
G01X-3465729Y740010D01*
G03X-3508731Y722198I0J-60814D01*
G01X-3622186Y608743D01*
G01X-3622186Y686010D01*
G01X-3441910Y866286D01*
G01X-1425525Y866286D01*
G03X-1382523Y884098I0J60814D01*
G01X-1003910Y1262711D01*
G01X-901700Y1262711D01*
G03X-865886Y1298525I0J35814D01*
G01X-865886Y1450925D01*
G03X-892638Y1485573I-35814J0D01*
G01X-892638Y1899761D01*
G01X-884525Y1899761D01*
G03X-848711Y1935575I0J35814D01*
G01X-848711Y2073276D01*
G03X-884525Y2109090I-35814J0D01*
G01X-997778Y2109090D01*
G03X-1033592Y2073276I0J-35814D01*
G01X-1033592Y1935575D01*
G03X-997778Y1899761I35814J0D01*
G01X-989666Y1899761D01*
G01X-989666Y1486739D01*
G01X-1054100Y1486739D01*
G03X-1089914Y1450925I0J-35814D01*
G01X-1089914Y1348715D01*
G01X-1450715Y987914D01*
G01X-3467100Y987914D01*
G03X-3510102Y970102I0J-60814D01*
G01X-3622186Y858018D01*
G01X-3622186Y1169842D01*
G01X-3612216Y1169842D01*
G03X-3576402Y1205656I0J35814D01*
G01X-3576402Y1358056D01*
G03X-3612216Y1393870I-35814J0D01*
G01X-3764616Y1393870D01*
G03X-3800430Y1358056I0J-35814D01*
G01X-3800430Y1205656D01*
G03X-3764616Y1169842I35814J0D01*
G01X-3743814Y1169842D01*
G01X-3743814Y608743D01*
G01X-3819635Y684565D01*
G01X-3819635Y769427D01*
G03X-3855449Y805241I-35814J0D01*
G01X-3993151Y805241D01*
G03X-4028965Y769427I0J-35814D01*
G01X-4028965Y656173D01*
G03X-3993151Y620359I35814J0D01*
G01X-3927438Y620359D01*
G01X-3743814Y436735D01*
G01X-3743814Y303765D01*
G03X-3804267Y160109I60814J-110140D01*
G03X-3678622Y67887I121267J33516D01*
G01X-3313214Y-297520D01*
G01X-3993151Y1005241D02*
G03X-4028965Y969427I0J-35814D01*
G01X-4028965Y856173D01*
G03X-3993151Y820359I35814J0D01*
G01X-3855449Y820359D01*
G03X-3819635Y856173I0J35814D01*
G01X-3819635Y969427D01*
G03X-3855449Y1005241I-35814J0D01*
G01X-3863486Y1005241D01*
G01X-3863486Y2057610D01*
G01X-3629285Y2291811D01*
G01X1130510Y2291811D01*
G01X1437386Y1984935D01*
G01X1437386Y1882725D01*
G03X1473200Y1846911I35814J0D01*
G01X1625600Y1846911D01*
G03X1661414Y1882725I0J35814D01*
G01X1661414Y2035125D01*
G03X1625600Y2070939I-35814J0D01*
G01X1523390Y2070939D01*
G01X1198702Y2395627D01*
G03X1155700Y2413439I-43002J-43002D01*
G01X-3654475Y2413439D01*
G03X-3697477Y2395627I0J-60814D01*
G01X-3967302Y2125802D01*
G03X-3985114Y2082800I43002J-43002D01*
G01X-3985114Y1005241D01*
G01X-3993151Y1005241D01*
G01X-3306419Y-1322577D02*
G03X-3263417Y-1340389I43002J43002D01*
G01X-1660575Y-1340389D01*
G03X-1617573Y-1322577I0J60814D01*
G01X-686896Y-391900D01*
G03X-681496Y-389489I-24304J61700D01*
G01X-358419Y-389489D01*
G03X-322851Y-421116I35568J4187D01*
G01X-185149Y-421116D01*
G03X-149335Y-385302I0J35814D01*
G01X-149335Y-377189D01*
G01X317600Y-377189D01*
G03X351904Y-362980I0J48514D01*
G01X869570Y154686D01*
G01X1415886Y154686D01*
G01X1415886Y118200D01*
G03X1451700Y82386I35814J0D01*
G01X1621700Y82386D01*
G03X1657514Y118200I0J35814D01*
G01X1657514Y288200D01*
G03X1621700Y324014I-35814J0D01*
G01X1451700Y324014D01*
G03X1415886Y288200I0J-35814D01*
G01X1415886Y251714D01*
G01X849475Y251714D01*
G03X815170Y237505I0J-48514D01*
G01X297504Y-280161D01*
G01X-149335Y-280161D01*
G01X-149335Y-272048D01*
G03X-185149Y-236234I-35814J0D01*
G01X-322851Y-236234D01*
G03X-358419Y-267861I0J-35814D01*
G01X-688585Y-267861D01*
G03X-772900Y-305896I-22615J-62339D01*
G01X-1685765Y-1218761D01*
G01X-3238227Y-1218761D01*
G01X-3430210Y-1026778D01*
G03X-3303173Y-900970I1223J125808D01*
G01X-3303173Y-820970D01*
G03X-3554801Y-820970I-125814J0D01*
G01X-3554801Y-900970D01*
G01X-3554795Y-902193D01*
G01X-3557199Y-899790D01*
G01X-3557199Y-819980D01*
G03X-3808827Y-819980I-125814J0D01*
G01X-3808827Y-899980D01*
G03X-3620076Y-1008920I125814J0D01*
G01X-3306419Y-1322577D01*
G01X-3672186Y2068443D02*
G03X-3774906Y1879719I-23514J-109518D01*
G03X-3586182Y1982439I79206J79206D01*
G01X-3553714Y2014907D01*
G01X-3553714Y1882725D01*
G03X-3517900Y1846911I35814J0D01*
G01X-3365500Y1846911D01*
G03X-3329686Y1882725I0J35814D01*
G01X-3329686Y1910411D01*
G01X-3124634Y1910411D01*
G03X-2911657Y1958925I100963J48514D01*
G03X-3124634Y2007439I-112014J0D01*
G01X-3329686Y2007439D01*
G01X-3329686Y2035125D01*
G03X-3365500Y2070939I-35814J0D01*
G01X-3497682Y2070939D01*
G01X-3454610Y2114011D01*
G01X-511065Y2114011D01*
G01X-511065Y2113473D01*
G03X-475251Y2077659I35814J0D01*
G01X-337549Y2077659D01*
G03X-301735Y2113473I0J35814D01*
G01X-301735Y2226727D01*
G03X-337549Y2262541I-35814J0D01*
G01X-475251Y2262541D01*
G03X-509938Y2235639I0J-35814D01*
G01X-3479800Y2235639D01*
G03X-3522802Y2217827I0J-60814D01*
G01X-3672186Y2068443D01*
G01X-3152730Y1205656D02*
G03X-3116916Y1169842I35814J0D01*
G01X-2964516Y1169842D01*
G03X-2928702Y1205656I0J35814D01*
G01X-2928702Y1358056D01*
G03X-2964516Y1393870I-35814J0D01*
G01X-3116916Y1393870D01*
G03X-3152730Y1358056I0J-35814D01*
G01X-3152730Y1342670D01*
G01X-3340348Y1342670D01*
G03X-3546430Y1281856I-94068J-60814D01*
G03X-3340348Y1221042I112014J0D01*
G01X-3152730Y1221042D01*
G01X-3152730Y1205656D01*
G01X-1679465Y33873D02*
G03X-1643651Y-1941I35814J0D01*
G01X-1505949Y-1941D01*
G03X-1470135Y33873I0J35814D01*
G01X-1470135Y41986D01*
G01X-1291695Y41986D01*
G01X-1113805Y-135905D01*
G03X-1079500Y-150114I34305J34305D01*
G01X-719734Y-150114D01*
G03X-685430Y-135905I0J48514D01*
G01X-317130Y232395D01*
G03X-309453Y242386I-34305J34305D01*
G01X-286860Y242386D01*
G03X-251046Y278200I0J35814D01*
G01X-251046Y331400D01*
G03X-286860Y367214I-35814J0D01*
G01X-390609Y367214D01*
G03X-426423Y331400I0J-35814D01*
G01X-426423Y278200D01*
G03X-423260Y263484I35814J0D01*
G01X-645759Y40984D01*
G01X-645759Y173575D01*
G03X-681573Y209389I-35814J0D01*
G01X-689686Y209389D01*
G01X-689686Y381060D01*
G01X-681573Y381060D01*
G03X-645759Y416874I0J35814D01*
G01X-645759Y509557D01*
G01X-594230Y561086D01*
G01X-342900Y561086D01*
G03X-308595Y575295I0J48514D01*
G01X-175186Y708705D01*
G03X-120684Y647700I64186J2495D01*
G03X-111001Y519966I9683J-63500D01*
G01X27181Y519966D01*
G03X76510Y543059I0J64234D01*
G03X85105Y549895I-25710J41141D01*
G01X288305Y753095D01*
G03X302514Y787400I-34305J34305D01*
G01X302514Y1031138D01*
G03X288305Y1065443I-48514J0D01*
G01X96223Y1257525D01*
G01X96223Y1303204D01*
G03X60409Y1339018I-35814J0D01*
G01X-43340Y1339018D01*
G03X-65786Y1331112I0J-35814D01*
G01X-65786Y1412089D01*
G03X-43340Y1404182I22446J27907D01*
G01X60409Y1404182D01*
G03X96223Y1439996I0J35814D01*
G01X96223Y1493196D01*
G03X60409Y1529010I-35814J0D01*
G01X-43340Y1529010D01*
G03X-65786Y1521104I0J-35814D01*
G01X-65786Y1616275D01*
G01X14729Y1696790D01*
G01X60409Y1696790D01*
G03X96223Y1732604I0J35814D01*
G01X96223Y1785804D01*
G03X60409Y1821618I-35814J0D01*
G01X-43340Y1821618D01*
G03X-79154Y1785804I0J-35814D01*
G01X-79154Y1740125D01*
G01X-148605Y1670674D01*
G03X-162814Y1636370I34305J-34305D01*
G01X-162814Y1434014D01*
G01X-263609Y1434014D01*
G03X-291936Y1420114I0J-35814D01*
G01X-621494Y1420114D01*
G03X-675386Y1475688I-102406J-45389D01*
G01X-675386Y1900947D01*
G03X-648711Y1935575I-9139J34628D01*
G01X-648711Y2073276D01*
G03X-684525Y2109090I-35814J0D01*
G01X-797779Y2109090D01*
G03X-833593Y2073276I0J-35814D01*
G01X-833593Y1935575D01*
G03X-797779Y1899761I35814J0D01*
G01X-772414Y1899761D01*
G01X-772414Y1475688D01*
G03X-804331Y1296764I48514J-100963D01*
G03X-624499Y1323086I80431J77961D01*
G01X-291936Y1323086D01*
G03X-263609Y1309186I28327J21914D01*
G01X-162814Y1309186D01*
G01X-162814Y1231900D01*
G03X-148605Y1197595I48514J0D01*
G01X19557Y1029434D01*
G01X-111001Y1029434D01*
G03X-153100Y1013714I0J-64234D01*
G01X-161986Y1013714D01*
G01X-161986Y1032701D01*
G03X-197800Y1068515I-35814J0D01*
G01X-338800Y1068515D01*
G03X-368300Y1053009I0J-35814D01*
G03X-397800Y1068515I-29500J-20308D01*
G01X-538800Y1068515D01*
G03X-574614Y1032701I0J-35814D01*
G01X-574614Y897700D01*
G03X-538800Y861886I35814J0D01*
G01X-397800Y861886D01*
G03X-368300Y877391I0J35814D01*
G03X-338800Y861886I29500J20308D01*
G01X-316814Y861886D01*
G01X-316814Y858010D01*
G03X-274347Y746762I48514J-45210D01*
G01X-362995Y658114D01*
G01X-614325Y658114D01*
G03X-648630Y643905I0J-48514D01*
G01X-702145Y590389D01*
G01X-794827Y590389D01*
G03X-830641Y554575I0J-35814D01*
G01X-830641Y416874D01*
G03X-794827Y381060I35814J0D01*
G01X-786714Y381060D01*
G01X-786714Y209389D01*
G01X-794827Y209389D01*
G03X-830641Y173575I0J-35814D01*
G01X-830641Y35874D01*
G03X-794827Y60I35814J0D01*
G01X-686683Y60D01*
G01X-739830Y-53086D01*
G01X-1059405Y-53086D01*
G01X-1237296Y124805D01*
G03X-1271600Y139014I-34305J-34305D01*
G01X-1470135Y139014D01*
G01X-1470135Y145111D01*
G01X-1230300Y145111D01*
G03X-1195995Y159320I0J48514D01*
G01X-974255Y381060D01*
G01X-881573Y381060D01*
G03X-845759Y416874I0J35814D01*
G01X-845759Y554575D01*
G03X-881573Y590389I-35814J0D01*
G01X-994827Y590389D01*
G03X-1030641Y554575I0J-35814D01*
G01X-1030641Y461893D01*
G01X-1250395Y242139D01*
G01X-1470135Y242139D01*
G01X-1470135Y347127D01*
G03X-1505949Y382941I-35814J0D01*
G01X-1515186Y382941D01*
G01X-1515186Y420889D01*
G01X-1513700Y420889D01*
G03X-1481666Y440690I0J35814D01*
G01X-1374665Y440690D01*
G01X-1374665Y427573D01*
G03X-1338851Y391759I35814J0D01*
G01X-1201149Y391759D01*
G03X-1165335Y427573I0J35814D01*
G01X-1165335Y540827D01*
G03X-1201149Y576641I-35814J0D01*
G01X-1338851Y576641D01*
G03X-1374665Y540827I0J-35814D01*
G01X-1374665Y537718D01*
G01X-1481666Y537718D01*
G03X-1513700Y557519I-32035J-16013D01*
G01X-1613700Y557519D01*
G03X-1649514Y521705I0J-35814D01*
G01X-1649514Y456703D01*
G03X-1613700Y420889I35814J0D01*
G01X-1612214Y420889D01*
G01X-1612214Y382941D01*
G01X-1643651Y382941D01*
G03X-1679465Y347127I0J-35814D01*
G01X-1679465Y242139D01*
G01X-3058916Y242139D01*
G03X-3300814Y193625I-116084J-48514D01*
G03X-3058916Y145111I125814J0D01*
G01X-1679465Y145111D01*
G01X-1679465Y33873D01*
G01X-2693471Y1846911D02*
G03X-2657657Y1882725I0J35814D01*
G01X-2657657Y2035125D01*
G03X-2693471Y2070939I-35814J0D01*
G01X-2845871Y2070939D01*
G03X-2881685Y2035125I0J-35814D01*
G01X-2881685Y1882725D01*
G03X-2845871Y1846911I35814J0D01*
G01X-2835230Y1846911D01*
G01X-2835230Y1382819D01*
G03X-2786716Y1169842I48514J-100963D01*
G03X-2738202Y1382819I0J112014D01*
G01X-2738202Y1846911D01*
G01X-2693471Y1846911D01*
G01X-1767769Y-260960D02*
G03X-1803583Y-225146I-35814J0D01*
G01X-2008221Y-225146D01*
G03X-2044035Y-260960I0J-35814D01*
G01X-2044035Y-422961D01*
G03X-2008221Y-458775I35814J0D01*
G01X-1803583Y-458775D01*
G03X-1767769Y-422961I0J35814D01*
G01X-1767769Y-260960D01*
G01X-963897Y-2076068D02*
G03X-1215525Y-2076068I-125814J0D01*
G03X-963897Y-2076068I125814J0D01*
G01X-963897Y-1626082D02*
G03X-1215525Y-1626082I-125814J0D01*
G03X-963897Y-1626082I125814J0D01*
G01X-1030641Y35874D02*
G03X-994827Y60I35814J0D01*
G01X-881573Y60D01*
G03X-845759Y35874I0J35814D01*
G01X-845759Y173575D01*
G03X-881573Y209389I-35814J0D01*
G01X-994827Y209389D01*
G03X-1030641Y173575I0J-35814D01*
G01X-1030641Y35874D01*
G01X-333875Y-2076068D02*
G03X-585503Y-2076068I-125814J0D01*
G03X-333875Y-2076068I125814J0D01*
G01X1426055Y662686D02*
G03X1657514Y711200I110645J48514D01*
G03X1426055Y759714I-120814J0D01*
G01X610300Y759714D01*
G03X577884Y774700I-42100J-48514D01*
G03X588881Y777386I-9683J63500D01*
G01X776560Y777386D01*
G03X796100Y771586I19540J30014D01*
G01X931101Y771586D01*
G03X966915Y807400I0J35814D01*
G01X966915Y855511D01*
G01X1371390Y1259986D01*
G01X1765510Y1259986D01*
G01X1933086Y1092410D01*
G01X1933086Y-457410D01*
G01X825228Y-1565268D01*
G01X-349549Y-1565268D01*
G03X-585503Y-1626082I-110140J-60814D01*
G03X-349549Y-1686896I125814J0D01*
G01X850418Y-1686896D01*
G03X893420Y-1669084I0J60814D01*
G01X2036902Y-525602D01*
G03X2054714Y-482600I-43002J43002D01*
G01X2054714Y1117600D01*
G03X2036902Y1160602I-60814J0D01*
G01X1833702Y1363802D01*
G03X1790700Y1381614I-43002J-43002D01*
G01X1346200Y1381614D01*
G03X1303198Y1363802I0J-60814D01*
G01X966915Y1027518D01*
G01X966915Y1148400D01*
G03X931101Y1184214I-35814J0D01*
G01X796100Y1184214D01*
G03X760286Y1148400I0J-35814D01*
G01X760286Y1007400D01*
G03X775791Y977900I35814J0D01*
G03X760286Y948400I20308J-29500D01*
G01X760286Y899014D01*
G01X588881Y899014D01*
G03X577884Y901700I-20680J-60814D01*
G03X568201Y1029434I-9683J63500D01*
G01X430019Y1029434D01*
G03X420336Y901700I0J-64234D01*
G03X420336Y774700I9683J-63500D01*
G03X420336Y647700I9683J-63500D01*
G03X384840Y538540I9683J-63500D01*
G01X305441Y459141D01*
G01X261349Y459141D01*
G03X225535Y423327I0J-35814D01*
G01X225535Y379235D01*
G01X104619Y258318D01*
G01X-38264Y258318D01*
G03X-66591Y272218I-28327J-21914D01*
G01X-170340Y272218D01*
G03X-206154Y236404I0J-35814D01*
G01X-206154Y183204D01*
G03X-170340Y147390I35814J0D01*
G01X-66591Y147390D01*
G03X-38264Y161290I0J35814D01*
G01X124714Y161290D01*
G03X159019Y175499I0J48514D01*
G01X257941Y274422D01*
G03X261349Y274259I3409J35651D01*
G01X399051Y274259D01*
G03X434865Y310073I0J35814D01*
G01X434865Y423327D01*
G03X427971Y444452I-35814J0D01*
G01X503485Y519966D01*
G01X568201Y519966D01*
G03X577884Y647700I0J64234D01*
G03X610300Y662686I-9683J63500D01*
G01X1426055Y662686D01*
G01X-301735Y2026727D02*
G03X-337549Y2062541I-35814J0D01*
G01X-475251Y2062541D01*
G03X-511065Y2026727I0J-35814D01*
G01X-511065Y1913473D01*
G03X-475251Y1877659I35814J0D01*
G01X-426963Y1877659D01*
G01X-360502Y1811198D01*
G03X-317500Y1793386I43002J43002D01*
G01X-274195Y1793386D01*
G03X-263609Y1791786I10586J34214D01*
G01X-159860Y1791786D01*
G03X-124046Y1827600I0J35814D01*
G01X-124046Y1880800D01*
G03X-159860Y1916614I-35814J0D01*
G01X-263609Y1916614D01*
G03X-274195Y1915014I0J-35814D01*
G01X-292310Y1915014D01*
G01X-301735Y1924439D01*
G01X-301735Y2026727D01*
G01X-185149Y-621116D02*
G03X-149335Y-585302I0J35814D01*
G01X-149335Y-472048D01*
G03X-185149Y-436234I-35814J0D01*
G01X-322851Y-436234D01*
G03X-358665Y-472048I0J-35814D01*
G01X-358665Y-585302D01*
G03X-322851Y-621116I35814J0D01*
G01X-185149Y-621116D01*
G01X-206154Y373196D02*
G03X-170340Y337382I35814J0D01*
G01X-66591Y337382D01*
G03X-30777Y373196I0J35814D01*
G01X-30777Y426396D01*
G03X-66591Y462210I-35814J0D01*
G01X-170340Y462210D01*
G03X-206154Y426396I0J-35814D01*
G01X-206154Y373196D01*
G01X-79154Y1922596D02*
G03X-43340Y1886782I35814J0D01*
G01X60409Y1886782D01*
G03X96223Y1922596I0J35814D01*
G01X96223Y1975796D01*
G03X60409Y2011610I-35814J0D01*
G01X-43340Y2011610D01*
G03X-79154Y1975796I0J-35814D01*
G01X-79154Y1922596D01*
G01X399051Y74259D02*
G03X434865Y110073I0J35814D01*
G01X434865Y223327D01*
G03X399051Y259141I-35814J0D01*
G01X261349Y259141D01*
G03X225535Y223327I0J-35814D01*
G01X225535Y110073D01*
G03X261349Y74259I35814J0D01*
G01X399051Y74259D01*
G01X1407414Y1958925D02*
G03X1183386Y1958925I-112014J0D01*
G03X1407414Y1958925I112014J0D01*
G01X1536700Y336386D02*
G03X1536700Y578014I0J120814D01*
G03X1536700Y336386I0J-120814D01*
G01X1536700Y844386D02*
G03X1536700Y1086014I0J120814D01*
G03X1536700Y844386I0J-120814D01*
G01X2330786Y-1112195D02*
G03X2772414Y-1112195I220814J0D01*
G03X2330786Y-1112195I-220814J0D01*
G01X2345226Y1935805D02*
G03X2786854Y1935805I220814J0D01*
G03X2345226Y1935805I-220814J0D01*
G54D11*
G01X1295400Y1958925D02*
G01X1397254Y1958925D01*
G01X1295400Y1958925D02*
G01X1193546Y1958925D01*
G01X1295400Y1958925D02*
G01X1295400Y1857071D01*
G01X1295400Y1958925D02*
G01X1295400Y2060779D01*
G01X2551600Y-1112195D02*
G01X2340946Y-1112195D01*
G01X2551600Y-1112195D02*
G01X2762254Y-1112195D01*
G01X2551600Y-1112195D02*
G01X2551600Y-901541D01*
G01X2551600Y-1112195D02*
G01X2551600Y-1322849D01*
G01X2566040Y1935805D02*
G01X2355386Y1935805D01*
G01X2566040Y1935805D02*
G01X2776694Y1935805D01*
G01X2566040Y1935805D02*
G01X2566040Y2146459D01*
G01X2566040Y1935805D02*
G01X2566040Y1725151D01*
G01X1536700Y457200D02*
G01X1536700Y346546D01*
G01X1536700Y457200D02*
G01X1536700Y567854D01*
G01X1536700Y457200D02*
G01X1426046Y457200D01*
G01X1536700Y457200D02*
G01X1647354Y457200D01*
G01X1536700Y965200D02*
G01X1536700Y854546D01*
G01X1536700Y965200D02*
G01X1536700Y1075854D01*
G01X1536700Y965200D02*
G01X1426046Y965200D01*
G01X1536700Y965200D02*
G01X1647354Y965200D01*
G01X-4373380Y1935805D02*
G01X-4584034Y1935805D01*
G01X-4373380Y1935805D02*
G01X-4162726Y1935805D01*
G01X-4373380Y1935805D02*
G01X-4373380Y2146459D01*
G01X-4373380Y1935805D02*
G01X-4373380Y1725151D01*
G01X-4371640Y-1099495D02*
G01X-4582294Y-1099495D01*
G01X-4371640Y-1099495D02*
G01X-4160986Y-1099495D01*
G01X-4371640Y-1099495D02*
G01X-4371640Y-888841D01*
G01X-4371640Y-1099495D02*
G01X-4371640Y-1310149D01*
G01X-4191000Y193625D02*
G01X-4306654Y193625D01*
G01X-4191000Y193625D02*
G01X-4075346Y193625D01*
G01X-4191000Y193625D02*
G01X-4191000Y309279D01*
G01X-4191000Y193625D02*
G01X-4191000Y77971D01*
G01X-3937000Y193625D02*
G01X-4052654Y193625D01*
G01X-3937000Y193625D02*
G01X-3821346Y193625D01*
G01X-3937000Y193625D02*
G01X-3937000Y309279D01*
G01X-3937000Y193625D02*
G01X-3937000Y77971D01*
G01X-3428987Y-860970D02*
G01X-3313333Y-860970D01*
G01X-3428987Y-860970D02*
G01X-3544641Y-860970D01*
G01X-3428987Y-860970D02*
G01X-3428987Y-1016624D01*
G01X-3428987Y-860970D02*
G01X-3428987Y-705317D01*
G01X-1089711Y-2076068D02*
G01X-974057Y-2076068D01*
G01X-1089711Y-2076068D02*
G01X-1205365Y-2076068D01*
G01X-1089711Y-2076068D02*
G01X-1089711Y-2191722D01*
G01X-1089711Y-2076068D02*
G01X-1089711Y-1960414D01*
G01X-3427400Y-454075D02*
G01X-3523554Y-454075D01*
G01X-3427400Y-454075D02*
G01X-3427400Y-547230D01*
G01X-3427400Y-454075D02*
G01X-3427400Y-360921D01*
G01X-938200Y104725D02*
G01X-1020481Y104725D01*
G01X-938200Y104725D02*
G01X-855919Y104725D01*
G01X-938200Y104725D02*
G01X-938200Y199229D01*
G01X-938200Y104725D02*
G01X-938200Y10220D01*
G01X-468300Y965200D02*
G01X-564454Y965200D01*
G01X-468300Y965200D02*
G01X-468300Y1058355D01*
G01X-468300Y965200D02*
G01X-468300Y872046D01*
G01X-1905902Y-341960D02*
G01X-1777929Y-341960D01*
G01X-1905902Y-341960D02*
G01X-2033875Y-341960D01*
G01X-1905902Y-341960D02*
G01X-1905902Y-448615D01*
G01X-1905902Y-341960D02*
G01X-1905902Y-235306D01*
G01X-254000Y-528675D02*
G01X-254000Y-610956D01*
G01X-254000Y-528675D02*
G01X-254000Y-446394D01*
G01X-254000Y-528675D02*
G01X-348505Y-528675D01*
G01X-254000Y-528675D02*
G01X-159495Y-528675D01*
G01X-118466Y399796D02*
G01X-195994Y399796D01*
G01X-118466Y399796D02*
G01X-40937Y399796D01*
G01X-118466Y399796D02*
G01X-118466Y452050D01*
G01X-118466Y399796D02*
G01X-118466Y347542D01*
G01X8534Y1466596D02*
G01X86063Y1466596D01*
G01X8534Y1466596D02*
G01X8534Y1518850D01*
G01X8534Y1466596D02*
G01X8534Y1414342D01*
G01X8534Y1949196D02*
G01X-68994Y1949196D01*
G01X8534Y1949196D02*
G01X86063Y1949196D01*
G01X8534Y1949196D02*
G01X8534Y2001450D01*
G01X8534Y1949196D02*
G01X8534Y1896942D01*
G01X330200Y166700D02*
G01X330200Y84419D01*
G01X330200Y166700D02*
G01X330200Y248981D01*
G01X330200Y166700D02*
G01X235695Y166700D01*
G01X330200Y166700D02*
G01X424705Y166700D01*
G01X499110Y965200D02*
G01X499110Y1019274D01*
G01X499110Y965200D02*
G01X622275Y965200D01*
G01X499110Y965200D02*
G01X375945Y965200D01*
G01X863600Y1077900D02*
G01X863600Y1174054D01*
G01X863600Y1077900D02*
G01X956755Y1077900D01*
G01X863600Y1077900D02*
G01X770446Y1077900D01*
G04 Copper End*

G04 Pad Start*
G54D12*
G01X-4371640Y-1099495D03*
G01X2551600Y-1112195D03*
G01X2566040Y1935805D03*
G01X-4373380Y1935805D03*
G54D13*
G01X-459689Y-1626082D03*
G01X-1089711Y-1626082D03*
G01X-459689Y-2076068D03*
G01X-1089711Y-2076068D03*
G54D14*
G01X1549400Y1958925D03*
G54D16*
G01X1295400Y1958925D03*
G54D14*
G01X-3441700Y1958925D03*
G54D16*
G01X-3695700Y1958925D03*
G54D14*
G01X-2769671Y1958925D03*
G54D16*
G01X-3023671Y1958925D03*
G54D14*
G01X-3040716Y1281856D03*
G54D16*
G01X-2786716Y1281856D03*
G54D14*
G01X-3688416Y1281856D03*
G54D16*
G01X-3434416Y1281856D03*
G54D17*
G01X-4191000Y193625D03*
G54D13*
G01X-3937000Y193625D03*
G01X-3683000Y193625D03*
G01X-3429000Y193625D03*
G01X-3175000Y193625D03*
G54D18*
G01X-3427400Y-454075D03*
G01X-3227400Y-454075D03*
G01X-268300Y965200D03*
G01X-468300Y965200D03*
G54D14*
G01X-977900Y1374725D03*
G54D16*
G01X-723900Y1374725D03*
G54D19*
G01X8534Y1759204D03*
G01X8534Y1949196D03*
G01X-211734Y1854200D03*
G54D20*
G01X-738200Y485725D03*
G01X-938200Y485725D03*
G01X-738200Y104725D03*
G01X-938200Y104725D03*
G54D21*
G01X-406400Y1970100D03*
G01X-406400Y2170100D03*
G01X-254000Y-328675D03*
G01X-254000Y-528675D03*
G01X-3924300Y712800D03*
G01X-3924300Y912800D03*
G54D22*
G01X-3428987Y-860970D03*
G01X-3683013Y-859980D03*
G54D23*
G01X-3174987Y-860970D03*
G54D24*
G01X-41910Y965200D03*
G01X-41910Y838200D03*
G01X-41910Y711200D03*
G01X-41910Y584200D03*
G01X499110Y965200D03*
G01X499110Y838200D03*
G01X499110Y711200D03*
G01X499110Y584200D03*
G54D25*
G01X-1905902Y-341960D03*
G01X-2386698Y-343840D03*
G54D19*
G01X8534Y1276604D03*
G01X8534Y1466596D03*
G01X-211734Y1371600D03*
G01X-118466Y209804D03*
G01X-118466Y399796D03*
G01X-338734Y304800D03*
G54D26*
G01X-1563700Y489204D03*
G01X-1563700Y679196D03*
G01X-1763700Y584200D03*
G54D20*
G01X-941152Y2004426D03*
G01X-741152Y2004426D03*
G54D21*
G01X-1574800Y290500D03*
G01X-1574800Y90500D03*
G01X-1270000Y684200D03*
G01X-1270000Y484200D03*
G01X330200Y366700D03*
G01X330200Y166700D03*
G54D27*
G01X1536700Y203200D03*
G54D28*
G01X1536700Y457200D03*
G01X1536700Y711200D03*
G01X1536700Y965200D03*
G54D29*
G01X863600Y877900D03*
G01X863600Y1077900D03*
G04 Pad End*

G04 Via Start*
G54D30*
G01X-3427400Y-577776D03*
G01X-3427400Y-653336D03*
G01X-254000Y-659420D03*
G01X-1075306Y104725D03*
G01X101600Y1466596D03*
G01X647700Y965200D03*
G01X-268300Y812800D03*
G01X-711200Y-330200D03*
G01X-468300Y838200D03*
G01X101600Y1949196D03*
G01X-12700Y399796D03*
G01X330200Y50800D03*
G01X-1701800Y-341960D03*
G01X-2844800Y393700D03*
G01X-1993900Y393700D03*
G01X-2705100Y-38100D03*
G01X-2006600Y-863600D03*
G01X-190500Y-63500D03*
G01X1028700Y482600D03*
G01X1257300Y952500D03*
G01X-431800Y1638300D03*
G01X-876300Y939800D03*
G01X-2387600Y1600200D03*
G01X-1447800Y1651000D03*
G01X774700Y1651000D03*
G01X-1638300Y2451100D03*
G01X1181100Y2451100D03*
G01X-3898900Y2451100D03*
G01X876300Y-635000D03*
G01X-3797300Y1079500D03*
G01X-3251200Y1638300D03*
G01X-3213100Y2070100D03*
G01X-368300Y1219200D03*
G01X-203200Y2133600D03*
G01X863600Y1206500D03*
G01X-3251200Y1092200D03*
G01X-3314700Y800100D03*
G01X-1473200Y812800D03*
G04 Via End*

G04 Track Start*
G54D11*
G01X-738200Y104725D02*
G01X-738200Y485725D01*
G54D31*
G01X-254000Y-328675D02*
G01X-712800Y-328675D01*
G01X-3263417Y-1279575D02*
G01X-3683013Y-859980D01*
G01X-3683000Y1276440D02*
G01X-3688416Y1281856D01*
G01X-3434416Y1281856D02*
G01X-3040716Y1281856D01*
G54D11*
G01X-2786716Y1281856D02*
G01X-2786716Y1941880D01*
G01X-2769671Y1958925D01*
G01X-3023671Y1958925D02*
G01X-3441700Y1958925D01*
G54D31*
G01X1549400Y1958925D02*
G01X1155700Y2352625D01*
G01X-3683000Y193625D02*
G01X-3683000Y461925D01*
G54D32*
G01X-3174987Y-860970D02*
G01X-3174987Y-506488D01*
G01X-3227400Y-454075D01*
G01X-3683000Y193625D02*
G01X-3227400Y-261975D01*
G01X-3227400Y-454075D01*
G01X-3427400Y-454075D02*
G01X-3427400Y-577776D01*
G01X-3427400Y-653336D01*
G01X-3427400Y-859383D01*
G01X-3428987Y-860970D01*
G54D11*
G01X-1230300Y193625D02*
G01X-938200Y485725D01*
G01X-938200Y104725D02*
G01X-1075306Y104725D01*
G01X-254000Y-528675D02*
G01X-254000Y-659420D01*
G01X-41910Y584200D02*
G01X50800Y584200D01*
G01X-211734Y1371600D02*
G01X-720775Y1371600D01*
G01X-723900Y1374725D01*
G54D31*
G01X-3467100Y927100D02*
G01X-3683000Y711200D01*
G01X-3683000Y1276440D01*
G01X-3683000Y461925D02*
G01X-3683000Y711200D01*
G54D11*
G01X-723900Y1374725D02*
G01X-723900Y1987174D01*
G01X-741152Y2004426D01*
G01X-941152Y2004426D02*
G01X-941152Y1411473D01*
G01X-977900Y1374725D01*
G54D31*
G01X-3289300Y584200D02*
G01X-3416300Y457200D01*
G01X-3416300Y193625D01*
G01X-3465729Y679196D02*
G01X-3683000Y461925D01*
G54D11*
G01X-1270000Y684200D02*
G01X-1275004Y679196D01*
G01X-1525600Y679196D01*
G01X-1525600Y489204D02*
G01X-1275004Y489204D01*
G01X-1270000Y484200D01*
G54D31*
G01X-3429000Y152400D02*
G01X-3429000Y193625D01*
G54D11*
G01X-1271600Y90500D02*
G01X-1079500Y-101600D01*
G01X-719734Y-101600D01*
G01X-351434Y266700D01*
G01X499110Y584200D02*
G01X124714Y209804D01*
G01X-118466Y209804D01*
G01X8534Y1466596D02*
G01X101600Y1466596D01*
G01X499110Y965200D02*
G01X647700Y965200D01*
G01X-41910Y838200D02*
G01X-114300Y838200D01*
G01X-342900Y609600D01*
G01X-614325Y609600D01*
G01X-738200Y485725D01*
G01X-41910Y965200D02*
G01X-268300Y965200D01*
G01X-268300Y812800D01*
G01X-468300Y965200D02*
G01X-468300Y838200D01*
G01X50800Y584200D02*
G01X254000Y787400D01*
G01X254000Y1031138D01*
G01X8534Y1276604D01*
G01X-41910Y711200D02*
G01X25400Y711200D01*
G01X152400Y838200D01*
G01X152400Y965200D01*
G01X-114300Y1231900D01*
G01X-114300Y1636370D01*
G01X8534Y1759204D01*
G54D31*
G01X-411125Y2174825D02*
G01X-406400Y2170100D01*
G01X-211734Y1854200D02*
G01X-317500Y1854200D01*
G01X-406400Y1943100D01*
G01X-406400Y1970100D01*
G54D33*
G01X8534Y1949196D02*
G01X101600Y1949196D01*
G54D11*
G01X317600Y-328675D02*
G01X-254000Y-328675D01*
G01X-118466Y399796D02*
G01X-12700Y399796D01*
G01X330200Y166700D02*
G01X330200Y50800D01*
G54D31*
G01X-2932760Y-343840D02*
G01X-3429000Y152400D01*
G54D11*
G01X1536700Y711200D02*
G01X499110Y711200D01*
G01X1536700Y203200D02*
G01X849475Y203200D01*
G01X317600Y-328675D01*
G54D31*
G01X-711200Y-330200D02*
G01X-1660575Y-1279575D01*
G01X-3263417Y-1279575D01*
G01X-3695700Y1958925D02*
G01X-3479800Y2174825D01*
G01X-411125Y2174825D01*
G01X-977900Y1374725D02*
G01X-1425525Y927100D01*
G01X-3467100Y927100D02*
G01X-1425525Y927100D01*
G01X-1763700Y584200D02*
G01X-3289300Y584200D01*
G01X-1563700Y679196D02*
G01X-3465729Y679196D01*
G01X-2386698Y-343840D02*
G01X-2932760Y-343840D01*
G01X-1905902Y-341960D02*
G01X-1904962Y-342900D01*
G01X-1702740Y-342900D01*
G01X-1701800Y-341960D01*
G54D11*
G01X-3175000Y193625D02*
G01X-1230300Y193625D01*
G01X-1574800Y90500D02*
G01X-1271600Y90500D01*
G01X-1563700Y489204D02*
G01X-1563700Y301600D01*
G01X-1574800Y290500D01*
G54D31*
G01X1993900Y1117600D02*
G01X1993900Y-482600D01*
G01X850418Y-1626082D01*
G01X-459689Y-1626082D01*
G01X499110Y838200D02*
G01X863600Y838200D01*
G01X1346200Y1320800D01*
G01X1790700Y1320800D01*
G01X1993900Y1117600D01*
G54D11*
G01X863600Y1077900D02*
G01X863600Y1206500D01*
G54D31*
G01X1155700Y2352625D02*
G01X-3654475Y2352625D01*
G01X-3924300Y2082800D01*
G01X-3924300Y912800D01*
G01X-3683000Y461925D02*
G01X-3924300Y703225D01*
G01X-3924300Y712800D01*
G04 Track End*

M02*

