G04 Layer: TopSilkscreenLayer*
G04 EasyEDA Pro v3.2.149.88089769, 2026-08-11 22:09:00*
G04 Gerber Generator version 0.3*
G04 Scale: 100 percent, Rotated: No, Reflected: No*
G04 Dimensions in millimeters*
G04 Leading zeros omitted, absolute positions, 4 integers and 5 decimals*
G04 Generated by one-click*
G04 Object Configs: Pad,Via,Track,Text,Image,Dimension,BoardOutline,BoardCutout,CopperFilled,SolidRegion,FPCStiffener,Line,PlaneZone,ComponentProperty,ComponentSilkscreen,TearDrop*
G04 Layer Configs: 1,2,3,4,5,6,7,8,9,10,11,13,14,56*
G04 Copper Areas: 0*
%FSLAX45Y45*%
%MOMM*%
%ADD10C,0.1524*%
%ADD11C,0.254*%
%ADD12C,0.4*%
%ADD13C,0.3*%
%ADD14C,0.4744*%
G75*


G04 Text Start*
G54D10*
G01X-4263898Y-197535D02*
G01X-4266946Y-191185D01*
G01X-4273296Y-185089D01*
G01X-4279392Y-182041D01*
G01X-4291838Y-182041D01*
G01X-4297934Y-185089D01*
G01X-4304284Y-191185D01*
G01X-4307332Y-197535D01*
G01X-4310380Y-206679D01*
G01X-4310380Y-222173D01*
G01X-4307332Y-231571D01*
G01X-4304284Y-237667D01*
G01X-4297934Y-244017D01*
G01X-4291838Y-247065D01*
G01X-4279392Y-247065D01*
G01X-4273296Y-244017D01*
G01X-4266946Y-237667D01*
G01X-4263898Y-231571D01*
G01X-4263898Y-222173D01*
G01X-4279392Y-222173D02*
G01X-4263898Y-222173D01*
G01X-4233672Y-182041D02*
G01X-4233672Y-247065D01*
G01X-4233672Y-182041D02*
G01X-4190492Y-247065D01*
G01X-4190492Y-182041D02*
G01X-4190492Y-247065D01*
G01X-4160266Y-182041D02*
G01X-4160266Y-247065D01*
G01X-4160266Y-182041D02*
G01X-4138676Y-182041D01*
G01X-4129532Y-185089D01*
G01X-4123182Y-191185D01*
G01X-4120134Y-197535D01*
G01X-4117086Y-206679D01*
G01X-4117086Y-222173D01*
G01X-4120134Y-231571D01*
G01X-4123182Y-237667D01*
G01X-4129532Y-244017D01*
G01X-4138676Y-247065D01*
G01X-4160266Y-247065D01*
G01X-3764280Y602488D02*
G01X-3758184Y605790D01*
G01X-3748786Y614934D01*
G01X-3748786Y549910D01*
G01X-3715512Y599440D02*
G01X-3715512Y602488D01*
G01X-3712464Y608838D01*
G01X-3709416Y611886D01*
G01X-3703320Y614934D01*
G01X-3690874Y614934D01*
G01X-3684524Y611886D01*
G01X-3681476Y608838D01*
G01X-3678428Y602488D01*
G01X-3678428Y596392D01*
G01X-3681476Y590296D01*
G01X-3687826Y580898D01*
G01X-3718560Y549910D01*
G01X-3675380Y549910D01*
G01X-3645154Y614934D02*
G01X-3620516Y549910D01*
G01X-3595624Y614934D02*
G01X-3620516Y549910D01*
G01X-3332480Y614934D02*
G01X-3332480Y549910D01*
G01X-3332480Y614934D02*
G01X-3292348Y614934D01*
G01X-3332480Y583946D02*
G01X-3307588Y583946D01*
G01X-3262122Y614934D02*
G01X-3262122Y549910D01*
G01X-3216656Y593344D02*
G01X-3222752Y590296D01*
G01X-3228848Y583946D01*
G01X-3231896Y574802D01*
G01X-3231896Y568452D01*
G01X-3228848Y559308D01*
G01X-3222752Y552958D01*
G01X-3216656Y549910D01*
G01X-3207258Y549910D01*
G01X-3201162Y552958D01*
G01X-3194812Y559308D01*
G01X-3191764Y568452D01*
G01X-3191764Y574802D01*
G01X-3194812Y583946D01*
G01X-3201162Y590296D01*
G01X-3207258Y593344D01*
G01X-3216656Y593344D01*
G01X-3124454Y593344D02*
G01X-3124454Y549910D01*
G01X-3124454Y583946D02*
G01X-3130804Y590296D01*
G01X-3136900Y593344D01*
G01X-3146298Y593344D01*
G01X-3152394Y590296D01*
G01X-3158490Y583946D01*
G01X-3161538Y574802D01*
G01X-3161538Y568452D01*
G01X-3158490Y559308D01*
G01X-3152394Y552958D01*
G01X-3146298Y549910D01*
G01X-3136900Y549910D01*
G01X-3130804Y552958D01*
G01X-3124454Y559308D01*
G01X-3085084Y614934D02*
G01X-3085084Y562356D01*
G01X-3082036Y552958D01*
G01X-3075686Y549910D01*
G01X-3069590Y549910D01*
G01X-3094228Y593344D02*
G01X-3072638Y593344D01*
G01X2314956Y-2308529D02*
G01X2311908Y-2302179D01*
G01X2302510Y-2299131D01*
G01X2293366Y-2299131D01*
G01X2283968Y-2302179D01*
G01X2280920Y-2308529D01*
G01X2283968Y-2314625D01*
G01X2290318Y-2317673D01*
G01X2305812Y-2320721D01*
G01X2311908Y-2324023D01*
G01X2314956Y-2330119D01*
G01X2314956Y-2333167D01*
G01X2311908Y-2339517D01*
G01X2302510Y-2342565D01*
G01X2293366Y-2342565D01*
G01X2283968Y-2339517D01*
G01X2280920Y-2333167D01*
G01X2354326Y-2277541D02*
G01X2354326Y-2330119D01*
G01X2357374Y-2339517D01*
G01X2363724Y-2342565D01*
G01X2369820Y-2342565D01*
G01X2345182Y-2299131D02*
G01X2366772Y-2299131D01*
G01X2400046Y-2277541D02*
G01X2403094Y-2280589D01*
G01X2406142Y-2277541D01*
G01X2403094Y-2274493D01*
G01X2400046Y-2277541D01*
G01X2403094Y-2299131D02*
G01X2403094Y-2342565D01*
G01X2473452Y-2299131D02*
G01X2473452Y-2348661D01*
G01X2470404Y-2358059D01*
G01X2467102Y-2361107D01*
G01X2461006Y-2364155D01*
G01X2451608Y-2364155D01*
G01X2445512Y-2361107D01*
G01X2473452Y-2308529D02*
G01X2467102Y-2302179D01*
G01X2461006Y-2299131D01*
G01X2451608Y-2299131D01*
G01X2445512Y-2302179D01*
G01X2439416Y-2308529D01*
G01X2436368Y-2317673D01*
G01X2436368Y-2324023D01*
G01X2439416Y-2333167D01*
G01X2445512Y-2339517D01*
G01X2451608Y-2342565D01*
G01X2461006Y-2342565D01*
G01X2467102Y-2339517D01*
G01X2473452Y-2333167D01*
G01X2549906Y-2302179D02*
G01X2546858Y-2296083D01*
G01X2540762Y-2293035D01*
G01X2531364Y-2293035D01*
G01X2525268Y-2296083D01*
G01X2522220Y-2299131D01*
G01X2518918Y-2308529D01*
G01X2518918Y-2317673D01*
G01X2522220Y-2324023D01*
G01X2528316Y-2327071D01*
G01X2537714Y-2327071D01*
G01X2543810Y-2324023D01*
G01X2546858Y-2317673D01*
G01X2531364Y-2293035D02*
G01X2525268Y-2299131D01*
G01X2522220Y-2308529D01*
G01X2522220Y-2317673D01*
G01X2525268Y-2324023D01*
G01X2528316Y-2327071D01*
G01X2549906Y-2293035D02*
G01X2546858Y-2317673D01*
G01X2546858Y-2324023D01*
G01X2553208Y-2327071D01*
G01X2559304Y-2327071D01*
G01X2565400Y-2320721D01*
G01X2568448Y-2311577D01*
G01X2568448Y-2305227D01*
G01X2565400Y-2296083D01*
G01X2562352Y-2289987D01*
G01X2556256Y-2283637D01*
G01X2549906Y-2280589D01*
G01X2540762Y-2277541D01*
G01X2531364Y-2277541D01*
G01X2522220Y-2280589D01*
G01X2515870Y-2283637D01*
G01X2509774Y-2289987D01*
G01X2506726Y-2296083D01*
G01X2503678Y-2305227D01*
G01X2503678Y-2314625D01*
G01X2506726Y-2324023D01*
G01X2509774Y-2330119D01*
G01X2515870Y-2336215D01*
G01X2522220Y-2339517D01*
G01X2531364Y-2342565D01*
G01X2540762Y-2342565D01*
G01X2549906Y-2339517D01*
G01X2556256Y-2336215D01*
G01X2559304Y-2333167D01*
G01X2553208Y-2293035D02*
G01X2549906Y-2317673D01*
G01X2549906Y-2324023D01*
G01X2553208Y-2327071D01*
G01X2632710Y-2308529D02*
G01X2629408Y-2302179D01*
G01X2620264Y-2299131D01*
G01X2610866Y-2299131D01*
G01X2601722Y-2302179D01*
G01X2598674Y-2308529D01*
G01X2601722Y-2314625D01*
G01X2607818Y-2317673D01*
G01X2623312Y-2320721D01*
G01X2629408Y-2324023D01*
G01X2632710Y-2330119D01*
G01X2632710Y-2333167D01*
G01X2629408Y-2339517D01*
G01X2620264Y-2342565D01*
G01X2610866Y-2342565D01*
G01X2601722Y-2339517D01*
G01X2598674Y-2333167D01*
G01X2700020Y-2277541D02*
G01X2700020Y-2342565D01*
G01X2700020Y-2308529D02*
G01X2693670Y-2302179D01*
G01X2687574Y-2299131D01*
G01X2678176Y-2299131D01*
G01X2672080Y-2302179D01*
G01X2665984Y-2308529D01*
G01X2662936Y-2317673D01*
G01X2662936Y-2324023D01*
G01X2665984Y-2333167D01*
G01X2672080Y-2339517D01*
G01X2678176Y-2342565D01*
G01X2687574Y-2342565D01*
G01X2693670Y-2339517D01*
G01X2700020Y-2333167D01*
G01X2730246Y-2299131D02*
G01X2730246Y-2342565D01*
G01X2730246Y-2311577D02*
G01X2739390Y-2302179D01*
G01X2745486Y-2299131D01*
G01X2754884Y-2299131D01*
G01X2760980Y-2302179D01*
G01X2764282Y-2311577D01*
G01X2764282Y-2342565D01*
G01X2764282Y-2311577D02*
G01X2773426Y-2302179D01*
G01X2779776Y-2299131D01*
G01X2788920Y-2299131D01*
G01X2795016Y-2302179D01*
G01X2798318Y-2311577D01*
G01X2798318Y-2342565D01*
G01X2831592Y-2327071D02*
G01X2828544Y-2330119D01*
G01X2831592Y-2333167D01*
G01X2834640Y-2330119D01*
G01X2831592Y-2327071D01*
G01X2864866Y-2299131D02*
G01X2864866Y-2342565D01*
G01X2864866Y-2311577D02*
G01X2874010Y-2302179D01*
G01X2880106Y-2299131D01*
G01X2889504Y-2299131D01*
G01X2895600Y-2302179D01*
G01X2898902Y-2311577D01*
G01X2898902Y-2342565D01*
G01X2963164Y-2299131D02*
G01X2929128Y-2342565D01*
G01X2929128Y-2299131D02*
G01X2963164Y-2299131D01*
G01X2929128Y-2342565D02*
G01X2963164Y-2342565D01*
G01X1722120Y754634D02*
G01X1722120Y708152D01*
G01X1725168Y699008D01*
G01X1731518Y692658D01*
G01X1740662Y689610D01*
G01X1747012Y689610D01*
G01X1756156Y692658D01*
G01X1762252Y699008D01*
G01X1765554Y708152D01*
G01X1765554Y754634D01*
G01X1795780Y754634D02*
G01X1795780Y689610D01*
G01X1795780Y754634D02*
G01X1823466Y754634D01*
G01X1832864Y751586D01*
G01X1835912Y748538D01*
G01X1838960Y742188D01*
G01X1838960Y733044D01*
G01X1835912Y726948D01*
G01X1832864Y723646D01*
G01X1823466Y720598D01*
G01X1795780Y720598D01*
G01X1869186Y754634D02*
G01X1869186Y689610D01*
G01X1869186Y754634D02*
G01X1890776Y754634D01*
G01X1899920Y751586D01*
G01X1906270Y745490D01*
G01X1909318Y739140D01*
G01X1912366Y729996D01*
G01X1912366Y714502D01*
G01X1909318Y705104D01*
G01X1906270Y699008D01*
G01X1899920Y692658D01*
G01X1890776Y689610D01*
G01X1869186Y689610D01*
G01X1942592Y754634D02*
G01X1942592Y689610D01*
G01X1765046Y1024890D02*
G01X1761998Y1031240D01*
G01X1755648Y1037336D01*
G01X1749552Y1040384D01*
G01X1737106Y1040384D01*
G01X1731010Y1037336D01*
G01X1724660Y1031240D01*
G01X1721612Y1024890D01*
G01X1718564Y1015746D01*
G01X1718564Y1000252D01*
G01X1721612Y990854D01*
G01X1724660Y984758D01*
G01X1731010Y978408D01*
G01X1737106Y975360D01*
G01X1749552Y975360D01*
G01X1755648Y978408D01*
G01X1761998Y984758D01*
G01X1765046Y990854D01*
G01X1765046Y1000252D01*
G01X1749552Y1000252D02*
G01X1765046Y1000252D01*
G01X1795272Y1040384D02*
G01X1795272Y975360D01*
G01X1795272Y1040384D02*
G01X1838452Y975360D01*
G01X1838452Y1040384D02*
G01X1838452Y975360D01*
G01X1868678Y1040384D02*
G01X1868678Y975360D01*
G01X1868678Y1040384D02*
G01X1890268Y1040384D01*
G01X1899412Y1037336D01*
G01X1905762Y1031240D01*
G01X1908810Y1024890D01*
G01X1911858Y1015746D01*
G01X1911858Y1000252D01*
G01X1908810Y990854D01*
G01X1905762Y984758D01*
G01X1899412Y978408D01*
G01X1890268Y975360D01*
G01X1868678Y975360D01*
G01X1755648Y227584D02*
G01X1724660Y227584D01*
G01X1721612Y199898D01*
G01X1724660Y202946D01*
G01X1734058Y205994D01*
G01X1743456Y205994D01*
G01X1752600Y202946D01*
G01X1758696Y196596D01*
G01X1761998Y187452D01*
G01X1761998Y181102D01*
G01X1758696Y171958D01*
G01X1752600Y165608D01*
G01X1743456Y162560D01*
G01X1734058Y162560D01*
G01X1724660Y165608D01*
G01X1721612Y168910D01*
G01X1718564Y175006D01*
G01X1792224Y227584D02*
G01X1816862Y162560D01*
G01X1841754Y227584D02*
G01X1816862Y162560D01*
G01X1768602Y472440D02*
G01X1765554Y478790D01*
G01X1759204Y484886D01*
G01X1753108Y487934D01*
G01X1740662Y487934D01*
G01X1734566Y484886D01*
G01X1728216Y478790D01*
G01X1725168Y472440D01*
G01X1722120Y463296D01*
G01X1722120Y447802D01*
G01X1725168Y438404D01*
G01X1728216Y432308D01*
G01X1734566Y425958D01*
G01X1740662Y422910D01*
G01X1753108Y422910D01*
G01X1759204Y425958D01*
G01X1765554Y432308D01*
G01X1768602Y438404D01*
G01X1768602Y447802D01*
G01X1753108Y447802D02*
G01X1768602Y447802D01*
G01X1798828Y487934D02*
G01X1798828Y422910D01*
G01X1798828Y487934D02*
G01X1842008Y422910D01*
G01X1842008Y487934D02*
G01X1842008Y422910D01*
G01X1872234Y487934D02*
G01X1872234Y422910D01*
G01X1872234Y487934D02*
G01X1893824Y487934D01*
G01X1902968Y484886D01*
G01X1909318Y478790D01*
G01X1912366Y472440D01*
G01X1915414Y463296D01*
G01X1915414Y447802D01*
G01X1912366Y438404D01*
G01X1909318Y432308D01*
G01X1902968Y425958D01*
G01X1893824Y422910D01*
G01X1872234Y422910D01*
G01X-3535680Y-159766D02*
G01X-3535680Y-224790D01*
G01X-3535680Y-159766D02*
G01X-3507740Y-159766D01*
G01X-3498596Y-162814D01*
G01X-3495548Y-165862D01*
G01X-3492246Y-172212D01*
G01X-3492246Y-178308D01*
G01X-3495548Y-184404D01*
G01X-3498596Y-187452D01*
G01X-3507740Y-190754D01*
G01X-3535680Y-190754D01*
G01X-3514090Y-190754D02*
G01X-3492246Y-224790D01*
G01X-3462020Y-199898D02*
G01X-3424936Y-199898D01*
G01X-3424936Y-193802D01*
G01X-3427984Y-187452D01*
G01X-3431286Y-184404D01*
G01X-3437382Y-181356D01*
G01X-3446780Y-181356D01*
G01X-3452876Y-184404D01*
G01X-3458972Y-190754D01*
G01X-3462020Y-199898D01*
G01X-3462020Y-206248D01*
G01X-3458972Y-215392D01*
G01X-3452876Y-221742D01*
G01X-3446780Y-224790D01*
G01X-3437382Y-224790D01*
G01X-3431286Y-221742D01*
G01X-3424936Y-215392D01*
G01X-3394710Y-159766D02*
G01X-3394710Y-224790D01*
G01X-3327400Y-181356D02*
G01X-3327400Y-224790D01*
G01X-3327400Y-190754D02*
G01X-3333750Y-184404D01*
G01X-3339846Y-181356D01*
G01X-3349244Y-181356D01*
G01X-3355340Y-184404D01*
G01X-3361436Y-190754D01*
G01X-3364484Y-199898D01*
G01X-3364484Y-206248D01*
G01X-3361436Y-215392D01*
G01X-3355340Y-221742D01*
G01X-3349244Y-224790D01*
G01X-3339846Y-224790D01*
G01X-3333750Y-221742D01*
G01X-3327400Y-215392D01*
G01X-3294126Y-181356D02*
G01X-3275584Y-224790D01*
G01X-3257042Y-181356D02*
G01X-3275584Y-224790D01*
G01X-3281934Y-236982D01*
G01X-3288030Y-243332D01*
G01X-3294126Y-246380D01*
G01X-3297174Y-246380D01*
G01X-30988Y1148334D02*
G01X-55880Y1083310D01*
G01X-30988Y1148334D02*
G01X-6350Y1083310D01*
G01X-46482Y1105154D02*
G01X-15748Y1105154D01*
G01X45466Y1148334D02*
G01X45466Y1083310D01*
G01X23876Y1148334D02*
G01X67056Y1148334D01*
G01X118872Y1148334D02*
G01X118872Y1083310D01*
G01X97282Y1148334D02*
G01X140462Y1148334D01*
G01X170688Y1148334D02*
G01X170688Y1083310D01*
G01X200914Y1148334D02*
G01X200914Y1083310D01*
G01X200914Y1148334D02*
G01X244094Y1083310D01*
G01X244094Y1148334D02*
G01X244094Y1083310D01*
G01X274320Y1148334D02*
G01X298958Y1117346D01*
G01X298958Y1083310D01*
G01X323850Y1148334D02*
G01X298958Y1117346D01*
G01X357124Y1132840D02*
G01X357124Y1135888D01*
G01X360172Y1142238D01*
G01X363220Y1145286D01*
G01X369316Y1148334D01*
G01X381762Y1148334D01*
G01X388112Y1145286D01*
G01X391160Y1142238D01*
G01X394208Y1135888D01*
G01X394208Y1129792D01*
G01X391160Y1123696D01*
G01X384810Y1114298D01*
G01X354076Y1083310D01*
G01X397256Y1083310D01*
G01X446024Y1148334D02*
G01X436626Y1145286D01*
G01X430530Y1135888D01*
G01X427482Y1120648D01*
G01X427482Y1111250D01*
G01X430530Y1095756D01*
G01X436626Y1086358D01*
G01X446024Y1083310D01*
G01X452120Y1083310D01*
G01X461518Y1086358D01*
G01X467614Y1095756D01*
G01X470662Y1111250D01*
G01X470662Y1120648D01*
G01X467614Y1135888D01*
G01X461518Y1145286D01*
G01X452120Y1148334D01*
G01X446024Y1148334D01*
G01X503936Y1132840D02*
G01X503936Y1135888D01*
G01X506984Y1142238D01*
G01X510032Y1145286D01*
G01X516128Y1148334D01*
G01X528574Y1148334D01*
G01X534924Y1145286D01*
G01X537972Y1142238D01*
G01X541020Y1135888D01*
G01X541020Y1129792D01*
G01X537972Y1123696D01*
G01X531622Y1114298D01*
G01X500888Y1083310D01*
G01X544068Y1083310D01*
G01X-3730498Y15240D02*
G01X-3733546Y21590D01*
G01X-3739896Y27686D01*
G01X-3745992Y30734D01*
G01X-3758438Y30734D01*
G01X-3764534Y27686D01*
G01X-3770884Y21590D01*
G01X-3773932Y15240D01*
G01X-3776980Y6096D01*
G01X-3776980Y-9398D01*
G01X-3773932Y-18796D01*
G01X-3770884Y-24892D01*
G01X-3764534Y-31242D01*
G01X-3758438Y-34290D01*
G01X-3745992Y-34290D01*
G01X-3739896Y-31242D01*
G01X-3733546Y-24892D01*
G01X-3730498Y-18796D01*
G01X-3700272Y30734D02*
G01X-3700272Y-34290D01*
G01X-3700272Y30734D02*
G01X-3657092Y-34290D01*
G01X-3657092Y30734D02*
G01X-3657092Y-34290D01*
G01X-3623818Y15240D02*
G01X-3623818Y18288D01*
G01X-3620770Y24638D01*
G01X-3617722Y27686D01*
G01X-3611626Y30734D01*
G01X-3599180Y30734D01*
G01X-3592830Y27686D01*
G01X-3589782Y24638D01*
G01X-3586734Y18288D01*
G01X-3586734Y12192D01*
G01X-3589782Y6096D01*
G01X-3596132Y-3302D01*
G01X-3626866Y-34290D01*
G01X-3583686Y-34290D01*
G01X-3616198Y-429260D02*
G01X-3619246Y-422910D01*
G01X-3625596Y-416814D01*
G01X-3631692Y-413766D01*
G01X-3644138Y-413766D01*
G01X-3650234Y-416814D01*
G01X-3656584Y-422910D01*
G01X-3659632Y-429260D01*
G01X-3662680Y-438404D01*
G01X-3662680Y-453898D01*
G01X-3659632Y-463296D01*
G01X-3656584Y-469392D01*
G01X-3650234Y-475742D01*
G01X-3644138Y-478790D01*
G01X-3631692Y-478790D01*
G01X-3625596Y-475742D01*
G01X-3619246Y-469392D01*
G01X-3616198Y-463296D01*
G01X-3585972Y-426212D02*
G01X-3579876Y-422910D01*
G01X-3570732Y-413766D01*
G01X-3570732Y-478790D01*
G01X-3091180Y-438912D02*
G01X-3085084Y-435610D01*
G01X-3075686Y-426466D01*
G01X-3075686Y-491490D01*
G01X-3045460Y-448056D02*
G01X-3045460Y-479044D01*
G01X-3042412Y-488442D01*
G01X-3036316Y-491490D01*
G01X-3026918Y-491490D01*
G01X-3020822Y-488442D01*
G01X-3011424Y-479044D01*
G01X-3011424Y-448056D02*
G01X-3011424Y-491490D01*
G01X-2981198Y-426466D02*
G01X-2981198Y-491490D01*
G01X-2981198Y-426466D02*
G01X-2941066Y-426466D01*
G01X-2981198Y-457454D02*
G01X-2956560Y-457454D01*
G01X-504698Y1145540D02*
G01X-507746Y1151890D01*
G01X-514096Y1157986D01*
G01X-520192Y1161034D01*
G01X-532638Y1161034D01*
G01X-538734Y1157986D01*
G01X-545084Y1151890D01*
G01X-548132Y1145540D01*
G01X-551180Y1136396D01*
G01X-551180Y1120902D01*
G01X-548132Y1111504D01*
G01X-545084Y1105408D01*
G01X-538734Y1099058D01*
G01X-532638Y1096010D01*
G01X-520192Y1096010D01*
G01X-514096Y1099058D01*
G01X-507746Y1105408D01*
G01X-504698Y1111504D01*
G01X-471424Y1145540D02*
G01X-471424Y1148588D01*
G01X-468376Y1154938D01*
G01X-465328Y1157986D01*
G01X-459232Y1161034D01*
G01X-446786Y1161034D01*
G01X-440436Y1157986D01*
G01X-437388Y1154938D01*
G01X-434340Y1148588D01*
G01X-434340Y1142492D01*
G01X-437388Y1136396D01*
G01X-443738Y1126998D01*
G01X-474472Y1096010D01*
G01X-431292Y1096010D01*
G01X-335280Y1148588D02*
G01X-329184Y1151890D01*
G01X-319786Y1161034D01*
G01X-319786Y1096010D01*
G01X-289560Y1139444D02*
G01X-289560Y1108456D01*
G01X-286512Y1099058D01*
G01X-280416Y1096010D01*
G01X-271018Y1096010D01*
G01X-264922Y1099058D01*
G01X-255524Y1108456D01*
G01X-255524Y1139444D02*
G01X-255524Y1096010D01*
G01X-225298Y1161034D02*
G01X-225298Y1096010D01*
G01X-225298Y1161034D02*
G01X-185166Y1161034D01*
G01X-225298Y1130046D02*
G01X-200660Y1130046D01*
G01X-885698Y1170940D02*
G01X-888746Y1177290D01*
G01X-895096Y1183386D01*
G01X-901192Y1186434D01*
G01X-913638Y1186434D01*
G01X-919734Y1183386D01*
G01X-926084Y1177290D01*
G01X-929132Y1170940D01*
G01X-932180Y1161796D01*
G01X-932180Y1146302D01*
G01X-929132Y1136904D01*
G01X-926084Y1130808D01*
G01X-919734Y1124458D01*
G01X-913638Y1121410D01*
G01X-901192Y1121410D01*
G01X-895096Y1124458D01*
G01X-888746Y1130808D01*
G01X-885698Y1136904D01*
G01X-855472Y1186434D02*
G01X-855472Y1121410D01*
G01X-855472Y1186434D02*
G01X-812292Y1121410D01*
G01X-812292Y1186434D02*
G01X-812292Y1121410D01*
G01X-782066Y1173988D02*
G01X-775970Y1177290D01*
G01X-766826Y1186434D01*
G01X-766826Y1121410D01*
G01X-995680Y1796034D02*
G01X-995680Y1731010D01*
G01X-995680Y1796034D02*
G01X-967740Y1796034D01*
G01X-958596Y1792986D01*
G01X-955548Y1789938D01*
G01X-952246Y1783588D01*
G01X-952246Y1774444D01*
G01X-955548Y1768348D01*
G01X-958596Y1765046D01*
G01X-967740Y1761998D01*
G01X-995680Y1761998D01*
G01X-922020Y1796034D02*
G01X-918972Y1792986D01*
G01X-915924Y1796034D01*
G01X-918972Y1799082D01*
G01X-922020Y1796034D01*
G01X-918972Y1774444D02*
G01X-918972Y1731010D01*
G01X-885698Y1755902D02*
G01X-848614Y1755902D01*
G01X-848614Y1761998D01*
G01X-851662Y1768348D01*
G01X-854964Y1771396D01*
G01X-861060Y1774444D01*
G01X-870458Y1774444D01*
G01X-876554Y1771396D01*
G01X-882650Y1765046D01*
G01X-885698Y1755902D01*
G01X-885698Y1749552D01*
G01X-882650Y1740408D01*
G01X-876554Y1734058D01*
G01X-870458Y1731010D01*
G01X-861060Y1731010D01*
G01X-854964Y1734058D01*
G01X-848614Y1740408D01*
G01X-784352Y1774444D02*
G01X-818388Y1731010D01*
G01X-818388Y1774444D02*
G01X-784352Y1774444D01*
G01X-818388Y1731010D02*
G01X-784352Y1731010D01*
G01X-738886Y1774444D02*
G01X-744982Y1771396D01*
G01X-751078Y1765046D01*
G01X-754126Y1755902D01*
G01X-754126Y1749552D01*
G01X-751078Y1740408D01*
G01X-744982Y1734058D01*
G01X-738886Y1731010D01*
G01X-729488Y1731010D01*
G01X-723392Y1734058D01*
G01X-717042Y1740408D01*
G01X-713994Y1749552D01*
G01X-713994Y1755902D01*
G01X-717042Y1765046D01*
G01X-723392Y1771396D01*
G01X-729488Y1774444D01*
G01X-738886Y1774444D01*
G01X-126238Y2113534D02*
G01X-132334Y2110486D01*
G01X-138684Y2104390D01*
G01X-141732Y2098040D01*
G01X-144780Y2088896D01*
G01X-144780Y2073402D01*
G01X-141732Y2064004D01*
G01X-138684Y2057908D01*
G01X-132334Y2051558D01*
G01X-126238Y2048510D01*
G01X-113792Y2048510D01*
G01X-107696Y2051558D01*
G01X-101346Y2057908D01*
G01X-98298Y2064004D01*
G01X-95250Y2073402D01*
G01X-95250Y2088896D01*
G01X-98298Y2098040D01*
G01X-101346Y2104390D01*
G01X-107696Y2110486D01*
G01X-113792Y2113534D01*
G01X-126238Y2113534D01*
G01X-116840Y2060956D02*
G01X-98298Y2042414D01*
G01X-65024Y2101088D02*
G01X-58928Y2104390D01*
G01X-49784Y2113534D01*
G01X-49784Y2048510D01*
G01X48768Y1882140D02*
G01X48768Y1885188D01*
G01X51816Y1891538D01*
G01X55118Y1894586D01*
G01X61214Y1897634D01*
G01X73660Y1897634D01*
G01X79756Y1894586D01*
G01X82804Y1891538D01*
G01X85852Y1885188D01*
G01X85852Y1879092D01*
G01X82804Y1872996D01*
G01X76708Y1863598D01*
G01X45720Y1832610D01*
G01X89154Y1832610D01*
G01X119380Y1897634D02*
G01X119380Y1832610D01*
G01X119380Y1897634D02*
G01X162560Y1832610D01*
G01X162560Y1897634D02*
G01X162560Y1832610D01*
G01X235966Y1897634D02*
G01X204978Y1832610D01*
G01X192786Y1897634D02*
G01X235966Y1897634D01*
G01X284734Y1897634D02*
G01X275336Y1894586D01*
G01X269240Y1885188D01*
G01X266192Y1869948D01*
G01X266192Y1860550D01*
G01X269240Y1845056D01*
G01X275336Y1835658D01*
G01X284734Y1832610D01*
G01X290830Y1832610D01*
G01X300228Y1835658D01*
G01X306324Y1845056D01*
G01X309372Y1860550D01*
G01X309372Y1869948D01*
G01X306324Y1885188D01*
G01X300228Y1894586D01*
G01X290830Y1897634D01*
G01X284734Y1897634D01*
G01X358140Y1897634D02*
G01X348742Y1894586D01*
G01X342646Y1885188D01*
G01X339598Y1869948D01*
G01X339598Y1860550D01*
G01X342646Y1845056D01*
G01X348742Y1835658D01*
G01X358140Y1832610D01*
G01X364236Y1832610D01*
G01X373634Y1835658D01*
G01X379730Y1845056D01*
G01X382778Y1860550D01*
G01X382778Y1869948D01*
G01X379730Y1885188D01*
G01X373634Y1894586D01*
G01X364236Y1897634D01*
G01X358140Y1897634D01*
G01X416052Y1882140D02*
G01X416052Y1885188D01*
G01X419100Y1891538D01*
G01X422148Y1894586D01*
G01X428244Y1897634D01*
G01X440690Y1897634D01*
G01X447040Y1894586D01*
G01X450088Y1891538D01*
G01X453136Y1885188D01*
G01X453136Y1879092D01*
G01X450088Y1872996D01*
G01X443738Y1863598D01*
G01X413004Y1832610D01*
G01X456184Y1832610D01*
G01X-1014313Y691988D02*
G01X-1014313Y626964D01*
G01X-1014313Y691988D02*
G01X-986373Y691988D01*
G01X-977229Y688940D01*
G01X-974181Y685892D01*
G01X-970879Y679542D01*
G01X-970879Y673446D01*
G01X-974181Y667350D01*
G01X-977229Y664302D01*
G01X-986373Y661000D01*
G01X-1014313Y661000D01*
G01X-992723Y661000D02*
G01X-970879Y626964D01*
G01X-940653Y679542D02*
G01X-934557Y682844D01*
G01X-925413Y691988D01*
G01X-925413Y626964D01*
G01X-817880Y681813D02*
G01X-811784Y685115D01*
G01X-802386Y694259D01*
G01X-802386Y629235D01*
G01X-753618Y694259D02*
G01X-763016Y691211D01*
G01X-769112Y681813D01*
G01X-772160Y666573D01*
G01X-772160Y657175D01*
G01X-769112Y641681D01*
G01X-763016Y632283D01*
G01X-753618Y629235D01*
G01X-747522Y629235D01*
G01X-738124Y632283D01*
G01X-732028Y641681D01*
G01X-728980Y657175D01*
G01X-728980Y666573D01*
G01X-732028Y681813D01*
G01X-738124Y691211D01*
G01X-747522Y694259D01*
G01X-753618Y694259D01*
G01X-698754Y694259D02*
G01X-698754Y629235D01*
G01X-668020Y672669D02*
G01X-698754Y641681D01*
G01X-686562Y654127D02*
G01X-664718Y629235D01*
G01X-634492Y629235D02*
G01X-612902Y629235D01*
G01X-619252Y638633D01*
G01X-625348Y647777D01*
G01X-628396Y657175D01*
G01X-628396Y666573D01*
G01X-625348Y675717D01*
G01X-622300Y681813D01*
G01X-615950Y688163D01*
G01X-609854Y691211D01*
G01X-597408Y691211D01*
G01X-591312Y688163D01*
G01X-584962Y681813D01*
G01X-581914Y675717D01*
G01X-578866Y666573D01*
G01X-578866Y657175D01*
G01X-581914Y647777D01*
G01X-588264Y638633D01*
G01X-594360Y629235D01*
G01X-572770Y629235D01*
G01X-1014313Y310988D02*
G01X-1014313Y245964D01*
G01X-1014313Y310988D02*
G01X-986373Y310988D01*
G01X-977229Y307940D01*
G01X-974181Y304892D01*
G01X-970879Y298542D01*
G01X-970879Y292446D01*
G01X-974181Y286350D01*
G01X-977229Y283302D01*
G01X-986373Y280000D01*
G01X-1014313Y280000D01*
G01X-992723Y280000D02*
G01X-970879Y245964D01*
G01X-937605Y295494D02*
G01X-937605Y298542D01*
G01X-934557Y304892D01*
G01X-931509Y307940D01*
G01X-925413Y310988D01*
G01X-912967Y310988D01*
G01X-906617Y307940D01*
G01X-903569Y304892D01*
G01X-900521Y298542D01*
G01X-900521Y292446D01*
G01X-903569Y286350D01*
G01X-909919Y276952D01*
G01X-940653Y245964D01*
G01X-897473Y245964D01*
G01X-755396Y304115D02*
G01X-758444Y310211D01*
G01X-767588Y313259D01*
G01X-773938Y313259D01*
G01X-783082Y310211D01*
G01X-789432Y300813D01*
G01X-792480Y285573D01*
G01X-792480Y270079D01*
G01X-789432Y257633D01*
G01X-783082Y251283D01*
G01X-773938Y248235D01*
G01X-770890Y248235D01*
G01X-761492Y251283D01*
G01X-755396Y257633D01*
G01X-752348Y266777D01*
G01X-752348Y270079D01*
G01X-755396Y279223D01*
G01X-761492Y285573D01*
G01X-770890Y288621D01*
G01X-773938Y288621D01*
G01X-783082Y285573D01*
G01X-789432Y279223D01*
G01X-792480Y270079D01*
G01X-719074Y263729D02*
G01X-722122Y260681D01*
G01X-719074Y257633D01*
G01X-716026Y260681D01*
G01X-719074Y263729D01*
G01X-682752Y297765D02*
G01X-682752Y300813D01*
G01X-679704Y307163D01*
G01X-676656Y310211D01*
G01X-670560Y313259D01*
G01X-658114Y313259D01*
G01X-651764Y310211D01*
G01X-648716Y307163D01*
G01X-645668Y300813D01*
G01X-645668Y294717D01*
G01X-648716Y288621D01*
G01X-655066Y279223D01*
G01X-685800Y248235D01*
G01X-642620Y248235D01*
G01X-612394Y313259D02*
G01X-612394Y248235D01*
G01X-581660Y291669D02*
G01X-612394Y260681D01*
G01X-600202Y273127D02*
G01X-578358Y248235D01*
G01X-548132Y248235D02*
G01X-526542Y248235D01*
G01X-532892Y257633D01*
G01X-538988Y266777D01*
G01X-542036Y276175D01*
G01X-542036Y285573D01*
G01X-538988Y294717D01*
G01X-535940Y300813D01*
G01X-529590Y307163D01*
G01X-523494Y310211D01*
G01X-511048Y310211D01*
G01X-504952Y307163D01*
G01X-498602Y300813D01*
G01X-495554Y294717D01*
G01X-492506Y285573D01*
G01X-492506Y276175D01*
G01X-495554Y266777D01*
G01X-501904Y257633D01*
G01X-508000Y248235D01*
G01X-486410Y248235D01*
G01X-474980Y2342134D02*
G01X-474980Y2277110D01*
G01X-474980Y2342134D02*
G01X-447040Y2342134D01*
G01X-437896Y2339086D01*
G01X-434848Y2336038D01*
G01X-431546Y2329688D01*
G01X-431546Y2323592D01*
G01X-434848Y2317496D01*
G01X-437896Y2314448D01*
G01X-447040Y2311146D01*
G01X-474980Y2311146D01*
G01X-453390Y2311146D02*
G01X-431546Y2277110D01*
G01X-395224Y2342134D02*
G01X-361188Y2342134D01*
G01X-379730Y2317496D01*
G01X-370586Y2317496D01*
G01X-364236Y2314448D01*
G01X-361188Y2311146D01*
G01X-358140Y2302002D01*
G01X-358140Y2295652D01*
G01X-361188Y2286508D01*
G01X-367284Y2280158D01*
G01X-376682Y2277110D01*
G01X-386080Y2277110D01*
G01X-395224Y2280158D01*
G01X-398272Y2283460D01*
G01X-401320Y2289556D01*
G01X-532384Y1859534D02*
G01X-498348Y1859534D01*
G01X-516890Y1834896D01*
G01X-507492Y1834896D01*
G01X-501396Y1831848D01*
G01X-498348Y1828546D01*
G01X-495046Y1819402D01*
G01X-495046Y1813052D01*
G01X-498348Y1803908D01*
G01X-504444Y1797558D01*
G01X-513588Y1794510D01*
G01X-522986Y1794510D01*
G01X-532384Y1797558D01*
G01X-535432Y1800860D01*
G01X-538480Y1806956D01*
G01X-424688Y1837944D02*
G01X-427736Y1828546D01*
G01X-434086Y1822450D01*
G01X-443230Y1819402D01*
G01X-446278Y1819402D01*
G01X-455676Y1822450D01*
G01X-461772Y1828546D01*
G01X-464820Y1837944D01*
G01X-464820Y1840992D01*
G01X-461772Y1850390D01*
G01X-455676Y1856486D01*
G01X-446278Y1859534D01*
G01X-443230Y1859534D01*
G01X-434086Y1856486D01*
G01X-427736Y1850390D01*
G01X-424688Y1837944D01*
G01X-424688Y1822450D01*
G01X-427736Y1806956D01*
G01X-434086Y1797558D01*
G01X-443230Y1794510D01*
G01X-449580Y1794510D01*
G01X-458724Y1797558D01*
G01X-461772Y1803908D01*
G01X-375920Y1859534D02*
G01X-385318Y1856486D01*
G01X-391414Y1847088D01*
G01X-394462Y1831848D01*
G01X-394462Y1822450D01*
G01X-391414Y1806956D01*
G01X-385318Y1797558D01*
G01X-375920Y1794510D01*
G01X-369824Y1794510D01*
G01X-360426Y1797558D01*
G01X-354330Y1806956D01*
G01X-351282Y1822450D01*
G01X-351282Y1831848D01*
G01X-354330Y1847088D01*
G01X-360426Y1856486D01*
G01X-369824Y1859534D01*
G01X-375920Y1859534D01*
G01X-321056Y1794510D02*
G01X-299466Y1794510D01*
G01X-305816Y1803908D01*
G01X-311912Y1813052D01*
G01X-314960Y1822450D01*
G01X-314960Y1831848D01*
G01X-311912Y1840992D01*
G01X-308864Y1847088D01*
G01X-302514Y1853438D01*
G01X-296418Y1856486D01*
G01X-283972Y1856486D01*
G01X-277876Y1853438D01*
G01X-271526Y1847088D01*
G01X-268478Y1840992D01*
G01X-265430Y1831848D01*
G01X-265430Y1822450D01*
G01X-268478Y1813052D01*
G01X-274828Y1803908D01*
G01X-280924Y1794510D01*
G01X-259334Y1794510D01*
G01X-460263Y-604788D02*
G01X-395239Y-604788D01*
G01X-460263Y-604788D02*
G01X-460263Y-576848D01*
G01X-457215Y-567704D01*
G01X-454167Y-564656D01*
G01X-447817Y-561354D01*
G01X-441721Y-561354D01*
G01X-435625Y-564656D01*
G01X-432577Y-567704D01*
G01X-429275Y-576848D01*
G01X-429275Y-604788D01*
G01X-429275Y-583198D02*
G01X-395239Y-561354D01*
G01X-460263Y-494044D02*
G01X-460263Y-525032D01*
G01X-432577Y-528080D01*
G01X-435625Y-525032D01*
G01X-438673Y-515888D01*
G01X-438673Y-506490D01*
G01X-435625Y-497092D01*
G01X-429275Y-490996D01*
G01X-420131Y-487948D01*
G01X-413781Y-487948D01*
G01X-404637Y-490996D01*
G01X-398287Y-497092D01*
G01X-395239Y-506490D01*
G01X-395239Y-515888D01*
G01X-398287Y-525032D01*
G01X-401589Y-528080D01*
G01X-407685Y-531128D01*
G01X-450088Y-408355D02*
G01X-453390Y-402259D01*
G01X-462534Y-392861D01*
G01X-397510Y-392861D01*
G01X-462534Y-362635D02*
G01X-397510Y-362635D01*
G01X-440944Y-331901D02*
G01X-409956Y-362635D01*
G01X-422402Y-350443D02*
G01X-397510Y-328599D01*
G01X-397510Y-298373D02*
G01X-397510Y-276783D01*
G01X-406908Y-283133D01*
G01X-416052Y-289229D01*
G01X-425450Y-292277D01*
G01X-434848Y-292277D01*
G01X-443992Y-289229D01*
G01X-450088Y-286181D01*
G01X-456438Y-279831D01*
G01X-459486Y-273735D01*
G01X-459486Y-261289D01*
G01X-456438Y-255193D01*
G01X-450088Y-248843D01*
G01X-443992Y-245795D01*
G01X-434848Y-242747D01*
G01X-425450Y-242747D01*
G01X-416052Y-245795D01*
G01X-406908Y-252145D01*
G01X-397510Y-258241D01*
G01X-397510Y-236651D01*
G01X-3992880Y1097534D02*
G01X-3992880Y1032510D01*
G01X-3992880Y1097534D02*
G01X-3964940Y1097534D01*
G01X-3955796Y1094486D01*
G01X-3952748Y1091438D01*
G01X-3949446Y1085088D01*
G01X-3949446Y1078992D01*
G01X-3952748Y1072896D01*
G01X-3955796Y1069848D01*
G01X-3964940Y1066546D01*
G01X-3992880Y1066546D01*
G01X-3971290Y1066546D02*
G01X-3949446Y1032510D01*
G01X-3882136Y1088390D02*
G01X-3885184Y1094486D01*
G01X-3894582Y1097534D01*
G01X-3900678Y1097534D01*
G01X-3910076Y1094486D01*
G01X-3916172Y1085088D01*
G01X-3919220Y1069848D01*
G01X-3919220Y1054354D01*
G01X-3916172Y1041908D01*
G01X-3910076Y1035558D01*
G01X-3900678Y1032510D01*
G01X-3897630Y1032510D01*
G01X-3888486Y1035558D01*
G01X-3882136Y1041908D01*
G01X-3879088Y1051052D01*
G01X-3879088Y1054354D01*
G01X-3882136Y1063498D01*
G01X-3888486Y1069848D01*
G01X-3897630Y1072896D01*
G01X-3900678Y1072896D01*
G01X-3910076Y1069848D01*
G01X-3916172Y1063498D01*
G01X-3919220Y1054354D01*
G01X-4130040Y671068D02*
G01X-4133088Y671068D01*
G01X-4139438Y674116D01*
G01X-4142486Y677418D01*
G01X-4145534Y683514D01*
G01X-4145534Y695960D01*
G01X-4142486Y702056D01*
G01X-4139438Y705104D01*
G01X-4133088Y708152D01*
G01X-4126992Y708152D01*
G01X-4120896Y705104D01*
G01X-4111498Y699008D01*
G01X-4080510Y668020D01*
G01X-4080510Y711454D01*
G01X-4096004Y744728D02*
G01X-4092956Y741680D01*
G01X-4089908Y744728D01*
G01X-4092956Y747776D01*
G01X-4096004Y744728D01*
G01X-4130040Y781050D02*
G01X-4133088Y781050D01*
G01X-4139438Y784098D01*
G01X-4142486Y787146D01*
G01X-4145534Y793242D01*
G01X-4145534Y805688D01*
G01X-4142486Y812038D01*
G01X-4139438Y815086D01*
G01X-4133088Y818134D01*
G01X-4126992Y818134D01*
G01X-4120896Y815086D01*
G01X-4111498Y808736D01*
G01X-4080510Y778002D01*
G01X-4080510Y821182D01*
G01X-4145534Y851408D02*
G01X-4080510Y851408D01*
G01X-4123944Y882142D02*
G01X-4092956Y851408D01*
G01X-4105402Y863600D02*
G01X-4080510Y885444D01*
G01X-4080510Y915670D02*
G01X-4080510Y937260D01*
G01X-4089908Y930910D01*
G01X-4099052Y924814D01*
G01X-4108450Y921766D01*
G01X-4117848Y921766D01*
G01X-4126992Y924814D01*
G01X-4133088Y927862D01*
G01X-4139438Y934212D01*
G01X-4142486Y940308D01*
G01X-4142486Y952754D01*
G01X-4139438Y958850D01*
G01X-4133088Y965200D01*
G01X-4126992Y968248D01*
G01X-4117848Y971296D01*
G01X-4108450Y971296D01*
G01X-4099052Y968248D01*
G01X-4089908Y961898D01*
G01X-4080510Y955802D01*
G01X-4080510Y977392D01*
G01X-2989580Y-1210741D02*
G01X-2989580Y-1257223D01*
G01X-2986532Y-1266367D01*
G01X-2980182Y-1272717D01*
G01X-2971038Y-1275765D01*
G01X-2964688Y-1275765D01*
G01X-2955544Y-1272717D01*
G01X-2949448Y-1266367D01*
G01X-2946146Y-1257223D01*
G01X-2946146Y-1210741D01*
G01X-2915920Y-1223187D02*
G01X-2909824Y-1219885D01*
G01X-2900680Y-1210741D01*
G01X-2900680Y-1275765D01*
G01X-3954780Y-1210741D02*
G01X-3954780Y-1275765D01*
G01X-3954780Y-1275765D02*
G01X-3917696Y-1275765D01*
G01X-3844290Y-1210741D02*
G01X-3875278Y-1275765D01*
G01X-3887470Y-1210741D02*
G01X-3844290Y-1210741D01*
G01X-3798824Y-1210741D02*
G01X-3807968Y-1213789D01*
G01X-3811016Y-1219885D01*
G01X-3811016Y-1226235D01*
G01X-3807968Y-1232331D01*
G01X-3801872Y-1235379D01*
G01X-3789426Y-1238427D01*
G01X-3780028Y-1241729D01*
G01X-3773932Y-1247825D01*
G01X-3770884Y-1253921D01*
G01X-3770884Y-1263319D01*
G01X-3773932Y-1269415D01*
G01X-3776980Y-1272717D01*
G01X-3786378Y-1275765D01*
G01X-3798824Y-1275765D01*
G01X-3807968Y-1272717D01*
G01X-3811016Y-1269415D01*
G01X-3814064Y-1263319D01*
G01X-3814064Y-1253921D01*
G01X-3811016Y-1247825D01*
G01X-3804920Y-1241729D01*
G01X-3795522Y-1238427D01*
G01X-3783330Y-1235379D01*
G01X-3776980Y-1232331D01*
G01X-3773932Y-1226235D01*
G01X-3773932Y-1219885D01*
G01X-3776980Y-1213789D01*
G01X-3786378Y-1210741D01*
G01X-3798824Y-1210741D01*
G01X-3722116Y-1210741D02*
G01X-3731514Y-1213789D01*
G01X-3737610Y-1223187D01*
G01X-3740658Y-1238427D01*
G01X-3740658Y-1247825D01*
G01X-3737610Y-1263319D01*
G01X-3731514Y-1272717D01*
G01X-3722116Y-1275765D01*
G01X-3716020Y-1275765D01*
G01X-3706622Y-1272717D01*
G01X-3700526Y-1263319D01*
G01X-3697478Y-1247825D01*
G01X-3697478Y-1238427D01*
G01X-3700526Y-1223187D01*
G01X-3706622Y-1213789D01*
G01X-3716020Y-1210741D01*
G01X-3722116Y-1210741D01*
G01X-3630168Y-1210741D02*
G01X-3661156Y-1210741D01*
G01X-3664204Y-1238427D01*
G01X-3661156Y-1235379D01*
G01X-3652012Y-1232331D01*
G01X-3642614Y-1232331D01*
G01X-3633216Y-1235379D01*
G01X-3627120Y-1241729D01*
G01X-3624072Y-1250873D01*
G01X-3624072Y-1257223D01*
G01X-3627120Y-1266367D01*
G01X-3633216Y-1272717D01*
G01X-3642614Y-1275765D01*
G01X-3652012Y-1275765D01*
G01X-3661156Y-1272717D01*
G01X-3664204Y-1269415D01*
G01X-3667252Y-1263319D01*
G01X-3547618Y-1226235D02*
G01X-3550666Y-1219885D01*
G01X-3556762Y-1213789D01*
G01X-3563112Y-1210741D01*
G01X-3575304Y-1210741D01*
G01X-3581654Y-1213789D01*
G01X-3587750Y-1219885D01*
G01X-3590798Y-1226235D01*
G01X-3593846Y-1235379D01*
G01X-3593846Y-1250873D01*
G01X-3590798Y-1260271D01*
G01X-3587750Y-1266367D01*
G01X-3581654Y-1272717D01*
G01X-3575304Y-1275765D01*
G01X-3563112Y-1275765D01*
G01X-3556762Y-1272717D01*
G01X-3550666Y-1266367D01*
G01X-3547618Y-1260271D01*
G01X-3517392Y-1210741D02*
G01X-3492754Y-1275765D01*
G01X-3467862Y-1210741D02*
G01X-3492754Y-1275765D01*
G01X71120Y475234D02*
G01X71120Y428752D01*
G01X74168Y419608D01*
G01X80518Y413258D01*
G01X89662Y410210D01*
G01X96012Y410210D01*
G01X105156Y413258D01*
G01X111252Y419608D01*
G01X114554Y428752D01*
G01X114554Y475234D01*
G01X147828Y459740D02*
G01X147828Y462788D01*
G01X150876Y469138D01*
G01X153924Y472186D01*
G01X160020Y475234D01*
G01X172466Y475234D01*
G01X178816Y472186D01*
G01X181864Y469138D01*
G01X184912Y462788D01*
G01X184912Y456692D01*
G01X181864Y450596D01*
G01X175514Y441198D01*
G01X144780Y410210D01*
G01X187960Y410210D01*
G01X-2341880Y-502666D02*
G01X-2341880Y-567690D01*
G01X-2341880Y-502666D02*
G01X-2320290Y-502666D01*
G01X-2310892Y-505714D01*
G01X-2304796Y-511810D01*
G01X-2301748Y-518160D01*
G01X-2298446Y-527304D01*
G01X-2298446Y-542798D01*
G01X-2301748Y-552196D01*
G01X-2304796Y-558292D01*
G01X-2310892Y-564642D01*
G01X-2320290Y-567690D01*
G01X-2341880Y-567690D01*
G01X-2268220Y-515112D02*
G01X-2262124Y-511810D01*
G01X-2252980Y-502666D01*
G01X-2252980Y-567690D01*
G01X-2069846Y-511810D02*
G01X-2076196Y-505714D01*
G01X-2085340Y-502666D01*
G01X-2097786Y-502666D01*
G01X-2107184Y-505714D01*
G01X-2113280Y-511810D01*
G01X-2113280Y-518160D01*
G01X-2110232Y-524256D01*
G01X-2107184Y-527304D01*
G01X-2100834Y-530352D01*
G01X-2082292Y-536702D01*
G01X-2076196Y-539750D01*
G01X-2073148Y-542798D01*
G01X-2069846Y-549148D01*
G01X-2069846Y-558292D01*
G01X-2076196Y-564642D01*
G01X-2085340Y-567690D01*
G01X-2097786Y-567690D01*
G01X-2107184Y-564642D01*
G01X-2113280Y-558292D01*
G01X-1996440Y-511810D02*
G01X-2002536Y-505714D01*
G01X-2011934Y-502666D01*
G01X-2024380Y-502666D01*
G01X-2033524Y-505714D01*
G01X-2039620Y-511810D01*
G01X-2039620Y-518160D01*
G01X-2036572Y-524256D01*
G01X-2033524Y-527304D01*
G01X-2027428Y-530352D01*
G01X-2008886Y-536702D01*
G01X-2002536Y-539750D01*
G01X-1999488Y-542798D01*
G01X-1996440Y-549148D01*
G01X-1996440Y-558292D01*
G01X-2002536Y-564642D01*
G01X-2011934Y-567690D01*
G01X-2024380Y-567690D01*
G01X-2033524Y-564642D01*
G01X-2039620Y-558292D01*
G01X-1966214Y-515112D02*
G01X-1960118Y-511810D01*
G01X-1950974Y-502666D01*
G01X-1950974Y-567690D01*
G01X-1890014Y-502666D02*
G01X-1920748Y-545846D01*
G01X-1874520Y-545846D01*
G01X-1890014Y-502666D02*
G01X-1890014Y-567690D01*
G01X-138938Y1630934D02*
G01X-145034Y1627886D01*
G01X-151384Y1621790D01*
G01X-154432Y1615440D01*
G01X-157480Y1606296D01*
G01X-157480Y1590802D01*
G01X-154432Y1581404D01*
G01X-151384Y1575308D01*
G01X-145034Y1568958D01*
G01X-138938Y1565910D01*
G01X-126492Y1565910D01*
G01X-120396Y1568958D01*
G01X-114046Y1575308D01*
G01X-110998Y1581404D01*
G01X-107950Y1590802D01*
G01X-107950Y1606296D01*
G01X-110998Y1615440D01*
G01X-114046Y1621790D01*
G01X-120396Y1627886D01*
G01X-126492Y1630934D01*
G01X-138938Y1630934D01*
G01X-129540Y1578356D02*
G01X-110998Y1559814D01*
G01X-74676Y1615440D02*
G01X-74676Y1618488D01*
G01X-71628Y1624838D01*
G01X-68580Y1627886D01*
G01X-62484Y1630934D01*
G01X-50038Y1630934D01*
G01X-43688Y1627886D01*
G01X-40640Y1624838D01*
G01X-37592Y1618488D01*
G01X-37592Y1612392D01*
G01X-40640Y1606296D01*
G01X-46990Y1596898D01*
G01X-77724Y1565910D01*
G01X-34544Y1565910D01*
G01X61468Y1399540D02*
G01X61468Y1402588D01*
G01X64516Y1408938D01*
G01X67818Y1411986D01*
G01X73914Y1415034D01*
G01X86360Y1415034D01*
G01X92456Y1411986D01*
G01X95504Y1408938D01*
G01X98552Y1402588D01*
G01X98552Y1396492D01*
G01X95504Y1390396D01*
G01X89408Y1380998D01*
G01X58420Y1350010D01*
G01X101854Y1350010D01*
G01X132080Y1415034D02*
G01X132080Y1350010D01*
G01X132080Y1415034D02*
G01X175260Y1350010D01*
G01X175260Y1415034D02*
G01X175260Y1350010D01*
G01X248666Y1415034D02*
G01X217678Y1350010D01*
G01X205486Y1415034D02*
G01X248666Y1415034D01*
G01X297434Y1415034D02*
G01X288036Y1411986D01*
G01X281940Y1402588D01*
G01X278892Y1387348D01*
G01X278892Y1377950D01*
G01X281940Y1362456D01*
G01X288036Y1353058D01*
G01X297434Y1350010D01*
G01X303530Y1350010D01*
G01X312928Y1353058D01*
G01X319024Y1362456D01*
G01X322072Y1377950D01*
G01X322072Y1387348D01*
G01X319024Y1402588D01*
G01X312928Y1411986D01*
G01X303530Y1415034D01*
G01X297434Y1415034D01*
G01X370840Y1415034D02*
G01X361442Y1411986D01*
G01X355346Y1402588D01*
G01X352298Y1387348D01*
G01X352298Y1377950D01*
G01X355346Y1362456D01*
G01X361442Y1353058D01*
G01X370840Y1350010D01*
G01X376936Y1350010D01*
G01X386334Y1353058D01*
G01X392430Y1362456D01*
G01X395478Y1377950D01*
G01X395478Y1387348D01*
G01X392430Y1402588D01*
G01X386334Y1411986D01*
G01X376936Y1415034D01*
G01X370840Y1415034D01*
G01X428752Y1399540D02*
G01X428752Y1402588D01*
G01X431800Y1408938D01*
G01X434848Y1411986D01*
G01X440944Y1415034D01*
G01X453390Y1415034D01*
G01X459740Y1411986D01*
G01X462788Y1408938D01*
G01X465836Y1402588D01*
G01X465836Y1396492D01*
G01X462788Y1390396D01*
G01X456438Y1380998D01*
G01X425704Y1350010D01*
G01X468884Y1350010D01*
G01X-364447Y571975D02*
G01X-370543Y568927D01*
G01X-376893Y562831D01*
G01X-379941Y556481D01*
G01X-382989Y547337D01*
G01X-382989Y531843D01*
G01X-379941Y522445D01*
G01X-376893Y516349D01*
G01X-370543Y509999D01*
G01X-364447Y506951D01*
G01X-352001Y506951D01*
G01X-345905Y509999D01*
G01X-339555Y516349D01*
G01X-336507Y522445D01*
G01X-333459Y531843D01*
G01X-333459Y547337D01*
G01X-336507Y556481D01*
G01X-339555Y562831D01*
G01X-345905Y568927D01*
G01X-352001Y571975D01*
G01X-364447Y571975D01*
G01X-355049Y519397D02*
G01X-336507Y500855D01*
G01X-297137Y571975D02*
G01X-263101Y571975D01*
G01X-281643Y547337D01*
G01X-272499Y547337D01*
G01X-266149Y544289D01*
G01X-263101Y540987D01*
G01X-260053Y531843D01*
G01X-260053Y525493D01*
G01X-263101Y516349D01*
G01X-269197Y509999D01*
G01X-278595Y506951D01*
G01X-287993Y506951D01*
G01X-297137Y509999D01*
G01X-300185Y513301D01*
G01X-303233Y519397D01*
G01X-433832Y78740D02*
G01X-433832Y81788D01*
G01X-430784Y88138D01*
G01X-427482Y91186D01*
G01X-421386Y94234D01*
G01X-408940Y94234D01*
G01X-402844Y91186D01*
G01X-399796Y88138D01*
G01X-396748Y81788D01*
G01X-396748Y75692D01*
G01X-399796Y69596D01*
G01X-405892Y60198D01*
G01X-436880Y29210D01*
G01X-393446Y29210D01*
G01X-363220Y94234D02*
G01X-363220Y29210D01*
G01X-363220Y94234D02*
G01X-320040Y29210D01*
G01X-320040Y94234D02*
G01X-320040Y29210D01*
G01X-246634Y94234D02*
G01X-277622Y29210D01*
G01X-289814Y94234D02*
G01X-246634Y94234D01*
G01X-197866Y94234D02*
G01X-207264Y91186D01*
G01X-213360Y81788D01*
G01X-216408Y66548D01*
G01X-216408Y57150D01*
G01X-213360Y41656D01*
G01X-207264Y32258D01*
G01X-197866Y29210D01*
G01X-191770Y29210D01*
G01X-182372Y32258D01*
G01X-176276Y41656D01*
G01X-173228Y57150D01*
G01X-173228Y66548D01*
G01X-176276Y81788D01*
G01X-182372Y91186D01*
G01X-191770Y94234D01*
G01X-197866Y94234D01*
G01X-124460Y94234D02*
G01X-133858Y91186D01*
G01X-139954Y81788D01*
G01X-143002Y66548D01*
G01X-143002Y57150D01*
G01X-139954Y41656D01*
G01X-133858Y32258D01*
G01X-124460Y29210D01*
G01X-118364Y29210D01*
G01X-108966Y32258D01*
G01X-102870Y41656D01*
G01X-99822Y57150D01*
G01X-99822Y66548D01*
G01X-102870Y81788D01*
G01X-108966Y91186D01*
G01X-118364Y94234D01*
G01X-124460Y94234D01*
G01X-66548Y78740D02*
G01X-66548Y81788D01*
G01X-63500Y88138D01*
G01X-60452Y91186D01*
G01X-54356Y94234D01*
G01X-41910Y94234D01*
G01X-35560Y91186D01*
G01X-32512Y88138D01*
G01X-29464Y81788D01*
G01X-29464Y75692D01*
G01X-32512Y69596D01*
G01X-38862Y60198D01*
G01X-69596Y29210D01*
G01X-26416Y29210D01*
G01X-1787538Y851375D02*
G01X-1793634Y848327D01*
G01X-1799984Y842231D01*
G01X-1803032Y835881D01*
G01X-1806080Y826737D01*
G01X-1806080Y811243D01*
G01X-1803032Y801845D01*
G01X-1799984Y795749D01*
G01X-1793634Y789399D01*
G01X-1787538Y786351D01*
G01X-1775092Y786351D01*
G01X-1768996Y789399D01*
G01X-1762646Y795749D01*
G01X-1759598Y801845D01*
G01X-1756550Y811243D01*
G01X-1756550Y826737D01*
G01X-1759598Y835881D01*
G01X-1762646Y842231D01*
G01X-1768996Y848327D01*
G01X-1775092Y851375D01*
G01X-1787538Y851375D01*
G01X-1778140Y798797D02*
G01X-1759598Y780255D01*
G01X-1695590Y851375D02*
G01X-1726324Y808195D01*
G01X-1680096Y808195D01*
G01X-1695590Y851375D02*
G01X-1695590Y786351D01*
G01X-2057146Y504190D02*
G01X-2063496Y510286D01*
G01X-2072640Y513334D01*
G01X-2085086Y513334D01*
G01X-2094484Y510286D01*
G01X-2100580Y504190D01*
G01X-2100580Y497840D01*
G01X-2097532Y491744D01*
G01X-2094484Y488696D01*
G01X-2088134Y485648D01*
G01X-2069592Y479298D01*
G01X-2063496Y476250D01*
G01X-2060448Y473202D01*
G01X-2057146Y466852D01*
G01X-2057146Y457708D01*
G01X-2063496Y451358D01*
G01X-2072640Y448310D01*
G01X-2085086Y448310D01*
G01X-2094484Y451358D01*
G01X-2100580Y457708D01*
G01X-2011680Y513334D02*
G01X-2020824Y510286D01*
G01X-2023872Y504190D01*
G01X-2023872Y497840D01*
G01X-2020824Y491744D01*
G01X-2014728Y488696D01*
G01X-2002282Y485648D01*
G01X-1992884Y482346D01*
G01X-1986788Y476250D01*
G01X-1983740Y470154D01*
G01X-1983740Y460756D01*
G01X-1986788Y454660D01*
G01X-1989836Y451358D01*
G01X-1999234Y448310D01*
G01X-2011680Y448310D01*
G01X-2020824Y451358D01*
G01X-2023872Y454660D01*
G01X-2026920Y460756D01*
G01X-2026920Y470154D01*
G01X-2023872Y476250D01*
G01X-2017776Y482346D01*
G01X-2008378Y485648D01*
G01X-1996186Y488696D01*
G01X-1989836Y491744D01*
G01X-1986788Y497840D01*
G01X-1986788Y504190D01*
G01X-1989836Y510286D01*
G01X-1999234Y513334D01*
G01X-2011680Y513334D01*
G01X-1916430Y513334D02*
G01X-1947418Y513334D01*
G01X-1950466Y485648D01*
G01X-1947418Y488696D01*
G01X-1938274Y491744D01*
G01X-1928876Y491744D01*
G01X-1919478Y488696D01*
G01X-1913382Y482346D01*
G01X-1910334Y473202D01*
G01X-1910334Y466852D01*
G01X-1913382Y457708D01*
G01X-1919478Y451358D01*
G01X-1928876Y448310D01*
G01X-1938274Y448310D01*
G01X-1947418Y451358D01*
G01X-1950466Y454660D01*
G01X-1953514Y460756D01*
G01X-1843024Y513334D02*
G01X-1874012Y513334D01*
G01X-1877060Y485648D01*
G01X-1874012Y488696D01*
G01X-1864868Y491744D01*
G01X-1855470Y491744D01*
G01X-1846072Y488696D01*
G01X-1839976Y482346D01*
G01X-1836928Y473202D01*
G01X-1836928Y466852D01*
G01X-1839976Y457708D01*
G01X-1846072Y451358D01*
G01X-1855470Y448310D01*
G01X-1864868Y448310D01*
G01X-1874012Y451358D01*
G01X-1877060Y454660D01*
G01X-1880108Y460756D01*
G01X-1788160Y513334D02*
G01X-1797558Y510286D01*
G01X-1803654Y500888D01*
G01X-1806702Y485648D01*
G01X-1806702Y476250D01*
G01X-1803654Y460756D01*
G01X-1797558Y451358D01*
G01X-1788160Y448310D01*
G01X-1782064Y448310D01*
G01X-1772666Y451358D01*
G01X-1766570Y460756D01*
G01X-1763522Y476250D01*
G01X-1763522Y485648D01*
G01X-1766570Y500888D01*
G01X-1772666Y510286D01*
G01X-1782064Y513334D01*
G01X-1788160Y513334D01*
G01X-1021080Y2215134D02*
G01X-1021080Y2150110D01*
G01X-1021080Y2215134D02*
G01X-993140Y2215134D01*
G01X-983996Y2212086D01*
G01X-980948Y2209038D01*
G01X-977646Y2202688D01*
G01X-977646Y2196592D01*
G01X-980948Y2190496D01*
G01X-983996Y2187448D01*
G01X-993140Y2184146D01*
G01X-1021080Y2184146D01*
G01X-999490Y2184146D02*
G01X-977646Y2150110D01*
G01X-916686Y2215134D02*
G01X-947420Y2171954D01*
G01X-901192Y2171954D01*
G01X-916686Y2215134D02*
G01X-916686Y2150110D01*
G01X-830580Y2202688D02*
G01X-824484Y2205990D01*
G01X-815086Y2215134D01*
G01X-815086Y2150110D01*
G01X-784860Y2215134D02*
G01X-784860Y2150110D01*
G01X-754126Y2193544D02*
G01X-784860Y2162556D01*
G01X-772668Y2175002D02*
G01X-750824Y2150110D01*
G01X-720598Y2150110D02*
G01X-699008Y2150110D01*
G01X-705358Y2159508D01*
G01X-711454Y2168652D01*
G01X-714502Y2178050D01*
G01X-714502Y2187448D01*
G01X-711454Y2196592D01*
G01X-708406Y2202688D01*
G01X-702056Y2209038D01*
G01X-695960Y2212086D01*
G01X-683514Y2212086D01*
G01X-677418Y2209038D01*
G01X-671068Y2202688D01*
G01X-668020Y2196592D01*
G01X-664972Y2187448D01*
G01X-664972Y2178050D01*
G01X-668020Y2168652D01*
G01X-674370Y2159508D01*
G01X-680466Y2150110D01*
G01X-658876Y2150110D01*
G01X-1781063Y14387D02*
G01X-1716039Y14387D01*
G01X-1781063Y14387D02*
G01X-1781063Y42327D01*
G01X-1778015Y51471D01*
G01X-1774967Y54519D01*
G01X-1768617Y57821D01*
G01X-1762521Y57821D01*
G01X-1756425Y54519D01*
G01X-1753377Y51471D01*
G01X-1750075Y42327D01*
G01X-1750075Y14387D01*
G01X-1750075Y35977D02*
G01X-1716039Y57821D01*
G01X-1781063Y131227D02*
G01X-1716039Y100239D01*
G01X-1781063Y88047D02*
G01X-1781063Y131227D01*
G01X-1767332Y-60960D02*
G01X-1767332Y-57912D01*
G01X-1764284Y-51562D01*
G01X-1760982Y-48514D01*
G01X-1754886Y-45466D01*
G01X-1742440Y-45466D01*
G01X-1736344Y-48514D01*
G01X-1733296Y-51562D01*
G01X-1730248Y-57912D01*
G01X-1730248Y-64008D01*
G01X-1733296Y-70104D01*
G01X-1739392Y-79502D01*
G01X-1770380Y-110490D01*
G01X-1726946Y-110490D01*
G01X-1693672Y-94996D02*
G01X-1696720Y-98044D01*
G01X-1693672Y-101092D01*
G01X-1690624Y-98044D01*
G01X-1693672Y-94996D01*
G01X-1657350Y-60960D02*
G01X-1657350Y-57912D01*
G01X-1654302Y-51562D01*
G01X-1651254Y-48514D01*
G01X-1645158Y-45466D01*
G01X-1632712Y-45466D01*
G01X-1626362Y-48514D01*
G01X-1623314Y-51562D01*
G01X-1620266Y-57912D01*
G01X-1620266Y-64008D01*
G01X-1623314Y-70104D01*
G01X-1629664Y-79502D01*
G01X-1660398Y-110490D01*
G01X-1617218Y-110490D01*
G01X-1586992Y-45466D02*
G01X-1586992Y-110490D01*
G01X-1556258Y-67056D02*
G01X-1586992Y-98044D01*
G01X-1574800Y-85598D02*
G01X-1552956Y-110490D01*
G01X-1522730Y-110490D02*
G01X-1501140Y-110490D01*
G01X-1507490Y-101092D01*
G01X-1513586Y-91948D01*
G01X-1516634Y-82550D01*
G01X-1516634Y-73152D01*
G01X-1513586Y-64008D01*
G01X-1510538Y-57912D01*
G01X-1504188Y-51562D01*
G01X-1498092Y-48514D01*
G01X-1485646Y-48514D01*
G01X-1479550Y-51562D01*
G01X-1473200Y-57912D01*
G01X-1470152Y-64008D01*
G01X-1467104Y-73152D01*
G01X-1467104Y-82550D01*
G01X-1470152Y-91948D01*
G01X-1476502Y-101092D01*
G01X-1482598Y-110490D01*
G01X-1461008Y-110490D01*
G01X-1325880Y894334D02*
G01X-1325880Y829310D01*
G01X-1325880Y894334D02*
G01X-1297940Y894334D01*
G01X-1288796Y891286D01*
G01X-1285748Y888238D01*
G01X-1282446Y881888D01*
G01X-1282446Y875792D01*
G01X-1285748Y869696D01*
G01X-1288796Y866648D01*
G01X-1297940Y863346D01*
G01X-1325880Y863346D01*
G01X-1304290Y863346D02*
G01X-1282446Y829310D01*
G01X-1236980Y894334D02*
G01X-1246124Y891286D01*
G01X-1249172Y885190D01*
G01X-1249172Y878840D01*
G01X-1246124Y872744D01*
G01X-1240028Y869696D01*
G01X-1227582Y866648D01*
G01X-1218184Y863346D01*
G01X-1212088Y857250D01*
G01X-1209040Y851154D01*
G01X-1209040Y841756D01*
G01X-1212088Y835660D01*
G01X-1215136Y832358D01*
G01X-1224534Y829310D01*
G01X-1236980Y829310D01*
G01X-1246124Y832358D01*
G01X-1249172Y835660D01*
G01X-1252220Y841756D01*
G01X-1252220Y851154D01*
G01X-1249172Y857250D01*
G01X-1243076Y863346D01*
G01X-1233678Y866648D01*
G01X-1221486Y869696D01*
G01X-1215136Y872744D01*
G01X-1212088Y878840D01*
G01X-1212088Y885190D01*
G01X-1215136Y891286D01*
G01X-1224534Y894334D01*
G01X-1236980Y894334D01*
G01X-1402080Y348488D02*
G01X-1395984Y351790D01*
G01X-1386586Y360934D01*
G01X-1386586Y295910D01*
G01X-1337818Y360934D02*
G01X-1347216Y357886D01*
G01X-1353312Y348488D01*
G01X-1356360Y333248D01*
G01X-1356360Y323850D01*
G01X-1353312Y308356D01*
G01X-1347216Y298958D01*
G01X-1337818Y295910D01*
G01X-1331722Y295910D01*
G01X-1322324Y298958D01*
G01X-1316228Y308356D01*
G01X-1313180Y323850D01*
G01X-1313180Y333248D01*
G01X-1316228Y348488D01*
G01X-1322324Y357886D01*
G01X-1331722Y360934D01*
G01X-1337818Y360934D01*
G01X-1264412Y360934D02*
G01X-1273810Y357886D01*
G01X-1279906Y348488D01*
G01X-1282954Y333248D01*
G01X-1282954Y323850D01*
G01X-1279906Y308356D01*
G01X-1273810Y298958D01*
G01X-1264412Y295910D01*
G01X-1258316Y295910D01*
G01X-1248918Y298958D01*
G01X-1242822Y308356D01*
G01X-1239774Y323850D01*
G01X-1239774Y333248D01*
G01X-1242822Y348488D01*
G01X-1248918Y357886D01*
G01X-1258316Y360934D01*
G01X-1264412Y360934D01*
G01X-1209548Y360934D02*
G01X-1209548Y295910D01*
G01X-1178814Y339344D02*
G01X-1209548Y308356D01*
G01X-1197356Y320802D02*
G01X-1175512Y295910D01*
G01X-1145286Y295910D02*
G01X-1123696Y295910D01*
G01X-1130046Y305308D01*
G01X-1136142Y314452D01*
G01X-1139190Y323850D01*
G01X-1139190Y333248D01*
G01X-1136142Y342392D01*
G01X-1133094Y348488D01*
G01X-1126744Y354838D01*
G01X-1120648Y357886D01*
G01X-1108202Y357886D01*
G01X-1102106Y354838D01*
G01X-1095756Y348488D01*
G01X-1092708Y342392D01*
G01X-1089660Y333248D01*
G01X-1089660Y323850D01*
G01X-1092708Y314452D01*
G01X-1099058Y305308D01*
G01X-1105154Y295910D01*
G01X-1083564Y295910D01*
G01X123937Y90587D02*
G01X188961Y90587D01*
G01X123937Y90587D02*
G01X123937Y118527D01*
G01X126985Y127671D01*
G01X130033Y130719D01*
G01X136383Y134021D01*
G01X142479Y134021D01*
G01X148575Y130719D01*
G01X151623Y127671D01*
G01X154925Y118527D01*
G01X154925Y90587D01*
G01X154925Y112177D02*
G01X188961Y134021D01*
G01X145527Y204379D02*
G01X154925Y201331D01*
G01X161021Y194981D01*
G01X164069Y185837D01*
G01X164069Y182789D01*
G01X161021Y173391D01*
G01X154925Y167295D01*
G01X145527Y164247D01*
G01X142479Y164247D01*
G01X133081Y167295D01*
G01X126985Y173391D01*
G01X123937Y182789D01*
G01X123937Y185837D01*
G01X126985Y194981D01*
G01X133081Y201331D01*
G01X145527Y204379D01*
G01X161021Y204379D01*
G01X176515Y201331D01*
G01X185913Y194981D01*
G01X188961Y185837D01*
G01X188961Y179487D01*
G01X185913Y170343D01*
G01X179563Y167295D01*
G01X185420Y30988D02*
G01X191516Y34290D01*
G01X200914Y43434D01*
G01X200914Y-21590D01*
G01X249682Y43434D02*
G01X240284Y40386D01*
G01X234188Y30988D01*
G01X231140Y15748D01*
G01X231140Y6350D01*
G01X234188Y-9144D01*
G01X240284Y-18542D01*
G01X249682Y-21590D01*
G01X255778Y-21590D01*
G01X265176Y-18542D01*
G01X271272Y-9144D01*
G01X274320Y6350D01*
G01X274320Y15748D01*
G01X271272Y30988D01*
G01X265176Y40386D01*
G01X255778Y43434D01*
G01X249682Y43434D01*
G01X304546Y43434D02*
G01X304546Y-21590D01*
G01X335280Y21844D02*
G01X304546Y-9144D01*
G01X316738Y3302D02*
G01X338582Y-21590D01*
G01X368808Y-21590D02*
G01X390398Y-21590D01*
G01X384048Y-12192D01*
G01X377952Y-3048D01*
G01X374904Y6350D01*
G01X374904Y15748D01*
G01X377952Y24892D01*
G01X381000Y30988D01*
G01X387350Y37338D01*
G01X393446Y40386D01*
G01X405892Y40386D01*
G01X411988Y37338D01*
G01X418338Y30988D01*
G01X421386Y24892D01*
G01X424434Y15748D01*
G01X424434Y6350D01*
G01X421386Y-3048D01*
G01X415036Y-12192D01*
G01X408940Y-21590D01*
G01X430530Y-21590D01*
G01X816102Y1285240D02*
G01X813054Y1291590D01*
G01X806704Y1297686D01*
G01X800608Y1300734D01*
G01X788162Y1300734D01*
G01X782066Y1297686D01*
G01X775716Y1291590D01*
G01X772668Y1285240D01*
G01X769620Y1276096D01*
G01X769620Y1260602D01*
G01X772668Y1251204D01*
G01X775716Y1245108D01*
G01X782066Y1238758D01*
G01X788162Y1235710D01*
G01X800608Y1235710D01*
G01X806704Y1238758D01*
G01X813054Y1245108D01*
G01X816102Y1251204D01*
G01X852424Y1300734D02*
G01X886460Y1300734D01*
G01X867918Y1276096D01*
G01X877062Y1276096D01*
G01X883412Y1273048D01*
G01X886460Y1269746D01*
G01X889508Y1260602D01*
G01X889508Y1254252D01*
G01X886460Y1245108D01*
G01X880364Y1238758D01*
G01X870966Y1235710D01*
G01X861568Y1235710D01*
G01X852424Y1238758D01*
G01X849376Y1242060D01*
G01X846328Y1248156D01*
G01X769620Y716788D02*
G01X775716Y720090D01*
G01X785114Y729234D01*
G01X785114Y664210D01*
G01X833882Y729234D02*
G01X824484Y726186D01*
G01X818388Y716788D01*
G01X815340Y701548D01*
G01X815340Y692150D01*
G01X818388Y676656D01*
G01X824484Y667258D01*
G01X833882Y664210D01*
G01X839978Y664210D01*
G01X849376Y667258D01*
G01X855472Y676656D01*
G01X858520Y692150D01*
G01X858520Y701548D01*
G01X855472Y716788D01*
G01X849376Y726186D01*
G01X839978Y729234D01*
G01X833882Y729234D01*
G01X907288Y729234D02*
G01X897890Y726186D01*
G01X891794Y716788D01*
G01X888746Y701548D01*
G01X888746Y692150D01*
G01X891794Y676656D01*
G01X897890Y667258D01*
G01X907288Y664210D01*
G01X913384Y664210D01*
G01X922782Y667258D01*
G01X928878Y676656D01*
G01X931926Y692150D01*
G01X931926Y701548D01*
G01X928878Y716788D01*
G01X922782Y726186D01*
G01X913384Y729234D01*
G01X907288Y729234D01*
G01X962152Y707644D02*
G01X962152Y664210D01*
G01X962152Y695198D02*
G01X971296Y704596D01*
G01X977392Y707644D01*
G01X986790Y707644D01*
G01X992886Y704596D01*
G01X996188Y695198D01*
G01X996188Y664210D01*
G01X1026414Y729234D02*
G01X1026414Y664210D01*
G01X1026414Y729234D02*
G01X1066546Y729234D01*
G01X1026414Y698246D02*
G01X1051052Y698246D01*
G04 Text End*

G04 PolygonModel Start*
G54D11*
G01X-4305300Y342596D02*
G01X-3060700Y342596D01*
G01X-4305300Y-123875D02*
G01X-4305300Y498425D01*
G01X-4305300Y498425D02*
G01X-3060700Y498425D01*
G01X-3060700Y498425D02*
G01X-3060700Y-123875D01*
G01X-3060700Y-123875D02*
G01X-4305300Y-123875D01*
G54D10*
G01X-3508520Y-544436D02*
G01X-3367519Y-544436D01*
G01X-3367519Y-363715D02*
G01X-3508520Y-363715D01*
G01X-3523760Y-378955D02*
G01X-3523760Y-529196D01*
G01X-3146280Y-544436D02*
G01X-3287281Y-544436D01*
G01X-3287281Y-363715D02*
G01X-3146280Y-363715D01*
G01X-3131040Y-378955D02*
G01X-3131040Y-529196D01*
G01X-3508520Y-363715D02*
G03X-3523760Y-378955I0J-15240D01*
G01X-3523760Y-529196D02*
G03X-3508520Y-544436I15240J0D01*
G01X-3146280Y-363715D02*
G02X-3131040Y-378955I0J-15240D01*
G01X-3131040Y-529196D02*
G02X-3146280Y-544436I-15240J0D01*
G01X-187180Y1055561D02*
G01X-328181Y1055561D01*
G01X-328181Y874840D02*
G01X-187180Y874840D01*
G01X-171940Y890080D02*
G01X-171940Y1040321D01*
G01X-549420Y1055561D02*
G01X-408419Y1055561D01*
G01X-408419Y874840D02*
G01X-549420Y874840D01*
G01X-564660Y890080D02*
G01X-564660Y1040321D01*
G01X-187180Y874840D02*
G03X-171940Y890080I0J15240D01*
G01X-171940Y1040321D02*
G03X-187180Y1055561I-15240J0D01*
G01X-549420Y874840D02*
G02X-564660Y890080I0J15240D01*
G01X-564660Y1040321D02*
G02X-549420Y1055561I15240J0D01*
G54D11*
G01X-604403Y1684724D02*
G01X-1097397Y1684724D01*
G01X-604403Y1684724D02*
G01X-604403Y1049724D01*
G01X-1097397Y1565052D02*
G01X-604403Y1565052D01*
G01X-1097397Y1049724D02*
G01X-604403Y1049724D01*
G01X-1097397Y1049724D02*
G01X-1097397Y1684724D01*
G54D10*
G01X-15730Y2006821D02*
G01X-187470Y2006821D01*
G01X-187470Y2006821D02*
G01X-187470Y1903659D01*
G01X-15730Y1701579D02*
G01X-187470Y1701579D01*
G01X-187470Y1701579D02*
G01X-187470Y1804741D01*
G01X-15730Y1899740D02*
G01X-15730Y1808660D01*
G01X-790580Y394016D02*
G01X-662087Y394016D01*
G01X-662087Y394016D02*
G01X-662087Y577434D01*
G01X-662087Y577434D02*
G01X-790580Y577434D01*
G01X-885820Y394016D02*
G01X-1014313Y394016D01*
G01X-1014313Y394016D02*
G01X-1014313Y577434D01*
G01X-1014313Y577434D02*
G01X-885820Y577434D01*
G01X-790580Y13016D02*
G01X-662087Y13016D01*
G01X-662087Y13016D02*
G01X-662087Y196434D01*
G01X-662087Y196434D02*
G01X-790580Y196434D01*
G01X-885820Y13016D02*
G01X-1014313Y13016D01*
G01X-1014313Y13016D02*
G01X-1014313Y196434D01*
G01X-1014313Y196434D02*
G01X-885820Y196434D01*
G01X-498109Y2022480D02*
G01X-498109Y1893987D01*
G01X-498109Y1893987D02*
G01X-314691Y1893987D01*
G01X-314691Y1893987D02*
G01X-314691Y2022480D01*
G01X-498109Y2117720D02*
G01X-498109Y2246213D01*
G01X-498109Y2246213D02*
G01X-314691Y2246213D01*
G01X-314691Y2246213D02*
G01X-314691Y2117720D01*
G01X-162291Y-381055D02*
G01X-162291Y-252562D01*
G01X-162291Y-252562D02*
G01X-345709Y-252562D01*
G01X-345709Y-252562D02*
G01X-345709Y-381055D01*
G01X-162291Y-476295D02*
G01X-162291Y-604788D01*
G01X-162291Y-604788D02*
G01X-345709Y-604788D01*
G01X-345709Y-604788D02*
G01X-345709Y-476295D01*
G01X-4016009Y765180D02*
G01X-4016009Y636687D01*
G01X-4016009Y636687D02*
G01X-3832591Y636687D01*
G01X-3832591Y636687D02*
G01X-3832591Y765180D01*
G01X-4016009Y860420D02*
G01X-4016009Y988913D01*
G01X-4016009Y988913D02*
G01X-3832591Y988913D01*
G01X-3832591Y988913D02*
G01X-3832591Y860420D01*
G54D11*
G01X-2898887Y-1169878D02*
G01X-3959088Y-1169878D01*
G01X-3959088Y-1169878D02*
G01X-3959088Y-690069D01*
G01X-3959088Y-690069D02*
G01X-2898887Y-690069D01*
G01X-2898887Y-690069D02*
G01X-2898887Y-1169370D01*
G01X-2898887Y-1169370D02*
G01X-2898887Y-1169878D01*
G01X-3958984Y-1109961D02*
G01X-2898991Y-1109961D01*
G54D12*
G01X-3151990Y-627471D02*
G03X-3152117Y-587471I-127J20000D01*
G03X-3152244Y-627471I0J-20000D01*
G54D11*
G01X78600Y1024700D02*
G01X78600Y524701D01*
G01X378600Y1024700D02*
G01X378600Y524701D01*
G01X78600Y1024700D02*
G01X155943Y1024700D01*
G01X378600Y1024700D02*
G01X301229Y1024700D01*
G01X378600Y524701D02*
G01X78600Y524701D01*
G01X155943Y1024700D02*
G03X301229Y1024209I72657J3980D01*
G54D10*
G01X-2037791Y-479270D02*
G01X-2037791Y-206530D01*
G01X-1895950Y-206527D02*
G01X-2362784Y-206527D01*
G01X-1893700Y-479268D02*
G01X-2362187Y-477520D01*
G01X-2362190Y-206527D02*
G01X-2362190Y-241577D01*
G01X-2362190Y-469897D02*
G01X-2362190Y-434848D01*
G36*
G01X-1930527Y-486888D02*
G01X-1930527Y-439138D01*
G01X-1884807Y-439138D01*
G01X-1884807Y-486888D01*
G01X-1930527Y-486888D01*
G37*
G36*
G01X-1931797Y-198907D02*
G01X-1886077Y-198907D01*
G01X-1886077Y-246657D01*
G01X-1931797Y-246657D01*
G01X-1931797Y-198907D01*
G37*
G01X-15730Y1524221D02*
G01X-187470Y1524221D01*
G01X-187470Y1524221D02*
G01X-187470Y1421059D01*
G01X-15730Y1218979D02*
G01X-187470Y1218979D01*
G01X-187470Y1218979D02*
G01X-187470Y1322141D01*
G01X-15730Y1417140D02*
G01X-15730Y1326060D01*
G01X-142730Y457421D02*
G01X-314470Y457421D01*
G01X-314470Y457421D02*
G01X-314470Y354259D01*
G01X-142730Y152179D02*
G01X-314470Y152179D01*
G01X-314470Y152179D02*
G01X-314470Y255341D01*
G01X-142730Y350340D02*
G01X-142730Y259260D01*
G01X-1591079Y736821D02*
G01X-1736321Y736821D01*
G01X-1736321Y736821D02*
G01X-1736321Y633659D01*
G01X-1591079Y431579D02*
G01X-1736321Y431579D01*
G01X-1736321Y431579D02*
G01X-1736321Y534741D01*
G01X-1591079Y629740D02*
G01X-1591079Y538660D01*
G01X-888772Y2096135D02*
G01X-1017265Y2096135D01*
G01X-1017265Y2096135D02*
G01X-1017265Y1912717D01*
G01X-1017265Y1912717D02*
G01X-888772Y1912717D01*
G01X-793532Y2096135D02*
G01X-665038Y2096135D01*
G01X-665038Y2096135D02*
G01X-665038Y1912717D01*
G01X-665038Y1912717D02*
G01X-793532Y1912717D01*
G01X-1483091Y238120D02*
G01X-1483091Y366613D01*
G01X-1483091Y366613D02*
G01X-1666509Y366613D01*
G01X-1666509Y366613D02*
G01X-1666509Y238120D01*
G01X-1483091Y142880D02*
G01X-1483091Y14387D01*
G01X-1483091Y14387D02*
G01X-1666509Y14387D01*
G01X-1666509Y14387D02*
G01X-1666509Y142880D01*
G01X-1178291Y631820D02*
G01X-1178291Y760313D01*
G01X-1178291Y760313D02*
G01X-1361709Y760313D01*
G01X-1361709Y760313D02*
G01X-1361709Y631820D01*
G01X-1178291Y536580D02*
G01X-1178291Y408087D01*
G01X-1178291Y408087D02*
G01X-1361709Y408087D01*
G01X-1361709Y408087D02*
G01X-1361709Y536580D01*
G01X421909Y314320D02*
G01X421909Y442813D01*
G01X421909Y442813D02*
G01X238491Y442813D01*
G01X238491Y442813D02*
G01X238491Y314320D01*
G01X421909Y219080D02*
G01X421909Y90587D01*
G01X421909Y90587D02*
G01X238491Y90587D01*
G01X238491Y90587D02*
G01X238491Y219080D01*
G54D11*
G01X1409700Y332552D02*
G01X1409700Y1092200D01*
G01X1409700Y1092200D02*
G01X1663700Y1092200D01*
G01X1663700Y1092200D02*
G01X1663700Y76200D01*
G01X1663700Y76200D02*
G01X1409700Y76200D01*
G01X1409700Y76200D02*
G01X1409700Y332552D01*
G01X1409700Y332552D02*
G01X1663700Y332552D01*
G54D10*
G01X953961Y796780D02*
G01X953961Y937781D01*
G01X773240Y937781D02*
G01X773240Y796780D01*
G01X788480Y781540D02*
G01X938721Y781540D01*
G01X953961Y1159020D02*
G01X953961Y1018019D01*
G01X773240Y1018019D02*
G01X773240Y1159020D01*
G01X788480Y1174260D02*
G01X938721Y1174260D01*
G01X773240Y796780D02*
G03X788480Y781540I15240J0D01*
G01X938721Y781540D02*
G03X953961Y796780I0J15240D01*
G01X773240Y1159020D02*
G02X788480Y1174260I15240J0D01*
G01X938721Y1174260D02*
G02X953961Y1159020I0J-15240D01*

G04 Circle Start*
G54D13*
G01X111989Y952500D02*
G03X142011Y952500I15011J0D01*
G03X111989Y952500I-15011J0D01*
G04 Circle End*

M02*

