G04 Layer: BottomSilkscreenLayer*
G04 EasyEDA Pro v3.2.148, 2026-08-14 16:50:30*
G04 Gerber Generator version 0.3*
G04 Scale: 100 percent, Rotated: No, Reflected: No*
G04 Dimensions in millimeters*
G04 Leading zeros omitted, absolute positions, 4 integers and 5 decimals*
G04 Generated by one-click*
G04 Object Configs: Pad,Via,Track,Text,Image,Dimension,BoardOutline,BoardCutout,CopperFilled,SolidRegion,FPCStiffener,Line,PlaneZone,ComponentProperty,ComponentSilkscreen,TearDrop*
G04 Layer Configs: 1,2,3,4,5,6,7,8,9,10,11,13,14,56*
G04 Copper Areas: 0*
%FSLAX45Y45*%
%MOMM*%
%ADD10C,0.203*%
%ADD11C,0.254*%
%ADD12C,0.4821*%
G75*


G04 Text Start*
G54D10*
G01X-2900680Y855980D02*
G01X-2829560Y669290D01*
G01X-2900680Y855980D02*
G01X-2971800Y669290D01*
G01X-2856230Y731520D02*
G01X-2945130Y731520D01*
G01X-3034792Y855980D02*
G01X-3034792Y669290D01*
G01X-3204464Y793750D02*
G01X-3204464Y669290D01*
G01X-3204464Y767080D02*
G01X-3186684Y784860D01*
G01X-3168904Y793750D01*
G01X-3142234Y793750D01*
G01X-3124454Y784860D01*
G01X-3106674Y767080D01*
G01X-3097784Y740410D01*
G01X-3097784Y722630D01*
G01X-3106674Y695960D01*
G01X-3124454Y678180D01*
G01X-3142234Y669290D01*
G01X-3168904Y669290D01*
G01X-3186684Y678180D01*
G01X-3204464Y695960D01*
G01X-3267456Y793750D02*
G01X-3267456Y669290D01*
G01X-3267456Y740410D02*
G01X-3276346Y767080D01*
G01X-3294126Y784860D01*
G01X-3311906Y793750D01*
G01X-3338576Y793750D01*
G01X-3401568Y793750D02*
G01X-3401568Y669290D01*
G01X-3401568Y758190D02*
G01X-3428238Y784860D01*
G01X-3446018Y793750D01*
G01X-3472688Y793750D01*
G01X-3490468Y784860D01*
G01X-3499358Y758190D01*
G01X-3499358Y669290D01*
G01X-3499358Y758190D02*
G01X-3526028Y784860D01*
G01X-3543808Y793750D01*
G01X-3570478Y793750D01*
G01X-3588258Y784860D01*
G01X-3597148Y758190D01*
G01X-3597148Y669290D01*
G01X-480060Y-1210995D02*
G01X-480060Y-1397685D01*
G01X-480060Y-1210995D02*
G01X-551180Y-1397685D01*
G01X-622300Y-1210995D02*
G01X-551180Y-1397685D01*
G01X-622300Y-1210995D02*
G01X-622300Y-1397685D01*
G01X-685292Y-1273225D02*
G01X-685292Y-1362125D01*
G01X-694182Y-1388795D01*
G01X-711962Y-1397685D01*
G01X-738632Y-1397685D01*
G01X-756412Y-1388795D01*
G01X-783082Y-1362125D01*
G01X-783082Y-1273225D02*
G01X-783082Y-1397685D01*
G01X-872744Y-1210995D02*
G01X-872744Y-1362125D01*
G01X-881634Y-1388795D01*
G01X-899414Y-1397685D01*
G01X-917194Y-1397685D01*
G01X-846074Y-1273225D02*
G01X-908304Y-1273225D01*
G01X-980186Y-1326565D02*
G01X-1086866Y-1326565D01*
G01X-1086866Y-1308785D01*
G01X-1077976Y-1291005D01*
G01X-1069086Y-1282115D01*
G01X-1051306Y-1273225D01*
G01X-1024636Y-1273225D01*
G01X-1006856Y-1282115D01*
G01X-989076Y-1299895D01*
G01X-980186Y-1326565D01*
G01X-980186Y-1344345D01*
G01X-989076Y-1371015D01*
G01X-1006856Y-1388795D01*
G01X-1024636Y-1397685D01*
G01X-1051306Y-1397685D01*
G01X-1069086Y-1388795D01*
G01X-1086866Y-1371015D01*
G01X1831340Y1557605D02*
G01X1831340Y1370915D01*
G01X1831340Y1557605D02*
G01X1751330Y1557605D01*
G01X1724660Y1548715D01*
G01X1715770Y1539825D01*
G01X1706880Y1522045D01*
G01X1706880Y1495375D01*
G01X1715770Y1477595D01*
G01X1724660Y1468705D01*
G01X1751330Y1459815D01*
G01X1831340Y1459815D01*
G01X1599438Y1495375D02*
G01X1617218Y1486485D01*
G01X1634998Y1468705D01*
G01X1643888Y1442035D01*
G01X1643888Y1424255D01*
G01X1634998Y1397585D01*
G01X1617218Y1379805D01*
G01X1599438Y1370915D01*
G01X1572768Y1370915D01*
G01X1554988Y1379805D01*
G01X1537208Y1397585D01*
G01X1528318Y1424255D01*
G01X1528318Y1442035D01*
G01X1537208Y1468705D01*
G01X1554988Y1486485D01*
G01X1572768Y1495375D01*
G01X1599438Y1495375D01*
G01X1465326Y1495375D02*
G01X1429766Y1370915D01*
G01X1394206Y1495375D02*
G01X1429766Y1370915D01*
G01X1394206Y1495375D02*
G01X1358646Y1370915D01*
G01X1323086Y1495375D02*
G01X1358646Y1370915D01*
G01X1260094Y1442035D02*
G01X1153414Y1442035D01*
G01X1153414Y1459815D01*
G01X1162304Y1477595D01*
G01X1171194Y1486485D01*
G01X1188974Y1495375D01*
G01X1215644Y1495375D01*
G01X1233424Y1486485D01*
G01X1251204Y1468705D01*
G01X1260094Y1442035D01*
G01X1260094Y1424255D01*
G01X1251204Y1397585D01*
G01X1233424Y1379805D01*
G01X1215644Y1370915D01*
G01X1188974Y1370915D01*
G01X1171194Y1379805D01*
G01X1153414Y1397585D01*
G01X1090422Y1495375D02*
G01X1090422Y1370915D01*
G01X1090422Y1442035D02*
G01X1081532Y1468705D01*
G01X1063752Y1486485D01*
G01X1045972Y1495375D01*
G01X1019302Y1495375D01*
G04 Text End*

G04 PolygonModel Start*
G54D11*
G01X-1010100Y-2151074D02*
G01X-539300Y-2151074D01*
G01X-539300Y-1551076D02*
G01X-1010100Y-1551076D01*
G01X-1074699Y-1736384D02*
G01X-1074699Y-1965766D01*
G01X-474701Y-1965766D02*
G01X-474701Y-1736384D01*
G01X1162403Y2128925D02*
G01X1162403Y1788925D01*
G01X1536700Y2162125D02*
G01X1308100Y2162125D01*
G01X1384300Y2238325D02*
G01X1384300Y2085925D01*
G01X1383668Y2162125D02*
G01X1384300Y2162125D01*
G01X1384300Y2162125D02*
G01X1460500Y2238325D01*
G01X1460500Y2238325D02*
G01X1460500Y2085925D01*
G01X1460500Y2085925D02*
G01X1460340Y2085925D01*
G01X1460340Y2085925D02*
G01X1384140Y2162125D01*
G01X1162304Y1788999D02*
G03X1162304Y2128851I260152J169926D01*
G01X-3828697Y2128925D02*
G01X-3828697Y1788925D01*
G01X-3454400Y2162125D02*
G01X-3683000Y2162125D01*
G01X-3606800Y2238325D02*
G01X-3606800Y2085925D01*
G01X-3607432Y2162125D02*
G01X-3606800Y2162125D01*
G01X-3606800Y2162125D02*
G01X-3530600Y2238325D01*
G01X-3530600Y2238325D02*
G01X-3530600Y2085925D01*
G01X-3530600Y2085925D02*
G01X-3530760Y2085925D01*
G01X-3530760Y2085925D02*
G01X-3606960Y2162125D01*
G01X-3828796Y1788999D02*
G03X-3828796Y2128851I260152J169926D01*
G01X-3156668Y2128925D02*
G01X-3156668Y1788925D01*
G01X-2782371Y2162125D02*
G01X-3010971Y2162125D01*
G01X-2934771Y2238325D02*
G01X-2934771Y2085925D01*
G01X-2935403Y2162125D02*
G01X-2934771Y2162125D01*
G01X-2934771Y2162125D02*
G01X-2858571Y2238325D01*
G01X-2858571Y2238325D02*
G01X-2858571Y2085925D01*
G01X-2858571Y2085925D02*
G01X-2858731Y2085925D01*
G01X-2858731Y2085925D02*
G01X-2934931Y2162125D01*
G01X-3156767Y1788999D02*
G03X-3156767Y2128851I260152J169926D01*
G01X-2653719Y1111856D02*
G01X-2653719Y1451855D01*
G01X-3028016Y1078656D02*
G01X-2799416Y1078656D01*
G01X-2875616Y1002456D02*
G01X-2875616Y1154856D01*
G01X-2874983Y1078656D02*
G01X-2875616Y1078656D01*
G01X-2875616Y1078656D02*
G01X-2951816Y1002456D01*
G01X-2951816Y1002456D02*
G01X-2951816Y1154856D01*
G01X-2951816Y1154856D02*
G01X-2951656Y1154856D01*
G01X-2951656Y1154856D02*
G01X-2875456Y1078656D01*
G01X-2653620Y1451782D02*
G03X-2653620Y1111930I-260152J-169926D01*
G01X-3301419Y1111856D02*
G01X-3301419Y1451855D01*
G01X-3675716Y1078656D02*
G01X-3447116Y1078656D01*
G01X-3523316Y1002456D02*
G01X-3523316Y1154856D01*
G01X-3522683Y1078656D02*
G01X-3523316Y1078656D01*
G01X-3523316Y1078656D02*
G01X-3599516Y1002456D01*
G01X-3599516Y1002456D02*
G01X-3599516Y1154856D01*
G01X-3599516Y1154856D02*
G01X-3599356Y1154856D01*
G01X-3599356Y1154856D02*
G01X-3523156Y1078656D01*
G01X-3301320Y1451782D02*
G03X-3301320Y1111930I-260152J-169926D01*

G04 Circle Start*
G01X-954710Y-1851075D02*
G03X-594690Y-1851075I180010J0D01*
G03X-954710Y-1851075I-180010J0D01*
G01X-984707Y-1671091D02*
G03X-924712Y-1671091I29997J0D01*
G03X-984707Y-1671091I-29997J0D01*
G01X-624688Y-1671065D02*
G03X-564693Y-1671065I29997J0D01*
G03X-624688Y-1671065I-29997J0D01*
G01X-624688Y-2031085D02*
G03X-564693Y-2031085I29997J0D01*
G03X-624688Y-2031085I-29997J0D01*
G01X-984707Y-2031085D02*
G03X-924712Y-2031085I29997J0D01*
G03X-984707Y-2031085I-29997J0D01*
G04 Circle End*

M02*

